<svg width="170" height="64" viewBox="0 0 170 64" fill="none" xmlns="http://www.w3.org/2000/svg">
<rect width="170" height="64" fill="#081933"/>
<path d="M34.2727 33.0173C34.2889 31.7908 34.6226 30.5882 35.2427 29.5214C35.8629 28.4546 36.7494 27.5583 37.8197 26.9158C37.1398 25.9678 36.2428 25.1875 35.1999 24.6371C34.1571 24.0867 32.9972 23.7813 31.8123 23.7451C29.2847 23.4861 26.8344 25.2217 25.5463 25.2217C24.2334 25.2217 22.2503 23.7708 20.1149 23.8137C18.7336 23.8573 17.3875 24.2494 16.2076 24.9519C15.0277 25.6544 14.0543 26.6434 13.3823 27.8223C10.4714 32.7429 12.6427 39.9744 15.4312 43.9518C16.8263 45.8994 18.4569 48.0749 20.5904 47.9978C22.6782 47.9133 23.4579 46.6981 25.978 46.6981C28.4748 46.6981 29.2063 47.9978 31.3832 47.9488C33.6235 47.9133 35.0349 45.9925 36.3812 44.0264C37.3836 42.6387 38.1549 41.1049 38.6667 39.482C37.3651 38.9445 36.2544 38.0449 35.473 36.8953C34.6917 35.7457 34.2742 34.397 34.2727 33.0173Z" fill="white"/>
<path d="M30.1611 21.1295C31.3826 19.6979 31.9844 17.8578 31.8386 16C29.9725 16.1914 28.2486 17.0621 27.0106 18.4388C26.4053 19.1114 25.9417 19.8938 25.6464 20.7413C25.351 21.5889 25.2296 22.485 25.2891 23.3784C26.2226 23.3878 27.146 23.1903 27.9899 22.8007C28.8338 22.4112 29.5761 21.8398 30.1611 21.1295Z" fill="white"/>
<path d="M47.924 26V17.06H50.852C51.78 17.06 52.584 17.248 53.264 17.624C53.952 17.992 54.484 18.512 54.86 19.184C55.236 19.856 55.424 20.636 55.424 21.524C55.424 22.404 55.236 23.184 54.86 23.864C54.484 24.536 53.952 25.06 53.264 25.436C52.584 25.812 51.78 26 50.852 26H47.924ZM49.34 24.74H50.876C51.508 24.74 52.056 24.608 52.52 24.344C52.992 24.08 53.356 23.708 53.612 23.228C53.868 22.748 53.996 22.18 53.996 21.524C53.996 20.868 53.864 20.304 53.6 19.832C53.344 19.352 52.984 18.98 52.52 18.716C52.056 18.452 51.508 18.32 50.876 18.32H49.34V24.74ZM59.8185 26.144C59.1945 26.144 58.6225 25.996 58.1025 25.7C57.5905 25.404 57.1825 25 56.8785 24.488C56.5745 23.976 56.4225 23.396 56.4225 22.748C56.4225 22.092 56.5745 21.512 56.8785 21.008C57.1825 20.496 57.5905 20.096 58.1025 19.808C58.6145 19.512 59.1865 19.364 59.8185 19.364C60.4585 19.364 61.0305 19.512 61.5345 19.808C62.0465 20.096 62.4505 20.496 62.7465 21.008C63.0505 21.512 63.2025 22.092 63.2025 22.748C63.2025 23.404 63.0505 23.988 62.7465 24.5C62.4425 25.012 62.0345 25.416 61.5225 25.712C61.0105 26 60.4425 26.144 59.8185 26.144ZM59.8185 24.884C60.2025 24.884 60.5425 24.792 60.8385 24.608C61.1345 24.424 61.3665 24.172 61.5345 23.852C61.7105 23.524 61.7985 23.156 61.7985 22.748C61.7985 22.34 61.7105 21.976 61.5345 21.656C61.3665 21.336 61.1345 21.084 60.8385 20.9C60.5425 20.716 60.2025 20.624 59.8185 20.624C59.4425 20.624 59.1025 20.716 58.7985 20.9C58.5025 21.084 58.2665 21.336 58.0905 21.656C57.9225 21.976 57.8385 22.34 57.8385 22.748C57.8385 23.156 57.9225 23.524 58.0905 23.852C58.2665 24.172 58.5025 24.424 58.7985 24.608C59.1025 24.792 59.4425 24.884 59.8185 24.884ZM65.9812 26L63.7492 19.508H65.1892L66.8932 24.68H66.3892L68.1292 19.508H69.3652L71.0932 24.68H70.5892L72.3052 19.508H73.7452L71.5012 26H70.2772L68.5252 20.708H68.9692L67.2172 26H65.9812ZM74.6748 26V19.508H75.9708V20.78L75.8148 20.612C75.9748 20.204 76.2308 19.896 76.5828 19.688C76.9348 19.472 77.3428 19.364 77.8068 19.364C78.2868 19.364 78.7108 19.468 79.0788 19.676C79.4468 19.884 79.7348 20.172 79.9428 20.54C80.1508 20.908 80.2548 21.332 80.2548 21.812V26H78.9108V22.172C78.9108 21.844 78.8508 21.568 78.7308 21.344C78.6108 21.112 78.4388 20.936 78.2148 20.816C77.9988 20.688 77.7508 20.624 77.4708 20.624C77.1908 20.624 76.9388 20.688 76.7148 20.816C76.4988 20.936 76.3308 21.112 76.2108 21.344C76.0908 21.576 76.0308 21.852 76.0308 22.172V26H74.6748ZM81.7061 26V16.916H83.0621V26H81.7061ZM87.7795 26.144C87.1555 26.144 86.5835 25.996 86.0635 25.7C85.5515 25.404 85.1435 25 84.8395 24.488C84.5355 23.976 84.3835 23.396 84.3835 22.748C84.3835 22.092 84.5355 21.512 84.8395 21.008C85.1435 20.496 85.5515 20.096 86.0635 19.808C86.5755 19.512 87.1475 19.364 87.7795 19.364C88.4195 19.364 88.9915 19.512 89.4955 19.808C90.0075 20.096 90.4115 20.496 90.7075 21.008C91.0115 21.512 91.1635 22.092 91.1635 22.748C91.1635 23.404 91.0115 23.988 90.7075 24.5C90.4035 25.012 89.9955 25.416 89.4835 25.712C88.9715 26 88.4035 26.144 87.7795 26.144ZM87.7795 24.884C88.1635 24.884 88.5035 24.792 88.7995 24.608C89.0955 24.424 89.3275 24.172 89.4955 23.852C89.6715 23.524 89.7595 23.156 89.7595 22.748C89.7595 22.34 89.6715 21.976 89.4955 21.656C89.3275 21.336 89.0955 21.084 88.7995 20.9C88.5035 20.716 88.1635 20.624 87.7795 20.624C87.4035 20.624 87.0635 20.716 86.7595 20.9C86.4635 21.084 86.2275 21.336 86.0515 21.656C85.8835 21.976 85.7995 22.34 85.7995 22.748C85.7995 23.156 85.8835 23.524 86.0515 23.852C86.2275 24.172 86.4635 24.424 86.7595 24.608C87.0635 24.792 87.4035 24.884 87.7795 24.884ZM94.4313 26.144C93.9913 26.144 93.6033 26.068 93.2673 25.916C92.9393 25.756 92.6833 25.54 92.4993 25.268C92.3153 24.988 92.2233 24.66 92.2233 24.284C92.2233 23.932 92.2993 23.616 92.4513 23.336C92.6113 23.056 92.8553 22.82 93.1833 22.628C93.5113 22.436 93.9233 22.3 94.4193 22.22L96.6753 21.848V22.916L94.6833 23.264C94.3233 23.328 94.0593 23.444 93.8913 23.612C93.7233 23.772 93.6393 23.98 93.6393 24.236C93.6393 24.484 93.7313 24.688 93.9153 24.848C94.1073 25 94.3513 25.076 94.6473 25.076C95.0153 25.076 95.3353 24.996 95.6073 24.836C95.8873 24.676 96.1033 24.464 96.2553 24.2C96.4073 23.928 96.4833 23.628 96.4833 23.3V21.632C96.4833 21.312 96.3633 21.052 96.1233 20.852C95.8913 20.644 95.5793 20.54 95.1873 20.54C94.8273 20.54 94.5113 20.636 94.2393 20.828C93.9753 21.012 93.7793 21.252 93.6513 21.548L92.5233 20.984C92.6433 20.664 92.8393 20.384 93.1113 20.144C93.3833 19.896 93.6993 19.704 94.0593 19.568C94.4273 19.432 94.8153 19.364 95.2233 19.364C95.7353 19.364 96.1873 19.46 96.5793 19.652C96.9793 19.844 97.2873 20.112 97.5033 20.456C97.7273 20.792 97.8393 21.184 97.8393 21.632V26H96.5433V24.824L96.8193 24.86C96.6673 25.124 96.4713 25.352 96.2313 25.544C95.9993 25.736 95.7313 25.884 95.4273 25.988C95.1313 26.092 94.7993 26.144 94.4313 26.144ZM102.425 26.144C101.801 26.144 101.241 25.996 100.745 25.7C100.257 25.396 99.8688 24.988 99.5808 24.476C99.3008 23.964 99.1608 23.388 99.1608 22.748C99.1608 22.108 99.3048 21.532 99.5928 21.02C99.8808 20.508 100.269 20.104 100.757 19.808C101.245 19.512 101.797 19.364 102.413 19.364C102.933 19.364 103.393 19.468 103.793 19.676C104.193 19.884 104.509 20.172 104.741 20.54L104.537 20.852V16.916H105.881V26H104.597V24.68L104.753 24.932C104.529 25.324 104.209 25.624 103.793 25.832C103.377 26.04 102.921 26.144 102.425 26.144ZM102.557 24.884C102.933 24.884 103.269 24.792 103.565 24.608C103.869 24.424 104.105 24.172 104.273 23.852C104.449 23.524 104.537 23.156 104.537 22.748C104.537 22.34 104.449 21.976 104.273 21.656C104.105 21.336 103.869 21.084 103.565 20.9C103.269 20.716 102.933 20.624 102.557 20.624C102.181 20.624 101.841 20.716 101.537 20.9C101.233 21.084 100.997 21.336 100.829 21.656C100.661 21.976 100.577 22.34 100.577 22.748C100.577 23.156 100.661 23.524 100.829 23.852C100.997 24.172 101.229 24.424 101.525 24.608C101.829 24.792 102.173 24.884 102.557 24.884ZM112.694 26.144C112.07 26.144 111.498 25.996 110.978 25.7C110.466 25.404 110.058 25 109.754 24.488C109.45 23.976 109.298 23.396 109.298 22.748C109.298 22.092 109.45 21.512 109.754 21.008C110.058 20.496 110.466 20.096 110.978 19.808C111.49 19.512 112.062 19.364 112.694 19.364C113.334 19.364 113.906 19.512 114.41 19.808C114.922 20.096 115.326 20.496 115.622 21.008C115.926 21.512 116.078 22.092 116.078 22.748C116.078 23.404 115.926 23.988 115.622 24.5C115.318 25.012 114.91 25.416 114.398 25.712C113.886 26 113.318 26.144 112.694 26.144ZM112.694 24.884C113.078 24.884 113.418 24.792 113.714 24.608C114.01 24.424 114.242 24.172 114.41 23.852C114.586 23.524 114.674 23.156 114.674 22.748C114.674 22.34 114.586 21.976 114.41 21.656C114.242 21.336 114.01 21.084 113.714 20.9C113.418 20.716 113.078 20.624 112.694 20.624C112.318 20.624 111.978 20.716 111.674 20.9C111.378 21.084 111.142 21.336 110.966 21.656C110.798 21.976 110.714 22.34 110.714 22.748C110.714 23.156 110.798 23.524 110.966 23.852C111.142 24.172 111.378 24.424 111.674 24.608C111.978 24.792 112.318 24.884 112.694 24.884ZM117.401 26V19.508H118.697V20.78L118.541 20.612C118.701 20.204 118.957 19.896 119.309 19.688C119.661 19.472 120.069 19.364 120.533 19.364C121.013 19.364 121.437 19.468 121.805 19.676C122.173 19.884 122.461 20.172 122.669 20.54C122.877 20.908 122.981 21.332 122.981 21.812V26H121.637V22.172C121.637 21.844 121.577 21.568 121.457 21.344C121.337 21.112 121.165 20.936 120.941 20.816C120.725 20.688 120.477 20.624 120.197 20.624C119.917 20.624 119.665 20.688 119.441 20.816C119.225 20.936 119.057 21.112 118.937 21.344C118.817 21.576 118.757 21.852 118.757 22.172V26H117.401ZM129.338 26.072C128.658 26.072 128.13 25.88 127.754 25.496C127.378 25.112 127.19 24.572 127.19 23.876V20.732H126.05V19.508H126.23C126.534 19.508 126.77 19.42 126.938 19.244C127.106 19.068 127.19 18.828 127.19 18.524V18.02H128.546V19.508H130.022V20.732H128.546V23.816C128.546 24.04 128.582 24.232 128.654 24.392C128.726 24.544 128.842 24.664 129.002 24.752C129.162 24.832 129.37 24.872 129.626 24.872C129.69 24.872 129.762 24.868 129.842 24.86C129.922 24.852 129.998 24.844 130.07 24.836V26C129.958 26.016 129.834 26.032 129.698 26.048C129.562 26.064 129.442 26.072 129.338 26.072ZM131.394 26V16.916H132.75V20.78L132.534 20.612C132.694 20.204 132.95 19.896 133.302 19.688C133.654 19.472 134.062 19.364 134.526 19.364C135.006 19.364 135.43 19.468 135.798 19.676C136.166 19.884 136.454 20.172 136.662 20.54C136.87 20.908 136.974 21.328 136.974 21.8V26H135.63V22.172C135.63 21.844 135.566 21.568 135.438 21.344C135.318 21.112 135.15 20.936 134.934 20.816C134.718 20.688 134.47 20.624 134.19 20.624C133.918 20.624 133.67 20.688 133.446 20.816C133.23 20.936 133.058 21.112 132.93 21.344C132.81 21.576 132.75 21.852 132.75 22.172V26H131.394ZM141.473 26.144C140.825 26.144 140.249 25.996 139.745 25.7C139.249 25.396 138.861 24.988 138.581 24.476C138.301 23.956 138.161 23.376 138.161 22.736C138.161 22.08 138.301 21.5 138.581 20.996C138.869 20.492 139.253 20.096 139.733 19.808C140.213 19.512 140.757 19.364 141.365 19.364C141.853 19.364 142.289 19.448 142.673 19.616C143.057 19.784 143.381 20.016 143.645 20.312C143.909 20.6 144.109 20.932 144.245 21.308C144.389 21.684 144.461 22.084 144.461 22.508C144.461 22.612 144.457 22.72 144.449 22.832C144.441 22.944 144.425 23.048 144.401 23.144H139.229V22.064H143.633L142.985 22.556C143.065 22.164 143.037 21.816 142.901 21.512C142.773 21.2 142.573 20.956 142.301 20.78C142.037 20.596 141.725 20.504 141.365 20.504C141.005 20.504 140.685 20.596 140.405 20.78C140.125 20.956 139.909 21.212 139.757 21.548C139.605 21.876 139.545 22.276 139.577 22.748C139.537 23.188 139.597 23.572 139.757 23.9C139.925 24.228 140.157 24.484 140.453 24.668C140.757 24.852 141.101 24.944 141.485 24.944C141.877 24.944 142.209 24.856 142.481 24.68C142.761 24.504 142.981 24.276 143.141 23.996L144.245 24.536C144.117 24.84 143.917 25.116 143.645 25.364C143.381 25.604 143.061 25.796 142.685 25.94C142.317 26.076 141.913 26.144 141.473 26.144Z" fill="white"/>
<path d="M53.468 31.6H56.559L62.158 47H59.309L58.319 44.272H51.719L50.729 47H47.88L53.468 31.6ZM52.698 41.588H57.329L55.008 35.241L52.698 41.588ZM66.7194 52.5H64.0354V36H66.7194V37.397C67.0787 36.8983 67.5187 36.495 68.0394 36.187C68.5674 35.8717 69.1834 35.714 69.8874 35.714C70.6941 35.714 71.4457 35.8643 72.1424 36.165C72.8391 36.4657 73.4514 36.8837 73.9794 37.419C74.5147 37.947 74.9291 38.5593 75.2224 39.256C75.5231 39.9527 75.6734 40.7007 75.6734 41.5C75.6734 42.2993 75.5231 43.051 75.2224 43.755C74.9291 44.459 74.5147 45.0787 73.9794 45.614C73.4514 46.142 72.8391 46.5563 72.1424 46.857C71.4457 47.1577 70.6941 47.308 69.8874 47.308C69.1834 47.308 68.5674 47.154 68.0394 46.846C67.5187 46.5307 67.0787 46.1237 66.7194 45.625V52.5ZM69.8544 38.299C69.2971 38.299 68.7984 38.4457 68.3584 38.739C67.9184 39.025 67.5737 39.41 67.3244 39.894C67.0751 40.378 66.9504 40.9133 66.9504 41.5C66.9504 42.0867 67.0751 42.6257 67.3244 43.117C67.5737 43.601 67.9184 43.9897 68.3584 44.283C68.7984 44.569 69.2971 44.712 69.8544 44.712C70.4191 44.712 70.9361 44.569 71.4054 44.283C71.8747 43.997 72.2487 43.612 72.5274 43.128C72.8061 42.6367 72.9454 42.094 72.9454 41.5C72.9454 40.9133 72.8061 40.378 72.5274 39.894C72.2487 39.41 71.8747 39.025 71.4054 38.739C70.9434 38.4457 70.4264 38.299 69.8544 38.299ZM80.5227 52.5H77.8387V36H80.5227V37.397C80.882 36.8983 81.322 36.495 81.8427 36.187C82.3707 35.8717 82.9867 35.714 83.6907 35.714C84.4973 35.714 85.249 35.8643 85.9457 36.165C86.6423 36.4657 87.2547 36.8837 87.7827 37.419C88.318 37.947 88.7323 38.5593 89.0257 39.256C89.3263 39.9527 89.4767 40.7007 89.4767 41.5C89.4767 42.2993 89.3263 43.051 89.0257 43.755C88.7323 44.459 88.318 45.0787 87.7827 45.614C87.2547 46.142 86.6423 46.5563 85.9457 46.857C85.249 47.1577 84.4973 47.308 83.6907 47.308C82.9867 47.308 82.3707 47.154 81.8427 46.846C81.322 46.5307 80.882 46.1237 80.5227 45.625V52.5ZM83.6577 38.299C83.1003 38.299 82.6017 38.4457 82.1617 38.739C81.7217 39.025 81.377 39.41 81.1277 39.894C80.8783 40.378 80.7537 40.9133 80.7537 41.5C80.7537 42.0867 80.8783 42.6257 81.1277 43.117C81.377 43.601 81.7217 43.9897 82.1617 44.283C82.6017 44.569 83.1003 44.712 83.6577 44.712C84.2223 44.712 84.7393 44.569 85.2087 44.283C85.678 43.997 86.052 43.612 86.3307 43.128C86.6093 42.6367 86.7487 42.094 86.7487 41.5C86.7487 40.9133 86.6093 40.378 86.3307 39.894C86.052 39.41 85.678 39.025 85.2087 38.739C84.7467 38.4457 84.2297 38.299 83.6577 38.299ZM103.169 47.286C102.318 47.286 101.501 47.154 100.716 46.89C99.9386 46.6187 99.2566 46.2337 98.6699 45.735C98.0833 45.229 97.6616 44.624 97.4049 43.92L99.9239 42.996C100.027 43.2893 100.236 43.557 100.551 43.799C100.866 44.041 101.251 44.2353 101.706 44.382C102.161 44.5287 102.648 44.602 103.169 44.602C103.704 44.602 104.203 44.5213 104.665 44.36C105.134 44.1913 105.512 43.9603 105.798 43.667C106.084 43.3663 106.227 43.018 106.227 42.622C106.227 42.2187 106.077 41.8887 105.776 41.632C105.475 41.368 105.09 41.159 104.621 41.005C104.152 40.851 103.668 40.7337 103.169 40.653C102.076 40.4843 101.097 40.224 100.232 39.872C99.3666 39.52 98.6809 39.0323 98.1749 38.409C97.6763 37.7857 97.4269 36.979 97.4269 35.989C97.4269 35.0577 97.6946 34.2437 98.2299 33.547C98.7653 32.8503 99.4693 32.3077 100.342 31.919C101.215 31.5303 102.157 31.336 103.169 31.336C104.012 31.336 104.826 31.468 105.611 31.732C106.396 31.996 107.081 32.381 107.668 32.887C108.262 33.393 108.687 34.0017 108.944 34.713L106.414 35.626C106.311 35.3327 106.102 35.065 105.787 34.823C105.472 34.581 105.087 34.3903 104.632 34.251C104.177 34.1043 103.69 34.031 103.169 34.031C102.648 34.0237 102.153 34.108 101.684 34.284C101.222 34.4527 100.844 34.6837 100.551 34.977C100.258 35.2703 100.111 35.6077 100.111 35.989C100.111 36.4803 100.247 36.8507 100.518 37.1C100.797 37.3493 101.167 37.5327 101.629 37.65C102.091 37.76 102.604 37.8627 103.169 37.958C104.196 38.1193 105.145 38.3907 106.018 38.772C106.891 39.1533 107.591 39.663 108.119 40.301C108.647 40.9317 108.911 41.7053 108.911 42.622C108.911 43.5533 108.647 44.371 108.119 45.075C107.591 45.7717 106.891 46.3143 106.018 46.703C105.145 47.0917 104.196 47.286 103.169 47.286ZM117.432 38.684H115.298V47H112.614V38.684H110.986V36H112.614V32.546H115.298V36H117.432V38.684ZM124.443 47.286C123.431 47.286 122.507 47.0257 121.671 46.505C120.842 45.9843 120.178 45.2877 119.68 44.415C119.188 43.535 118.943 42.5633 118.943 41.5C118.943 40.6933 119.086 39.9417 119.372 39.245C119.658 38.541 120.05 37.925 120.549 37.397C121.055 36.8617 121.641 36.4437 122.309 36.143C122.976 35.8423 123.687 35.692 124.443 35.692C125.455 35.692 126.375 35.9523 127.204 36.473C128.04 36.9937 128.703 37.694 129.195 38.574C129.693 39.454 129.943 40.4293 129.943 41.5C129.943 42.2993 129.8 43.0473 129.514 43.744C129.228 44.4407 128.832 45.0567 128.326 45.592C127.827 46.12 127.244 46.5343 126.577 46.835C125.917 47.1357 125.205 47.286 124.443 47.286ZM124.443 44.602C124.978 44.602 125.458 44.459 125.884 44.173C126.309 43.887 126.643 43.5093 126.885 43.04C127.134 42.5707 127.259 42.0573 127.259 41.5C127.259 40.928 127.13 40.4073 126.874 39.938C126.624 39.4613 126.283 39.0837 125.851 38.805C125.425 38.519 124.956 38.376 124.443 38.376C123.915 38.376 123.438 38.519 123.013 38.805C122.587 39.091 122.25 39.4723 122.001 39.949C121.751 40.4257 121.627 40.9427 121.627 41.5C121.627 42.0793 121.755 42.6037 122.012 43.073C122.268 43.5423 122.609 43.9163 123.035 44.195C123.467 44.4663 123.937 44.602 124.443 44.602ZM132.106 47L132.095 36H134.779L134.79 36.979C135.164 36.583 135.612 36.2713 136.132 36.044C136.653 35.8093 137.214 35.692 137.815 35.692C138.219 35.692 138.622 35.7507 139.025 35.868L137.969 38.574C137.691 38.464 137.412 38.409 137.133 38.409C136.701 38.409 136.305 38.5153 135.945 38.728C135.593 38.9333 135.311 39.2157 135.098 39.575C134.893 39.927 134.79 40.3193 134.79 40.752V47H132.106ZM145.024 47.286C144.012 47.286 143.088 47.0257 142.252 46.505C141.423 45.9843 140.759 45.284 140.261 44.404C139.769 43.524 139.524 42.5523 139.524 41.489C139.524 40.6897 139.667 39.9417 139.953 39.245C140.239 38.541 140.631 37.925 141.13 37.397C141.636 36.8617 142.222 36.4437 142.89 36.143C143.557 35.8423 144.268 35.692 145.024 35.692C145.882 35.692 146.666 35.8753 147.378 36.242C148.096 36.6013 148.705 37.0963 149.204 37.727C149.702 38.3577 150.065 39.0763 150.293 39.883C150.52 40.6897 150.571 41.533 150.447 42.413H142.406C142.508 42.8237 142.677 43.194 142.912 43.524C143.146 43.8467 143.443 44.107 143.803 44.305C144.162 44.4957 144.569 44.5947 145.024 44.602C145.493 44.6093 145.918 44.4993 146.3 44.272C146.688 44.0373 147.011 43.722 147.268 43.326L150.007 43.964C149.559 44.9393 148.892 45.7387 148.005 46.362C147.117 46.978 146.124 47.286 145.024 47.286ZM142.318 40.4H147.73C147.649 39.96 147.477 39.564 147.213 39.212C146.956 38.8527 146.637 38.5667 146.256 38.354C145.874 38.1413 145.464 38.035 145.024 38.035C144.584 38.035 144.177 38.1413 143.803 38.354C143.429 38.5593 143.11 38.8417 142.846 39.201C142.589 39.553 142.413 39.9527 142.318 40.4Z" fill="white"/>
</svg>
