<svg width="170" height="64" viewBox="0 0 170 64" fill="none" xmlns="http://www.w3.org/2000/svg">
<rect width="170" height="64" fill="#081933"/>
<path d="M25.0733 31.2822L12.1196 45.3412C12.1208 45.3437 12.1208 45.3475 12.1221 45.3499C12.5199 46.8765 13.8825 48 15.5007 48C16.1479 48 16.755 47.8208 17.2758 47.5073L17.3171 47.4824L31.8974 38.8791L25.0733 31.2822Z" fill="#EA4335"/>
<path d="M38.1772 28.8896L38.1651 28.8808L31.8701 25.1496L24.7783 31.6031L31.8957 38.8789L38.1565 35.185C39.254 34.5778 39.9998 33.3947 39.9998 32.0311C39.9998 30.6749 39.2649 29.4979 38.1772 28.8896Z" fill="#FBBC04"/>
<path d="M12.1192 18.6564C12.0414 18.95 12 19.2585 12 19.577V44.4204C12 44.7389 12.0414 45.0475 12.1204 45.3398L25.5181 31.6404L12.1192 18.6564Z" fill="#4285F4"/>
<path d="M25.1689 32L31.8726 25.1459L17.3093 16.5115C16.7801 16.1867 16.1621 16.0001 15.5014 16.0001C13.8833 16.0001 12.5182 17.1261 12.1204 18.6539C12.1204 18.6552 12.1191 18.6564 12.1191 18.6576L25.1689 32Z" fill="#34A853"/>
<path d="M56.112 23.144C55.48 23.144 54.892 23.028 54.348 22.796C53.812 22.564 53.34 22.244 52.932 21.836C52.532 21.42 52.22 20.932 51.996 20.372C51.772 19.812 51.66 19.196 51.66 18.524C51.66 17.86 51.768 17.248 51.984 16.688C52.208 16.12 52.52 15.632 52.92 15.224C53.32 14.808 53.788 14.488 54.324 14.264C54.86 14.032 55.448 13.916 56.088 13.916C56.72 13.916 57.284 14.024 57.78 14.24C58.284 14.456 58.708 14.74 59.052 15.092C59.396 15.436 59.644 15.812 59.796 16.22L58.536 16.832C58.352 16.344 58.048 15.952 57.624 15.656C57.2 15.352 56.688 15.2 56.088 15.2C55.496 15.2 54.972 15.34 54.516 15.62C54.06 15.9 53.704 16.288 53.448 16.784C53.2 17.28 53.076 17.86 53.076 18.524C53.076 19.188 53.204 19.772 53.46 20.276C53.724 20.772 54.084 21.16 54.54 21.44C54.996 21.712 55.52 21.848 56.112 21.848C56.608 21.848 57.06 21.748 57.468 21.548C57.884 21.34 58.216 21.052 58.464 20.684C58.712 20.308 58.836 19.872 58.836 19.376V18.764L59.472 19.34H56.088V18.14H60.24V18.98C60.24 19.636 60.128 20.224 59.904 20.744C59.68 21.256 59.376 21.692 58.992 22.052C58.608 22.412 58.168 22.684 57.672 22.868C57.176 23.052 56.656 23.144 56.112 23.144ZM61.6857 23V14.06H67.5777V15.32H63.1017V17.888H67.3377V19.148H63.1017V21.74H67.5777V23H61.6857ZM70.4768 23V15.32H68.1008V14.06H74.2208V15.32H71.8808V23H70.4768ZM77.3771 23V14.06H78.7931V23H77.3771ZM82.2307 23V15.32H79.8547V14.06H85.9747V15.32H83.6347V23H82.2307ZM93.475 23.144C92.827 23.144 92.223 23.028 91.663 22.796C91.111 22.564 90.623 22.24 90.199 21.824C89.783 21.408 89.455 20.92 89.215 20.36C88.983 19.8 88.867 19.188 88.867 18.524C88.867 17.86 88.983 17.248 89.215 16.688C89.455 16.12 89.783 15.632 90.199 15.224C90.615 14.808 91.103 14.488 91.663 14.264C92.223 14.032 92.827 13.916 93.475 13.916C94.131 13.916 94.735 14.032 95.287 14.264C95.847 14.488 96.335 14.808 96.751 15.224C97.175 15.64 97.503 16.128 97.735 16.688C97.967 17.248 98.083 17.86 98.083 18.524C98.083 19.188 97.963 19.8 97.723 20.36C97.491 20.92 97.167 21.408 96.751 21.824C96.335 22.24 95.847 22.564 95.287 22.796C94.727 23.028 94.123 23.144 93.475 23.144ZM93.475 21.848C93.939 21.848 94.363 21.764 94.747 21.596C95.139 21.428 95.479 21.196 95.767 20.9C96.055 20.596 96.279 20.244 96.439 19.844C96.599 19.436 96.679 18.996 96.679 18.524C96.679 18.052 96.599 17.616 96.439 17.216C96.279 16.816 96.055 16.464 95.767 16.16C95.479 15.856 95.139 15.62 94.747 15.452C94.363 15.284 93.939 15.2 93.475 15.2C93.011 15.2 92.583 15.284 92.191 15.452C91.807 15.62 91.471 15.856 91.183 16.16C90.895 16.464 90.671 16.816 90.511 17.216C90.359 17.616 90.283 18.052 90.283 18.524C90.283 18.996 90.359 19.436 90.511 19.844C90.671 20.244 90.895 20.596 91.183 20.9C91.471 21.196 91.811 21.428 92.203 21.596C92.595 21.764 93.019 21.848 93.475 21.848ZM99.6662 23V14.06H100.806L105.822 20.984L105.282 21.068V14.06H106.686V23H105.546L100.566 16.028L101.082 15.932V23H99.6662Z" fill="white"/>
<path d="M135.723 45.7342H138.122V29.5839H135.723V45.7342ZM157.332 35.4014L154.582 42.4036H154.5L151.645 35.4014H149.061L153.341 45.1877L150.902 50.6318H153.403L160 35.4014H157.332ZM143.726 43.8996C142.94 43.8996 141.844 43.5056 141.844 42.5276C141.844 41.2822 143.208 40.8042 144.387 40.8042C145.442 40.8042 145.939 41.0329 146.579 41.3442C146.393 42.8403 145.111 43.8996 143.726 43.8996ZM144.016 35.0487C142.279 35.0487 140.479 35.8174 139.735 37.5215L141.865 38.4142C142.32 37.5215 143.167 37.2295 144.057 37.2295C145.298 37.2295 146.559 37.9775 146.579 39.3082V39.4735C146.145 39.2242 145.215 38.8508 144.077 38.8508C141.782 38.8508 139.445 40.1182 139.445 42.4863C139.445 44.6477 141.327 46.0403 143.436 46.0403C145.049 46.0403 145.939 45.313 146.497 44.4603H146.579V45.707H148.895V39.5149C148.895 36.6481 146.766 35.0487 144.016 35.0487ZM129.188 37.3677H125.776V31.8319H129.188C130.982 31.8319 132 33.324 132 34.5992C132 35.851 130.982 37.3677 129.188 37.3677ZM129.127 29.5839H123.378V45.7342H125.776V39.6157H129.127C131.786 39.6157 134.4 37.6804 134.4 34.5992C134.4 31.5179 131.786 29.5839 129.127 29.5839ZM97.7791 43.9022C96.1218 43.9022 94.7345 42.5082 94.7345 40.5936C94.7345 38.6583 96.1218 37.2424 97.7791 37.2424C99.4159 37.2424 100.699 38.6583 100.699 40.5936C100.699 42.5082 99.4159 43.9022 97.7791 43.9022ZM100.534 36.3058H100.451C99.9122 35.6611 98.8772 35.0785 97.5721 35.0785C94.8373 35.0785 92.3314 37.4917 92.3314 40.5936C92.3314 43.6736 94.8373 46.0675 97.5721 46.0675C98.8772 46.0675 99.9122 45.4848 100.451 44.8182H100.534V45.6101C100.534 47.7121 99.4159 48.836 97.6133 48.836C96.1424 48.836 95.2308 47.7741 94.8579 46.8788L92.766 47.7534C93.3665 49.2107 94.9621 51 97.6133 51C100.43 51 102.813 49.3347 102.813 45.2768V35.4105H100.534V36.3058ZM104.47 45.7342H106.873V29.5827H104.47V45.7342ZM110.414 40.4063C110.352 38.2837 112.051 37.2011 113.272 37.2011C114.226 37.2011 115.034 37.6791 115.302 38.3664L110.414 40.4063ZM117.871 38.5744C117.416 37.3471 116.028 35.0785 113.19 35.0785C110.373 35.0785 108.033 37.3044 108.033 40.573C108.033 43.6529 110.352 46.0675 113.459 46.0675C115.966 46.0675 117.416 44.5275 118.017 43.6322L116.152 42.3829C115.531 43.2989 114.681 43.9022 113.459 43.9022C112.237 43.9022 111.367 43.3402 110.808 42.2382L118.12 39.1984L117.871 38.5744ZM59.617 36.7644V39.095H65.1676C65.0017 40.4063 64.5671 41.3636 63.905 42.0289C63.0963 42.8416 61.8324 43.7369 59.617 43.7369C56.1983 43.7369 53.5265 40.9683 53.5265 37.5344C53.5265 34.0992 56.1983 31.3319 59.617 31.3319C61.4608 31.3319 62.807 32.0605 63.8008 32.9972L65.4376 31.3526C64.049 30.0206 62.2065 29 59.617 29C54.9357 29 51 32.8305 51 37.5344C51 42.2382 54.9357 46.0675 59.617 46.0675C62.1435 46.0675 64.049 45.2342 65.5405 43.6736C67.0743 42.1336 67.5501 39.9696 67.5501 38.2204C67.5501 37.6791 67.5089 37.1804 67.4253 36.7644H59.617ZM73.8618 43.9022C72.2044 43.9022 70.7747 42.5289 70.7747 40.573C70.7747 38.595 72.2044 37.2424 73.8618 37.2424C75.5178 37.2424 76.9475 38.595 76.9475 40.573C76.9475 42.5289 75.5178 43.9022 73.8618 43.9022ZM73.8618 35.0785C70.8364 35.0785 68.3717 37.3884 68.3717 40.573C68.3717 43.7369 70.8364 46.0675 73.8618 46.0675C76.8858 46.0675 79.3506 43.7369 79.3506 40.573C79.3506 37.3884 76.8858 35.0785 73.8618 35.0785ZM85.8359 43.9022C84.1786 43.9022 82.7488 42.5289 82.7488 40.573C82.7488 38.595 84.1786 37.2424 85.8359 37.2424C87.4932 37.2424 88.9217 38.595 88.9217 40.573C88.9217 42.5289 87.4932 43.9022 85.8359 43.9022ZM85.8359 35.0785C82.8118 35.0785 80.347 37.3884 80.347 40.573C80.347 43.7369 82.8118 46.0675 85.8359 46.0675C88.8599 46.0675 91.3247 43.7369 91.3247 40.573C91.3247 37.3884 88.8599 35.0785 85.8359 35.0785Z" fill="white"/>
</svg>
