<svg width="50" height="56" viewBox="0 0 50 56" fill="none" xmlns="http://www.w3.org/2000/svg">
<path fill-rule="evenodd" clip-rule="evenodd" d="M33.6654 41.0623C33.6654 41.0623 32.8639 39.6778 31.6251 39.1677C30.3863 38.6576 28.856 39.8235 30.0219 41.0623C31.115 42.3011 33.6654 41.0623 33.6654 41.0623ZM30.0949 34.8684C30.0949 34.8684 30.8964 36.2529 30.7506 37.6374C30.6049 38.949 28.7832 39.6778 28.2732 38.0747C27.7631 36.4715 30.0949 34.8684 30.0949 34.8684ZM40.2236 9.21837C40.2236 9.21837 41.5353 8.41681 42.7741 8.48968C44.0128 8.56255 44.7416 10.2386 43.2842 10.8216C41.8268 11.4045 40.2236 9.21837 40.2236 9.21837ZM45.8346 5.7207C45.8346 5.7207 44.5958 6.52223 44.0857 7.68814C43.6485 8.85405 44.8144 10.2386 45.9075 9.14552C47.1462 8.05248 45.8346 5.7207 45.8346 5.7207ZM41.681 12.4246C41.681 12.4246 43.1385 11.9146 44.3044 12.2061C45.5432 12.4976 45.9075 14.3193 44.3772 14.5379C42.847 14.9022 41.681 12.4246 41.681 12.4246ZM47.8749 10.02C47.8749 10.02 46.4905 10.6029 45.7618 11.6231C45.1059 12.7161 45.9804 14.2464 47.292 13.372C48.6765 12.5704 47.8749 10.02 47.8749 10.02ZM42.4097 16.0681C42.4097 16.0681 43.94 15.7038 45.1059 16.2139C46.2718 16.724 46.4176 18.5457 44.8144 18.6185C43.2113 18.6185 42.4097 16.0681 42.4097 16.0681ZM48.9679 14.465C48.9679 14.465 47.5106 14.8293 46.6362 15.7766C45.8346 16.7239 46.4905 18.4728 47.9478 17.7441C49.4052 17.1612 48.9679 14.465 48.9679 14.465ZM42.4827 19.5659C42.4827 19.5659 44.0129 19.493 45.1059 20.2217C46.199 20.9504 45.9804 22.7721 44.3772 22.5535C42.7741 22.262 42.4827 19.5659 42.4827 19.5659ZM49.2594 19.2015C49.2594 19.2015 47.7292 19.2743 46.709 20.0759C45.6888 20.8775 46.0532 22.6992 47.6564 22.262C49.1866 21.8976 49.2594 19.2015 49.2594 19.2015ZM41.8268 22.9907C41.8268 22.9907 43.3571 23.2093 44.3044 24.0837C45.2517 24.9581 44.7416 26.7799 43.2113 26.1969C41.6811 25.6869 41.8268 22.9907 41.8268 22.9907ZM48.6036 23.8652C48.6036 23.8652 47.0734 23.6465 45.9075 24.3024C44.8144 24.9582 44.8144 26.7799 46.4175 26.6341C48.0935 26.5613 48.6036 23.8652 48.6036 23.8652ZM40.6609 26.1241C40.6609 26.1241 42.1183 26.707 42.847 27.8C43.5757 28.8931 42.6283 30.4962 41.2438 29.6218C39.8593 28.7473 40.6609 26.1241 40.6609 26.1241ZM47.0734 28.5287C47.0734 28.5287 45.616 28.0187 44.3772 28.3102C43.1385 28.6745 42.7012 30.4962 44.3772 30.7148C45.9804 31.0063 47.0734 28.5287 47.0734 28.5287ZM38.7663 29.0389C38.7663 29.0389 40.1508 29.8404 40.588 31.0791C41.0981 32.3179 39.9322 33.7754 38.6934 32.6095C37.5275 31.5164 38.7663 29.0389 38.7663 29.0389ZM44.6687 32.6095C44.6687 32.6095 43.2842 31.8079 41.9725 31.9536C40.6609 32.0994 39.9322 33.8482 41.5353 34.3583C43.1384 34.8683 44.6687 32.6095 44.6687 32.6095ZM36.3616 31.5893C36.3616 31.5893 37.5275 32.6823 37.819 33.9211C38.1105 35.2327 36.6531 36.4715 35.6329 35.087C34.6128 33.7753 36.3616 31.5893 36.3616 31.5893ZM41.5353 36.18C41.5353 36.18 40.2965 35.1598 38.9849 35.0141C37.6732 34.8684 36.6531 36.4715 38.1105 37.346C39.5679 38.1475 41.5353 36.18 41.5353 36.18ZM33.4468 33.5567C33.4468 33.5567 34.3942 34.8683 34.467 36.18C34.5399 37.4916 32.8639 38.439 32.0623 36.9816C31.4065 35.3785 33.4468 33.5567 33.4468 33.5567ZM37.819 39.0948C37.819 39.0948 36.7989 37.856 35.5601 37.4917C34.2484 37.1273 32.9367 38.5119 34.2484 39.6049C35.4872 40.6251 37.819 39.0948 37.819 39.0948Z" fill="white"/>
<path fill-rule="evenodd" clip-rule="evenodd" d="M15.594 41.0623C15.594 41.0623 16.3955 39.6778 17.6343 39.1677C18.8731 38.6576 20.4034 39.8235 19.2375 41.0623C18.1445 42.3011 15.594 41.0623 15.594 41.0623ZM19.1646 34.8684C19.1646 34.8684 18.3631 36.2529 18.5088 37.6374C18.6545 38.949 20.4763 39.6778 20.9864 38.0747C21.4965 36.4715 19.1646 34.8684 19.1646 34.8684ZM8.96295 9.21837C8.96295 9.21837 7.65131 8.41681 6.41253 8.48968C5.17375 8.56255 4.44501 10.2386 5.90239 10.8216C7.43265 11.4045 8.96295 9.21837 8.96295 9.21837ZM3.35197 5.7207C3.35197 5.7207 4.59076 6.52223 5.10085 7.68814C5.53806 8.85405 4.37216 10.2386 3.27912 9.14552C2.11321 8.05248 3.35197 5.7207 3.35197 5.7207ZM7.57842 12.4246C7.57842 12.4246 6.12105 11.9146 4.95515 12.2061C3.71637 12.4976 3.35195 14.3193 4.88221 14.5379C6.41246 14.9022 7.57842 12.4246 7.57842 12.4246ZM1.31168 10.02C1.31168 10.02 2.69613 10.6029 3.42482 11.6231C4.08064 12.7161 3.20623 14.2464 1.89458 13.372C0.510067 12.5704 1.31168 10.02 1.31168 10.02ZM6.77688 16.0681C6.77688 16.0681 5.24657 15.7038 4.08066 16.2139C2.91475 16.724 2.76903 18.5457 4.37216 18.6185C6.04815 18.6185 6.77688 16.0681 6.77688 16.0681ZM0.291495 14.465C0.291495 14.465 1.74884 14.8293 2.62328 15.7766C3.42484 16.7239 2.76907 18.4728 1.31168 17.7441C-0.145703 17.1612 0.291495 14.465 0.291495 14.465ZM6.77688 19.5659C6.77688 19.5659 5.24655 19.493 4.15351 20.2217C3.06047 20.9504 3.27908 22.7721 4.88221 22.5535C6.41246 22.262 6.77688 19.5659 6.77688 19.5659ZM0 19.2015C0 19.2015 1.53025 19.2743 2.55042 20.0759C3.57059 20.8775 3.20621 22.6992 1.60309 22.262C0.0728337 21.8976 0 19.2015 0 19.2015ZM7.35978 22.9907C7.35978 22.9907 5.8295 23.2093 4.88221 24.0837C3.9349 24.9581 4.44499 26.7799 5.97524 26.1969C7.57837 25.6869 7.35978 22.9907 7.35978 22.9907ZM0.655841 23.8652C0.655841 23.8652 2.18606 23.6465 3.35197 24.3024C4.44501 24.9582 4.44504 26.7799 2.84192 26.6341C1.16593 26.5613 0.655841 23.8652 0.655841 23.8652ZM8.59861 26.1241C8.59861 26.1241 7.14122 26.707 6.41253 27.8C5.68384 28.8931 6.6311 30.4962 8.01562 29.6218C9.40013 28.7473 8.59861 26.1241 8.59861 26.1241ZM2.18608 28.5287C2.18608 28.5287 3.64343 28.0187 4.88221 28.3102C6.12098 28.6745 6.5582 30.4962 4.88221 30.7148C3.27908 31.0063 2.18608 28.5287 2.18608 28.5287ZM10.4932 29.0389C10.4932 29.0389 9.10868 29.8404 8.67146 31.0791C8.16138 32.3179 9.32726 33.7754 10.566 32.6095C11.732 31.5164 10.4932 29.0389 10.4932 29.0389ZM4.51786 32.6095C4.51786 32.6095 5.90243 31.8079 7.21407 31.9536C8.52572 32.0994 9.2544 33.8482 7.65127 34.3583C6.12102 34.8683 4.51786 32.6095 4.51786 32.6095ZM12.8978 31.5893C12.8978 31.5893 11.7319 32.6823 11.4404 33.9211C11.149 35.2327 12.6063 36.4715 13.6265 35.087C14.6467 33.7753 12.8978 31.5893 12.8978 31.5893ZM7.65127 36.18C7.65127 36.18 8.89005 35.1598 10.2017 35.0141C11.5133 34.8684 12.5335 36.4715 11.0761 37.346C9.61871 38.1475 7.65127 36.18 7.65127 36.18ZM15.7397 33.5567C15.7397 33.5567 14.7924 34.8683 14.7196 36.18C14.6467 37.4916 16.3227 38.439 17.1243 36.9816C17.853 35.3785 15.7397 33.5567 15.7397 33.5567ZM11.4404 39.0948C11.4404 39.0948 12.4607 37.856 13.6995 37.4917C15.0111 37.1273 16.3227 38.5119 15.011 39.6049C13.7723 40.6251 11.4404 39.0948 11.4404 39.0948Z" fill="white"/>
<path d="M24.6298 35.3053C33.2284 31.0789 37.0176 20.6586 37.8192 12.3515C33.7385 10.4569 29.2935 9.29102 24.6298 9.29102C19.9662 9.29102 15.5211 10.4569 11.4404 12.3515C12.242 20.6586 15.9584 31.0789 24.6298 35.3053Z" stroke="white" stroke-width="2.9999" stroke-miterlimit="22.9256"/>
<path fill-rule="evenodd" clip-rule="evenodd" d="M47.8752 55.9999C44.3775 54.6882 40.4426 53.8867 36.2891 53.5223V51.8463C37.7464 52.2106 39.1309 52.6479 40.4426 53.0851L41.9 53.5952V51.9921V47.7656C44.0132 48.13 45.9806 48.713 47.8024 49.3688L43.3573 51.0447L47.8752 55.9999Z" fill="white"/>
<path fill-rule="evenodd" clip-rule="evenodd" d="M1.31152 55.9999C4.80925 54.6882 8.74412 53.8867 12.8977 53.5223V51.8463C11.4403 52.2106 10.0558 52.6479 8.74415 53.0851L7.28677 53.5952V51.9921V47.7656C5.17356 48.13 3.20611 48.713 1.38437 49.3688L5.82938 51.0447L1.31152 55.9999Z" fill="white"/>
<path fill-rule="evenodd" clip-rule="evenodd" d="M8.37988 45.5062V52.0644C17.9258 48.4938 31.3337 48.4938 40.9524 52.0644V45.5062C31.5523 42.1542 17.7071 42.1542 8.37988 45.5062Z" fill="white"/>
<path d="M10.3471 46.5267L11.0029 46.3809C11.0758 46.3809 11.1487 46.3081 11.2216 46.3081C11.3673 46.2352 11.4402 46.2352 11.513 46.2352C11.5859 46.2352 11.6588 46.2352 11.6588 46.2352C11.6588 46.3081 11.6588 46.3081 11.5859 46.3081C11.513 46.3081 11.4401 46.381 11.3673 46.4539C11.3673 46.5267 11.3673 46.6724 11.3673 46.891C11.4401 47.1097 11.4402 47.3283 11.513 47.5469C11.5859 47.9112 11.7316 48.2027 11.8045 48.3484C11.8773 48.4942 11.9502 48.5671 12.0959 48.6399C12.2417 48.7128 12.3875 48.7128 12.6061 48.6399C12.8247 48.5671 12.9704 48.4942 13.0433 48.4213C13.1162 48.2755 13.189 48.1298 13.1161 47.9841C13.1161 47.7655 13.0432 47.4011 12.8975 46.891C12.8246 46.5996 12.7518 46.3809 12.6789 46.3081C12.6061 46.2352 12.5332 46.1624 12.3874 46.1624C12.3146 46.1624 12.2417 46.1624 12.2417 46.0895C12.2417 46.0166 12.2417 46.0166 12.3146 46.0166C12.3146 46.0166 12.3874 46.0166 12.4603 46.0166C12.5332 46.0166 12.6061 46.0166 12.6789 45.9437C12.7518 45.9437 12.8247 45.8709 12.9704 45.8709C13.0433 45.8709 13.1161 45.798 13.1161 45.798C13.189 45.798 13.189 45.798 13.2618 45.798C13.2618 45.798 13.2619 45.8709 13.189 45.8709C13.1161 45.8709 13.0433 45.9437 13.0433 46.0166C12.9704 46.0894 12.9704 46.1623 13.0433 46.3081C13.0433 46.4538 13.1161 46.8182 13.2618 47.3282C13.3347 47.6926 13.4076 47.9841 13.3348 48.1298C13.3348 48.2755 13.189 48.4941 13.0433 48.567C12.8975 48.7127 12.6789 48.7856 12.3874 48.8585C12.1688 48.9314 12.0231 48.9313 11.8045 48.9313C11.6587 48.9313 11.513 48.9314 11.3673 48.8585C11.2944 48.7856 11.1486 48.7128 11.0758 48.6399C11.0029 48.5671 10.9301 48.4212 10.9301 48.2026L10.6386 47.1096C10.5657 46.9639 10.5657 46.8181 10.4929 46.7453C10.42 46.6724 10.4199 46.5996 10.3471 46.5996C10.2742 46.5996 10.2743 46.5996 10.1285 46.5996C10.0556 46.5996 10.0557 46.5996 10.0557 46.5996C10.0557 46.5996 10.0557 46.5996 10.0557 46.5267C10.2743 46.5267 10.3471 46.5267 10.3471 46.5267ZM14.5007 45.5794C15.3022 46.2352 15.958 46.7453 16.541 47.1096C16.541 47.0367 16.541 46.9639 16.541 46.891L16.3953 46.0895C16.3224 45.8709 16.3224 45.7251 16.2495 45.6522C16.1767 45.5793 16.1766 45.5065 16.1038 45.5065C16.0309 45.5065 15.958 45.4337 15.8123 45.4337C15.7394 45.4337 15.7394 45.4337 15.7394 45.3608C15.7394 45.2879 15.7394 45.2879 15.8123 45.2879H15.8852C15.9581 45.2879 16.1038 45.2879 16.2495 45.215C16.4682 45.215 16.6139 45.1422 16.6867 45.1422C16.7596 45.1422 16.7596 45.1422 16.7596 45.1422C16.8325 45.1422 16.8324 45.1422 16.8324 45.215C16.8324 45.2879 16.8325 45.2879 16.7596 45.2879C16.6867 45.2879 16.6138 45.3608 16.541 45.4337C16.4681 45.5065 16.4681 45.6523 16.4681 45.8709L16.6867 47.0368L16.8324 47.9112C16.8324 47.9841 16.8325 48.0569 16.7596 48.0569C16.7596 48.0569 16.7596 48.0569 16.6867 48.0569C16.6867 48.0569 16.541 47.984 16.3224 47.8383C16.1038 47.6926 15.8123 47.4739 15.3751 47.1096C14.9378 46.8181 14.6464 46.5266 14.5007 46.3809C14.5007 46.4538 14.5735 46.7453 14.7192 47.4011C14.7921 47.6197 14.7921 47.7655 14.865 47.9112C14.9379 48.057 15.0107 48.1298 15.0836 48.1298C15.1564 48.1298 15.3022 48.2027 15.3751 48.1298C15.4479 48.1298 15.4479 48.1298 15.4479 48.2026C15.4479 48.2755 15.4479 48.2756 15.3751 48.2756C15.3751 48.2756 15.3022 48.2756 15.2294 48.2756C15.1565 48.2756 15.0107 48.2756 14.9379 48.3484C14.7193 48.4213 14.5735 48.4213 14.5007 48.4213C14.4278 48.4213 14.4277 48.4213 14.3549 48.4213C14.282 48.4213 14.282 48.4213 14.282 48.3484C14.282 48.3484 14.2821 48.2756 14.4278 48.2756C14.5736 48.2027 14.6464 48.1298 14.7192 48.0569C14.7192 47.9841 14.7192 47.8383 14.7192 47.6197C14.5735 46.891 14.5007 46.4538 14.4278 46.3081C14.3549 46.1623 14.282 46.0166 14.2092 45.8709C14.0634 45.7251 13.9906 45.7252 13.8448 45.7252C13.772 45.7252 13.772 45.7251 13.772 45.6522C13.772 45.5793 13.772 45.5794 13.8448 45.5794C13.8448 45.5794 13.8448 45.5794 13.9177 45.5794C13.9177 45.5794 13.9906 45.5794 14.0635 45.5794C14.2092 45.5794 14.3549 45.5794 14.5007 45.5794ZM17.3426 45.0693C17.4155 45.0693 17.4883 45.0693 17.634 45.0693C17.7797 45.0693 17.8526 45.0693 17.9255 45.0693L18.5813 44.9965C18.6542 44.9965 18.6542 44.9964 18.6542 45.0693C18.6542 45.0693 18.6542 45.1422 18.5813 45.1422C18.4356 45.1422 18.3627 45.215 18.3627 45.215C18.3627 45.215 18.2898 45.2879 18.2898 45.4337C18.2898 45.5794 18.2898 45.798 18.3627 46.1624C18.4356 46.5996 18.4356 46.9639 18.5085 47.1825C18.5813 47.4012 18.5813 47.5469 18.6542 47.6197C18.7271 47.6926 18.8 47.6926 18.8728 47.6926C18.9457 47.6926 18.9457 47.6926 19.0185 47.7654C19.0185 47.8383 19.0185 47.8383 18.9457 47.8383H18.8728C18.5813 47.8383 18.4356 47.8384 18.2898 47.9112C18.0712 47.9112 17.9255 47.9841 17.8526 47.9841C17.7798 47.9841 17.7798 47.9841 17.7069 47.9841C17.6341 47.9841 17.634 47.9841 17.634 47.9112C17.634 47.9112 17.6341 47.8383 17.7069 47.8383C17.8527 47.8383 17.9255 47.7655 17.9255 47.6926C17.9255 47.6197 17.9984 47.474 17.9255 47.3282C17.9255 47.1096 17.8526 46.8181 17.8526 46.3809C17.7798 45.9437 17.7798 45.6523 17.7069 45.5065C17.7069 45.3608 17.634 45.2879 17.5611 45.215C17.4883 45.215 17.4155 45.1422 17.3426 45.1422C17.2697 45.1422 17.2697 45.1422 17.3426 45.0693C17.2697 45.0693 17.2697 45.0693 17.3426 45.0693ZM20.6946 47.6197H20.5488L20.1116 46.5996C19.9658 46.3809 19.8201 46.0166 19.6744 45.6522C19.5286 45.2879 19.3829 45.0693 19.31 44.9965C19.2372 44.9236 19.2372 44.9235 19.1643 44.8507C19.1643 44.8507 19.0914 44.8507 19.0185 44.8507C18.9457 44.8507 18.9457 44.8507 18.9457 44.7778C18.9457 44.705 18.9457 44.705 19.0185 44.705H19.6015C19.8201 44.705 19.9658 44.705 20.1844 44.6321C20.2573 44.6321 20.2574 44.6321 20.2574 44.6321C20.3302 44.6321 20.3302 44.6321 20.3302 44.705C20.3302 44.705 20.3302 44.7778 20.2574 44.7778C20.1116 44.7778 20.0387 44.9236 20.0387 44.9965C20.0387 45.2151 20.2573 45.798 20.6946 46.7453C20.7674 46.4538 20.9132 46.0895 20.9861 45.798L21.1318 45.215C21.1318 45.1422 21.1318 45.0693 21.1318 44.9965C21.1318 44.9236 21.1318 44.8507 21.0589 44.8507C20.986 44.7778 20.986 44.7778 20.9131 44.7778C20.8402 44.7778 20.8403 44.7778 20.8403 44.705C20.8403 44.6321 20.8402 44.6321 20.9131 44.6321C20.986 44.6321 20.986 44.6321 21.0589 44.6321C21.2046 44.6321 21.2775 44.6321 21.3504 44.6321C21.4233 44.6321 21.5689 44.6321 21.6418 44.6321C21.7147 44.6321 21.7147 44.6321 21.7876 44.6321C21.8605 44.6321 21.8604 44.6321 21.8604 44.705C21.8604 44.705 21.8605 44.7778 21.7876 44.7778C21.7147 44.7778 21.6418 44.8507 21.569 44.8507C21.4961 44.9235 21.4961 44.9964 21.4232 45.0693C21.3504 45.1422 21.2775 45.3608 21.2046 45.7252L20.9131 46.7453C20.8402 47.1096 20.6946 47.474 20.6946 47.6197ZM24.5566 44.6321C24.6294 44.8507 24.6295 45.0693 24.7024 45.2879C24.7024 45.3607 24.7024 45.3608 24.6295 45.3608C24.6295 45.3608 24.5566 45.3607 24.5566 45.2879C24.4108 45.0693 24.2651 44.9235 24.1194 44.8507C23.9736 44.7778 23.8279 44.7778 23.6093 44.7778C23.4636 44.7778 23.3907 44.7778 23.245 44.7778C23.245 44.9964 23.245 45.2879 23.245 45.5794C23.245 45.6522 23.245 45.7251 23.245 45.8709H23.3907C23.4636 45.8709 23.6093 45.8709 23.6822 45.798C23.755 45.798 23.828 45.7251 23.9008 45.6522C23.9737 45.5793 23.9737 45.5065 23.9737 45.5065C23.9737 45.4336 23.9737 45.4337 24.0465 45.4337C24.1194 45.4337 24.1194 45.4336 24.1194 45.5065C24.1194 45.5794 24.1194 45.8708 24.1194 46.3081C24.1194 46.3809 24.1194 46.4539 24.1194 46.4539C24.1194 46.5267 24.1194 46.5267 24.0465 46.5267C24.0465 46.5267 23.9737 46.4538 23.9737 46.3809C23.9737 46.2352 23.9008 46.1624 23.755 46.0895C23.6822 46.0166 23.4636 46.0166 23.245 46.0166C23.245 46.2352 23.245 46.381 23.245 46.4539C23.245 46.7453 23.245 46.9639 23.245 47.0368C23.245 47.1096 23.3178 47.1825 23.3907 47.1825C23.4636 47.2554 23.5364 47.2554 23.6822 47.2554C24.1923 47.2554 24.5566 47.1096 24.7752 46.7453C24.7752 46.6724 24.8481 46.6724 24.8481 46.6724C24.9209 46.6724 24.9209 46.6724 24.9209 46.7453V46.8182L24.7752 47.4011H23.9737C23.7551 47.4011 23.5364 47.4011 23.3907 47.4011C23.1721 47.4011 23.0264 47.4011 22.9535 47.4011C22.8077 47.4011 22.662 47.4011 22.4434 47.4011H22.3705C22.2976 47.4011 22.2976 47.4011 22.2976 47.3282C22.2976 47.2554 22.2976 47.2554 22.3705 47.2554C22.5162 47.2554 22.5891 47.1825 22.662 47.1096C22.7349 47.0367 22.7348 46.891 22.7348 46.6724V45.5794C22.7348 45.215 22.7348 44.9964 22.7348 44.9235C22.7348 44.8507 22.7349 44.7778 22.662 44.7778C22.5891 44.7778 22.5163 44.705 22.4434 44.705C22.3706 44.705 22.3705 44.705 22.3705 44.6321C22.3705 44.5593 22.3706 44.5592 22.4434 44.5592H22.9535L24.5566 44.6321ZM26.7426 46.0166C26.9613 46.0166 27.1071 46.0895 27.1799 46.2352C27.3257 46.3081 27.3985 46.5266 27.4713 46.7453C27.5442 46.9639 27.5443 47.1825 27.6171 47.2554C27.69 47.3283 27.7629 47.4011 27.9086 47.4011C27.9815 47.4011 27.9815 47.4011 27.9815 47.4739C27.9815 47.5468 27.9086 47.5469 27.8357 47.5469L27.0341 47.4739C26.9613 47.4011 26.8884 47.2554 26.8884 47.0368C26.8884 46.7453 26.8156 46.5267 26.8156 46.4539C26.7427 46.3081 26.7427 46.2352 26.6698 46.1624C26.5969 46.0895 26.524 46.0895 26.3783 46.0895C26.3783 46.0895 26.3055 46.0895 26.2326 46.0895C26.2326 46.5996 26.1597 46.891 26.1597 47.0368C26.1597 47.1825 26.1597 47.2554 26.2326 47.2554C26.3055 47.3283 26.3784 47.3282 26.4512 47.3282C26.5241 47.3282 26.5241 47.3282 26.5241 47.4011C26.5241 47.474 26.5241 47.4739 26.4512 47.4739L25.7954 47.4011C25.7225 47.4011 25.5768 47.4011 25.4311 47.4011C25.2853 47.4011 25.2124 47.4011 25.2124 47.4011C25.1395 47.4011 25.1396 47.4011 25.1396 47.3282C25.1396 47.2554 25.1395 47.2554 25.2124 47.2554C25.2853 47.2554 25.3582 47.2554 25.4311 47.1825C25.5039 47.1097 25.5768 46.9639 25.5768 46.6724V46.3081L25.6496 45.5065C25.6496 45.1422 25.6496 44.8507 25.6496 44.7778C25.6496 44.705 25.5039 44.6321 25.3582 44.6321C25.2853 44.6321 25.2853 44.632 25.2853 44.5592C25.2853 44.4863 25.3582 44.4863 25.4311 44.4863C25.8683 44.4863 26.1598 44.4863 26.4512 44.4863C26.597 44.4863 26.6699 44.4863 26.8156 44.4863C27.1071 44.4863 27.3985 44.5592 27.5443 44.705C27.69 44.8507 27.8357 44.9964 27.7628 45.215C27.7628 45.3608 27.69 45.5065 27.6171 45.5794C27.5443 45.6522 27.3985 45.798 27.2528 45.798C27.0342 46.0166 26.8884 46.0166 26.7426 46.0166ZM26.1597 45.9437C26.2326 45.9437 26.2326 45.9437 26.2326 45.9437C26.3783 45.9437 26.4512 45.9437 26.5969 45.8709C26.7427 45.798 26.8156 45.7251 26.8884 45.6522C26.9613 45.5793 26.9613 45.4337 26.9613 45.3608C26.9613 45.2151 26.8885 45.0693 26.8156 44.9235C26.7427 44.8507 26.5969 44.7778 26.3783 44.7778C26.3054 44.7778 26.2326 44.7778 26.1597 44.7778V45.9437ZM30.0947 45.0693L30.1676 44.9965C30.1676 44.9236 30.2404 44.9235 30.2404 44.9235C30.3133 44.9235 30.3133 44.9965 30.3133 44.9965V45.5794V45.6522C30.3133 45.7251 30.3133 45.7252 30.2404 45.7252H30.1676C30.1676 45.7252 30.1676 45.6522 30.0947 45.5794C30.0218 45.4336 29.9489 45.2879 29.8032 45.215C29.6575 45.0693 29.5118 44.9965 29.366 44.9965C29.2203 44.9965 29.0745 44.9964 29.0017 45.0693C28.9288 45.1422 28.8559 45.2151 28.8559 45.3608C28.8559 45.4337 28.8559 45.5793 28.9287 45.6522C29.0016 45.7251 29.1474 45.798 29.366 45.9437C29.7304 46.0895 29.949 46.2352 30.0947 46.4539C30.2404 46.5996 30.2404 46.8181 30.2404 47.0368C30.2404 47.2554 30.1675 47.4012 30.0218 47.5469C29.876 47.6926 29.8032 47.7654 29.6574 47.8383C29.5117 47.9112 29.366 47.9112 29.1474 47.9112C29.0016 47.9112 28.9288 47.8383 28.783 47.8383C28.6373 47.7654 28.5644 47.6926 28.4187 47.6197C28.4187 47.6197 28.3458 47.6926 28.3458 47.7654C28.3458 47.8383 28.273 47.8383 28.273 47.8383C28.273 47.8383 28.2 47.7655 28.2 47.6926V46.891V46.8182C28.2 46.7453 28.2001 46.7453 28.273 46.7453C28.273 46.7453 28.3458 46.8182 28.3458 46.891C28.4187 47.1097 28.4916 47.3282 28.6373 47.4739C28.7831 47.6197 28.9288 47.6926 29.1474 47.7654C29.2931 47.7654 29.4388 47.7655 29.5846 47.6926C29.7303 47.6197 29.7303 47.474 29.8032 47.4011C29.8032 47.2554 29.8032 47.1825 29.7304 47.0368C29.6575 46.9639 29.5117 46.8181 29.2202 46.7453C29.0016 46.6724 28.8559 46.5267 28.7102 46.4539C28.6373 46.381 28.4915 46.2352 28.4915 46.1624C28.4187 46.0166 28.4187 45.8709 28.4187 45.798C28.4187 45.5794 28.5644 45.3607 28.7102 45.2879C28.9288 45.1421 29.1474 45.0693 29.4389 45.1422C29.6575 44.8507 29.8761 44.9236 30.0947 45.0693ZM31.042 45.0693C31.1148 45.0693 31.1877 45.0693 31.3334 45.1422C31.4792 45.1422 31.5521 45.215 31.6249 45.215L32.2808 45.2879C32.3537 45.2879 32.3536 45.2879 32.3536 45.3608C32.3536 45.3608 32.3537 45.4337 32.2808 45.4337C32.135 45.4337 32.0621 45.4337 32.0621 45.4337C31.9893 45.4337 31.9893 45.5065 31.9164 45.6522C31.8436 45.7251 31.8435 46.0166 31.7706 46.3809C31.6978 46.8181 31.6249 47.1825 31.6249 47.4011C31.6249 47.6197 31.6249 47.7654 31.6249 47.8383C31.6249 47.9112 31.6978 47.9112 31.8435 47.9841C31.9164 47.9841 31.9164 47.9841 31.9164 48.0569C31.9164 48.1298 31.8435 48.1298 31.7706 48.1298H31.6978C31.4063 48.0569 31.2606 48.057 31.1877 47.9841C30.9691 47.9841 30.8233 47.9112 30.6776 47.9112C30.6047 47.9112 30.6048 47.9112 30.5319 47.9112C30.459 47.9112 30.4591 47.9112 30.4591 47.8383C30.4591 47.8383 30.459 47.7654 30.5319 47.7654C30.6776 47.7654 30.7505 47.7655 30.8234 47.6926C30.8963 47.6197 30.8962 47.5469 30.9691 47.3282C31.042 47.1096 31.0419 46.8182 31.1148 46.4539C31.1877 46.0166 31.1877 45.7251 31.1877 45.5794C31.1877 45.4336 31.1877 45.3607 31.1877 45.2879C31.1877 45.215 31.1148 45.215 30.9691 45.215C30.8962 45.215 30.8962 45.1422 30.8962 45.1422C30.9691 45.0693 31.042 45.0693 31.042 45.0693ZM32.7908 45.2879C33.5195 45.4336 34.0296 45.5793 34.3939 45.6522C34.6854 45.7251 34.9769 45.7251 35.2684 45.798C35.4141 45.798 35.487 45.798 35.5599 45.8709C35.5599 45.8709 35.6327 45.8709 35.7056 45.8709C35.7056 45.9437 35.7056 46.0166 35.7056 46.2352V46.5996C35.7056 46.6724 35.6327 46.6724 35.6327 46.6724C35.6327 46.6724 35.5599 46.5996 35.5599 46.5267C35.5599 46.381 35.487 46.3081 35.4141 46.1624C35.3412 46.0895 35.2684 46.0166 35.1226 45.9437C35.0497 45.8708 34.8312 45.8709 34.6126 45.798C34.5397 46.0166 34.4668 46.3081 34.3939 46.5996C34.3211 46.9639 34.2482 47.2554 34.2482 47.5469C34.1753 47.8384 34.1754 48.0569 34.1754 48.1298C34.1754 48.2027 34.1753 48.2756 34.2482 48.2756C34.3211 48.3485 34.394 48.3484 34.5397 48.4213C34.6126 48.4213 34.6126 48.4941 34.6126 48.4941C34.6126 48.567 34.6126 48.567 34.5397 48.567H34.4669L34.0296 48.4941C33.6652 48.4213 33.5195 48.4213 33.4467 48.3484L33.1552 48.2756C33.1552 48.2756 33.0823 48.2756 33.0095 48.2756C33.0095 48.2756 32.9365 48.2755 32.9365 48.2026C32.9365 48.1298 33.0095 48.1298 33.0095 48.1298C33.1552 48.1298 33.228 48.1298 33.3009 48.1298C33.3738 48.0569 33.4467 47.9841 33.4467 47.9112C33.5195 47.7655 33.5195 47.5469 33.5924 47.1825C33.7381 46.5996 33.811 46.0895 33.811 45.7252C33.5924 45.6523 33.4466 45.6522 33.3009 45.6522C33.228 45.6522 33.0823 45.6523 33.0095 45.7252C32.8637 45.798 32.7908 45.8708 32.718 46.0166C32.718 46.0894 32.6451 46.0895 32.6451 46.0895C32.5723 46.0895 32.5722 46.0894 32.5722 46.0166C32.5722 46.0166 32.5723 45.9438 32.6451 45.7252C32.718 45.5066 32.7908 45.3607 32.7908 45.2879ZM37.3816 47.5469C37.8917 47.1097 38.1832 46.891 38.1832 46.7453V46.6724C38.1832 46.5995 38.1103 46.5996 38.0374 46.5267C37.9645 46.5267 37.9645 46.4539 37.9645 46.4539C37.9645 46.381 38.0374 46.3809 38.0374 46.3809C38.0374 46.3809 38.0375 46.3809 38.1103 46.3809C38.2561 46.4538 38.4018 46.4538 38.4747 46.5267C38.5475 46.5267 38.6933 46.5996 38.839 46.5996H38.9119C38.9847 46.5996 38.9847 46.5995 38.9847 46.6724C38.9847 46.6724 38.9847 46.7453 38.9119 46.7453C38.839 46.7453 38.6932 46.7453 38.6204 46.7453C38.5475 46.7453 38.4018 46.8182 38.256 46.9639C38.1103 47.1096 37.9646 47.2554 37.746 47.4011C37.5274 47.5468 37.4545 47.6926 37.4545 47.6926C37.4545 47.7655 37.3816 47.9112 37.3087 48.1298C37.2358 48.4941 37.163 48.7856 37.163 48.8585C37.163 48.9314 37.2359 49.0043 37.3816 49.0771C37.4545 49.0771 37.4545 49.15 37.4545 49.15C37.4545 49.2228 37.3816 49.2228 37.3816 49.2228C37.3088 49.2228 37.2359 49.15 37.0173 49.15C36.9444 49.15 36.8715 49.0771 36.7986 49.0771C36.6529 49.0043 36.5072 49.0043 36.2886 49.0043C36.2157 49.0043 36.2157 49.0043 36.2157 49.0043C36.1428 49.0043 36.1428 48.9313 36.1428 48.9313C36.1428 48.9313 36.1428 48.8585 36.2157 48.8585C36.3614 48.8585 36.4343 48.8585 36.5071 48.7856C36.58 48.7128 36.6529 48.5671 36.6529 48.2756C36.7258 48.057 36.7258 47.9112 36.7258 47.8383C36.7258 47.7654 36.6529 47.6197 36.58 47.3282C36.5071 47.1096 36.4343 46.891 36.3614 46.6724C36.2886 46.4538 36.2157 46.3081 36.1428 46.2352C36.0699 46.1623 35.9971 46.0895 35.9242 46.0895C35.8514 46.0895 35.8513 46.0166 35.8513 46.0166C35.8513 45.9437 35.9242 45.9437 35.9242 45.9437H35.9971C36.2157 46.0166 36.3614 46.0895 36.4343 46.0895C36.58 46.1624 36.7986 46.1623 36.9443 46.2352C37.0172 46.2352 37.0173 46.2352 37.0173 46.2352C37.0902 46.2352 37.0901 46.2352 37.0901 46.3081L37.0173 46.3809C36.8715 46.3809 36.7986 46.381 36.7986 46.4539C37.0172 46.5267 37.0902 46.8911 37.3816 47.5469Z" fill="#081933"/>
<path fill-rule="evenodd" clip-rule="evenodd" d="M24.5658 0L25.3638 2.40951H27.9998L25.8717 3.9067L26.6939 6.33962L24.5658 4.81905L22.4377 6.33962L23.2599 3.9067L21.1318 2.40951H23.7436L24.5658 0Z" fill="white"/>
<path fill-rule="evenodd" clip-rule="evenodd" d="M31.4463 2.11328L31.9883 3.72115H33.8114L32.3332 4.70886L32.8998 6.3397L31.4463 5.32903L29.9682 6.3397L30.5348 4.70886L29.0566 3.72115H30.8797L31.4463 2.11328Z" fill="white"/>
<path fill-rule="evenodd" clip-rule="evenodd" d="M17.6977 2.11328L18.2672 3.72115H20.075L18.6139 4.70886L19.1835 6.3397L17.6977 5.32903L16.2118 6.3397L16.7814 4.70886L15.3203 3.72115H17.1281L17.6977 2.11328Z" fill="white"/>
<path fill-rule="evenodd" clip-rule="evenodd" d="M24.2657 26.1234C23.8285 23.5001 20.4765 21.8241 18.3632 21.8241V16.6504C17.7074 16.5775 17.4888 16.5775 16.833 16.6504V23.2086C19.3834 23.2086 22.6626 23.8644 24.2657 26.1234Z" fill="white"/>
<path fill-rule="evenodd" clip-rule="evenodd" d="M24.9209 26.1234C25.3581 23.5001 28.7102 21.8241 30.8234 21.8241V16.6504C31.4792 16.5775 31.6978 16.5775 32.3536 16.6504V23.2086C29.8032 23.2086 26.5969 23.8644 24.9209 26.1234Z" fill="white"/>
<path fill-rule="evenodd" clip-rule="evenodd" d="M24.2649 23.865V18.4727C23.2447 16.7238 22.5889 15.7765 19.1641 15.4121V20.9502C21.5687 21.2417 22.6618 21.9704 24.2649 23.865Z" fill="white"/>
<path fill-rule="evenodd" clip-rule="evenodd" d="M24.9209 23.865V18.4727C25.9411 16.7238 26.5969 15.7765 30.0217 15.4121V20.9502C27.6899 21.2417 26.524 21.9704 24.9209 23.865Z" fill="white"/>
</svg>
