<svg width="194" height="56" viewBox="0 0 194 56" fill="none" xmlns="http://www.w3.org/2000/svg">
<path fill-rule="evenodd" clip-rule="evenodd" d="M33.6644 41.0623C33.6644 41.0623 32.8629 39.6778 31.6241 39.1677C30.3854 38.6576 28.8551 39.8235 30.021 41.0623C31.114 42.3011 33.6644 41.0623 33.6644 41.0623ZM30.0939 34.8684C30.0939 34.8684 30.8954 36.2529 30.7497 37.6374C30.6039 38.949 28.7823 39.6778 28.2722 38.0747C27.7621 36.4715 30.0939 34.8684 30.0939 34.8684ZM40.2227 9.21837C40.2227 9.21837 41.5343 8.41681 42.7731 8.48968C44.0119 8.56255 44.7406 10.2386 43.2832 10.8216C41.8258 11.4045 40.2227 9.21837 40.2227 9.21837ZM45.8336 5.7207C45.8336 5.7207 44.5948 6.52223 44.0848 7.68814C43.6475 8.85405 44.8135 10.2386 45.9065 9.14552C47.1453 8.05248 45.8336 5.7207 45.8336 5.7207ZM41.68 12.4246C41.68 12.4246 43.1375 11.9146 44.3034 12.2061C45.5422 12.4976 45.9065 14.3193 44.3763 14.5379C42.846 14.9022 41.68 12.4246 41.68 12.4246ZM47.8739 10.02C47.8739 10.02 46.4895 10.6029 45.7608 11.6231C45.105 12.7161 45.9794 14.2464 47.291 13.372C48.6755 12.5704 47.8739 10.02 47.8739 10.02ZM42.4087 16.0681C42.4087 16.0681 43.939 15.7038 45.105 16.2139C46.2709 16.724 46.4166 18.5457 44.8135 18.6185C43.2103 18.6185 42.4087 16.0681 42.4087 16.0681ZM48.967 14.465C48.967 14.465 47.5096 14.8293 46.6352 15.7766C45.8336 16.7239 46.4895 18.4728 47.9469 17.7441C49.4043 17.1612 48.967 14.465 48.967 14.465ZM42.4817 19.5659C42.4817 19.5659 44.0119 19.493 45.105 20.2217C46.198 20.9504 45.9794 22.7721 44.3763 22.5535C42.7731 22.262 42.4817 19.5659 42.4817 19.5659ZM49.2585 19.2015C49.2585 19.2015 47.7282 19.2743 46.708 20.0759C45.6879 20.8775 46.0523 22.6992 47.6554 22.262C49.1856 21.8976 49.2585 19.2015 49.2585 19.2015ZM41.8258 22.9907C41.8258 22.9907 43.3561 23.2093 44.3034 24.0837C45.2507 24.9581 44.7406 26.7799 43.2104 26.1969C41.6801 25.6869 41.8258 22.9907 41.8258 22.9907ZM48.6026 23.8652C48.6026 23.8652 47.0724 23.6465 45.9065 24.3024C44.8135 24.9582 44.8134 26.7799 46.4165 26.6341C48.0925 26.5613 48.6026 23.8652 48.6026 23.8652ZM40.6599 26.1241C40.6599 26.1241 42.1173 26.707 42.846 27.8C43.5747 28.8931 42.6274 30.4962 41.2428 29.6218C39.8583 28.7473 40.6599 26.1241 40.6599 26.1241ZM47.0724 28.5287C47.0724 28.5287 45.615 28.0187 44.3763 28.3102C43.1375 28.6745 42.7003 30.4962 44.3763 30.7148C45.9794 31.0063 47.0724 28.5287 47.0724 28.5287ZM38.7653 29.0389C38.7653 29.0389 40.1498 29.8404 40.587 31.0791C41.0971 32.3179 39.9312 33.7754 38.6924 32.6095C37.5265 31.5164 38.7653 29.0389 38.7653 29.0389ZM44.6678 32.6095C44.6678 32.6095 43.2832 31.8079 41.9715 31.9536C40.6599 32.0994 39.9312 33.8482 41.5343 34.3583C43.1375 34.8683 44.6678 32.6095 44.6678 32.6095ZM36.3606 31.5893C36.3606 31.5893 37.5266 32.6823 37.818 33.9211C38.1095 35.2327 36.6521 36.4715 35.6319 35.087C34.6118 33.7753 36.3606 31.5893 36.3606 31.5893ZM41.5343 36.18C41.5343 36.18 40.2956 35.1598 38.9839 35.0141C37.6723 34.8684 36.6521 36.4715 38.1095 37.346C39.5669 38.1475 41.5343 36.18 41.5343 36.18ZM33.4459 33.5567C33.4459 33.5567 34.3932 34.8683 34.4661 36.18C34.5389 37.4916 32.8629 38.439 32.0613 36.9816C31.4055 35.3785 33.4459 33.5567 33.4459 33.5567ZM37.818 39.0948C37.818 39.0948 36.7979 37.856 35.5591 37.4917C34.2475 37.1273 32.9358 38.5119 34.2474 39.6049C35.4862 40.6251 37.818 39.0948 37.818 39.0948Z" fill="white"/>
<path fill-rule="evenodd" clip-rule="evenodd" d="M15.594 41.0623C15.594 41.0623 16.3955 39.6778 17.6343 39.1677C18.8731 38.6576 20.4034 39.8235 19.2375 41.0623C18.1445 42.3011 15.594 41.0623 15.594 41.0623ZM19.1646 34.8684C19.1646 34.8684 18.3631 36.2529 18.5088 37.6374C18.6545 38.949 20.4763 39.6778 20.9864 38.0747C21.4965 36.4715 19.1646 34.8684 19.1646 34.8684ZM8.96295 9.21837C8.96295 9.21837 7.65131 8.41681 6.41253 8.48968C5.17375 8.56255 4.44501 10.2386 5.90239 10.8216C7.43265 11.4045 8.96295 9.21837 8.96295 9.21837ZM3.35197 5.7207C3.35197 5.7207 4.59076 6.52223 5.10085 7.68814C5.53806 8.85405 4.37216 10.2386 3.27912 9.14552C2.11321 8.05248 3.35197 5.7207 3.35197 5.7207ZM7.57842 12.4246C7.57842 12.4246 6.12105 11.9146 4.95515 12.2061C3.71637 12.4976 3.35195 14.3193 4.88221 14.5379C6.41246 14.9022 7.57842 12.4246 7.57842 12.4246ZM1.31168 10.02C1.31168 10.02 2.69613 10.6029 3.42482 11.6231C4.08064 12.7161 3.20623 14.2464 1.89458 13.372C0.510067 12.5704 1.31168 10.02 1.31168 10.02ZM6.77688 16.0681C6.77688 16.0681 5.24657 15.7038 4.08066 16.2139C2.91475 16.724 2.76903 18.5457 4.37216 18.6185C6.04815 18.6185 6.77688 16.0681 6.77688 16.0681ZM0.291495 14.465C0.291495 14.465 1.74884 14.8293 2.62328 15.7766C3.42484 16.7239 2.76907 18.4728 1.31168 17.7441C-0.145703 17.1612 0.291495 14.465 0.291495 14.465ZM6.77688 19.5659C6.77688 19.5659 5.24655 19.493 4.15351 20.2217C3.06047 20.9504 3.27908 22.7721 4.88221 22.5535C6.41246 22.262 6.77688 19.5659 6.77688 19.5659ZM0 19.2015C0 19.2015 1.53025 19.2743 2.55042 20.0759C3.57059 20.8775 3.20621 22.6992 1.60309 22.262C0.0728337 21.8976 0 19.2015 0 19.2015ZM7.35978 22.9907C7.35978 22.9907 5.8295 23.2093 4.88221 24.0837C3.9349 24.9581 4.44499 26.7799 5.97524 26.1969C7.57837 25.6869 7.35978 22.9907 7.35978 22.9907ZM0.655841 23.8652C0.655841 23.8652 2.18606 23.6465 3.35197 24.3024C4.44501 24.9582 4.44504 26.7799 2.84192 26.6341C1.16593 26.5613 0.655841 23.8652 0.655841 23.8652ZM8.59861 26.1241C8.59861 26.1241 7.14122 26.707 6.41253 27.8C5.68384 28.8931 6.6311 30.4962 8.01562 29.6218C9.40013 28.7473 8.59861 26.1241 8.59861 26.1241ZM2.18608 28.5287C2.18608 28.5287 3.64343 28.0187 4.88221 28.3102C6.12098 28.6745 6.5582 30.4962 4.88221 30.7148C3.27908 31.0063 2.18608 28.5287 2.18608 28.5287ZM10.4932 29.0389C10.4932 29.0389 9.10868 29.8404 8.67146 31.0791C8.16138 32.3179 9.32726 33.7754 10.566 32.6095C11.732 31.5164 10.4932 29.0389 10.4932 29.0389ZM4.51786 32.6095C4.51786 32.6095 5.90243 31.8079 7.21407 31.9536C8.52572 32.0994 9.2544 33.8482 7.65127 34.3583C6.12102 34.8683 4.51786 32.6095 4.51786 32.6095ZM12.8978 31.5893C12.8978 31.5893 11.7319 32.6823 11.4404 33.9211C11.149 35.2327 12.6063 36.4715 13.6265 35.087C14.6467 33.7753 12.8978 31.5893 12.8978 31.5893ZM7.65127 36.18C7.65127 36.18 8.89005 35.1598 10.2017 35.0141C11.5133 34.8684 12.5335 36.4715 11.0761 37.346C9.61871 38.1475 7.65127 36.18 7.65127 36.18ZM15.7397 33.5567C15.7397 33.5567 14.7924 34.8683 14.7196 36.18C14.6467 37.4916 16.3227 38.439 17.1243 36.9816C17.853 35.3785 15.7397 33.5567 15.7397 33.5567ZM11.4404 39.0948C11.4404 39.0948 12.4607 37.856 13.6995 37.4917C15.0111 37.1273 16.3227 38.5119 15.011 39.6049C13.7723 40.6251 11.4404 39.0948 11.4404 39.0948Z" fill="white"/>
<path d="M24.6308 35.3053C33.2294 31.0789 37.0186 20.6586 37.8201 12.3515C33.7394 10.4569 29.2944 9.29102 24.6308 9.29102C19.9672 9.29102 15.5221 10.4569 11.4414 12.3515C12.243 20.6586 15.9594 31.0789 24.6308 35.3053Z" stroke="#D3224D" stroke-width="2.9999" stroke-miterlimit="22.9256"/>
<path fill-rule="evenodd" clip-rule="evenodd" d="M47.8752 55.9999C44.3775 54.6882 40.4426 53.8867 36.2891 53.5223V51.8463C37.7464 52.2106 39.1309 52.6479 40.4426 53.0851L41.9 53.5952V51.9921V47.7656C44.0132 48.13 45.9806 48.713 47.8024 49.3688L43.3573 51.0447L47.8752 55.9999Z" fill="white"/>
<path fill-rule="evenodd" clip-rule="evenodd" d="M1.3125 55.9999C4.81022 54.6882 8.74509 53.8867 12.8986 53.5223V51.8463C11.4413 52.2106 10.0568 52.6479 8.74513 53.0851L7.28774 53.5952V51.9921V47.7656C5.17453 48.13 3.20708 48.713 1.38535 49.3688L5.83036 51.0447L1.3125 55.9999Z" fill="white"/>
<path fill-rule="evenodd" clip-rule="evenodd" d="M8.37891 45.5062V52.0644C17.9248 48.4938 31.3327 48.4938 40.9514 52.0644V45.5062C31.5513 42.1542 17.7062 42.1542 8.37891 45.5062Z" fill="white"/>
<path d="M10.3461 46.5267L11.0019 46.3809C11.0748 46.3809 11.1477 46.3081 11.2206 46.3081C11.3663 46.2352 11.4392 46.2352 11.5121 46.2352C11.5849 46.2352 11.6578 46.2352 11.6578 46.2352C11.6578 46.3081 11.6578 46.3081 11.5849 46.3081C11.5121 46.3081 11.4391 46.381 11.3663 46.4539C11.3663 46.5267 11.3663 46.6724 11.3663 46.891C11.4391 47.1097 11.4392 47.3283 11.5121 47.5469C11.5849 47.9112 11.7306 48.2027 11.8035 48.3484C11.8763 48.4942 11.9492 48.5671 12.095 48.6399C12.2407 48.7128 12.3865 48.7128 12.6051 48.6399C12.8237 48.5671 12.9694 48.4942 13.0423 48.4213C13.1152 48.2755 13.188 48.1298 13.1152 47.9841C13.1152 47.7655 13.0423 47.4011 12.8965 46.891C12.8236 46.5996 12.7508 46.3809 12.678 46.3081C12.6051 46.2352 12.5322 46.1624 12.3865 46.1624C12.3136 46.1624 12.2408 46.1624 12.2408 46.0895C12.2408 46.0166 12.2407 46.0166 12.3136 46.0166C12.3136 46.0166 12.3864 46.0166 12.4593 46.0166C12.5322 46.0166 12.6051 46.0166 12.678 45.9437C12.7508 45.9437 12.8237 45.8709 12.9695 45.8709C13.0423 45.8709 13.1152 45.798 13.1152 45.798C13.188 45.798 13.188 45.798 13.2609 45.798C13.2609 45.798 13.2609 45.8709 13.188 45.8709C13.1151 45.8709 13.0423 45.9437 13.0423 46.0166C12.9694 46.0894 12.9694 46.1623 13.0423 46.3081C13.0423 46.4538 13.1151 46.8182 13.2609 47.3282C13.3337 47.6926 13.4067 47.9841 13.3338 48.1298C13.3338 48.2755 13.188 48.4941 13.0423 48.567C12.8966 48.7127 12.6779 48.7856 12.3865 48.8585C12.1679 48.9314 12.0221 48.9313 11.8035 48.9313C11.6577 48.9313 11.512 48.9314 11.3663 48.8585C11.2934 48.7856 11.1477 48.7128 11.0748 48.6399C11.0019 48.5671 10.9291 48.4212 10.9291 48.2026L10.6376 47.1096C10.5647 46.9639 10.5648 46.8181 10.4919 46.7453C10.419 46.6724 10.419 46.5996 10.3461 46.5996C10.2732 46.5996 10.2733 46.5996 10.1275 46.5996C10.0547 46.5996 10.0547 46.5996 10.0547 46.5996C10.0547 46.5996 10.0547 46.5996 10.0547 46.5267C10.2733 46.5267 10.3461 46.5267 10.3461 46.5267ZM14.4997 45.5794C15.3013 46.2352 15.957 46.7453 16.54 47.1096C16.54 47.0367 16.54 46.9639 16.54 46.891L16.3943 46.0895C16.3214 45.8709 16.3214 45.7251 16.2486 45.6522C16.1757 45.5793 16.1757 45.5065 16.1028 45.5065C16.0299 45.5065 15.957 45.4337 15.8113 45.4337C15.7384 45.4337 15.7384 45.4337 15.7384 45.3608C15.7384 45.2879 15.7384 45.2879 15.8113 45.2879H15.8842C15.9571 45.2879 16.1028 45.2879 16.2486 45.215C16.4672 45.215 16.6129 45.1422 16.6858 45.1422C16.7586 45.1422 16.7586 45.1422 16.7586 45.1422C16.8315 45.1422 16.8315 45.1422 16.8315 45.215C16.8315 45.2879 16.8315 45.2879 16.7586 45.2879C16.6858 45.2879 16.6128 45.3608 16.54 45.4337C16.4671 45.5065 16.4671 45.6523 16.4671 45.8709L16.6858 47.0368L16.8315 47.9112C16.8315 47.9841 16.8315 48.0569 16.7586 48.0569C16.7586 48.0569 16.7586 48.0569 16.6858 48.0569C16.6858 48.0569 16.54 47.984 16.3214 47.8383C16.1028 47.6926 15.8113 47.4739 15.3741 47.1096C14.9369 46.8181 14.6454 46.5266 14.4997 46.3809C14.4997 46.4538 14.5725 46.7453 14.7182 47.4011C14.7911 47.6197 14.7912 47.7655 14.864 47.9112C14.9369 48.057 15.0097 48.1298 15.0826 48.1298C15.1555 48.1298 15.3012 48.2027 15.3741 48.1298C15.447 48.1298 15.4469 48.1298 15.4469 48.2026C15.4469 48.2755 15.447 48.2756 15.3741 48.2756C15.3741 48.2756 15.3013 48.2756 15.2284 48.2756C15.1555 48.2756 15.0098 48.2756 14.9369 48.3484C14.7183 48.4213 14.5726 48.4213 14.4997 48.4213C14.4268 48.4213 14.4268 48.4213 14.3539 48.4213C14.281 48.4213 14.2811 48.4213 14.2811 48.3484C14.2811 48.3484 14.2811 48.2756 14.4268 48.2756C14.5726 48.2027 14.6454 48.1298 14.7182 48.0569C14.7182 47.9841 14.7182 47.8383 14.7182 47.6197C14.5725 46.891 14.4997 46.4538 14.4268 46.3081C14.354 46.1623 14.2811 46.0166 14.2082 45.8709C14.0625 45.7251 13.9896 45.7252 13.8439 45.7252C13.771 45.7252 13.771 45.7251 13.771 45.6522C13.771 45.5793 13.771 45.5794 13.8439 45.5794C13.8439 45.5794 13.8438 45.5794 13.9167 45.5794C13.9167 45.5794 13.9896 45.5794 14.0625 45.5794C14.2082 45.5794 14.354 45.5794 14.4997 45.5794ZM17.3416 45.0693C17.4145 45.0693 17.4873 45.0693 17.633 45.0693C17.7788 45.0693 17.8516 45.0693 17.9245 45.0693L18.5804 44.9965C18.6532 44.9965 18.6532 44.9964 18.6532 45.0693C18.6532 45.0693 18.6532 45.1422 18.5804 45.1422C18.4346 45.1422 18.3617 45.215 18.3617 45.215C18.3617 45.215 18.2889 45.2879 18.2889 45.4337C18.2889 45.5794 18.2888 45.798 18.3617 46.1624C18.4346 46.5996 18.4346 46.9639 18.5075 47.1825C18.5804 47.4012 18.5803 47.5469 18.6532 47.6197C18.7261 47.6926 18.799 47.6926 18.8718 47.6926C18.9447 47.6926 18.9447 47.6926 19.0176 47.7654C19.0176 47.8383 19.0176 47.8383 18.9447 47.8383H18.8718C18.5804 47.8383 18.4346 47.8384 18.2889 47.9112C18.0703 47.9112 17.9245 47.9841 17.8517 47.9841C17.7788 47.9841 17.7788 47.9841 17.706 47.9841C17.6331 47.9841 17.633 47.9841 17.633 47.9112C17.633 47.9112 17.6331 47.8383 17.706 47.8383C17.8517 47.8383 17.9245 47.7655 17.9245 47.6926C17.9245 47.6197 17.9974 47.474 17.9245 47.3282C17.9245 47.1096 17.8517 46.8181 17.8517 46.3809C17.7788 45.9437 17.7788 45.6523 17.706 45.5065C17.706 45.3608 17.633 45.2879 17.5602 45.215C17.4873 45.215 17.4145 45.1422 17.3416 45.1422C17.2687 45.1422 17.2687 45.1422 17.3416 45.0693C17.2687 45.0693 17.2687 45.0693 17.3416 45.0693ZM20.6936 47.6197H20.5478L20.1106 46.5996C19.9649 46.3809 19.8191 46.0166 19.6734 45.6522C19.5277 45.2879 19.3819 45.0693 19.309 44.9965C19.2362 44.9236 19.2362 44.9235 19.1633 44.8507C19.1633 44.8507 19.0904 44.8507 19.0176 44.8507C18.9447 44.8507 18.9447 44.8507 18.9447 44.7778C18.9447 44.705 18.9447 44.705 19.0176 44.705H19.6005C19.8191 44.705 19.9648 44.705 20.1834 44.6321C20.2563 44.6321 20.2564 44.6321 20.2564 44.6321C20.3293 44.6321 20.3292 44.6321 20.3292 44.705C20.3292 44.705 20.3293 44.7778 20.2564 44.7778C20.1106 44.7778 20.0377 44.9236 20.0377 44.9965C20.0377 45.2151 20.2564 45.798 20.6936 46.7453C20.7664 46.4538 20.9122 46.0895 20.9851 45.798L21.1308 45.215C21.1308 45.1422 21.1308 45.0693 21.1308 44.9965C21.1308 44.9236 21.1308 44.8507 21.0579 44.8507C20.9851 44.7778 20.985 44.7778 20.9121 44.7778C20.8393 44.7778 20.8393 44.7778 20.8393 44.705C20.8393 44.6321 20.8393 44.6321 20.9121 44.6321C20.985 44.6321 20.9851 44.6321 21.0579 44.6321C21.2037 44.6321 21.2766 44.6321 21.3494 44.6321C21.4223 44.6321 21.568 44.6321 21.6408 44.6321C21.7137 44.6321 21.7137 44.6321 21.7866 44.6321C21.8595 44.6321 21.8595 44.6321 21.8595 44.705C21.8595 44.705 21.8595 44.7778 21.7866 44.7778C21.7137 44.7778 21.6408 44.8507 21.568 44.8507C21.4951 44.9235 21.4951 44.9964 21.4223 45.0693C21.3494 45.1422 21.2765 45.3608 21.2036 45.7252L20.9121 46.7453C20.8393 47.1096 20.6936 47.474 20.6936 47.6197ZM24.5556 44.6321C24.6285 44.8507 24.6285 45.0693 24.7014 45.2879C24.7014 45.3607 24.7014 45.3608 24.6285 45.3608C24.6285 45.3608 24.5556 45.3607 24.5556 45.2879C24.4099 45.0693 24.2641 44.9235 24.1184 44.8507C23.9727 44.7778 23.827 44.7778 23.6083 44.7778C23.4626 44.7778 23.3897 44.7778 23.244 44.7778C23.244 44.9964 23.244 45.2879 23.244 45.5794C23.244 45.6522 23.244 45.7251 23.244 45.8709H23.3897C23.4626 45.8709 23.6083 45.8709 23.6812 45.798C23.7541 45.798 23.827 45.7251 23.8998 45.6522C23.9727 45.5793 23.9727 45.5065 23.9727 45.5065C23.9727 45.4336 23.9727 45.4337 24.0455 45.4337C24.1184 45.4337 24.1184 45.4336 24.1184 45.5065C24.1184 45.5794 24.1184 45.8708 24.1184 46.3081C24.1184 46.3809 24.1184 46.4539 24.1184 46.4539C24.1184 46.5267 24.1184 46.5267 24.0455 46.5267C24.0455 46.5267 23.9727 46.4538 23.9727 46.3809C23.9727 46.2352 23.8998 46.1624 23.7541 46.0895C23.6812 46.0166 23.4626 46.0166 23.244 46.0166C23.244 46.2352 23.244 46.381 23.244 46.4539C23.244 46.7453 23.244 46.9639 23.244 47.0368C23.244 47.1096 23.3168 47.1825 23.3897 47.1825C23.4626 47.2554 23.5355 47.2554 23.6812 47.2554C24.1913 47.2554 24.5556 47.1096 24.7742 46.7453C24.7742 46.6724 24.8471 46.6724 24.8471 46.6724C24.92 46.6724 24.9199 46.6724 24.9199 46.7453V46.8182L24.7742 47.4011H23.9727C23.7541 47.4011 23.5354 47.4011 23.3897 47.4011C23.1711 47.4011 23.0254 47.4011 22.9525 47.4011C22.8068 47.4011 22.6611 47.4011 22.4425 47.4011H22.3695C22.2966 47.4011 22.2967 47.4011 22.2967 47.3282C22.2967 47.2554 22.2966 47.2554 22.3695 47.2554C22.5153 47.2554 22.5881 47.1825 22.661 47.1096C22.7339 47.0367 22.7339 46.891 22.7339 46.6724V45.5794C22.7339 45.215 22.7339 44.9964 22.7339 44.9235C22.7339 44.8507 22.7339 44.7778 22.661 44.7778C22.5881 44.7778 22.5153 44.705 22.4425 44.705C22.3696 44.705 22.3695 44.705 22.3695 44.6321C22.3695 44.5593 22.3696 44.5592 22.4425 44.5592H22.9525L24.5556 44.6321ZM26.7417 46.0166C26.9603 46.0166 27.1061 46.0895 27.179 46.2352C27.3247 46.3081 27.3975 46.5266 27.4704 46.7453C27.5432 46.9639 27.5433 47.1825 27.6162 47.2554C27.689 47.3283 27.7619 47.4011 27.9077 47.4011C27.9805 47.4011 27.9805 47.4011 27.9805 47.4739C27.9805 47.5468 27.9076 47.5469 27.8347 47.5469L27.0332 47.4739C26.9603 47.4011 26.8875 47.2554 26.8875 47.0368C26.8875 46.7453 26.8146 46.5267 26.8146 46.4539C26.7417 46.3081 26.7417 46.2352 26.6688 46.1624C26.596 46.0895 26.5231 46.0895 26.3773 46.0895C26.3773 46.0895 26.3045 46.0895 26.2316 46.0895C26.2316 46.5996 26.1588 46.891 26.1588 47.0368C26.1588 47.1825 26.1588 47.2554 26.2316 47.2554C26.3045 47.3283 26.3774 47.3282 26.4503 47.3282C26.5231 47.3282 26.5231 47.3282 26.5231 47.4011C26.5231 47.474 26.5231 47.4739 26.4503 47.4739L25.7944 47.4011C25.7216 47.4011 25.5758 47.4011 25.4301 47.4011C25.2843 47.4011 25.2114 47.4011 25.2114 47.4011C25.1386 47.4011 25.1386 47.4011 25.1386 47.3282C25.1386 47.2554 25.1386 47.2554 25.2114 47.2554C25.2843 47.2554 25.3572 47.2554 25.4301 47.1825C25.5029 47.1097 25.5758 46.9639 25.5758 46.6724V46.3081L25.6486 45.5065C25.6486 45.1422 25.6486 44.8507 25.6486 44.7778C25.6486 44.705 25.503 44.6321 25.3572 44.6321C25.2844 44.6321 25.2843 44.632 25.2843 44.5592C25.2843 44.4863 25.3572 44.4863 25.4301 44.4863C25.8673 44.4863 26.1588 44.4863 26.4503 44.4863C26.596 44.4863 26.6689 44.4863 26.8146 44.4863C27.1061 44.4863 27.3976 44.5592 27.5433 44.705C27.689 44.8507 27.8347 44.9964 27.7619 45.215C27.7619 45.3608 27.689 45.5065 27.6162 45.5794C27.5433 45.6522 27.3975 45.798 27.2518 45.798C27.0332 46.0166 26.8874 46.0166 26.7417 46.0166ZM26.1588 45.9437C26.2316 45.9437 26.2316 45.9437 26.2316 45.9437C26.3774 45.9437 26.4502 45.9437 26.596 45.8709C26.7417 45.798 26.8146 45.7251 26.8875 45.6522C26.9603 45.5793 26.9603 45.4337 26.9603 45.3608C26.9603 45.2151 26.8875 45.0693 26.8146 44.9235C26.7417 44.8507 26.5959 44.7778 26.3773 44.7778C26.3045 44.7778 26.2316 44.7778 26.1588 44.7778V45.9437ZM30.0937 45.0693L30.1666 44.9965C30.1666 44.9236 30.2394 44.9235 30.2394 44.9235C30.3123 44.9235 30.3123 44.9965 30.3123 44.9965V45.5794V45.6522C30.3123 45.7251 30.3123 45.7252 30.2394 45.7252H30.1666C30.1666 45.7252 30.1666 45.6522 30.0937 45.5794C30.0209 45.4336 29.948 45.2879 29.8022 45.215C29.6565 45.0693 29.5108 44.9965 29.365 44.9965C29.2193 44.9965 29.0736 44.9964 29.0007 45.0693C28.9278 45.1422 28.8549 45.2151 28.8549 45.3608C28.8549 45.4337 28.8549 45.5793 28.9277 45.6522C29.0006 45.7251 29.1464 45.798 29.365 45.9437C29.7294 46.0895 29.948 46.2352 30.0937 46.4539C30.2395 46.5996 30.2394 46.8181 30.2394 47.0368C30.2394 47.2554 30.1665 47.4012 30.0208 47.5469C29.875 47.6926 29.8022 47.7654 29.6564 47.8383C29.5107 47.9112 29.365 47.9112 29.1464 47.9112C29.0007 47.9112 28.9278 47.8383 28.782 47.8383C28.6363 47.7654 28.5634 47.6926 28.4177 47.6197C28.4177 47.6197 28.3448 47.6926 28.3448 47.7654C28.3448 47.8383 28.272 47.8383 28.272 47.8383C28.272 47.8383 28.1991 47.7655 28.1991 47.6926V46.891V46.8182C28.1991 46.7453 28.1991 46.7453 28.272 46.7453C28.272 46.7453 28.3448 46.8182 28.3448 46.891C28.4177 47.1097 28.4906 47.3282 28.6363 47.4739C28.7821 47.6197 28.9278 47.6926 29.1464 47.7654C29.2921 47.7654 29.4379 47.7655 29.5836 47.6926C29.7293 47.6197 29.7294 47.474 29.8022 47.4011C29.8022 47.2554 29.8023 47.1825 29.7294 47.0368C29.6565 46.9639 29.5107 46.8181 29.2192 46.7453C29.0006 46.6724 28.8549 46.5267 28.7092 46.4539C28.6363 46.381 28.4906 46.2352 28.4906 46.1624C28.4177 46.0166 28.4177 45.8709 28.4177 45.798C28.4177 45.5794 28.5635 45.3607 28.7092 45.2879C28.9278 45.1421 29.1464 45.0693 29.4379 45.1422C29.6565 44.8507 29.8751 44.9236 30.0937 45.0693ZM31.041 45.0693C31.1138 45.0693 31.1867 45.0693 31.3325 45.1422C31.4782 45.1422 31.5511 45.215 31.624 45.215L32.2798 45.2879C32.3527 45.2879 32.3527 45.2879 32.3527 45.3608C32.3527 45.3608 32.3527 45.4337 32.2798 45.4337C32.1341 45.4337 32.0612 45.4337 32.0612 45.4337C31.9883 45.4337 31.9883 45.5065 31.9155 45.6522C31.8426 45.7251 31.8425 46.0166 31.7697 46.3809C31.6968 46.8181 31.624 47.1825 31.624 47.4011C31.624 47.6197 31.624 47.7654 31.624 47.8383C31.624 47.9112 31.6968 47.9112 31.8425 47.9841C31.9154 47.9841 31.9155 47.9841 31.9155 48.0569C31.9155 48.1298 31.8425 48.1298 31.7697 48.1298H31.6968C31.4053 48.0569 31.2596 48.057 31.1868 47.9841C30.9682 47.9841 30.8224 47.9112 30.6766 47.9112C30.6038 47.9112 30.6038 47.9112 30.5309 47.9112C30.4581 47.9112 30.4581 47.9112 30.4581 47.8383C30.4581 47.8383 30.4581 47.7654 30.5309 47.7654C30.6767 47.7654 30.7496 47.7655 30.8224 47.6926C30.8953 47.6197 30.8953 47.5469 30.9681 47.3282C31.041 47.1096 31.041 46.8182 31.1138 46.4539C31.1867 46.0166 31.1868 45.7251 31.1868 45.5794C31.1868 45.4336 31.1868 45.3607 31.1868 45.2879C31.1868 45.215 31.1139 45.215 30.9681 45.215C30.8953 45.215 30.8953 45.1422 30.8953 45.1422C30.9681 45.0693 31.041 45.0693 31.041 45.0693ZM32.7899 45.2879C33.5185 45.4336 34.0286 45.5793 34.3929 45.6522C34.6844 45.7251 34.976 45.7251 35.2674 45.798C35.4132 45.798 35.4861 45.798 35.5589 45.8709C35.5589 45.8709 35.6318 45.8709 35.7046 45.8709C35.7046 45.9437 35.7046 46.0166 35.7046 46.2352V46.5996C35.7046 46.6724 35.6318 46.6724 35.6318 46.6724C35.6318 46.6724 35.5589 46.5996 35.5589 46.5267C35.5589 46.381 35.486 46.3081 35.4131 46.1624C35.3403 46.0895 35.2674 46.0166 35.1216 45.9437C35.0488 45.8708 34.8302 45.8709 34.6116 45.798C34.5387 46.0166 34.4658 46.3081 34.3929 46.5996C34.3201 46.9639 34.2472 47.2554 34.2472 47.5469C34.1744 47.8384 34.1744 48.0569 34.1744 48.1298C34.1744 48.2027 34.1744 48.2756 34.2472 48.2756C34.3201 48.3485 34.393 48.3484 34.5387 48.4213C34.6116 48.4213 34.6116 48.4941 34.6116 48.4941C34.6116 48.567 34.6116 48.567 34.5387 48.567H34.4659L34.0286 48.4941C33.6643 48.4213 33.5186 48.4213 33.4457 48.3484L33.1542 48.2756C33.1542 48.2756 33.0814 48.2756 33.0085 48.2756C33.0085 48.2756 32.9356 48.2755 32.9356 48.2026C32.9356 48.1298 33.0085 48.1298 33.0085 48.1298C33.1542 48.1298 33.227 48.1298 33.2999 48.1298C33.3728 48.0569 33.4457 47.9841 33.4457 47.9112C33.5186 47.7655 33.5185 47.5469 33.5914 47.1825C33.7371 46.5996 33.81 46.0895 33.81 45.7252C33.5914 45.6523 33.4456 45.6522 33.2999 45.6522C33.227 45.6522 33.0814 45.6523 33.0085 45.7252C32.8628 45.798 32.7899 45.8708 32.717 46.0166C32.717 46.0894 32.6442 46.0895 32.6442 46.0895C32.5713 46.0895 32.5712 46.0894 32.5712 46.0166C32.5712 46.0166 32.5713 45.9438 32.6442 45.7252C32.717 45.5066 32.7899 45.3607 32.7899 45.2879ZM37.3807 47.5469C37.8907 47.1097 38.1822 46.891 38.1822 46.7453V46.6724C38.1822 46.5995 38.1093 46.5996 38.0364 46.5267C37.9635 46.5267 37.9636 46.4539 37.9636 46.4539C37.9636 46.381 38.0364 46.3809 38.0364 46.3809C38.0364 46.3809 38.0365 46.3809 38.1093 46.3809C38.2551 46.4538 38.4008 46.4538 38.4737 46.5267C38.5466 46.5267 38.6923 46.5996 38.838 46.5996H38.9109C38.9838 46.5996 38.9837 46.5995 38.9837 46.6724C38.9837 46.6724 38.9838 46.7453 38.9109 46.7453C38.838 46.7453 38.6923 46.7453 38.6194 46.7453C38.5465 46.7453 38.4008 46.8182 38.255 46.9639C38.1093 47.1096 37.9636 47.2554 37.745 47.4011C37.5264 47.5468 37.4535 47.6926 37.4535 47.6926C37.4535 47.7655 37.3806 47.9112 37.3077 48.1298C37.2348 48.4941 37.162 48.7856 37.162 48.8585C37.162 48.9314 37.2349 49.0043 37.3807 49.0771C37.4535 49.0771 37.4535 49.15 37.4535 49.15C37.4535 49.2228 37.3807 49.2228 37.3807 49.2228C37.3078 49.2228 37.2349 49.15 37.0163 49.15C36.9434 49.15 36.8705 49.0771 36.7977 49.0771C36.6519 49.0043 36.5062 49.0043 36.2876 49.0043C36.2147 49.0043 36.2147 49.0043 36.2147 49.0043C36.1418 49.0043 36.1418 48.9313 36.1418 48.9313C36.1418 48.9313 36.1418 48.8585 36.2147 48.8585C36.3604 48.8585 36.4333 48.8585 36.5062 48.7856C36.579 48.7128 36.652 48.5671 36.652 48.2756C36.7248 48.057 36.7248 47.9112 36.7248 47.8383C36.7248 47.7654 36.6519 47.6197 36.579 47.3282C36.5062 47.1096 36.4333 46.891 36.3605 46.6724C36.2876 46.4538 36.2147 46.3081 36.1418 46.2352C36.069 46.1623 35.9961 46.0895 35.9233 46.0895C35.8504 46.0895 35.8503 46.0166 35.8503 46.0166C35.8503 45.9437 35.9233 45.9437 35.9233 45.9437H35.9961C36.2147 46.0166 36.3604 46.0895 36.4333 46.0895C36.5791 46.1624 36.7976 46.1623 36.9434 46.2352C37.0162 46.2352 37.0163 46.2352 37.0163 46.2352C37.0892 46.2352 37.0892 46.2352 37.0892 46.3081L37.0163 46.3809C36.8706 46.3809 36.7977 46.381 36.7977 46.4539C37.0163 46.5267 37.0892 46.8911 37.3807 47.5469Z" fill="white"/>
<path fill-rule="evenodd" clip-rule="evenodd" d="M24.5668 0L25.3648 2.40951H28.0007L25.8726 3.9067L26.6949 6.33962L24.5668 4.81905L22.4387 6.33962L23.2609 3.9067L21.1328 2.40951H23.7445L24.5668 0Z" fill="white"/>
<path fill-rule="evenodd" clip-rule="evenodd" d="M31.4444 2.11328L31.9863 3.72115H33.8094L32.3312 4.70886L32.8979 6.3397L31.4444 5.32903L29.9662 6.3397L30.5328 4.70886L29.0547 3.72115H30.8777L31.4444 2.11328Z" fill="white"/>
<path fill-rule="evenodd" clip-rule="evenodd" d="M17.6977 2.11328L18.2672 3.72115H20.075L18.6139 4.70886L19.1835 6.3397L17.6977 5.32903L16.2118 6.3397L16.7814 4.70886L15.3203 3.72115H17.1281L17.6977 2.11328Z" fill="white"/>
<path fill-rule="evenodd" clip-rule="evenodd" d="M24.2647 26.1234C23.8275 23.5001 20.4755 21.8241 18.3623 21.8241V16.6504C17.7064 16.5775 17.4879 16.5775 16.832 16.6504V23.2086C19.3825 23.2086 22.6616 23.8644 24.2647 26.1234Z" fill="white"/>
<path fill-rule="evenodd" clip-rule="evenodd" d="M24.9219 26.1234C25.3591 23.5001 28.7111 21.8241 30.8244 21.8241V16.6504C31.4802 16.5775 31.6988 16.5775 32.3546 16.6504V23.2086C29.8042 23.2086 26.5979 23.8644 24.9219 26.1234Z" fill="white"/>
<path fill-rule="evenodd" clip-rule="evenodd" d="M24.2649 23.865V18.4727C23.2447 16.7238 22.5889 15.7765 19.1641 15.4121V20.9502C21.5687 21.2417 22.6618 21.9704 24.2649 23.865Z" fill="white"/>
<path fill-rule="evenodd" clip-rule="evenodd" d="M24.9219 23.865V18.4727C25.942 16.7238 26.5979 15.7765 30.0227 15.4121V20.9502C27.6909 21.2417 26.525 21.9704 24.9219 23.865Z" fill="white"/>
<path d="M73.1556 5.756L73.8556 10.796L73.2676 10.992C71.2236 7.744 69.5156 6.288 67.2476 6.288C65.5396 6.288 64.4476 7.156 64.4476 8.584C64.4476 10.712 66.9396 11.72 69.5156 13.008C72.3156 14.38 75.1996 16.004 75.1996 20.036C75.1996 24.656 71.5316 26.448 67.3876 26.448C65.0636 26.448 62.7396 25.86 61.2556 25.16L60.4996 19.364L61.0876 19.168C63.6636 23.396 65.6236 25.244 68.3396 25.244C70.3556 25.244 71.5876 24.096 71.5876 22.36C71.5876 19.98 69.2356 18.888 66.6876 17.628C63.8876 16.228 60.9476 14.744 60.9476 11.02C60.9476 6.708 64.6716 5.084 68.7036 5.084C70.2436 5.084 71.8116 5.336 73.1556 5.756ZM91.2797 25.944V26H83.6357V25.944C84.5597 23.788 84.9237 22.612 84.9237 19.672V6.652L83.5797 6.736C82.0117 6.876 79.5477 10.404 78.1757 12.364L77.5877 12.196L78.7357 5.504H96.1797L97.3277 12.196L96.7397 12.364C95.3397 10.404 92.9037 6.876 91.3357 6.736L89.9917 6.652V19.672C89.9917 22.612 90.3557 23.788 91.2797 25.944ZM103.444 26H97.6763V25.944C98.9083 24.796 99.8603 23.004 100.7 20.708L106.216 5.42H109.66L115.232 20.848C116.016 23.032 116.856 24.74 117.892 25.944V26H109.436V25.944C110.472 24.656 110.78 22.752 109.94 20.344L109.38 18.748H102.744L102.408 19.644C101.232 22.808 101.96 24.852 103.444 25.944V26ZM103.164 17.516H108.96L106.104 9.368L103.164 17.516ZM120.728 26V25.944C121.652 23.9 122.016 22.752 122.016 19.924V11.58C122.016 8.752 121.652 7.604 120.728 5.56V5.504C124.032 5.504 125.404 5.392 129.184 5.392C136.772 5.392 141.504 9.004 141.504 15.64C141.504 22.276 137.024 26 129.184 26H120.728ZM136.016 15.892C136.016 9.564 134.224 6.652 129.324 6.652C128.848 6.652 127.84 6.708 127.056 6.792V24.628C127.924 24.712 129.128 24.74 129.604 24.74C134.616 24.684 136.016 21.464 136.016 15.892ZM154.542 26.448C149.754 26.448 146.058 24.124 146.058 18.496V11.86C146.058 8.892 145.694 7.716 144.77 5.56V5.504H152.47V5.56C151.546 7.604 151.154 8.892 151.154 11.832V18.748C151.154 23.536 153.142 24.824 155.774 24.824C159.694 24.824 160.926 21.912 160.926 18.16V12.056C160.926 9.004 160.338 7.772 158.406 5.56V5.504H164.762L164.818 5.56C163.026 7.772 162.298 9.06 162.298 12.084V17.964C162.298 22.724 160.618 26.448 154.542 26.448ZM184.158 26V25.944C185.082 23.788 185.446 22.612 185.446 19.644V9.592L178.502 25.384H177.242L170.186 9.368L170.27 19.504C170.298 22.444 171.11 23.732 172.986 25.944V26H166.714V25.944C168.282 23.732 168.898 22.5 168.898 19.476V10.376C168.758 8.192 168.058 7.212 166.546 5.56V5.504H173.882L179.846 19.14L185.838 5.504H192.838V5.56C191.158 7.38 190.486 8.416 190.486 11.132V19.672C190.486 22.556 190.878 23.788 191.774 25.944V26H184.158Z" fill="white"/>
<path d="M60.1747 50V41.805H61.2527V46.414L60.9887 46.304L64.9047 41.805H66.2577L62.9687 45.6L63.0237 44.83L66.4227 50H65.1357L62.5397 46.106L61.2527 47.58V50H60.1747ZM67.4579 50V41.805H68.3599L73.0679 48.427L72.6609 48.471V41.805H73.7499V50H72.8479L68.1619 43.334L68.5359 43.29V50H67.4579ZM79.495 50.132C78.9157 50.132 78.373 50.0293 77.867 49.824C77.361 49.6113 76.9173 49.3143 76.536 48.933C76.162 48.5517 75.8687 48.1043 75.656 47.591C75.4433 47.0703 75.337 46.5057 75.337 45.897C75.337 45.281 75.4433 44.7163 75.656 44.203C75.8687 43.6897 76.162 43.2423 76.536 42.861C76.9173 42.4797 77.3573 42.1863 77.856 41.981C78.362 41.7757 78.9083 41.673 79.495 41.673C80.0817 41.673 80.6243 41.7793 81.123 41.992C81.629 42.1973 82.069 42.4907 82.443 42.872C82.8243 43.246 83.1213 43.6897 83.334 44.203C83.554 44.7163 83.664 45.281 83.664 45.897C83.664 46.5057 83.554 47.0703 83.334 47.591C83.1213 48.1043 82.8243 48.5517 82.443 48.933C82.069 49.3143 81.629 49.6113 81.123 49.824C80.6243 50.0293 80.0817 50.132 79.495 50.132ZM79.495 49.131C79.9497 49.131 80.364 49.0503 80.738 48.889C81.112 48.7203 81.4347 48.4893 81.706 48.196C81.9847 47.8953 82.1973 47.5507 82.344 47.162C82.498 46.766 82.575 46.3443 82.575 45.897C82.575 45.4497 82.498 45.0317 82.344 44.643C82.1973 44.2543 81.9847 43.9133 81.706 43.62C81.4347 43.3193 81.112 43.0883 80.738 42.927C80.364 42.7583 79.9497 42.674 79.495 42.674C79.0477 42.674 78.637 42.7583 78.263 42.927C77.889 43.0883 77.5627 43.3193 77.284 43.62C77.0127 43.9133 76.8 44.2543 76.646 44.643C76.492 45.0317 76.415 45.4497 76.415 45.897C76.415 46.3443 76.492 46.766 76.646 47.162C76.8 47.5507 77.0127 47.8953 77.284 48.196C77.5627 48.4893 77.889 48.7203 78.263 48.889C78.637 49.0503 79.0477 49.131 79.495 49.131ZM86.5284 50L84.2294 41.805H85.3624L87.2874 49.021H87.0234L89.0254 41.805H90.1584L92.1494 49.021H91.8744L93.8104 41.805H94.9434L92.6444 50H91.4454L89.4434 42.817H89.7294L87.7274 50H86.5284ZM95.9784 50V41.805H97.0564V49.01H100.653V50H95.9784ZM101.865 50V41.805H107.2V42.795H102.943V45.391H106.98V46.381H102.943V49.01H107.2V50H101.865ZM108.536 50V41.805H111.22C112.049 41.805 112.771 41.9737 113.387 42.311C114.003 42.6483 114.48 43.125 114.817 43.741C115.154 44.3497 115.323 45.0683 115.323 45.897C115.323 46.7183 115.154 47.437 114.817 48.053C114.48 48.669 114.003 49.1493 113.387 49.494C112.771 49.8313 112.049 50 111.22 50H108.536ZM109.614 49.01H111.231C111.84 49.01 112.364 48.8817 112.804 48.625C113.251 48.3683 113.596 48.009 113.838 47.547C114.08 47.0777 114.201 46.5277 114.201 45.897C114.201 45.259 114.076 44.709 113.827 44.247C113.585 43.785 113.24 43.4293 112.793 43.18C112.353 42.9233 111.832 42.795 111.231 42.795H109.614V49.01ZM120.473 50.132C119.894 50.132 119.359 50.0293 118.867 49.824C118.376 49.6113 117.951 49.3143 117.591 48.933C117.232 48.5517 116.95 48.1043 116.744 47.591C116.546 47.0777 116.447 46.5167 116.447 45.908C116.447 45.292 116.546 44.7273 116.744 44.214C116.942 43.7007 117.221 43.2533 117.58 42.872C117.94 42.4907 118.365 42.1973 118.856 41.992C119.348 41.7793 119.883 41.673 120.462 41.673C121.027 41.673 121.533 41.772 121.98 41.97C122.435 42.168 122.816 42.4247 123.124 42.74C123.44 43.0553 123.663 43.3927 123.795 43.752L122.827 44.225C122.637 43.7483 122.34 43.3707 121.936 43.092C121.533 42.8133 121.042 42.674 120.462 42.674C119.89 42.674 119.381 42.8097 118.933 43.081C118.493 43.3523 118.149 43.73 117.899 44.214C117.65 44.698 117.525 45.2627 117.525 45.908C117.525 46.546 117.65 47.107 117.899 47.591C118.156 48.075 118.504 48.4527 118.944 48.724C119.392 48.9953 119.901 49.131 120.473 49.131C120.972 49.131 121.423 49.0247 121.826 48.812C122.23 48.5993 122.549 48.306 122.783 47.932C123.018 47.558 123.135 47.1253 123.135 46.634V46.128L123.63 46.59H120.462V45.655H124.224V46.381C124.224 46.953 124.125 47.47 123.927 47.932C123.729 48.394 123.458 48.79 123.113 49.12C122.769 49.4427 122.369 49.692 121.914 49.868C121.46 50.044 120.979 50.132 120.473 50.132ZM125.681 50V41.805H131.016V42.795H126.759V45.391H130.796V46.381H126.759V49.01H131.016V50H125.681ZM136.154 50V41.805H137.232V50H136.154ZM141.871 50.132C141.35 50.132 140.873 50.0367 140.441 49.846C140.008 49.648 139.641 49.3803 139.341 49.043C139.04 48.7057 138.824 48.328 138.692 47.91L139.627 47.525C139.825 48.053 140.118 48.46 140.507 48.746C140.903 49.0247 141.365 49.164 141.893 49.164C142.215 49.164 142.498 49.1127 142.74 49.01C142.982 48.9073 143.169 48.7643 143.301 48.581C143.44 48.3903 143.51 48.1703 143.51 47.921C143.51 47.5763 143.411 47.305 143.213 47.107C143.022 46.9017 142.74 46.7477 142.366 46.645L140.859 46.183C140.265 45.9997 139.81 45.71 139.495 45.314C139.179 44.918 139.022 44.4633 139.022 43.95C139.022 43.5027 139.128 43.1103 139.341 42.773C139.561 42.4283 139.861 42.1607 140.243 41.97C140.631 41.772 141.071 41.673 141.563 41.673C142.054 41.673 142.498 41.761 142.894 41.937C143.297 42.113 143.638 42.3513 143.917 42.652C144.195 42.9453 144.401 43.2827 144.533 43.664L143.609 44.049C143.433 43.587 143.169 43.2387 142.817 43.004C142.465 42.762 142.05 42.641 141.574 42.641C141.28 42.641 141.02 42.6923 140.793 42.795C140.573 42.8903 140.4 43.0333 140.276 43.224C140.158 43.4073 140.1 43.6273 140.1 43.884C140.1 44.1847 140.195 44.4523 140.386 44.687C140.576 44.9217 140.866 45.1013 141.255 45.226L142.63 45.633C143.275 45.831 143.763 46.1133 144.093 46.48C144.423 46.8467 144.588 47.3013 144.588 47.844C144.588 48.2913 144.47 48.6873 144.236 49.032C144.008 49.3767 143.689 49.648 143.279 49.846C142.875 50.0367 142.406 50.132 141.871 50.132ZM149.969 50V41.805H152.862C153.404 41.805 153.881 41.9077 154.292 42.113C154.702 42.3183 155.021 42.6117 155.249 42.993C155.483 43.3743 155.601 43.8217 155.601 44.335C155.601 44.8483 155.483 45.2957 155.249 45.677C155.021 46.051 154.702 46.3443 154.292 46.557C153.888 46.7623 153.412 46.865 152.862 46.865H151.047V50H149.969ZM151.047 45.875H152.895C153.225 45.875 153.511 45.8127 153.753 45.688C153.995 45.5633 154.182 45.3837 154.314 45.149C154.446 44.9143 154.512 44.643 154.512 44.335C154.512 44.0197 154.446 43.7483 154.314 43.521C154.182 43.2863 153.995 43.1067 153.753 42.982C153.511 42.8573 153.225 42.795 152.895 42.795H151.047V45.875ZM160.975 50.132C160.395 50.132 159.853 50.0293 159.347 49.824C158.841 49.6113 158.397 49.3143 158.016 48.933C157.642 48.5517 157.348 48.1043 157.136 47.591C156.923 47.0703 156.817 46.5057 156.817 45.897C156.817 45.281 156.923 44.7163 157.136 44.203C157.348 43.6897 157.642 43.2423 158.016 42.861C158.397 42.4797 158.837 42.1863 159.336 41.981C159.842 41.7757 160.388 41.673 160.975 41.673C161.561 41.673 162.104 41.7793 162.603 41.992C163.109 42.1973 163.549 42.4907 163.923 42.872C164.304 43.246 164.601 43.6897 164.814 44.203C165.034 44.7163 165.144 45.281 165.144 45.897C165.144 46.5057 165.034 47.0703 164.814 47.591C164.601 48.1043 164.304 48.5517 163.923 48.933C163.549 49.3143 163.109 49.6113 162.603 49.824C162.104 50.0293 161.561 50.132 160.975 50.132ZM160.975 49.131C161.429 49.131 161.844 49.0503 162.218 48.889C162.592 48.7203 162.914 48.4893 163.186 48.196C163.464 47.8953 163.677 47.5507 163.824 47.162C163.978 46.766 164.055 46.3443 164.055 45.897C164.055 45.4497 163.978 45.0317 163.824 44.643C163.677 44.2543 163.464 43.9133 163.186 43.62C162.914 43.3193 162.592 43.0883 162.218 42.927C161.844 42.7583 161.429 42.674 160.975 42.674C160.527 42.674 160.117 42.7583 159.743 42.927C159.369 43.0883 159.042 43.3193 158.764 43.62C158.492 43.9133 158.28 44.2543 158.126 44.643C157.972 45.0317 157.895 45.4497 157.895 45.897C157.895 46.3443 157.972 46.766 158.126 47.162C158.28 47.5507 158.492 47.8953 158.764 48.196C159.042 48.4893 159.369 48.7203 159.743 48.889C160.117 49.0503 160.527 49.131 160.975 49.131ZM168.008 50L165.709 41.805H166.842L168.767 49.021H168.503L170.505 41.805H171.638L173.629 49.021H173.354L175.29 41.805H176.423L174.124 50H172.925L170.923 42.817H171.209L169.207 50H168.008ZM177.458 50V41.805H182.793V42.795H178.536V45.391H182.573V46.381H178.536V49.01H182.793V50H177.458ZM184.129 50V41.805H187.022C187.564 41.805 188.041 41.9077 188.452 42.113C188.862 42.3183 189.181 42.6117 189.409 42.993C189.643 43.3743 189.761 43.8217 189.761 44.335C189.761 44.9143 189.614 45.4057 189.321 45.809C189.027 46.2123 188.631 46.502 188.133 46.678L190.036 50H188.782L186.78 46.447L187.495 46.865H185.207V50H184.129ZM185.207 45.875H187.055C187.377 45.875 187.66 45.8127 187.902 45.688C188.144 45.5633 188.331 45.3837 188.463 45.149C188.602 44.9143 188.672 44.643 188.672 44.335C188.672 44.0197 188.602 43.7483 188.463 43.521C188.331 43.2863 188.144 43.1067 187.902 42.982C187.66 42.8573 187.377 42.795 187.055 42.795H185.207V45.875Z" fill="white"/>
</svg>
