<svg width="169" height="48" viewBox="0 0 169 48" fill="none" xmlns="http://www.w3.org/2000/svg">
<path fill-rule="evenodd" clip-rule="evenodd" d="M28.8563 35.1951C28.8563 35.1951 28.1693 34.0084 27.1075 33.5712C26.0457 33.134 24.734 34.1333 25.7334 35.1951C26.6703 36.2569 28.8563 35.1951 28.8563 35.1951ZM25.7959 29.8861C25.7959 29.8861 26.4829 31.0728 26.358 32.2595C26.233 33.3838 24.6716 34.0084 24.2344 32.6343C23.7972 31.2602 25.7959 29.8861 25.7959 29.8861ZM34.4777 7.90035C34.4777 7.90035 35.6019 7.21329 36.6638 7.27575C37.7256 7.33821 38.3502 8.77482 37.101 9.2745C35.8518 9.77417 34.4777 7.90035 34.4777 7.90035ZM39.2871 4.90234C39.2871 4.90234 38.2253 5.58937 37.7881 6.58872C37.4133 7.58807 38.4127 8.77479 39.3495 7.8379C40.4114 6.90101 39.2871 4.90234 39.2871 4.90234ZM35.7269 10.6486C35.7269 10.6486 36.9761 10.2114 37.9755 10.4612C39.0373 10.7111 39.3496 12.2725 38.0379 12.4599C36.7263 12.7722 35.7269 10.6486 35.7269 10.6486ZM41.0359 8.58746C41.0359 8.58746 39.8492 9.0871 39.2247 9.96154C38.6625 10.8984 39.412 12.2101 40.5363 11.4606C41.723 10.7735 41.0359 8.58746 41.0359 8.58746ZM36.3515 13.7715C36.3515 13.7715 37.6632 13.4593 38.6625 13.8965C39.6619 14.3337 39.7868 15.8952 38.4127 15.9576C37.0385 15.9576 36.3515 13.7715 36.3515 13.7715ZM41.9728 12.3975C41.9728 12.3975 40.7236 12.7097 39.9741 13.5217C39.2871 14.3337 39.8492 15.8327 41.0984 15.2081C42.3476 14.7085 41.9728 12.3975 41.9728 12.3975ZM36.414 16.7696C36.414 16.7696 37.7256 16.7072 38.6625 17.3318C39.5994 17.9564 39.412 19.5178 38.0379 19.3304C36.6638 19.0806 36.414 16.7696 36.414 16.7696ZM42.2227 16.4573C42.2227 16.4573 40.911 16.5198 40.0366 17.2068C39.1621 17.8939 39.4745 19.4553 40.8486 19.0806C42.1602 18.7683 42.2227 16.4573 42.2227 16.4573ZM35.8518 19.7052C35.8518 19.7052 37.1635 19.8926 37.9755 20.6421C38.7874 21.3916 38.3502 22.9531 37.0386 22.4534C35.7269 22.0162 35.8518 19.7052 35.8518 19.7052ZM41.6605 20.4547C41.6605 20.4547 40.3489 20.2673 39.3495 20.8295C38.4127 21.3916 38.4126 22.9531 39.7867 22.8281C41.2233 22.7657 41.6605 20.4547 41.6605 20.4547ZM34.8525 22.391C34.8525 22.391 36.1017 22.8906 36.7263 23.8275C37.3509 24.7644 36.5389 26.1385 35.3521 25.389C34.1654 24.6395 34.8525 22.391 34.8525 22.391ZM40.3489 24.4521C40.3489 24.4521 39.0997 24.0149 38.0379 24.2647C36.9761 24.577 36.6013 26.1385 38.0379 26.3259C39.412 26.5757 40.3489 24.4521 40.3489 24.4521ZM33.2285 24.8893C33.2285 24.8893 34.4152 25.5763 34.79 26.6382C35.2272 27.7 34.2279 28.9492 33.166 27.9499C32.1667 27.013 33.2285 24.8893 33.2285 24.8893ZM38.2878 27.9499C38.2878 27.9499 37.101 27.2628 35.9767 27.3877C34.8525 27.5126 34.2279 29.0116 35.602 29.4488C36.9761 29.886 38.2878 27.9499 38.2878 27.9499ZM31.1674 27.0754C31.1674 27.0754 32.1667 28.0123 32.4166 29.0741C32.6664 30.1983 31.4172 31.2601 30.5428 30.0734C29.6684 28.9491 31.1674 27.0754 31.1674 27.0754ZM35.602 31.0103C35.602 31.0103 34.5402 30.1359 33.4159 30.011C32.2916 29.8861 31.4172 31.2602 32.6664 32.0097C33.9156 32.6968 35.602 31.0103 35.602 31.0103ZM28.669 28.7618C28.669 28.7618 29.481 29.886 29.5435 31.0103C29.6059 32.1346 28.1693 32.9466 27.4823 31.6974C26.9201 30.3233 28.669 28.7618 28.669 28.7618ZM32.4166 33.5087C32.4166 33.5087 31.5422 32.4469 30.4803 32.1346C29.3561 31.8223 28.2318 33.0091 29.356 33.9459C30.4179 34.8204 32.4166 33.5087 32.4166 33.5087Z" fill="#B30738"/>
<path fill-rule="evenodd" clip-rule="evenodd" d="M13.3663 35.1951C13.3663 35.1951 14.0533 34.0084 15.1151 33.5712C16.1769 33.134 17.4886 34.1333 16.4893 35.1951C15.5524 36.2569 13.3663 35.1951 13.3663 35.1951ZM16.4268 29.8861C16.4268 29.8861 15.7398 31.0728 15.8647 32.2595C15.9896 33.3838 17.5511 34.0084 17.9883 32.6343C18.4255 31.2602 16.4268 29.8861 16.4268 29.8861ZM7.68253 7.90035C7.68253 7.90035 6.55826 7.21329 5.49645 7.27575C4.43465 7.33821 3.81001 8.77482 5.05919 9.2745C6.37084 9.77417 7.68253 7.90035 7.68253 7.90035ZM2.87312 4.90234C2.87312 4.90234 3.93494 5.58937 4.37216 6.58872C4.74691 7.58807 3.74756 8.77479 2.81067 7.8379C1.81132 6.90101 2.87312 4.90234 2.87312 4.90234ZM6.49579 10.6486C6.49579 10.6486 5.24662 10.2114 4.24727 10.4612C3.18546 10.7111 2.8731 12.2725 4.18475 12.4599C5.49639 12.7722 6.49579 10.6486 6.49579 10.6486ZM1.1243 8.58746C1.1243 8.58746 2.31097 9.0871 2.93556 9.96154C3.49769 10.8984 2.7482 12.2101 1.62393 11.4606C0.4372 10.7735 1.1243 8.58746 1.1243 8.58746ZM5.80875 13.7715C5.80875 13.7715 4.49706 13.4593 3.49771 13.8965C2.49836 14.3337 2.37346 15.8952 3.74756 15.9576C5.18413 15.9576 5.80875 13.7715 5.80875 13.7715ZM0.249853 12.3975C0.249853 12.3975 1.49901 12.7097 2.24852 13.5217C2.93558 14.3337 2.37349 15.8327 1.1243 15.2081C-0.124888 14.7085 0.249853 12.3975 0.249853 12.3975ZM5.80875 16.7696C5.80875 16.7696 4.49704 16.7072 3.56015 17.3318C2.62326 17.9564 2.81064 19.5178 4.18475 19.3304C5.49639 19.0806 5.80875 16.7696 5.80875 16.7696ZM0 16.4573C0 16.4573 1.31165 16.5198 2.18608 17.2068C3.06051 17.8939 2.74818 19.4553 1.37408 19.0806C0.0624289 18.7683 0 16.4573 0 16.4573ZM6.30838 19.7052C6.30838 19.7052 4.99672 19.8926 4.18475 20.6421C3.37278 21.3916 3.80999 22.9531 5.12164 22.4534C6.49574 22.0162 6.30838 19.7052 6.30838 19.7052ZM0.56215 20.4547C0.56215 20.4547 1.87377 20.2673 2.87312 20.8295C3.81001 21.3916 3.81004 22.9531 2.43593 22.8281C0.999365 22.7657 0.56215 20.4547 0.56215 20.4547ZM7.37024 22.391C7.37024 22.391 6.12105 22.8906 5.49645 23.8275C4.87186 24.7644 5.6838 26.1385 6.87053 25.389C8.05726 24.6395 7.37024 22.391 7.37024 22.391ZM1.87378 24.4521C1.87378 24.4521 3.12294 24.0149 4.18475 24.2647C5.24656 24.577 5.62131 26.1385 4.18475 26.3259C2.81064 26.5757 1.87378 24.4521 1.87378 24.4521ZM8.99416 24.8893C8.99416 24.8893 7.80744 25.5763 7.43268 26.6382C6.99546 27.7 7.9948 28.9492 9.05661 27.9499C10.056 27.013 8.99416 24.8893 8.99416 24.8893ZM3.87245 27.9499C3.87245 27.9499 5.05922 27.2628 6.18349 27.3877C7.30776 27.5126 7.93234 29.0116 6.55823 29.4488C5.24659 29.886 3.87245 27.9499 3.87245 27.9499ZM11.0553 27.0754C11.0553 27.0754 10.0559 28.0123 9.80609 29.0741C9.55625 30.1983 10.8054 31.2601 11.6799 30.0734C12.5543 28.9491 11.0553 27.0754 11.0553 27.0754ZM6.55823 31.0103C6.55823 31.0103 7.62004 30.1359 8.74431 30.011C9.86858 29.8861 10.743 31.2602 9.49379 32.0097C8.24461 32.6968 6.55823 31.0103 6.55823 31.0103ZM13.4912 28.7618C13.4912 28.7618 12.6792 29.886 12.6168 31.0103C12.5543 32.1346 13.9909 32.9466 14.678 31.6974C15.3025 30.3233 13.4912 28.7618 13.4912 28.7618ZM9.80609 33.5087C9.80609 33.5087 10.6806 32.4469 11.7424 32.1346C12.8667 31.8223 13.9909 33.0091 12.8666 33.9459C11.8048 34.8204 9.80609 33.5087 9.80609 33.5087Z" fill="#B30738"/>
<path d="M21.1099 30.2628C28.4801 26.6402 31.728 17.7085 32.415 10.5881C28.9173 8.96416 25.1073 7.96484 21.1099 7.96484C17.1125 7.96484 13.3024 8.96416 9.80469 10.5881C10.4917 17.7085 13.6772 26.6402 21.1099 30.2628Z" stroke="#B30738" stroke-miterlimit="22.9256"/>
<path fill-rule="evenodd" clip-rule="evenodd" d="M41.0325 47.9993C38.0345 46.8751 34.6617 46.188 31.1016 45.8757V44.4391C32.3507 44.7514 33.5374 45.1262 34.6617 45.501L35.9109 45.9382V44.5641V40.9414C37.7222 41.2537 39.4086 41.7534 40.9701 42.3156L37.1601 43.7521L41.0325 47.9993Z" fill="#B30738"/>
<path fill-rule="evenodd" clip-rule="evenodd" d="M1.125 47.9993C4.12305 46.8751 7.49579 46.188 11.056 45.8757V44.4391C9.80679 44.7514 8.62009 45.1262 7.49582 45.501L6.24664 45.9382V44.5641V40.9414C4.43531 41.2537 2.74893 41.7534 1.18744 42.3156L4.99745 43.7521L1.125 47.9993Z" fill="#B30738"/>
<path fill-rule="evenodd" clip-rule="evenodd" d="M7.17969 39.0064V44.6278C15.3619 41.5672 26.8544 41.5672 35.099 44.6278V39.0064C27.0417 36.1333 15.1745 36.1333 7.17969 39.0064Z" fill="#B30738"/>
<path d="M8.86696 39.8798L9.42911 39.7548C9.49157 39.7548 9.55406 39.6923 9.61652 39.6923C9.74144 39.6299 9.80392 39.6299 9.86637 39.6299C9.92883 39.6299 9.99126 39.6299 9.99126 39.6299C9.99126 39.6924 9.99128 39.6923 9.92882 39.6923C9.86636 39.6923 9.80387 39.7548 9.74141 39.8173C9.74141 39.8798 9.74141 40.0047 9.74141 40.192C9.80387 40.3794 9.80392 40.5668 9.86637 40.7542C9.92883 41.0665 10.0537 41.3163 10.1162 41.4412C10.1786 41.5662 10.2411 41.6286 10.366 41.6911C10.4909 41.7535 10.6159 41.7535 10.8033 41.6911C10.9906 41.6286 11.1155 41.5661 11.178 41.5037C11.2405 41.3788 11.3029 41.2539 11.2404 41.1289C11.2404 40.9416 11.178 40.6293 11.053 40.192C10.9906 39.9422 10.9282 39.7548 10.8657 39.6923C10.8032 39.6299 10.7408 39.5675 10.6159 39.5675C10.5534 39.5675 10.491 39.5675 10.491 39.505C10.491 39.4426 10.491 39.4425 10.5534 39.4425C10.5534 39.4425 10.6158 39.4425 10.6783 39.4425C10.7408 39.4425 10.8032 39.4425 10.8657 39.38C10.9282 39.38 10.9906 39.3176 11.1156 39.3176C11.178 39.3176 11.2404 39.2552 11.2404 39.2552C11.3029 39.2552 11.3029 39.2552 11.3653 39.2552C11.3653 39.2552 11.3654 39.3176 11.3029 39.3176C11.2404 39.3176 11.178 39.38 11.178 39.4425C11.1155 39.5049 11.1155 39.5674 11.178 39.6923C11.178 39.8173 11.2404 40.1296 11.3653 40.5668C11.4278 40.8791 11.4903 41.1289 11.4279 41.2538C11.4279 41.3787 11.3029 41.5661 11.178 41.6286C11.0531 41.7535 10.8657 41.816 10.6159 41.8784C10.4285 41.9409 10.3035 41.9409 10.1162 41.9409C9.99123 41.9409 9.86633 41.9409 9.74141 41.8784C9.67895 41.816 9.55402 41.7535 9.49156 41.6911C9.4291 41.6286 9.36667 41.5036 9.36667 41.3163L9.11682 40.3794C9.05436 40.2545 9.05439 40.1295 8.99193 40.0671C8.92947 40.0046 8.92942 39.9422 8.86696 39.9422C8.8045 39.9422 8.80455 39.9422 8.67963 39.9422C8.61717 39.9422 8.61719 39.9422 8.61719 39.9422C8.61719 39.9422 8.61719 39.9422 8.61719 39.8798C8.80457 39.8798 8.86696 39.8798 8.86696 39.8798ZM12.4272 39.0677C13.1142 39.6299 13.6763 40.0671 14.176 40.3794C14.176 40.3169 14.176 40.2545 14.176 40.192L14.0511 39.505C13.9887 39.3176 13.9887 39.1927 13.9262 39.1302C13.8638 39.0677 13.8637 39.0053 13.8013 39.0053C13.7388 39.0053 13.6763 38.9429 13.5514 38.9429C13.489 38.9429 13.489 38.9429 13.489 38.8804C13.489 38.818 13.489 38.8179 13.5514 38.8179H13.6139C13.6764 38.8179 13.8013 38.8179 13.9262 38.7555C14.1136 38.7555 14.2385 38.693 14.301 38.693C14.3634 38.693 14.3634 38.693 14.3634 38.693C14.4259 38.693 14.4259 38.693 14.4259 38.7555C14.4259 38.8179 14.4259 38.8179 14.3634 38.8179C14.301 38.8179 14.2385 38.8804 14.176 38.9429C14.1135 39.0053 14.1136 39.1302 14.1136 39.3176L14.301 40.3169L14.4259 41.0665C14.4259 41.129 14.4259 41.1914 14.3634 41.1914C14.3634 41.1914 14.3634 41.1914 14.301 41.1914C14.301 41.1914 14.1761 41.1289 13.9887 41.004C13.8013 40.8791 13.5514 40.6917 13.1767 40.3794C12.8019 40.1295 12.5521 39.8797 12.4272 39.7548C12.4272 39.8172 12.4896 40.0671 12.6145 40.6292C12.677 40.8166 12.677 40.9416 12.7395 41.0665C12.8019 41.1914 12.8644 41.2538 12.9268 41.2538C12.9893 41.2538 13.1142 41.3163 13.1767 41.2538C13.2391 41.2538 13.2391 41.2538 13.2391 41.3163C13.2391 41.3787 13.2391 41.3788 13.1767 41.3788C13.1767 41.3788 13.1142 41.3788 13.0518 41.3788C12.9893 41.3788 12.8644 41.3788 12.8019 41.4412C12.6146 41.5037 12.4897 41.5037 12.4272 41.5037C12.3647 41.5037 12.3647 41.5037 12.3022 41.5037C12.2398 41.5037 12.2398 41.5037 12.2398 41.4412C12.2398 41.4412 12.2398 41.3788 12.3647 41.3788C12.4897 41.3163 12.5521 41.2538 12.6145 41.1914C12.6145 41.1289 12.6145 41.004 12.6145 40.8166C12.4896 40.192 12.4272 39.8173 12.3647 39.6923C12.3023 39.5674 12.2398 39.4425 12.1773 39.3176C12.0524 39.1927 11.99 39.1927 11.865 39.1927C11.8026 39.1927 11.8026 39.1927 11.8026 39.1302C11.8026 39.0677 11.8026 39.0677 11.865 39.0677C11.865 39.0677 11.865 39.0677 11.9275 39.0677C11.9275 39.0677 11.99 39.0677 12.0525 39.0677C12.1774 39.0677 12.3023 39.0677 12.4272 39.0677ZM14.8631 38.6306C14.9256 38.6306 14.988 38.6306 15.1129 38.6306C15.2378 38.6306 15.3003 38.6306 15.3628 38.6306L15.9249 38.5681C15.9874 38.5681 15.9873 38.5681 15.9873 38.6306C15.9873 38.6306 15.9874 38.693 15.9249 38.693C15.8 38.693 15.7375 38.7555 15.7375 38.7555C15.7375 38.7555 15.675 38.8179 15.675 38.9429C15.675 39.0678 15.675 39.2552 15.7375 39.5675C15.8 39.9422 15.8 40.2545 15.8625 40.4419C15.9249 40.6293 15.9249 40.7542 15.9873 40.8166C16.0498 40.8791 16.1123 40.8791 16.1748 40.8791C16.2372 40.8791 16.2372 40.8791 16.2996 40.9415C16.2996 41.004 16.2997 41.004 16.2372 41.004H16.1748C15.9249 41.004 15.8 41.004 15.675 41.0665C15.4877 41.0665 15.3628 41.1289 15.3003 41.1289C15.2378 41.1289 15.2379 41.1289 15.1754 41.1289C15.113 41.1289 15.1129 41.129 15.1129 41.0665C15.1129 41.0665 15.113 41.004 15.1754 41.004C15.3003 41.004 15.3628 40.9415 15.3628 40.8791C15.3628 40.8166 15.4252 40.6917 15.3628 40.5668C15.3628 40.3794 15.3003 40.1295 15.3003 39.7548C15.2378 39.38 15.2379 39.1302 15.1754 39.0053C15.1754 38.8804 15.1129 38.8179 15.0505 38.7555C14.988 38.7555 14.9256 38.693 14.8631 38.693C14.8007 38.693 14.8007 38.693 14.8631 38.6306C14.8007 38.6306 14.8007 38.6306 14.8631 38.6306ZM17.7362 40.8166H17.6113L17.2365 39.9422C17.1116 39.7548 16.9867 39.4425 16.8618 39.1302C16.7369 38.8179 16.612 38.6306 16.5495 38.5681C16.487 38.5057 16.4871 38.5056 16.4246 38.4432C16.4246 38.4432 16.3621 38.4432 16.2996 38.4432C16.2372 38.4432 16.2372 38.4432 16.2372 38.3807C16.2372 38.3183 16.2372 38.3183 16.2996 38.3183H16.7993C16.9867 38.3183 17.1116 38.3183 17.299 38.2558C17.3614 38.2558 17.3615 38.2558 17.3615 38.2558C17.424 38.2558 17.4239 38.2558 17.4239 38.3183C17.4239 38.3183 17.424 38.3807 17.3615 38.3807C17.2366 38.3807 17.1741 38.5057 17.1741 38.5681C17.1741 38.7555 17.3615 39.2551 17.7362 40.0671C17.7987 39.8172 17.9236 39.505 17.9861 39.2552L18.111 38.7555C18.111 38.693 18.111 38.6306 18.111 38.5681C18.111 38.5057 18.111 38.4432 18.0485 38.4432C17.9861 38.3807 17.986 38.3807 17.9236 38.3807C17.8611 38.3807 17.8611 38.3807 17.8611 38.3183C17.8611 38.2558 17.8611 38.2558 17.9236 38.2558C17.986 38.2558 17.9861 38.2558 18.0485 38.2558C18.1735 38.2558 18.2359 38.2558 18.2984 38.2558C18.3608 38.2558 18.4857 38.2558 18.5482 38.2558C18.6106 38.2558 18.6107 38.2558 18.6731 38.2558C18.7356 38.2558 18.7356 38.2558 18.7356 38.3183C18.7356 38.3183 18.7356 38.3807 18.6731 38.3807C18.6107 38.3807 18.5482 38.4432 18.4857 38.4432C18.4233 38.5056 18.4233 38.5681 18.3608 38.6306C18.2984 38.693 18.2359 38.8804 18.1734 39.1927L17.9236 40.0671C17.8611 40.3794 17.7362 40.6917 17.7362 40.8166ZM21.0465 38.2558C21.109 38.4432 21.109 38.6305 21.1715 38.8179C21.1715 38.8804 21.1715 38.8804 21.1091 38.8804C21.1091 38.8804 21.0465 38.8804 21.0465 38.8179C20.9216 38.6305 20.7967 38.5056 20.6718 38.4432C20.5469 38.3807 20.422 38.3807 20.2346 38.3807C20.1097 38.3807 20.0472 38.3807 19.9223 38.3807C19.9223 38.5681 19.9223 38.8179 19.9223 39.0677C19.9223 39.1302 19.9223 39.1927 19.9223 39.3176H20.0472C20.1097 39.3176 20.2346 39.3176 20.2971 39.2552C20.3595 39.2552 20.422 39.1927 20.4845 39.1302C20.5469 39.0677 20.5469 39.0053 20.5469 39.0053C20.5469 38.9428 20.5469 38.9429 20.6094 38.9429C20.6718 38.9429 20.6718 38.9428 20.6718 39.0053C20.6718 39.0678 20.6718 39.3176 20.6718 39.6923C20.6718 39.7548 20.6718 39.8173 20.6718 39.8173C20.6718 39.8798 20.6718 39.8798 20.6094 39.8798C20.6094 39.8798 20.5469 39.8172 20.5469 39.7548C20.5469 39.6299 20.4844 39.5675 20.3595 39.505C20.297 39.4426 20.1097 39.4425 19.9223 39.4425C19.9223 39.6299 19.9223 39.7548 19.9223 39.8173C19.9223 40.0671 19.9223 40.2545 19.9223 40.3169C19.9223 40.3794 19.9847 40.4419 20.0472 40.4419C20.1097 40.5044 20.1721 40.5043 20.2971 40.5043C20.7343 40.5043 21.0466 40.3794 21.2339 40.0671C21.2339 40.0046 21.2964 40.0046 21.2964 40.0046C21.3589 40.0046 21.3588 40.0046 21.3588 40.0671V40.1296L21.2339 40.6292H20.5469C20.3595 40.6292 20.1721 40.6292 20.0472 40.6292C19.8598 40.6292 19.7349 40.6292 19.6725 40.6292C19.5475 40.6292 19.4227 40.6292 19.2353 40.6292H19.1728C19.1103 40.6292 19.1103 40.6292 19.1103 40.5668C19.1103 40.5043 19.1103 40.5043 19.1728 40.5043C19.2977 40.5043 19.3602 40.4418 19.4226 40.3794C19.4851 40.3169 19.4851 40.192 19.4851 40.0046V39.0677C19.4851 38.7555 19.4851 38.5681 19.4851 38.5056C19.4851 38.4431 19.4851 38.3807 19.4226 38.3807C19.3602 38.3807 19.2977 38.3183 19.2353 38.3183C19.1728 38.3183 19.1728 38.3183 19.1728 38.2558C19.1728 38.1934 19.1728 38.1933 19.2353 38.1933H19.6725L21.0465 38.2558ZM22.9203 39.4425C23.1077 39.4425 23.2327 39.505 23.2951 39.6299C23.4201 39.6924 23.4825 39.8797 23.5449 40.0671C23.6074 40.2545 23.6074 40.4419 23.6699 40.5043C23.7323 40.5668 23.7948 40.6292 23.9197 40.6292C23.9822 40.6292 23.9822 40.6292 23.9822 40.6917C23.9822 40.7541 23.9197 40.7542 23.8572 40.7542L23.1702 40.6917C23.1077 40.6292 23.0453 40.5043 23.0453 40.3169C23.0453 40.0671 22.9828 39.8798 22.9828 39.8173C22.9204 39.6924 22.9203 39.6299 22.8579 39.5675C22.7954 39.505 22.7329 39.505 22.608 39.505C22.608 39.505 22.5456 39.505 22.4831 39.505C22.4831 39.9422 22.4207 40.192 22.4207 40.3169C22.4207 40.4419 22.4207 40.5043 22.4831 40.5043C22.5456 40.5668 22.6081 40.5668 22.6705 40.5668C22.733 40.5668 22.733 40.5668 22.733 40.6292C22.733 40.6917 22.733 40.6917 22.6705 40.6917L22.1084 40.6292C22.0459 40.6292 21.921 40.6292 21.7961 40.6292C21.6712 40.6292 21.6087 40.6292 21.6087 40.6292C21.5462 40.6292 21.5462 40.6292 21.5462 40.5668C21.5462 40.5043 21.5462 40.5043 21.6087 40.5043C21.6711 40.5043 21.7336 40.5044 21.7961 40.4419C21.8586 40.3794 21.921 40.2545 21.921 40.0046V39.6923L21.9834 39.0053C21.9834 38.693 21.9834 38.4432 21.9834 38.3807C21.9834 38.3183 21.8586 38.2558 21.7337 38.2558C21.6712 38.2558 21.6711 38.2558 21.6711 38.1933C21.6711 38.1308 21.7336 38.1309 21.7961 38.1309C22.1709 38.1309 22.4207 38.1309 22.6705 38.1309C22.7955 38.1309 22.8579 38.1309 22.9828 38.1309C23.2327 38.1309 23.4825 38.1933 23.6074 38.3183C23.7324 38.4432 23.8572 38.5681 23.7948 38.7555C23.7948 38.8804 23.7323 39.0053 23.6699 39.0677C23.6074 39.1302 23.4825 39.2552 23.3576 39.2552C23.1702 39.4425 23.0452 39.4425 22.9203 39.4425ZM22.4207 39.38C22.4831 39.38 22.4831 39.38 22.4831 39.38C22.6081 39.38 22.6705 39.3801 22.7954 39.3176C22.9203 39.2551 22.9828 39.1927 23.0453 39.1302C23.1077 39.0677 23.1077 38.9429 23.1077 38.8804C23.1077 38.7555 23.0453 38.6305 22.9828 38.5056C22.9204 38.4431 22.7954 38.3807 22.608 38.3807C22.5456 38.3807 22.4831 38.3807 22.4207 38.3807V39.38ZM25.7935 38.6306L25.856 38.5681C25.856 38.5057 25.9184 38.5056 25.9184 38.5056C25.9809 38.5056 25.9808 38.5681 25.9808 38.5681V39.0677V39.1302C25.9808 39.1927 25.9809 39.1927 25.9184 39.1927H25.856C25.856 39.1927 25.856 39.1302 25.7935 39.0677C25.7311 38.9428 25.6686 38.8179 25.5437 38.7555C25.4187 38.6305 25.2938 38.5681 25.1689 38.5681C25.044 38.5681 24.9191 38.5681 24.8566 38.6306C24.7942 38.693 24.7317 38.7555 24.7317 38.8804C24.7317 38.9429 24.7316 39.0677 24.7941 39.1302C24.8566 39.1927 24.9815 39.2551 25.1689 39.38C25.4812 39.505 25.6686 39.6299 25.7935 39.8173C25.9184 39.9422 25.9184 40.1296 25.9184 40.3169C25.9184 40.5043 25.8559 40.6293 25.731 40.7542C25.6061 40.8791 25.5436 40.9415 25.4187 41.004C25.2938 41.0664 25.1689 41.0665 24.9815 41.0665C24.8566 41.0665 24.7941 41.004 24.6692 41.004C24.5443 40.9415 24.4818 40.8791 24.3569 40.8166C24.3569 40.8166 24.2945 40.8791 24.2945 40.9415C24.2945 41.004 24.232 41.004 24.232 41.004C24.232 41.004 24.1695 40.9415 24.1695 40.8791V40.192V40.1296C24.1695 40.0671 24.1696 40.0671 24.232 40.0671C24.232 40.0671 24.2945 40.1296 24.2945 40.192C24.3569 40.3794 24.4194 40.5668 24.5443 40.6917C24.6692 40.8166 24.7941 40.8791 24.9815 40.9415C25.1064 40.9415 25.2313 40.9415 25.3562 40.8791C25.4812 40.8166 25.4812 40.6917 25.5437 40.6292C25.5437 40.5043 25.5437 40.4419 25.4812 40.3169C25.4188 40.2545 25.2938 40.1295 25.044 40.0671C24.8566 40.0046 24.7317 39.8798 24.6068 39.8173C24.5443 39.7548 24.4194 39.6299 24.4194 39.5675C24.3569 39.4425 24.3569 39.3176 24.3569 39.2552C24.3569 39.0678 24.4818 38.8804 24.6068 38.8179C24.7941 38.693 24.9815 38.6305 25.2314 38.693C25.4187 38.4432 25.6061 38.5056 25.7935 38.6306ZM26.6054 38.6306C26.6679 38.6306 26.7304 38.6305 26.8553 38.693C26.9802 38.693 27.0427 38.7555 27.1051 38.7555L27.6673 38.8179C27.7297 38.8179 27.7297 38.818 27.7297 38.8804C27.7297 38.8804 27.7297 38.9429 27.6673 38.9429C27.5424 38.9429 27.4799 38.9429 27.4799 38.9429C27.4174 38.9429 27.4175 39.0053 27.355 39.1302C27.2925 39.1927 27.2925 39.4425 27.23 39.7548C27.1676 40.1295 27.1051 40.4419 27.1051 40.6292C27.1051 40.8166 27.1051 40.9415 27.1051 41.004C27.1051 41.0664 27.1676 41.0665 27.2925 41.1289C27.3549 41.1289 27.355 41.1289 27.355 41.1914C27.355 41.2538 27.2925 41.2538 27.23 41.2538H27.1676C26.9177 41.1914 26.7929 41.1914 26.7304 41.1289C26.543 41.1289 26.4181 41.0665 26.2931 41.0665C26.2307 41.0665 26.2307 41.0665 26.1683 41.0665C26.1058 41.0665 26.1058 41.0664 26.1058 41.004C26.1058 41.004 26.1058 40.9415 26.1683 40.9415C26.2932 40.9415 26.3556 40.9415 26.4181 40.8791C26.4806 40.8166 26.4805 40.7542 26.543 40.5668C26.6055 40.3794 26.6054 40.1296 26.6679 39.8173C26.7303 39.4426 26.7304 39.1927 26.7304 39.0677C26.7304 38.9428 26.7304 38.8804 26.7304 38.8179C26.7304 38.7554 26.6679 38.7555 26.543 38.7555C26.4805 38.7555 26.4805 38.693 26.4805 38.693C26.543 38.6305 26.6054 38.6306 26.6054 38.6306ZM28.1045 38.8179C28.7291 38.9428 29.1663 39.0677 29.4786 39.1302C29.7284 39.1927 29.9783 39.1927 30.2281 39.2552C30.353 39.2552 30.4155 39.2551 30.478 39.3176C30.478 39.3176 30.5404 39.3176 30.6028 39.3176C30.6028 39.3801 30.6028 39.4425 30.6028 39.6299V39.9422C30.6028 40.0047 30.5404 40.0046 30.5404 40.0046C30.5404 40.0046 30.478 39.9422 30.478 39.8798C30.478 39.7548 30.4155 39.6924 30.353 39.5675C30.2905 39.505 30.2281 39.4425 30.1031 39.38C30.0407 39.3176 29.8533 39.3176 29.666 39.2552C29.6035 39.4425 29.541 39.6924 29.4786 39.9422C29.4161 40.2545 29.3537 40.5044 29.3537 40.7542C29.2912 41.004 29.2912 41.1914 29.2912 41.2538C29.2912 41.3163 29.2912 41.3788 29.3537 41.3788C29.4161 41.4413 29.4786 41.4412 29.6035 41.5037C29.666 41.5037 29.666 41.5661 29.666 41.5661C29.666 41.6286 29.666 41.6286 29.6035 41.6286H29.5411L29.1663 41.5661C28.854 41.5037 28.7291 41.5037 28.6666 41.4412L28.4168 41.3788C28.4168 41.3788 28.3543 41.3788 28.2919 41.3788C28.2919 41.3788 28.2294 41.3787 28.2294 41.3163C28.2294 41.2538 28.2919 41.2538 28.2919 41.2538C28.4168 41.2538 28.4792 41.2538 28.5417 41.2538C28.6041 41.1914 28.6666 41.129 28.6666 41.0665C28.7291 40.9416 28.7291 40.7542 28.7915 40.4419C28.9164 39.9422 28.9789 39.505 28.9789 39.1927C28.7915 39.1303 28.6666 39.1302 28.5417 39.1302C28.4792 39.1302 28.3543 39.1303 28.2919 39.1927C28.167 39.2552 28.1045 39.3176 28.042 39.4425C28.042 39.5049 27.9796 39.505 27.9796 39.505C27.9171 39.505 27.9171 39.5049 27.9171 39.4425C27.9171 39.4425 27.9171 39.3801 27.9796 39.1927C28.042 39.0053 28.1045 38.8804 28.1045 38.8179ZM32.0394 40.7542C32.4767 40.3794 32.7265 40.192 32.7265 40.0671V40.0046C32.7265 39.9422 32.664 39.9422 32.6015 39.8798C32.5391 39.8798 32.5391 39.8173 32.5391 39.8173C32.5391 39.7548 32.6015 39.7548 32.6015 39.7548C32.6015 39.7548 32.6016 39.7548 32.664 39.7548C32.789 39.8172 32.9139 39.8173 32.9763 39.8798C33.0388 39.8798 33.1637 39.9422 33.2886 39.9422H33.3511C33.4135 39.9422 33.4135 39.9422 33.4135 40.0046C33.4135 40.0046 33.4135 40.0671 33.3511 40.0671C33.2886 40.0671 33.1637 40.0671 33.1012 40.0671C33.0388 40.0671 32.9138 40.1296 32.7889 40.2545C32.664 40.3794 32.5391 40.5043 32.3517 40.6292C32.1644 40.7542 32.1019 40.8791 32.1019 40.8791C32.1019 40.9415 32.0394 41.0664 31.9769 41.2538C31.9145 41.5661 31.852 41.816 31.852 41.8784C31.852 41.9409 31.9145 42.0034 32.0394 42.0658C32.1019 42.0658 32.1019 42.1283 32.1019 42.1283C32.1019 42.1907 32.0394 42.1907 32.0394 42.1907C31.977 42.1907 31.9145 42.1283 31.7271 42.1283C31.6647 42.1283 31.6022 42.0658 31.5397 42.0658C31.4148 42.0034 31.2899 42.0034 31.1026 42.0034C31.0401 42.0034 31.04 42.0034 31.04 42.0034C30.9776 42.0034 30.9776 41.9409 30.9776 41.9409C30.9776 41.9409 30.9776 41.8784 31.04 41.8784C31.165 41.8784 31.2274 41.8784 31.2899 41.816C31.3523 41.7535 31.4149 41.6286 31.4149 41.3788C31.4773 41.1914 31.4773 41.0664 31.4773 41.004C31.4773 40.9415 31.4148 40.8166 31.3523 40.5668C31.2899 40.3794 31.2275 40.192 31.165 40.0046C31.1025 39.8173 31.0401 39.6924 30.9776 39.6299C30.9151 39.5674 30.8527 39.505 30.7903 39.505C30.7278 39.505 30.7277 39.4425 30.7277 39.4425C30.7277 39.38 30.7903 39.38 30.7903 39.38H30.8527C31.0401 39.4425 31.165 39.505 31.2274 39.505C31.3524 39.5675 31.5397 39.5674 31.6646 39.6299C31.7271 39.6299 31.7271 39.6299 31.7271 39.6299C31.7896 39.6299 31.7896 39.6299 31.7896 39.6923L31.7271 39.7548C31.6022 39.7548 31.5397 39.7548 31.5397 39.8173C31.7271 39.8798 31.7896 40.1921 32.0394 40.7542Z" fill="white"/>
<path fill-rule="evenodd" clip-rule="evenodd" d="M21.0567 0L21.7407 2.06529H24.0001L22.176 3.3486L22.8808 5.43396L21.0567 4.13061L19.2326 5.43396L19.9373 3.3486L18.1133 2.06529H20.3519L21.0567 0Z" fill="#B30738"/>
<path fill-rule="evenodd" clip-rule="evenodd" d="M26.9545 1.81055L27.4191 3.18872H28.9817L27.7147 4.03533L28.2004 5.43319L26.9545 4.5669L25.6876 5.43319L26.1732 4.03533L24.9062 3.18872H26.4689L26.9545 1.81055Z" fill="#B30738"/>
<path fill-rule="evenodd" clip-rule="evenodd" d="M15.1705 1.81055L15.6588 3.18872H17.2083L15.9559 4.03533L16.4441 5.43319L15.1705 4.5669L13.897 5.43319L14.3852 4.03533L13.1328 3.18872H14.6823L15.1705 1.81055Z" fill="#B30738"/>
<path fill-rule="evenodd" clip-rule="evenodd" d="M20.8006 22.3912C20.4258 20.1426 17.5526 18.7061 15.7413 18.7061V14.2715C15.1792 14.209 14.9918 14.209 14.4297 14.2715V19.8928C16.6158 19.8928 19.4265 20.4549 20.8006 22.3912Z" fill="#081933"/>
<path fill-rule="evenodd" clip-rule="evenodd" d="M21.3633 22.3912C21.738 20.1426 24.6112 18.7061 26.4226 18.7061V14.2715C26.9847 14.209 27.172 14.209 27.7342 14.2715V19.8928C25.5481 19.8928 22.7998 20.4549 21.3633 22.3912Z" fill="#081933"/>
<path fill-rule="evenodd" clip-rule="evenodd" d="M20.8018 20.4543V15.8323C19.9274 14.3333 19.3653 13.5213 16.4297 13.209V17.956C18.4908 18.2058 19.4277 18.8304 20.8018 20.4543Z" fill="#081933"/>
<path fill-rule="evenodd" clip-rule="evenodd" d="M21.3633 20.4543V15.8323C22.2377 14.3333 22.7998 13.5213 25.7354 13.209V17.956C23.7367 18.2058 22.7374 18.8304 21.3633 20.4543Z" fill="#081933"/>
<path d="M64.2031 5.148L64.8031 9.468L64.2991 9.636C62.5471 6.852 61.0831 5.604 59.1391 5.604C57.6751 5.604 56.7391 6.348 56.7391 7.572C56.7391 9.396 58.8751 10.26 61.0831 11.364C63.4831 12.54 65.9551 13.932 65.9551 17.388C65.9551 21.348 62.8111 22.884 59.2591 22.884C57.2671 22.884 55.2751 22.38 54.0031 21.78L53.3551 16.812L53.8591 16.644C56.0671 20.268 57.7471 21.852 60.0751 21.852C61.8031 21.852 62.8591 20.868 62.8591 19.38C62.8591 17.34 60.8431 16.404 58.6591 15.324C56.2591 14.124 53.7391 12.852 53.7391 9.66C53.7391 5.964 56.9311 4.572 60.3871 4.572C61.7071 4.572 63.0511 4.788 64.2031 5.148ZM79.738 22.452V22.5H73.186V22.452C73.978 20.604 74.29 19.596 74.29 17.076V5.916L73.138 5.988C71.794 6.108 69.682 9.132 68.506 10.812L68.002 10.668L68.986 4.932H83.938L84.922 10.668L84.418 10.812C83.218 9.132 81.13 6.108 79.786 5.988L78.634 5.916V17.076C78.634 19.596 78.946 20.604 79.738 22.452ZM90.1649 22.5H85.2209V22.452C86.2769 21.468 87.0929 19.932 87.8129 17.964L92.5409 4.86H95.4929L100.269 18.084C100.941 19.956 101.661 21.42 102.549 22.452V22.5H95.3009V22.452C96.1889 21.348 96.4529 19.716 95.7329 17.652L95.2529 16.284H89.5649L89.2769 17.052C88.2689 19.764 88.8929 21.516 90.1649 22.452V22.5ZM89.9249 15.228H94.8929L92.4449 8.244L89.9249 15.228ZM104.98 22.5V22.452C105.772 20.7 106.084 19.716 106.084 17.292V10.14C106.084 7.716 105.772 6.732 104.98 4.98V4.932C107.812 4.932 108.988 4.836 112.228 4.836C118.732 4.836 122.788 7.932 122.788 13.62C122.788 19.308 118.948 22.5 112.228 22.5H104.98ZM118.084 13.836C118.084 8.412 116.548 5.916 112.348 5.916C111.94 5.916 111.076 5.964 110.404 6.036V21.324C111.148 21.396 112.18 21.42 112.588 21.42C116.884 21.372 118.084 18.612 118.084 13.836ZM133.963 22.884C129.859 22.884 126.691 20.892 126.691 16.068V10.38C126.691 7.836 126.379 6.828 125.587 4.98V4.932H132.187V4.98C131.395 6.732 131.059 7.836 131.059 10.356V16.284C131.059 20.388 132.763 21.492 135.019 21.492C138.379 21.492 139.435 18.996 139.435 15.78V10.548C139.435 7.932 138.931 6.876 137.275 4.98V4.932H142.723L142.771 4.98C141.235 6.876 140.611 7.98 140.611 10.572V15.612C140.611 19.692 139.171 22.884 133.963 22.884ZM159.348 22.5V22.452C160.14 20.604 160.452 19.596 160.452 17.052V8.436L154.5 21.972H153.42L147.372 8.244L147.444 16.932C147.468 19.452 148.164 20.556 149.772 22.452V22.5H144.396V22.452C145.74 20.556 146.268 19.5 146.268 16.908V9.108C146.148 7.236 145.548 6.396 144.252 4.98V4.932H150.54L155.652 16.62L160.788 4.932H166.788V4.98C165.348 6.54 164.772 7.428 164.772 9.756V17.076C164.772 19.548 165.108 20.604 165.876 22.452V22.5H159.348Z" fill="#070E20"/>
<path d="M56.4227 43.644C55.7907 43.644 55.2347 43.512 54.7547 43.248C54.2747 42.984 53.9027 42.624 53.6387 42.168C53.3747 41.704 53.2427 41.176 53.2427 40.584V34.56H54.2027V40.584C54.2027 41.016 54.2947 41.396 54.4787 41.724C54.6707 42.044 54.9307 42.296 55.2587 42.48C55.5947 42.656 55.9827 42.744 56.4227 42.744C56.8627 42.744 57.2467 42.656 57.5747 42.48C57.9107 42.296 58.1707 42.044 58.3547 41.724C58.5467 41.396 58.6427 41.016 58.6427 40.584V34.56H59.6027V40.584C59.6027 41.176 59.4707 41.704 59.2067 42.168C58.9427 42.624 58.5707 42.984 58.0907 43.248C57.6187 43.512 57.0627 43.644 56.4227 43.644ZM66.961 43.5V34.56H67.801L73.045 42.084H72.721V34.56H73.681V43.5H72.841L67.597 35.928H67.921V43.5H66.961ZM81.0769 43.5V34.56H82.0369V43.5H81.0769ZM91.7793 43.5L88.5033 34.56H89.4993L92.3793 42.648H92.1873L95.0553 34.56H96.0633L92.7873 43.5H91.7793ZM102.535 43.5V34.56H108.295V35.46H103.495V38.568H108.055V39.468H103.495V42.6H108.295V43.5H102.535ZM115.163 43.5V34.56H118.235C118.819 34.56 119.331 34.676 119.771 34.908C120.211 35.132 120.551 35.452 120.791 35.868C121.039 36.276 121.163 36.752 121.163 37.296C121.163 37.928 120.995 38.468 120.659 38.916C120.331 39.364 119.883 39.68 119.315 39.864L121.403 43.5H120.275L118.091 39.648L118.739 40.02H116.123V43.5H115.163ZM116.123 39.12H118.283C118.667 39.12 119.003 39.048 119.291 38.904C119.579 38.752 119.803 38.54 119.963 38.268C120.123 37.988 120.203 37.66 120.203 37.284C120.203 36.908 120.123 36.584 119.963 36.312C119.803 36.04 119.579 35.832 119.291 35.688C119.003 35.536 118.667 35.46 118.283 35.46H116.123V39.12ZM131.143 43.644C130.575 43.644 130.059 43.536 129.595 43.32C129.131 43.104 128.739 42.816 128.419 42.456C128.099 42.088 127.871 41.684 127.735 41.244L128.599 40.92C128.807 41.528 129.131 41.992 129.571 42.312C130.011 42.624 130.535 42.78 131.143 42.78C131.527 42.78 131.863 42.72 132.151 42.6C132.447 42.472 132.675 42.296 132.835 42.072C132.995 41.848 133.075 41.588 133.075 41.292C133.075 40.852 132.955 40.512 132.715 40.272C132.475 40.032 132.131 39.848 131.683 39.72L130.075 39.24C129.443 39.056 128.955 38.748 128.611 38.316C128.275 37.884 128.107 37.392 128.107 36.84C128.107 36.368 128.223 35.952 128.455 35.592C128.687 35.224 129.003 34.936 129.403 34.728C129.811 34.52 130.271 34.416 130.783 34.416C131.319 34.416 131.799 34.516 132.223 34.716C132.655 34.908 133.019 35.164 133.315 35.484C133.611 35.804 133.823 36.16 133.951 36.552L133.111 36.888C132.919 36.36 132.619 35.96 132.211 35.688C131.811 35.416 131.339 35.28 130.795 35.28C130.451 35.28 130.147 35.34 129.883 35.46C129.627 35.58 129.427 35.752 129.283 35.976C129.139 36.2 129.067 36.464 129.067 36.768C129.067 37.136 129.183 37.468 129.415 37.764C129.647 38.052 130.003 38.268 130.483 38.412L131.899 38.832C132.603 39.04 133.135 39.34 133.495 39.732C133.855 40.124 134.035 40.616 134.035 41.208C134.035 41.688 133.911 42.112 133.663 42.48C133.423 42.84 133.083 43.124 132.643 43.332C132.211 43.54 131.711 43.644 131.143 43.644ZM141.168 43.5V34.56H142.128V43.5H141.168ZM151.067 43.5V35.46H148.595V34.56H154.475V35.46H152.027V43.5H151.067ZM163.147 43.5V39.348L160.015 34.56H161.083L163.819 38.724H163.435L166.159 34.56H167.227L164.107 39.348V43.5H163.147Z" fill="#070E20"/>
</svg>
