<svg width="95" height="108" viewBox="0 0 95 108" fill="none" xmlns="http://www.w3.org/2000/svg">
<path fill-rule="evenodd" clip-rule="evenodd" d="M64.7486 79.122C64.7486 79.122 63.207 76.4592 60.8245 75.4782C58.442 74.4972 55.4988 76.7395 57.7412 79.122C59.8434 81.5045 64.7486 79.122 64.7486 79.122ZM57.8815 67.2095C57.8815 67.2095 59.423 69.8722 59.1427 72.535C58.8624 75.0576 55.3588 76.4592 54.3778 73.376C53.3967 70.2927 57.8815 67.2095 57.8815 67.2095ZM77.3619 17.8774C77.3619 17.8774 79.8845 16.3358 82.267 16.4759C84.6495 16.616 86.0511 19.8395 83.2482 20.9607C80.4452 22.0819 77.3619 17.8774 77.3619 17.8774ZM88.1533 11.1504C88.1533 11.1504 85.7708 12.6919 84.7897 14.9343C83.9489 17.1767 86.1912 19.8395 88.2934 17.7373C90.6759 15.635 88.1533 11.1504 88.1533 11.1504ZM80.1648 24.0439C80.1648 24.0439 82.9679 23.063 85.2103 23.6236C87.5928 24.1842 88.2935 27.6878 85.3504 28.1082C82.4073 28.809 80.1648 24.0439 80.1648 24.0439ZM92.0774 19.4191C92.0774 19.4191 89.4147 20.5402 88.0132 22.5023C86.7519 24.6045 88.4336 27.5477 90.9563 25.8659C93.6191 24.3243 92.0774 19.4191 92.0774 19.4191ZM81.5663 31.0513C81.5663 31.0513 84.5095 30.3507 86.7518 31.3317C88.9942 32.3127 89.2745 35.8163 86.1912 35.9565C83.108 35.9565 81.5663 31.0513 81.5663 31.0513ZM94.1796 27.9681C94.1796 27.9681 91.3767 28.6687 89.6949 30.4907C88.1533 32.3126 89.4147 35.6762 92.2176 34.2748C95.0206 33.1536 94.1796 27.9681 94.1796 27.9681ZM81.7066 37.7784C81.7066 37.7784 84.6496 37.6383 86.7518 39.0398C88.8541 40.4413 88.4336 43.9449 85.3504 43.5245C82.2671 42.9639 81.7066 37.7784 81.7066 37.7784ZM94.7402 37.0777C94.7402 37.0777 91.7971 37.2178 89.835 38.7594C87.873 40.301 88.5738 43.8047 91.657 42.9638C94.6001 42.2631 94.7402 37.0777 94.7402 37.0777ZM80.4452 44.3653C80.4452 44.3653 83.3883 44.7858 85.2103 46.4675C87.0322 48.1493 86.0511 51.653 83.108 50.5318C80.1649 49.5508 80.4452 44.3653 80.4452 44.3653ZM93.4788 46.0472C93.4788 46.0472 90.5358 45.6267 88.2934 46.888C86.1912 48.1494 86.1912 51.653 89.2744 51.3727C92.4978 51.2326 93.4788 46.0472 93.4788 46.0472ZM78.2029 50.3917C78.2029 50.3917 81.0058 51.5128 82.4073 53.615C83.8088 55.7172 81.9868 58.8005 79.324 57.1187C76.6611 55.4369 78.2029 50.3917 78.2029 50.3917ZM90.5358 55.0165C90.5358 55.0165 87.7329 54.0356 85.3504 54.5962C82.9679 55.2969 82.127 58.8005 85.3504 59.2209C88.4336 59.7815 90.5358 55.0165 90.5358 55.0165ZM74.5589 55.9976C74.5589 55.9976 77.2217 57.5392 78.0626 59.9217C79.0436 62.3042 76.8013 65.1073 74.4188 62.8649C72.1764 60.7627 74.5589 55.9976 74.5589 55.9976ZM85.911 62.8649C85.911 62.8649 83.2481 61.3233 80.7254 61.6035C78.2028 61.8838 76.8013 65.2473 79.8846 66.2283C82.9678 67.2094 85.911 62.8649 85.911 62.8649ZM69.9341 60.9028C69.9341 60.9028 72.1765 63.005 72.7371 65.3875C73.2977 67.9101 70.4947 70.2926 68.5327 67.6298C66.5706 65.1071 69.9341 60.9028 69.9341 60.9028ZM79.8846 69.732C79.8846 69.732 77.5021 67.77 74.9794 67.4897C72.4568 67.2094 70.4948 70.2927 73.2977 71.9745C76.1007 73.5161 79.8846 69.732 79.8846 69.732ZM64.3282 64.6867C64.3282 64.6867 66.1502 67.2094 66.2903 69.732C66.4305 72.2547 63.207 74.0767 61.6654 71.2738C60.4041 68.1905 64.3282 64.6867 64.3282 64.6867ZM72.7371 75.3379C72.7371 75.3379 70.775 72.9555 68.3925 72.2547C65.8699 71.554 63.3472 74.2168 65.8698 76.3191C68.2523 78.2811 72.7371 75.3379 72.7371 75.3379Z" fill="#081933"/>
<path fill-rule="evenodd" clip-rule="evenodd" d="M29.9916 79.122C29.9916 79.122 31.5332 76.4592 33.9157 75.4782C36.2982 74.4972 39.2414 76.7395 36.999 79.122C34.8968 81.5045 29.9916 79.122 29.9916 79.122ZM36.8589 67.2095C36.8589 67.2095 35.3173 69.8722 35.5975 72.535C35.8778 75.0576 39.3816 76.4592 40.3626 73.376C41.3436 70.2927 36.8589 67.2095 36.8589 67.2095ZM17.2382 17.8774C17.2382 17.8774 14.7156 16.3358 12.3331 16.4759C9.95055 16.616 8.54898 19.8395 11.3519 20.9607C14.295 22.0819 17.2382 17.8774 17.2382 17.8774ZM6.44676 11.1504C6.44676 11.1504 8.8293 12.6919 9.81034 14.9343C10.6512 17.1767 8.40886 19.8395 6.30665 17.7373C4.06428 15.635 6.44676 11.1504 6.44676 11.1504ZM14.5754 24.0439C14.5754 24.0439 11.7725 23.063 9.53011 23.6236C7.1476 24.1842 6.44673 27.6878 9.38983 28.1082C12.3329 28.809 14.5754 24.0439 14.5754 24.0439ZM2.52273 19.4191C2.52273 19.4191 5.1854 20.5402 6.58687 22.5023C7.8482 24.6045 6.16646 27.5477 3.64381 25.8659C0.981 24.3243 2.52273 19.4191 2.52273 19.4191ZM13.0338 31.0513C13.0338 31.0513 10.0906 30.3507 7.84824 31.3317C5.60587 32.3127 5.32561 35.8163 8.40886 35.9565C11.6323 35.9565 13.0338 31.0513 13.0338 31.0513ZM0.560625 27.9681C0.560625 27.9681 3.36351 28.6687 5.04528 30.4907C6.58691 32.3126 5.32568 35.6762 2.52273 34.2748C-0.280227 33.1536 0.560625 27.9681 0.560625 27.9681ZM13.0338 37.7784C13.0338 37.7784 10.0906 37.6383 7.98835 39.0398C5.88613 40.4413 6.30658 43.9449 9.38983 43.5245C12.3329 42.9639 13.0338 37.7784 13.0338 37.7784ZM0 37.0777C0 37.0777 2.9431 37.2178 4.90517 38.7594C6.86724 40.301 6.16643 43.8047 3.08318 42.9638C0.140079 42.2631 0 37.0777 0 37.0777ZM14.1549 44.3653C14.1549 44.3653 11.2117 44.7858 9.38983 46.4675C7.56791 48.1493 8.54894 51.653 11.492 50.5318C14.5753 49.5508 14.1549 44.3653 14.1549 44.3653ZM1.26136 46.0472C1.26136 46.0472 4.2044 45.6267 6.44676 46.888C8.54898 48.1494 8.54904 51.653 5.46579 51.3727C2.2424 51.2326 1.26136 46.0472 1.26136 46.0472ZM16.5375 50.3917C16.5375 50.3917 13.7345 51.5128 12.3331 53.615C10.9316 55.7172 12.7534 58.8005 15.4162 57.1187C18.0791 55.4369 16.5375 50.3917 16.5375 50.3917ZM4.20443 55.0165C4.20443 55.0165 7.00732 54.0356 9.38983 54.5962C11.7723 55.2969 12.6132 58.8005 9.38983 59.2209C6.30658 59.7815 4.20443 55.0165 4.20443 55.0165ZM20.1813 55.9976C20.1813 55.9976 17.5185 57.5392 16.6776 59.9217C15.6966 62.3042 17.9389 65.1073 20.3214 62.8649C22.5638 60.7627 20.1813 55.9976 20.1813 55.9976ZM8.68909 62.8649C8.68909 62.8649 11.352 61.3233 13.8747 61.6035C16.3973 61.8838 17.7988 65.2473 14.7155 66.2283C11.7724 67.2094 8.68909 62.8649 8.68909 62.8649ZM24.8061 60.9028C24.8061 60.9028 22.5637 63.005 22.0031 65.3875C21.4425 67.9101 24.2455 70.2926 26.2076 67.6298C28.1696 65.1071 24.8061 60.9028 24.8061 60.9028ZM14.7155 69.732C14.7155 69.732 17.098 67.77 19.6207 67.4897C22.1433 67.2094 24.1053 70.2927 21.3024 71.9745C18.4994 73.5161 14.7155 69.732 14.7155 69.732ZM30.2719 64.6867C30.2719 64.6867 28.4499 67.2094 28.3098 69.732C28.1696 72.2547 31.3931 74.0767 32.9347 71.2738C34.3362 68.1905 30.2719 64.6867 30.2719 64.6867ZM22.0031 75.3379C22.0031 75.3379 23.9653 72.9555 26.3478 72.2547C28.8705 71.554 31.3931 74.2168 28.8704 76.3191C26.4879 78.2811 22.0031 75.3379 22.0031 75.3379Z" fill="#081933"/>
<path d="M47.3705 68.0502C63.9079 59.9217 71.1956 39.8805 72.7372 23.9037C64.8889 20.2599 56.3399 18.0176 47.3705 18.0176C38.401 18.0176 29.8519 20.2599 22.0036 23.9037C23.5453 39.8805 30.6929 59.9217 47.3705 68.0502Z" stroke="#D3224D" stroke-width="2.9999" stroke-miterlimit="22.9256"/>
<path fill-rule="evenodd" clip-rule="evenodd" d="M92.0766 107.852C85.3495 105.33 77.7817 103.788 69.7933 103.087V99.8639C72.5962 100.565 75.259 101.406 77.7816 102.246L80.5846 103.227V100.144V92.0156C84.6489 92.7164 88.4328 93.8376 91.9365 95.099L83.3875 98.3223L92.0766 107.852Z" fill="#081933"/>
<path fill-rule="evenodd" clip-rule="evenodd" d="M2.52228 107.852C9.24937 105.33 16.8172 103.788 24.8056 103.087V99.8639C22.0027 100.565 19.3399 101.406 16.8173 102.246L14.0143 103.227V100.144V92.0156C9.95004 92.7164 6.16608 93.8376 2.66239 95.099L11.2114 98.3223L2.52228 107.852Z" fill="#081933"/>
<path fill-rule="evenodd" clip-rule="evenodd" d="M16.1169 87.6691V100.282C34.4762 93.4151 60.2633 93.4151 78.7628 100.282V87.6691C60.6837 81.2223 34.0558 81.2223 16.1169 87.6691Z" fill="#081933"/>
<path d="M19.9005 89.6312L21.1619 89.3508C21.302 89.3508 21.4422 89.2107 21.5824 89.2107C21.8627 89.0706 22.0028 89.0706 22.143 89.0706C22.2831 89.0706 22.4232 89.0706 22.4232 89.0706C22.4232 89.2108 22.4232 89.2107 22.2831 89.2107C22.143 89.2107 22.0027 89.351 21.8626 89.4911C21.8626 89.6313 21.8626 89.9115 21.8626 90.332C22.0027 90.7524 22.0028 91.1729 22.143 91.5933C22.2831 92.2941 22.5633 92.8546 22.7034 93.1349C22.8436 93.4152 22.9838 93.5554 23.2641 93.6956C23.5444 93.8357 23.8248 93.8357 24.2452 93.6956C24.6656 93.5554 24.9459 93.4152 25.0861 93.275C25.2262 92.9947 25.3663 92.7145 25.2262 92.4342C25.2262 92.0137 25.086 91.313 24.8057 90.332C24.6655 89.7714 24.5255 89.3509 24.3853 89.2107C24.2452 89.0706 24.105 88.9305 23.8247 88.9305C23.6845 88.9305 23.5445 88.9305 23.5445 88.7904C23.5445 88.6502 23.5444 88.6501 23.6846 88.6501C23.6846 88.6501 23.8247 88.6501 23.9648 88.6501C24.105 88.6501 24.2452 88.6501 24.3853 88.51C24.5255 88.51 24.6656 88.3699 24.9459 88.3699C25.0861 88.3699 25.2262 88.2298 25.2262 88.2298C25.3663 88.2298 25.3662 88.2298 25.5064 88.2298C25.5064 88.2298 25.5064 88.3699 25.3663 88.3699C25.2261 88.3699 25.0861 88.51 25.0861 88.6501C24.9459 88.7902 24.9459 88.9304 25.0861 89.2107C25.0861 89.491 25.2261 90.1918 25.5064 91.1728C25.6465 91.8736 25.7868 92.4341 25.6467 92.7144C25.6467 92.9947 25.3663 93.4151 25.0861 93.5553C24.8058 93.8356 24.3853 93.9757 23.8247 94.1159C23.4042 94.256 23.1239 94.256 22.7034 94.256C22.4231 94.256 22.1429 94.256 21.8626 94.1159C21.7224 93.9757 21.4421 93.8357 21.302 93.6956C21.1618 93.5554 21.0217 93.275 21.0217 92.8545L20.4611 90.7523C20.321 90.472 20.321 90.1917 20.1809 90.0516C20.0407 89.9114 20.0406 89.7713 19.9005 89.7713C19.7603 89.7713 19.7604 89.7713 19.4801 89.7713C19.34 89.7713 19.34 89.7713 19.34 89.7713C19.34 89.7713 19.34 89.7714 19.34 89.6312C19.7605 89.6312 19.9005 89.6312 19.9005 89.6312ZM27.889 87.8092C29.4306 89.0706 30.6919 90.0516 31.813 90.7523C31.813 90.6122 31.813 90.4721 31.813 90.332L31.5328 88.7904C31.3927 88.3699 31.3927 88.0895 31.2526 87.9494C31.1124 87.8092 31.1123 87.6691 30.9722 87.6691C30.832 87.6691 30.6919 87.529 30.4116 87.529C30.2714 87.529 30.2714 87.5291 30.2714 87.3889C30.2714 87.2488 30.2714 87.2486 30.4116 87.2486H30.5518C30.692 87.2486 30.9723 87.2487 31.2526 87.1085C31.673 87.1085 31.9533 86.9684 32.0934 86.9684C32.2336 86.9684 32.2336 86.9684 32.2336 86.9684C32.3737 86.9684 32.3737 86.9684 32.3737 87.1085C32.3737 87.2487 32.3737 87.2486 32.2336 87.2486C32.0934 87.2486 31.9532 87.3889 31.813 87.529C31.6729 87.6692 31.6729 87.9494 31.6729 88.3699L32.0934 90.6122L32.3737 92.2941C32.3737 92.4342 32.3737 92.5743 32.2336 92.5743C32.2336 92.5743 32.2336 92.5743 32.0934 92.5743C32.0934 92.5743 31.8131 92.4341 31.3927 92.1538C30.9723 91.8735 30.4116 91.4531 29.5707 90.7523C28.7298 90.1917 28.1693 89.6311 27.889 89.3508C27.889 89.491 28.0291 90.0516 28.3093 91.3129C28.4495 91.7334 28.4496 92.0138 28.5897 92.2941C28.7299 92.5744 28.8699 92.7144 29.0101 92.7144C29.1502 92.7144 29.4306 92.8546 29.5707 92.7144C29.7109 92.7144 29.7108 92.7144 29.7108 92.8545C29.7108 92.9947 29.7109 92.9948 29.5707 92.9948C29.5707 92.9948 29.4306 92.9948 29.2905 92.9948C29.1503 92.9948 28.87 92.9948 28.7299 93.1349C28.3094 93.2751 28.0292 93.275 27.889 93.275C27.7489 93.275 27.7488 93.275 27.6086 93.275C27.4685 93.275 27.4685 93.2751 27.4685 93.1349C27.4685 93.1349 27.4686 92.9948 27.7489 92.9948C28.0292 92.8547 28.1692 92.7144 28.3093 92.5743C28.3093 92.4342 28.3093 92.1539 28.3093 91.7334C28.0291 90.332 27.889 89.491 27.7489 89.2107C27.6087 88.9304 27.4685 88.6502 27.3284 88.3699C27.0481 88.0896 26.9079 88.0896 26.6276 88.0896C26.4875 88.0896 26.4875 88.0895 26.4875 87.9494C26.4875 87.8092 26.4875 87.8092 26.6276 87.8092C26.6276 87.8092 26.6276 87.8092 26.7678 87.8092C26.7678 87.8092 26.908 87.8092 27.0482 87.8092C27.3285 87.8092 27.6087 87.8092 27.889 87.8092ZM33.3548 86.8283C33.4949 86.8283 33.635 86.8283 33.9153 86.8283C34.1955 86.8283 34.3357 86.8283 34.4759 86.8283L35.7372 86.6882C35.8774 86.6882 35.8774 86.6881 35.8774 86.8283C35.8774 86.8283 35.8774 86.9684 35.7372 86.9684C35.4569 86.9684 35.3167 87.1085 35.3167 87.1085C35.3167 87.1085 35.1766 87.2487 35.1766 87.529C35.1766 87.8093 35.1766 88.2298 35.3167 88.9305C35.4569 89.7714 35.457 90.4722 35.5971 90.8926C35.7373 91.313 35.7372 91.5933 35.8774 91.7334C36.0175 91.8736 36.1577 91.8736 36.2979 91.8736C36.438 91.8736 36.4379 91.8735 36.5781 92.0137C36.5781 92.1538 36.5781 92.1538 36.438 92.1538H36.2979C35.7373 92.1538 35.4569 92.1539 35.1766 92.2941C34.7562 92.2941 34.4759 92.4342 34.3358 92.4342C34.1956 92.4342 34.1957 92.4342 34.0555 92.4342C33.9154 92.4342 33.9153 92.4342 33.9153 92.2941C33.9153 92.2941 33.9154 92.1538 34.0555 92.1538C34.3358 92.1538 34.4759 92.0137 34.4759 91.8736C34.4759 91.7334 34.616 91.4531 34.4759 91.1728C34.4759 90.7524 34.3358 90.1917 34.3358 89.3508C34.1956 88.51 34.1957 87.9494 34.0555 87.6691C34.0555 87.3888 33.9153 87.2487 33.7751 87.1085C33.635 87.1085 33.4949 86.9684 33.3548 86.9684C33.2147 86.9684 33.2147 86.9684 33.3548 86.8283C33.2147 86.8283 33.2147 86.8283 33.3548 86.8283ZM39.8016 91.7334H39.5212L38.6803 89.7713C38.4 89.3509 38.1198 88.6501 37.8395 87.9494C37.5592 87.2486 37.2789 86.8283 37.1387 86.6882C36.9986 86.548 36.9986 86.5479 36.8585 86.4078C36.8585 86.4078 36.7182 86.4078 36.5781 86.4078C36.4379 86.4078 36.438 86.4078 36.438 86.2677C36.438 86.1275 36.4379 86.1275 36.5781 86.1275H37.6993C38.1198 86.1275 38.4 86.1276 38.8204 85.9874C38.9606 85.9874 38.9607 85.9874 38.9607 85.9874C39.1009 85.9874 39.1008 85.9874 39.1008 86.1275C39.1008 86.1275 39.1009 86.2677 38.9607 86.2677C38.6804 86.2677 38.5402 86.548 38.5402 86.6882C38.5402 87.1086 38.9607 88.2297 39.8016 90.0516C39.9417 89.491 40.222 88.7903 40.3622 88.2298L40.6424 87.1085C40.6424 86.9684 40.6424 86.8283 40.6424 86.6882C40.6424 86.548 40.6424 86.4078 40.5023 86.4078C40.3621 86.2676 40.362 86.2677 40.2219 86.2677C40.0818 86.2677 40.0818 86.2677 40.0818 86.1275C40.0818 85.9874 40.0818 85.9874 40.2219 85.9874C40.362 85.9874 40.3621 85.9874 40.5023 85.9874C40.7826 85.9874 40.9228 85.9874 41.0629 85.9874C41.2031 85.9874 41.4832 85.9874 41.6234 85.9874C41.7635 85.9874 41.7636 85.9874 41.9038 85.9874C42.0439 85.9874 42.0439 85.9874 42.0439 86.1275C42.0439 86.1275 42.0439 86.2677 41.9038 86.2677C41.7636 86.2677 41.6234 86.4078 41.4833 86.4078C41.3431 86.5479 41.3432 86.6881 41.203 86.8283C41.0629 86.9684 40.9227 87.3889 40.7825 88.0896L40.2219 90.0516C40.0818 90.7523 39.8016 91.4532 39.8016 91.7334ZM47.2293 85.9874C47.3694 86.4079 47.3695 86.8282 47.5097 87.2486C47.5097 87.3888 47.5097 87.3889 47.3696 87.3889C47.3696 87.3889 47.2293 87.3888 47.2293 87.2486C46.949 86.8282 46.6687 86.5479 46.3884 86.4078C46.1081 86.2676 45.8279 86.2677 45.4075 86.2677C45.1272 86.2677 44.987 86.2677 44.7067 86.2677C44.7067 86.6881 44.7067 87.2487 44.7067 87.8092C44.7067 87.9494 44.7067 88.0896 44.7067 88.3699H44.987C45.1271 88.3699 45.4074 88.3699 45.5476 88.2298C45.6877 88.2298 45.8279 88.0895 45.9681 87.9494C46.1082 87.8092 46.1082 87.6691 46.1082 87.6691C46.1082 87.529 46.1082 87.529 46.2483 87.529C46.3885 87.529 46.3884 87.529 46.3884 87.6691C46.3884 87.8093 46.3884 88.3698 46.3884 89.2107C46.3884 89.3509 46.3884 89.4911 46.3884 89.4911C46.3884 89.6313 46.3885 89.6312 46.2483 89.6312C46.2483 89.6312 46.1082 89.491 46.1082 89.3508C46.1082 89.0705 45.968 88.9305 45.6877 88.7904C45.5475 88.6502 45.1272 88.6501 44.7067 88.6501C44.7067 89.0705 44.7067 89.351 44.7067 89.4911C44.7067 90.0517 44.7067 90.4721 44.7067 90.6122C44.7067 90.7523 44.8468 90.8926 44.987 90.8926C45.1271 91.0327 45.2673 91.0327 45.5476 91.0327C46.5286 91.0327 47.2294 90.7523 47.6498 90.0516C47.6498 89.9114 47.7899 89.9115 47.7899 89.9115C47.9301 89.9115 47.93 89.9114 47.93 90.0516V90.1919L47.6498 91.3129H46.1082C45.6878 91.3129 45.2672 91.3129 44.987 91.3129C44.5665 91.3129 44.2862 91.3129 44.1461 91.3129C43.8658 91.3129 43.5856 91.3129 43.1651 91.3129H43.0249C42.8847 91.3129 42.8847 91.313 42.8847 91.1728C42.8847 91.0327 42.8847 91.0327 43.0249 91.0327C43.3051 91.0327 43.4453 90.8925 43.5855 90.7523C43.7256 90.6122 43.7256 90.3319 43.7256 89.9115V87.8092C43.7256 87.1085 43.7256 86.688 43.7256 86.5479C43.7256 86.4077 43.7256 86.2677 43.5855 86.2677C43.4453 86.2677 43.3053 86.1275 43.1651 86.1275C43.025 86.1275 43.0249 86.1276 43.0249 85.9874C43.0249 85.8473 43.025 85.8471 43.1651 85.8471H44.1461L47.2293 85.9874ZM51.4337 88.6501C51.8542 88.6501 52.1346 88.7903 52.2747 89.0706C52.555 89.2108 52.695 89.6311 52.8352 90.0516C52.9753 90.472 52.9754 90.8926 53.1156 91.0327C53.2557 91.1729 53.3959 91.3129 53.6762 91.3129C53.8164 91.3129 53.8163 91.3129 53.8163 91.4531C53.8163 91.5932 53.6761 91.5933 53.5359 91.5933L51.9943 91.4531C51.8542 91.3129 51.7141 91.0326 51.7141 90.6122C51.7141 90.0516 51.574 89.6313 51.574 89.4911C51.4338 89.2108 51.4337 89.0706 51.2936 88.9305C51.1535 88.7903 51.0133 88.7904 50.733 88.7904C50.733 88.7904 50.5929 88.7904 50.4527 88.7904C50.4527 89.7714 50.3126 90.3319 50.3126 90.6122C50.3126 90.8925 50.3126 91.0327 50.4527 91.0327C50.5929 91.1729 50.7331 91.1728 50.8733 91.1728C51.0134 91.1728 51.0134 91.1728 51.0134 91.3129C51.0134 91.4531 51.0134 91.4531 50.8733 91.4531L49.6119 91.3129C49.4717 91.3129 49.1915 91.3129 48.9112 91.3129C48.6309 91.3129 48.4906 91.3129 48.4906 91.3129C48.3505 91.3129 48.3505 91.313 48.3505 91.1728C48.3505 91.0327 48.3505 91.0327 48.4906 91.0327C48.6308 91.0327 48.771 91.0327 48.9112 90.8926C49.0513 90.7524 49.1914 90.4721 49.1914 89.9115V89.2107L49.3315 87.6691C49.3315 86.9684 49.3315 86.4078 49.3315 86.2677C49.3315 86.1275 49.0513 85.9874 48.771 85.9874C48.6309 85.9874 48.6308 85.9873 48.6308 85.8471C48.6308 85.707 48.771 85.707 48.9112 85.707C49.752 85.707 50.3127 85.707 50.8733 85.707C51.1536 85.707 51.2937 85.707 51.574 85.707C52.1346 85.707 52.6952 85.8472 52.9755 86.1275C53.2558 86.4078 53.536 86.6881 53.3958 87.1085C53.3958 87.3888 53.2557 87.6691 53.1156 87.8092C52.9754 87.9494 52.6951 88.2298 52.4148 88.2298C51.9944 88.6502 51.714 88.6501 51.4337 88.6501ZM50.3126 88.51C50.4528 88.51 50.4527 88.51 50.4527 88.51C50.733 88.51 50.8732 88.51 51.1535 88.3699C51.4338 88.2297 51.574 88.0895 51.7141 87.9494C51.8543 87.8092 51.8542 87.5291 51.8542 87.3889C51.8542 87.1086 51.7141 86.8282 51.574 86.5479C51.4338 86.4077 51.1534 86.2677 50.733 86.2677C50.5928 86.2677 50.4528 86.2677 50.3126 86.2677V88.51ZM57.8806 86.8283L58.0208 86.6882C58.0208 86.548 58.1609 86.5479 58.1609 86.5479C58.301 86.5479 58.301 86.6882 58.301 86.6882V87.8092V87.9494C58.301 88.0895 58.301 88.0896 58.1609 88.0896H58.0208C58.0208 88.0896 58.0208 87.9494 57.8806 87.8092C57.7405 87.529 57.6003 87.2487 57.32 87.1085C57.0397 86.8282 56.7595 86.6882 56.4792 86.6882C56.1989 86.6882 55.9186 86.6881 55.7784 86.8283C55.6383 86.9684 55.498 87.1086 55.498 87.3889C55.498 87.5291 55.498 87.8092 55.6381 87.9494C55.7783 88.0895 56.0587 88.2297 56.4792 88.51C57.1799 88.7903 57.6003 89.0707 57.8806 89.4911C58.1609 89.7714 58.1609 90.1918 58.1609 90.6122C58.1609 91.0326 58.0207 91.313 57.7404 91.5933C57.4601 91.8736 57.3199 92.0136 57.0396 92.1538C56.7593 92.2939 56.4791 92.2941 56.0587 92.2941C55.7784 92.2941 55.6382 92.1538 55.3579 92.1538C55.0776 92.0136 54.9375 91.8736 54.6572 91.7334C54.6572 91.7334 54.5171 91.8735 54.5171 92.0137C54.5171 92.1538 54.377 92.1538 54.377 92.1538C54.377 92.1538 54.2367 92.0137 54.2367 91.8736V90.332V90.1919C54.2367 90.0517 54.2368 90.0516 54.377 90.0516C54.377 90.0516 54.5171 90.1918 54.5171 90.332C54.6572 90.7524 54.7974 91.1728 55.0777 91.4531C55.358 91.7333 55.6382 91.8735 56.0587 92.0137C56.3389 92.0137 56.6192 92.0137 56.8995 91.8736C57.1798 91.7334 57.1799 91.4531 57.32 91.3129C57.32 91.0326 57.3201 90.8925 57.1799 90.6122C57.0398 90.4721 56.7594 90.1917 56.1988 90.0516C55.7783 89.9114 55.4981 89.6313 55.2178 89.4911C55.0777 89.351 54.7973 89.0706 54.7973 88.9305C54.6571 88.6502 54.6572 88.3699 54.6572 88.2298C54.6572 87.8093 54.9375 87.3888 55.2178 87.2486C55.6382 86.9683 56.0587 86.8282 56.6193 86.9684C57.0397 86.4078 57.4602 86.548 57.8806 86.8283ZM59.7025 86.8283C59.8426 86.8283 59.9828 86.8282 60.2631 86.9684C60.5434 86.9684 60.6836 87.1085 60.8237 87.1085L62.0851 87.2486C62.2252 87.2486 62.2252 87.2488 62.2252 87.3889C62.2252 87.3889 62.2252 87.529 62.0851 87.529C61.8048 87.529 61.6646 87.529 61.6646 87.529C61.5244 87.529 61.5245 87.6691 61.3843 87.9494C61.2442 88.0895 61.2441 88.6501 61.1039 89.3508C60.9638 90.1917 60.8237 90.8925 60.8237 91.3129C60.8237 91.7334 60.8237 92.0136 60.8237 92.1538C60.8237 92.2939 60.9638 92.294 61.244 92.4342C61.3842 92.4342 61.3843 92.4342 61.3843 92.5743C61.3843 92.7144 61.2441 92.7144 61.1039 92.7144H60.9638C60.4032 92.5743 60.123 92.5743 59.9829 92.4342C59.5624 92.4342 59.282 92.2941 59.0017 92.2941C58.8616 92.2941 58.8616 92.2941 58.7215 92.2941C58.5813 92.2941 58.5814 92.2939 58.5814 92.1538C58.5814 92.1538 58.5813 92.0137 58.7215 92.0137C59.0018 92.0137 59.142 92.0137 59.2821 91.8736C59.4223 91.7334 59.4222 91.5933 59.5623 91.1728C59.7025 90.7524 59.7024 90.1919 59.8426 89.4911C59.9827 88.6502 59.9829 88.0895 59.9829 87.8092C59.9829 87.529 59.9829 87.3888 59.9829 87.2486C59.9829 87.1085 59.8426 87.1085 59.5623 87.1085C59.4222 87.1085 59.4222 86.9684 59.4222 86.9684C59.5624 86.8282 59.7025 86.8283 59.7025 86.8283ZM63.066 87.2486C64.4675 87.5289 65.4485 87.8092 66.1492 87.9494C66.7098 88.0895 67.2705 88.0896 67.8311 88.2298C68.1114 88.2298 68.2516 88.2297 68.3917 88.3699C68.3917 88.3699 68.5318 88.3699 68.6719 88.3699C68.6719 88.51 68.6719 88.6502 68.6719 89.0706V89.7713C68.6719 89.9115 68.5318 89.9115 68.5318 89.9115C68.5318 89.9115 68.3917 89.7714 68.3917 89.6312C68.3917 89.3509 68.2515 89.2108 68.1113 88.9305C67.9712 88.7903 67.831 88.6501 67.5507 88.51C67.4105 88.3698 66.9902 88.3699 66.5697 88.2298C66.4296 88.6502 66.2894 89.2108 66.1492 89.7713C66.0091 90.4721 65.869 91.0327 65.869 91.5933C65.7288 92.1539 65.7289 92.5743 65.7289 92.7144C65.7289 92.8546 65.7288 92.9948 65.869 92.9948C66.0091 93.135 66.1493 93.1349 66.4296 93.275C66.5698 93.275 66.5697 93.4152 66.5697 93.4152C66.5697 93.5553 66.5698 93.5553 66.4296 93.5553H66.2895L65.4485 93.4152C64.7477 93.275 64.4675 93.2751 64.3274 93.1349L63.7668 92.9948C63.7668 92.9948 63.6267 92.9948 63.4865 92.9948C63.4865 92.9948 63.3463 92.9947 63.3463 92.8545C63.3463 92.7144 63.4865 92.7144 63.4865 92.7144C63.7668 92.7144 63.9069 92.7144 64.047 92.7144C64.1871 92.5743 64.3274 92.4342 64.3274 92.2941C64.4675 92.0138 64.4675 91.5933 64.6076 90.8926C64.8879 89.7714 65.0281 88.7904 65.0281 88.0896C64.6077 87.9495 64.3273 87.9494 64.047 87.9494C63.9069 87.9494 63.6267 87.9495 63.4865 88.0896C63.2063 88.2298 63.0661 88.3698 62.9259 88.6501C62.9259 88.7902 62.7858 88.7904 62.7858 88.7904C62.6457 88.7904 62.6455 88.7902 62.6455 88.6501C62.6455 88.6501 62.6457 88.5101 62.7858 88.0896C62.926 87.6692 63.066 87.3888 63.066 87.2486ZM71.8954 91.5933C72.8764 90.7524 73.437 90.3319 73.437 90.0516V89.9115C73.437 89.7713 73.2967 89.7714 73.1566 89.6312C73.0165 89.6312 73.0165 89.4911 73.0165 89.4911C73.0165 89.351 73.1566 89.3508 73.1566 89.3508C73.1566 89.3508 73.1567 89.3508 73.2969 89.3508C73.5772 89.491 73.8575 89.4911 73.9976 89.6312C74.1378 89.6312 74.4181 89.7713 74.6984 89.7713H74.8385C74.9786 89.7713 74.9786 89.7713 74.9786 89.9115C74.9786 89.9115 74.9786 90.0516 74.8385 90.0516C74.6983 90.0516 74.418 90.0516 74.2778 90.0516C74.1377 90.0516 73.8574 90.1918 73.5771 90.4721C73.2968 90.7524 73.0166 91.0326 72.5961 91.3129C72.1757 91.5932 72.0355 91.8736 72.0355 91.8736C72.0355 92.0137 71.8953 92.294 71.7551 92.7144C71.615 93.4152 71.4749 93.9757 71.4749 94.1159C71.4749 94.256 71.6151 94.3963 71.8954 94.5364C72.0356 94.5364 72.0355 94.6765 72.0355 94.6765C72.0355 94.8167 71.8954 94.8166 71.8954 94.8166C71.7553 94.8166 71.6151 94.6765 71.1947 94.6765C71.0545 94.6765 70.9143 94.5364 70.7742 94.5364C70.4939 94.3963 70.2136 94.3963 69.7932 94.3963C69.653 94.3963 69.6529 94.3963 69.6529 94.3963C69.5128 94.3963 69.5128 94.256 69.5128 94.256C69.5128 94.256 69.5128 94.1159 69.6529 94.1159C69.9332 94.1159 70.0734 94.1159 70.2135 93.9758C70.3537 93.8356 70.4939 93.5554 70.4939 92.9948C70.6341 92.5744 70.634 92.2939 70.634 92.1538C70.634 92.0136 70.4938 91.7334 70.3536 91.1728C70.2135 90.7524 70.0735 90.3319 69.9333 89.9115C69.7932 89.491 69.6529 89.2108 69.5128 89.0706C69.3726 88.9305 69.2326 88.7904 69.0925 88.7904C68.9523 88.7904 68.9522 88.6501 68.9522 88.6501C68.9522 88.51 69.0925 88.51 69.0925 88.51H69.2326C69.653 88.6501 69.9333 88.7904 70.0734 88.7904C70.3537 88.9305 70.7741 88.9305 71.0544 89.0706C71.1945 89.0706 71.1947 89.0706 71.1947 89.0706C71.3348 89.0706 71.3348 89.0706 71.3348 89.2107L71.1947 89.3508C70.9144 89.3508 70.7742 89.351 70.7742 89.4911C71.1946 89.6313 71.3348 90.332 71.8954 91.5933Z" fill="#081933"/>
<path fill-rule="evenodd" clip-rule="evenodd" d="M47.2473 0.148438L48.7821 4.78259H53.8517L49.7588 7.6621L51.3402 12.3413L47.2473 9.4168L43.1544 12.3413L44.7357 7.6621L40.6428 4.78259H45.6659L47.2473 0.148438Z" fill="#081933"/>
<path fill-rule="evenodd" clip-rule="evenodd" d="M60.4799 4.21289L61.5223 7.30528H65.0285L62.1856 9.2049L63.2754 12.3415L60.4799 10.3977L57.637 12.3415L58.7268 9.2049L55.8839 7.30528H59.3901L60.4799 4.21289Z" fill="#081933"/>
<path fill-rule="evenodd" clip-rule="evenodd" d="M34.0383 4.21289L35.1338 7.30528H38.6107L35.8006 9.2049L36.896 12.3415L34.0383 10.3977L31.1806 12.3415L32.2761 9.2049L29.466 7.30528H32.9429L34.0383 4.21289Z" fill="#081933"/>
<path fill-rule="evenodd" clip-rule="evenodd" d="M46.6695 50.3907C45.8286 45.3454 39.3817 42.122 35.3174 42.122V32.1715C34.0561 32.0314 33.6357 32.0314 32.3744 32.1715V44.7848C37.2795 44.7848 43.5863 46.0461 46.6695 50.3907Z" fill="#081933"/>
<path fill-rule="evenodd" clip-rule="evenodd" d="M47.9306 50.3907C48.7715 45.3454 55.2185 42.122 59.2827 42.122V32.1715C60.5441 32.0314 60.9645 32.0314 62.2258 32.1715V44.7848C57.3206 44.7848 51.154 46.0461 47.9306 50.3907Z" fill="#081933"/>
<path fill-rule="evenodd" clip-rule="evenodd" d="M46.669 46.0483V35.6773C44.7069 32.3138 43.4456 30.4918 36.8587 29.791V40.4424C41.4835 41.003 43.5857 42.4044 46.669 46.0483Z" fill="#081933"/>
<path fill-rule="evenodd" clip-rule="evenodd" d="M47.9306 46.0483V35.6773C49.8927 32.3138 51.154 30.4918 57.741 29.791V40.4424C53.2563 41.003 51.0139 42.4044 47.9306 46.0483Z" fill="#081933"/>
</svg>
