<svg width="194" height="56" viewBox="0 0 194 56" fill="none" xmlns="http://www.w3.org/2000/svg">
<path fill-rule="evenodd" clip-rule="evenodd" d="M33.6658 41.0623C33.6658 41.0623 32.8643 39.6778 31.6255 39.1677C30.3867 38.6576 28.8564 39.8235 30.0223 41.0623C31.1153 42.3011 33.6658 41.0623 33.6658 41.0623ZM30.0952 34.8684C30.0952 34.8684 30.8967 36.2529 30.751 37.6374C30.6053 38.949 28.7836 39.6778 28.2735 38.0747C27.7634 36.4715 30.0952 34.8684 30.0952 34.8684ZM40.224 9.21837C40.224 9.21837 41.5356 8.41681 42.7744 8.48968C44.0132 8.56255 44.7419 10.2386 43.2846 10.8216C41.8272 11.4045 40.224 9.21837 40.224 9.21837ZM45.835 5.7207C45.835 5.7207 44.5962 6.52223 44.0861 7.68814C43.6489 8.85405 44.8148 10.2386 45.9078 9.14552C47.1466 8.05248 45.835 5.7207 45.835 5.7207ZM41.6814 12.4246C41.6814 12.4246 43.1388 11.9146 44.3048 12.2061C45.5435 12.4976 45.9079 14.3193 44.3776 14.5379C42.8473 14.9022 41.6814 12.4246 41.6814 12.4246ZM47.8753 10.02C47.8753 10.02 46.4908 10.6029 45.7621 11.6231C45.1063 12.7161 45.9807 14.2464 47.2924 13.372C48.6769 12.5704 47.8753 10.02 47.8753 10.02ZM42.4101 16.0681C42.4101 16.0681 43.9404 15.7038 45.1063 16.2139C46.2722 16.724 46.4179 18.5457 44.8148 18.6185C43.2117 18.6185 42.4101 16.0681 42.4101 16.0681ZM48.9683 14.465C48.9683 14.465 47.511 14.8293 46.6365 15.7766C45.835 16.7239 46.4908 18.4728 47.9482 17.7441C49.4056 17.1612 48.9683 14.465 48.9683 14.465ZM42.483 19.5659C42.483 19.5659 44.0133 19.493 45.1063 20.2217C46.1993 20.9504 45.9807 22.7721 44.3776 22.5535C42.7745 22.262 42.483 19.5659 42.483 19.5659ZM49.2598 19.2015C49.2598 19.2015 47.7296 19.2743 46.7094 20.0759C45.6892 20.8775 46.0536 22.6992 47.6567 22.262C49.187 21.8976 49.2598 19.2015 49.2598 19.2015ZM41.8272 22.9907C41.8272 22.9907 43.3575 23.2093 44.3048 24.0837C45.2521 24.9581 44.742 26.7799 43.2117 26.1969C41.6815 25.6869 41.8272 22.9907 41.8272 22.9907ZM48.604 23.8652C48.604 23.8652 47.0737 23.6465 45.9078 24.3024C44.8148 24.9582 44.8148 26.7799 46.4179 26.6341C48.0939 26.5613 48.604 23.8652 48.604 23.8652ZM40.6613 26.1241C40.6613 26.1241 42.1187 26.707 42.8474 27.8C43.5761 28.8931 42.6287 30.4962 41.2442 29.6218C39.8597 28.7473 40.6613 26.1241 40.6613 26.1241ZM47.0737 28.5287C47.0737 28.5287 45.6164 28.0187 44.3776 28.3102C43.1388 28.6745 42.7016 30.4962 44.3776 30.7148C45.9807 31.0063 47.0737 28.5287 47.0737 28.5287ZM38.7666 29.0389C38.7666 29.0389 40.1511 29.8404 40.5883 31.0791C41.0984 32.3179 39.9325 33.7754 38.6938 32.6095C37.5279 31.5164 38.7666 29.0389 38.7666 29.0389ZM44.6691 32.6095C44.6691 32.6095 43.2845 31.8079 41.9729 31.9536C40.6612 32.0994 39.9326 33.8482 41.5357 34.3583C43.1388 34.8683 44.6691 32.6095 44.6691 32.6095ZM36.362 31.5893C36.362 31.5893 37.5279 32.6823 37.8194 33.9211C38.1108 35.2327 36.6535 36.4715 35.6333 35.087C34.6131 33.7753 36.362 31.5893 36.362 31.5893ZM41.5357 36.18C41.5357 36.18 40.2969 35.1598 38.9853 35.0141C37.6736 34.8684 36.6535 36.4715 38.1109 37.346C39.5682 38.1475 41.5357 36.18 41.5357 36.18ZM33.4472 33.5567C33.4472 33.5567 34.3945 34.8683 34.4674 36.18C34.5403 37.4916 32.8642 38.439 32.0627 36.9816C31.4069 35.3785 33.4472 33.5567 33.4472 33.5567ZM37.8194 39.0948C37.8194 39.0948 36.7992 37.856 35.5604 37.4917C34.2488 37.1273 32.9371 38.5119 34.2488 39.6049C35.4875 40.6251 37.8194 39.0948 37.8194 39.0948Z" fill="#081933"/>
<path fill-rule="evenodd" clip-rule="evenodd" d="M15.594 41.0623C15.594 41.0623 16.3955 39.6778 17.6343 39.1677C18.8731 38.6576 20.4034 39.8235 19.2375 41.0623C18.1445 42.3011 15.594 41.0623 15.594 41.0623ZM19.1646 34.8684C19.1646 34.8684 18.3631 36.2529 18.5088 37.6374C18.6545 38.949 20.4763 39.6778 20.9864 38.0747C21.4965 36.4715 19.1646 34.8684 19.1646 34.8684ZM8.96295 9.21837C8.96295 9.21837 7.65131 8.41681 6.41253 8.48968C5.17375 8.56255 4.44501 10.2386 5.90239 10.8216C7.43265 11.4045 8.96295 9.21837 8.96295 9.21837ZM3.35197 5.7207C3.35197 5.7207 4.59076 6.52223 5.10085 7.68814C5.53806 8.85405 4.37216 10.2386 3.27912 9.14552C2.11321 8.05248 3.35197 5.7207 3.35197 5.7207ZM7.57842 12.4246C7.57842 12.4246 6.12105 11.9146 4.95515 12.2061C3.71637 12.4976 3.35195 14.3193 4.88221 14.5379C6.41246 14.9022 7.57842 12.4246 7.57842 12.4246ZM1.31168 10.02C1.31168 10.02 2.69613 10.6029 3.42482 11.6231C4.08064 12.7161 3.20623 14.2464 1.89458 13.372C0.510067 12.5704 1.31168 10.02 1.31168 10.02ZM6.77688 16.0681C6.77688 16.0681 5.24657 15.7038 4.08066 16.2139C2.91475 16.724 2.76903 18.5457 4.37216 18.6185C6.04815 18.6185 6.77688 16.0681 6.77688 16.0681ZM0.291495 14.465C0.291495 14.465 1.74884 14.8293 2.62328 15.7766C3.42484 16.7239 2.76907 18.4728 1.31168 17.7441C-0.145703 17.1612 0.291495 14.465 0.291495 14.465ZM6.77688 19.5659C6.77688 19.5659 5.24655 19.493 4.15351 20.2217C3.06047 20.9504 3.27908 22.7721 4.88221 22.5535C6.41246 22.262 6.77688 19.5659 6.77688 19.5659ZM0 19.2015C0 19.2015 1.53025 19.2743 2.55042 20.0759C3.57059 20.8775 3.20621 22.6992 1.60309 22.262C0.0728337 21.8976 0 19.2015 0 19.2015ZM7.35978 22.9907C7.35978 22.9907 5.8295 23.2093 4.88221 24.0837C3.9349 24.9581 4.44499 26.7799 5.97524 26.1969C7.57837 25.6869 7.35978 22.9907 7.35978 22.9907ZM0.655841 23.8652C0.655841 23.8652 2.18606 23.6465 3.35197 24.3024C4.44501 24.9582 4.44504 26.7799 2.84192 26.6341C1.16593 26.5613 0.655841 23.8652 0.655841 23.8652ZM8.59861 26.1241C8.59861 26.1241 7.14122 26.707 6.41253 27.8C5.68384 28.8931 6.6311 30.4962 8.01562 29.6218C9.40013 28.7473 8.59861 26.1241 8.59861 26.1241ZM2.18608 28.5287C2.18608 28.5287 3.64343 28.0187 4.88221 28.3102C6.12098 28.6745 6.5582 30.4962 4.88221 30.7148C3.27908 31.0063 2.18608 28.5287 2.18608 28.5287ZM10.4932 29.0389C10.4932 29.0389 9.10868 29.8404 8.67146 31.0791C8.16138 32.3179 9.32726 33.7754 10.566 32.6095C11.732 31.5164 10.4932 29.0389 10.4932 29.0389ZM4.51786 32.6095C4.51786 32.6095 5.90243 31.8079 7.21407 31.9536C8.52572 32.0994 9.2544 33.8482 7.65127 34.3583C6.12102 34.8683 4.51786 32.6095 4.51786 32.6095ZM12.8978 31.5893C12.8978 31.5893 11.7319 32.6823 11.4404 33.9211C11.149 35.2327 12.6063 36.4715 13.6265 35.087C14.6467 33.7753 12.8978 31.5893 12.8978 31.5893ZM7.65127 36.18C7.65127 36.18 8.89005 35.1598 10.2017 35.0141C11.5133 34.8684 12.5335 36.4715 11.0761 37.346C9.61871 38.1475 7.65127 36.18 7.65127 36.18ZM15.7397 33.5567C15.7397 33.5567 14.7924 34.8683 14.7196 36.18C14.6467 37.4916 16.3227 38.439 17.1243 36.9816C17.853 35.3785 15.7397 33.5567 15.7397 33.5567ZM11.4404 39.0948C11.4404 39.0948 12.4607 37.856 13.6995 37.4917C15.0111 37.1273 16.3227 38.5119 15.011 39.6049C13.7723 40.6251 11.4404 39.0948 11.4404 39.0948Z" fill="#081933"/>
<path d="M24.6301 35.3053C33.2287 31.0789 37.0179 20.6586 37.8194 12.3515C33.7387 10.4569 29.2937 9.29102 24.6301 9.29102C19.9665 9.29102 15.5214 10.4569 11.4407 12.3515C12.2423 20.6586 15.9587 31.0789 24.6301 35.3053Z" stroke="#D3224D" stroke-width="2.9999" stroke-miterlimit="22.9256"/>
<path fill-rule="evenodd" clip-rule="evenodd" d="M47.8749 55.9999C44.3772 54.6882 40.4423 53.8867 36.2887 53.5223V51.8463C37.7461 52.2106 39.1306 52.6479 40.4423 53.0851L41.8996 53.5952V51.9921V47.7656C44.0128 48.13 45.9803 48.713 47.802 49.3688L43.357 51.0447L47.8749 55.9999Z" fill="#081933"/>
<path fill-rule="evenodd" clip-rule="evenodd" d="M1.31145 55.9999C4.80917 54.6882 8.74404 53.8867 12.8976 53.5223V51.8463C11.4402 52.2106 10.0557 52.6479 8.74407 53.0851L7.28669 53.5952V51.9921V47.7656C5.17348 48.13 3.20603 48.713 1.3843 49.3688L5.8293 51.0447L1.31145 55.9999Z" fill="#081933"/>
<path fill-rule="evenodd" clip-rule="evenodd" d="M8.3799 45.5062V52.0644C17.9258 48.4938 31.3337 48.4938 40.9524 52.0644V45.5062C31.5523 42.1542 17.7072 42.1542 8.3799 45.5062Z" fill="#081933"/>
<path d="M10.3472 46.5267L11.003 46.3809C11.0759 46.3809 11.1488 46.3081 11.2217 46.3081C11.3674 46.2352 11.4403 46.2352 11.5132 46.2352C11.586 46.2352 11.6589 46.2352 11.6589 46.2352C11.6589 46.3081 11.6589 46.3081 11.586 46.3081C11.5131 46.3081 11.4402 46.381 11.3674 46.4539C11.3674 46.5267 11.3674 46.6724 11.3674 46.891C11.4402 47.1097 11.4403 47.3283 11.5132 47.5469C11.586 47.9112 11.7317 48.2027 11.8046 48.3484C11.8774 48.4942 11.9503 48.5671 12.0961 48.6399C12.2418 48.7128 12.3876 48.7128 12.6062 48.6399C12.8248 48.5671 12.9705 48.4942 13.0434 48.4213C13.1163 48.2755 13.1891 48.1298 13.1163 47.9841C13.1163 47.7655 13.0433 47.4011 12.8976 46.891C12.8247 46.5996 12.7519 46.3809 12.6791 46.3081C12.6062 46.2352 12.5333 46.1624 12.3876 46.1624C12.3147 46.1624 12.2419 46.1624 12.2419 46.0895C12.2419 46.0166 12.2418 46.0166 12.3147 46.0166C12.3147 46.0166 12.3875 46.0166 12.4604 46.0166C12.5333 46.0166 12.6062 46.0166 12.6791 45.9437C12.7519 45.9437 12.8248 45.8709 12.9705 45.8709C13.0434 45.8709 13.1163 45.798 13.1163 45.798C13.1891 45.798 13.1891 45.798 13.262 45.798C13.262 45.798 13.262 45.8709 13.1891 45.8709C13.1162 45.8709 13.0434 45.9437 13.0434 46.0166C12.9705 46.0894 12.9705 46.1623 13.0434 46.3081C13.0434 46.4538 13.1162 46.8182 13.262 47.3282C13.3348 47.6926 13.4078 47.9841 13.3349 48.1298C13.3349 48.2755 13.1891 48.4941 13.0434 48.567C12.8977 48.7127 12.679 48.7856 12.3876 48.8585C12.169 48.9314 12.0232 48.9313 11.8046 48.9313C11.6588 48.9313 11.5131 48.9314 11.3674 48.8585C11.2945 48.7856 11.1487 48.7128 11.0759 48.6399C11.003 48.5671 10.9302 48.4212 10.9302 48.2026L10.6387 47.1096C10.5658 46.9639 10.5658 46.8181 10.493 46.7453C10.4201 46.6724 10.4201 46.5996 10.3472 46.5996C10.2743 46.5996 10.2744 46.5996 10.1286 46.5996C10.0558 46.5996 10.0558 46.5996 10.0558 46.5996C10.0558 46.5996 10.0558 46.5996 10.0558 46.5267C10.2744 46.5267 10.3472 46.5267 10.3472 46.5267ZM14.5008 45.5794C15.3023 46.2352 15.9581 46.7453 16.5411 47.1096C16.5411 47.0367 16.5411 46.9639 16.5411 46.891L16.3954 46.0895C16.3225 45.8709 16.3225 45.7251 16.2497 45.6522C16.1768 45.5793 16.1767 45.5065 16.1039 45.5065C16.031 45.5065 15.9581 45.4337 15.8124 45.4337C15.7395 45.4337 15.7395 45.4337 15.7395 45.3608C15.7395 45.2879 15.7395 45.2879 15.8124 45.2879H15.8853C15.9582 45.2879 16.1039 45.2879 16.2497 45.215C16.4683 45.215 16.614 45.1422 16.6869 45.1422C16.7597 45.1422 16.7597 45.1422 16.7597 45.1422C16.8326 45.1422 16.8326 45.1422 16.8326 45.215C16.8326 45.2879 16.8326 45.2879 16.7597 45.2879C16.6868 45.2879 16.6139 45.3608 16.5411 45.4337C16.4682 45.5065 16.4682 45.6523 16.4682 45.8709L16.6869 47.0368L16.8326 47.9112C16.8326 47.9841 16.8326 48.0569 16.7597 48.0569C16.7597 48.0569 16.7597 48.0569 16.6869 48.0569C16.6869 48.0569 16.5411 47.984 16.3225 47.8383C16.1039 47.6926 15.8124 47.4739 15.3752 47.1096C14.938 46.8181 14.6465 46.5266 14.5008 46.3809C14.5008 46.4538 14.5736 46.7453 14.7193 47.4011C14.7922 47.6197 14.7923 47.7655 14.8651 47.9112C14.938 48.057 15.0108 48.1298 15.0837 48.1298C15.1566 48.1298 15.3023 48.2027 15.3752 48.1298C15.448 48.1298 15.448 48.1298 15.448 48.2026C15.448 48.2755 15.448 48.2756 15.3752 48.2756C15.3752 48.2756 15.3023 48.2756 15.2295 48.2756C15.1566 48.2756 15.0109 48.2756 14.938 48.3484C14.7194 48.4213 14.5737 48.4213 14.5008 48.4213C14.4279 48.4213 14.4279 48.4213 14.355 48.4213C14.2821 48.4213 14.2821 48.4213 14.2821 48.3484C14.2821 48.3484 14.2822 48.2756 14.4279 48.2756C14.5737 48.2027 14.6465 48.1298 14.7193 48.0569C14.7193 47.9841 14.7193 47.8383 14.7193 47.6197C14.5736 46.891 14.5008 46.4538 14.4279 46.3081C14.3551 46.1623 14.2822 46.0166 14.2093 45.8709C14.0636 45.7251 13.9907 45.7252 13.8449 45.7252C13.7721 45.7252 13.7721 45.7251 13.7721 45.6522C13.7721 45.5793 13.7721 45.5794 13.8449 45.5794C13.8449 45.5794 13.8449 45.5794 13.9178 45.5794C13.9178 45.5794 13.9907 45.5794 14.0636 45.5794C14.2093 45.5794 14.355 45.5794 14.5008 45.5794ZM17.3427 45.0693C17.4156 45.0693 17.4884 45.0693 17.6341 45.0693C17.7798 45.0693 17.8527 45.0693 17.9256 45.0693L18.5814 44.9965C18.6543 44.9965 18.6543 44.9964 18.6543 45.0693C18.6543 45.0693 18.6543 45.1422 18.5814 45.1422C18.4357 45.1422 18.3628 45.215 18.3628 45.215C18.3628 45.215 18.2899 45.2879 18.2899 45.4337C18.2899 45.5794 18.2899 45.798 18.3628 46.1624C18.4357 46.5996 18.4357 46.9639 18.5086 47.1825C18.5815 47.4012 18.5814 47.5469 18.6543 47.6197C18.7272 47.6926 18.8001 47.6926 18.8729 47.6926C18.9458 47.6926 18.9458 47.6926 19.0186 47.7654C19.0186 47.8383 19.0187 47.8383 18.9458 47.8383H18.8729C18.5815 47.8383 18.4357 47.8384 18.2899 47.9112C18.0713 47.9112 17.9256 47.9841 17.8528 47.9841C17.7799 47.9841 17.7799 47.9841 17.707 47.9841C17.6342 47.9841 17.6341 47.9841 17.6341 47.9112C17.6341 47.9112 17.6342 47.8383 17.707 47.8383C17.8528 47.8383 17.9256 47.7655 17.9256 47.6926C17.9256 47.6197 17.9985 47.474 17.9256 47.3282C17.9256 47.1096 17.8528 46.8181 17.8528 46.3809C17.7799 45.9437 17.7799 45.6523 17.707 45.5065C17.707 45.3608 17.6341 45.2879 17.5613 45.215C17.4884 45.215 17.4156 45.1422 17.3427 45.1422C17.2698 45.1422 17.2698 45.1422 17.3427 45.0693C17.2698 45.0693 17.2698 45.0693 17.3427 45.0693ZM20.6947 47.6197H20.5489L20.1117 46.5996C19.9659 46.3809 19.8202 46.0166 19.6745 45.6522C19.5287 45.2879 19.383 45.0693 19.3101 44.9965C19.2373 44.9236 19.2373 44.9235 19.1644 44.8507C19.1644 44.8507 19.0915 44.8507 19.0186 44.8507C18.9458 44.8507 18.9458 44.8507 18.9458 44.7778C18.9458 44.705 18.9458 44.705 19.0186 44.705H19.6016C19.8202 44.705 19.9659 44.705 20.1845 44.6321C20.2574 44.6321 20.2575 44.6321 20.2575 44.6321C20.3303 44.6321 20.3303 44.6321 20.3303 44.705C20.3303 44.705 20.3303 44.7778 20.2575 44.7778C20.1117 44.7778 20.0388 44.9236 20.0388 44.9965C20.0388 45.2151 20.2575 45.798 20.6947 46.7453C20.7675 46.4538 20.9133 46.0895 20.9862 45.798L21.1319 45.215C21.1319 45.1422 21.1319 45.0693 21.1319 44.9965C21.1319 44.9236 21.1319 44.8507 21.059 44.8507C20.9861 44.7778 20.9861 44.7778 20.9132 44.7778C20.8404 44.7778 20.8404 44.7778 20.8404 44.705C20.8404 44.6321 20.8404 44.6321 20.9132 44.6321C20.9861 44.6321 20.9861 44.6321 21.059 44.6321C21.2048 44.6321 21.2776 44.6321 21.3505 44.6321C21.4234 44.6321 21.569 44.6321 21.6419 44.6321C21.7148 44.6321 21.7148 44.6321 21.7877 44.6321C21.8606 44.6321 21.8606 44.6321 21.8606 44.705C21.8606 44.705 21.8606 44.7778 21.7877 44.7778C21.7148 44.7778 21.6419 44.8507 21.5691 44.8507C21.4962 44.9235 21.4962 44.9964 21.4234 45.0693C21.3505 45.1422 21.2776 45.3608 21.2047 45.7252L20.9132 46.7453C20.8404 47.1096 20.6947 47.474 20.6947 47.6197ZM24.5567 44.6321C24.6296 44.8507 24.6296 45.0693 24.7025 45.2879C24.7025 45.3607 24.7025 45.3608 24.6296 45.3608C24.6296 45.3608 24.5567 45.3607 24.5567 45.2879C24.4109 45.0693 24.2652 44.9235 24.1195 44.8507C23.9738 44.7778 23.828 44.7778 23.6094 44.7778C23.4637 44.7778 23.3908 44.7778 23.2451 44.7778C23.2451 44.9964 23.2451 45.2879 23.2451 45.5794C23.2451 45.6522 23.2451 45.7251 23.2451 45.8709H23.3908C23.4637 45.8709 23.6094 45.8709 23.6823 45.798C23.7552 45.798 23.8281 45.7251 23.9009 45.6522C23.9738 45.5793 23.9738 45.5065 23.9738 45.5065C23.9738 45.4336 23.9738 45.4337 24.0466 45.4337C24.1195 45.4337 24.1195 45.4336 24.1195 45.5065C24.1195 45.5794 24.1195 45.8708 24.1195 46.3081C24.1195 46.3809 24.1195 46.4539 24.1195 46.4539C24.1195 46.5267 24.1195 46.5267 24.0466 46.5267C24.0466 46.5267 23.9738 46.4538 23.9738 46.3809C23.9738 46.2352 23.9009 46.1624 23.7551 46.0895C23.6823 46.0166 23.4637 46.0166 23.2451 46.0166C23.2451 46.2352 23.2451 46.381 23.2451 46.4539C23.2451 46.7453 23.2451 46.9639 23.2451 47.0368C23.2451 47.1096 23.3179 47.1825 23.3908 47.1825C23.4637 47.2554 23.5366 47.2554 23.6823 47.2554C24.1924 47.2554 24.5567 47.1096 24.7753 46.7453C24.7753 46.6724 24.8482 46.6724 24.8482 46.6724C24.9211 46.6724 24.921 46.6724 24.921 46.7453V46.8182L24.7753 47.4011H23.9738C23.7552 47.4011 23.5365 47.4011 23.3908 47.4011C23.1722 47.4011 23.0265 47.4011 22.9536 47.4011C22.8079 47.4011 22.6622 47.4011 22.4435 47.4011H22.3706C22.2977 47.4011 22.2978 47.4011 22.2978 47.3282C22.2978 47.2554 22.2977 47.2554 22.3706 47.2554C22.5163 47.2554 22.5892 47.1825 22.6621 47.1096C22.735 47.0367 22.735 46.891 22.735 46.6724V45.5794C22.735 45.215 22.735 44.9964 22.735 44.9235C22.735 44.8507 22.735 44.7778 22.6621 44.7778C22.5892 44.7778 22.5164 44.705 22.4435 44.705C22.3707 44.705 22.3706 44.705 22.3706 44.6321C22.3706 44.5593 22.3707 44.5592 22.4435 44.5592H22.9536L24.5567 44.6321ZM26.7428 46.0166C26.9614 46.0166 27.1072 46.0895 27.18 46.2352C27.3258 46.3081 27.3986 46.5266 27.4715 46.7453C27.5443 46.9639 27.5444 47.1825 27.6172 47.2554C27.6901 47.3283 27.763 47.4011 27.9087 47.4011C27.9816 47.4011 27.9816 47.4011 27.9816 47.4739C27.9816 47.5468 27.9087 47.5469 27.8358 47.5469L27.0343 47.4739C26.9614 47.4011 26.8886 47.2554 26.8886 47.0368C26.8886 46.7453 26.8157 46.5267 26.8157 46.4539C26.7428 46.3081 26.7428 46.2352 26.6699 46.1624C26.597 46.0895 26.5242 46.0895 26.3784 46.0895C26.3784 46.0895 26.3056 46.0895 26.2327 46.0895C26.2327 46.5996 26.1599 46.891 26.1599 47.0368C26.1599 47.1825 26.1598 47.2554 26.2327 47.2554C26.3056 47.3283 26.3785 47.3282 26.4514 47.3282C26.5242 47.3282 26.5242 47.3282 26.5242 47.4011C26.5242 47.474 26.5242 47.4739 26.4514 47.4739L25.7955 47.4011C25.7226 47.4011 25.5769 47.4011 25.4312 47.4011C25.2854 47.4011 25.2125 47.4011 25.2125 47.4011C25.1397 47.4011 25.1397 47.4011 25.1397 47.3282C25.1397 47.2554 25.1397 47.2554 25.2125 47.2554C25.2854 47.2554 25.3583 47.2554 25.4312 47.1825C25.504 47.1097 25.5769 46.9639 25.5769 46.6724V46.3081L25.6497 45.5065C25.6497 45.1422 25.6497 44.8507 25.6497 44.7778C25.6497 44.705 25.5041 44.6321 25.3583 44.6321C25.2854 44.6321 25.2854 44.632 25.2854 44.5592C25.2854 44.4863 25.3583 44.4863 25.4312 44.4863C25.8684 44.4863 26.1599 44.4863 26.4514 44.4863C26.5971 44.4863 26.67 44.4863 26.8157 44.4863C27.1072 44.4863 27.3987 44.5592 27.5444 44.705C27.6901 44.8507 27.8358 44.9964 27.763 45.215C27.763 45.3608 27.6901 45.5065 27.6172 45.5794C27.5444 45.6522 27.3986 45.798 27.2529 45.798C27.0343 46.0166 26.8885 46.0166 26.7428 46.0166ZM26.1599 45.9437C26.2327 45.9437 26.2327 45.9437 26.2327 45.9437C26.3785 45.9437 26.4513 45.9437 26.5971 45.8709C26.7428 45.798 26.8157 45.7251 26.8886 45.6522C26.9614 45.5793 26.9614 45.4337 26.9614 45.3608C26.9614 45.2151 26.8886 45.0693 26.8157 44.9235C26.7428 44.8507 26.597 44.7778 26.3784 44.7778C26.3055 44.7778 26.2327 44.7778 26.1599 44.7778V45.9437ZM30.0948 45.0693L30.1677 44.9965C30.1677 44.9236 30.2405 44.9235 30.2405 44.9235C30.3134 44.9235 30.3134 44.9965 30.3134 44.9965V45.5794V45.6522C30.3134 45.7251 30.3134 45.7252 30.2405 45.7252H30.1677C30.1677 45.7252 30.1677 45.6522 30.0948 45.5794C30.0219 45.4336 29.9491 45.2879 29.8033 45.215C29.6576 45.0693 29.5119 44.9965 29.3661 44.9965C29.2204 44.9965 29.0746 44.9964 29.0018 45.0693C28.9289 45.1422 28.856 45.2151 28.856 45.3608C28.856 45.4337 28.856 45.5793 28.9288 45.6522C29.0017 45.7251 29.1475 45.798 29.3661 45.9437C29.7305 46.0895 29.9491 46.2352 30.0948 46.4539C30.2406 46.5996 30.2405 46.8181 30.2405 47.0368C30.2405 47.2554 30.1676 47.4012 30.0219 47.5469C29.8761 47.6926 29.8033 47.7654 29.6575 47.8383C29.5118 47.9112 29.3661 47.9112 29.1475 47.9112C29.0017 47.9112 28.9289 47.8383 28.7831 47.8383C28.6374 47.7654 28.5645 47.6926 28.4188 47.6197C28.4188 47.6197 28.3459 47.6926 28.3459 47.7654C28.3459 47.8383 28.2731 47.8383 28.2731 47.8383C28.2731 47.8383 28.2001 47.7655 28.2001 47.6926V46.891V46.8182C28.2001 46.7453 28.2002 46.7453 28.2731 46.7453C28.2731 46.7453 28.3459 46.8182 28.3459 46.891C28.4188 47.1097 28.4917 47.3282 28.6374 47.4739C28.7832 47.6197 28.9289 47.6926 29.1475 47.7654C29.2932 47.7654 29.4389 47.7655 29.5847 47.6926C29.7304 47.6197 29.7305 47.474 29.8033 47.4011C29.8033 47.2554 29.8033 47.1825 29.7305 47.0368C29.6576 46.9639 29.5118 46.8181 29.2203 46.7453C29.0017 46.6724 28.856 46.5267 28.7103 46.4539C28.6374 46.381 28.4916 46.2352 28.4916 46.1624C28.4188 46.0166 28.4188 45.8709 28.4188 45.798C28.4188 45.5794 28.5645 45.3607 28.7103 45.2879C28.9289 45.1421 29.1475 45.0693 29.439 45.1422C29.6576 44.8507 29.8762 44.9236 30.0948 45.0693ZM31.0421 45.0693C31.1149 45.0693 31.1878 45.0693 31.3336 45.1422C31.4793 45.1422 31.5522 45.215 31.6251 45.215L32.2809 45.2879C32.3538 45.2879 32.3537 45.2879 32.3537 45.3608C32.3537 45.3608 32.3538 45.4337 32.2809 45.4337C32.1352 45.4337 32.0623 45.4337 32.0623 45.4337C31.9894 45.4337 31.9894 45.5065 31.9166 45.6522C31.8437 45.7251 31.8436 46.0166 31.7708 46.3809C31.6979 46.8181 31.6251 47.1825 31.6251 47.4011C31.6251 47.6197 31.6251 47.7654 31.6251 47.8383C31.6251 47.9112 31.6979 47.9112 31.8436 47.9841C31.9165 47.9841 31.9166 47.9841 31.9166 48.0569C31.9166 48.1298 31.8436 48.1298 31.7708 48.1298H31.6979C31.4064 48.0569 31.2607 48.057 31.1879 47.9841C30.9693 47.9841 30.8235 47.9112 30.6777 47.9112C30.6049 47.9112 30.6049 47.9112 30.532 47.9112C30.4591 47.9112 30.4592 47.9112 30.4592 47.8383C30.4592 47.8383 30.4591 47.7654 30.532 47.7654C30.6778 47.7654 30.7506 47.7655 30.8235 47.6926C30.8964 47.6197 30.8963 47.5469 30.9692 47.3282C31.0421 47.1096 31.042 46.8182 31.1149 46.4539C31.1878 46.0166 31.1879 45.7251 31.1879 45.5794C31.1879 45.4336 31.1879 45.3607 31.1879 45.2879C31.1879 45.215 31.115 45.215 30.9692 45.215C30.8963 45.215 30.8964 45.1422 30.8964 45.1422C30.9692 45.0693 31.0421 45.0693 31.0421 45.0693ZM32.7909 45.2879C33.5196 45.4336 34.0297 45.5793 34.394 45.6522C34.6855 45.7251 34.977 45.7251 35.2685 45.798C35.4143 45.798 35.4871 45.798 35.56 45.8709C35.56 45.8709 35.6328 45.8709 35.7057 45.8709C35.7057 45.9437 35.7057 46.0166 35.7057 46.2352V46.5996C35.7057 46.6724 35.6329 46.6724 35.6329 46.6724C35.6329 46.6724 35.56 46.5996 35.56 46.5267C35.56 46.381 35.4871 46.3081 35.4142 46.1624C35.3414 46.0895 35.2685 46.0166 35.1227 45.9437C35.0499 45.8708 34.8313 45.8709 34.6127 45.798C34.5398 46.0166 34.4669 46.3081 34.394 46.5996C34.3212 46.9639 34.2483 47.2554 34.2483 47.5469C34.1755 47.8384 34.1755 48.0569 34.1755 48.1298C34.1755 48.2027 34.1755 48.2756 34.2483 48.2756C34.3212 48.3485 34.3941 48.3484 34.5398 48.4213C34.6127 48.4213 34.6127 48.4941 34.6127 48.4941C34.6127 48.567 34.6127 48.567 34.5398 48.567H34.467L34.0297 48.4941C33.6653 48.4213 33.5197 48.4213 33.4468 48.3484L33.1553 48.2756C33.1553 48.2756 33.0825 48.2756 33.0096 48.2756C33.0096 48.2756 32.9366 48.2755 32.9366 48.2026C32.9366 48.1298 33.0096 48.1298 33.0096 48.1298C33.1553 48.1298 33.2281 48.1298 33.301 48.1298C33.3739 48.0569 33.4468 47.9841 33.4468 47.9112C33.5197 47.7655 33.5196 47.5469 33.5925 47.1825C33.7382 46.5996 33.8111 46.0895 33.8111 45.7252C33.5925 45.6523 33.4467 45.6522 33.301 45.6522C33.2281 45.6522 33.0825 45.6523 33.0096 45.7252C32.8639 45.798 32.791 45.8708 32.7181 46.0166C32.7181 46.0894 32.6452 46.0895 32.6452 46.0895C32.5724 46.0895 32.5723 46.0894 32.5723 46.0166C32.5723 46.0166 32.5724 45.9438 32.6452 45.7252C32.7181 45.5066 32.7909 45.3607 32.7909 45.2879ZM37.3817 47.5469C37.8918 47.1097 38.1833 46.891 38.1833 46.7453V46.6724C38.1833 46.5995 38.1104 46.5996 38.0375 46.5267C37.9646 46.5267 37.9646 46.4539 37.9646 46.4539C37.9646 46.381 38.0375 46.3809 38.0375 46.3809C38.0375 46.3809 38.0376 46.3809 38.1104 46.3809C38.2562 46.4538 38.4019 46.4538 38.4748 46.5267C38.5477 46.5267 38.6934 46.5996 38.8391 46.5996H38.912C38.9848 46.5996 38.9848 46.5995 38.9848 46.6724C38.9848 46.6724 38.9848 46.7453 38.912 46.7453C38.8391 46.7453 38.6934 46.7453 38.6205 46.7453C38.5476 46.7453 38.4019 46.8182 38.2561 46.9639C38.1104 47.1096 37.9647 47.2554 37.7461 47.4011C37.5275 47.5468 37.4546 47.6926 37.4546 47.6926C37.4546 47.7655 37.3817 47.9112 37.3088 48.1298C37.2359 48.4941 37.1631 48.7856 37.1631 48.8585C37.1631 48.9314 37.236 49.0043 37.3817 49.0771C37.4546 49.0771 37.4546 49.15 37.4546 49.15C37.4546 49.2228 37.3817 49.2228 37.3817 49.2228C37.3089 49.2228 37.236 49.15 37.0174 49.15C36.9445 49.15 36.8716 49.0771 36.7988 49.0771C36.653 49.0043 36.5073 49.0043 36.2887 49.0043C36.2158 49.0043 36.2158 49.0043 36.2158 49.0043C36.1429 49.0043 36.1429 48.9313 36.1429 48.9313C36.1429 48.9313 36.1429 48.8585 36.2158 48.8585C36.3615 48.8585 36.4344 48.8585 36.5073 48.7856C36.5801 48.7128 36.6531 48.5671 36.6531 48.2756C36.7259 48.057 36.7259 47.9112 36.7259 47.8383C36.7259 47.7654 36.653 47.6197 36.5801 47.3282C36.5072 47.1096 36.4344 46.891 36.3616 46.6724C36.2887 46.4538 36.2158 46.3081 36.1429 46.2352C36.07 46.1623 35.9972 46.0895 35.9244 46.0895C35.8515 46.0895 35.8514 46.0166 35.8514 46.0166C35.8514 45.9437 35.9244 45.9437 35.9244 45.9437H35.9972C36.2158 46.0166 36.3615 46.0895 36.4344 46.0895C36.5801 46.1624 36.7987 46.1623 36.9445 46.2352C37.0173 46.2352 37.0174 46.2352 37.0174 46.2352C37.0903 46.2352 37.0903 46.2352 37.0903 46.3081L37.0174 46.3809C36.8717 46.3809 36.7988 46.381 36.7988 46.4539C37.0174 46.5267 37.0903 46.8911 37.3817 47.5469Z" fill="#081933"/>
<path fill-rule="evenodd" clip-rule="evenodd" d="M24.566 0L25.3641 2.40951H28L25.8719 3.9067L26.6941 6.33962L24.566 4.81905L22.438 6.33962L23.2602 3.9067L21.1321 2.40951H23.7438L24.566 0Z" fill="#081933"/>
<path fill-rule="evenodd" clip-rule="evenodd" d="M31.4463 2.11328L31.9883 3.72115H33.8113L32.3332 4.70886L32.8998 6.3397L31.4463 5.32903L29.9681 6.3397L30.5348 4.70886L29.0566 3.72115H30.8796L31.4463 2.11328Z" fill="#081933"/>
<path fill-rule="evenodd" clip-rule="evenodd" d="M17.6981 2.11328L18.2677 3.72115H20.0755L18.6144 4.70886L19.1839 6.3397L17.6981 5.32903L16.2123 6.3397L16.7818 4.70886L15.3208 3.72115H17.1285L17.6981 2.11328Z" fill="#081933"/>
<path fill-rule="evenodd" clip-rule="evenodd" d="M24.2656 26.1234C23.8284 23.5001 20.4764 21.8241 18.3632 21.8241V16.6504C17.7073 16.5775 17.4887 16.5775 16.8329 16.6504V23.2086C19.3833 23.2086 22.6625 23.8644 24.2656 26.1234Z" fill="#081933"/>
<path fill-rule="evenodd" clip-rule="evenodd" d="M24.9214 26.1234C25.3586 23.5001 28.7106 21.8241 30.8238 21.8241V16.6504C31.4797 16.5775 31.6982 16.5775 32.3541 16.6504V23.2086C29.8036 23.2086 26.5973 23.8644 24.9214 26.1234Z" fill="#081933"/>
<path fill-rule="evenodd" clip-rule="evenodd" d="M24.2654 23.865V18.4727C23.2452 16.7238 22.5894 15.7765 19.1645 15.4121V20.9502C21.5692 21.2417 22.6622 21.9704 24.2654 23.865Z" fill="#081933"/>
<path fill-rule="evenodd" clip-rule="evenodd" d="M24.9214 23.865V18.4727C25.9415 16.7238 26.5973 15.7765 30.0222 15.4121V20.9502C27.6904 21.2417 26.5245 21.9704 24.9214 23.865Z" fill="#081933"/>
<path d="M73.1536 5.756L73.8536 10.796L73.2656 10.992C71.2216 7.744 69.5136 6.288 67.2456 6.288C65.5376 6.288 64.4456 7.156 64.4456 8.584C64.4456 10.712 66.9376 11.72 69.5136 13.008C72.3136 14.38 75.1976 16.004 75.1976 20.036C75.1976 24.656 71.5296 26.448 67.3856 26.448C65.0616 26.448 62.7376 25.86 61.2536 25.16L60.4976 19.364L61.0856 19.168C63.6616 23.396 65.6216 25.244 68.3376 25.244C70.3536 25.244 71.5856 24.096 71.5856 22.36C71.5856 19.98 69.2336 18.888 66.6856 17.628C63.8856 16.228 60.9456 14.744 60.9456 11.02C60.9456 6.708 64.6696 5.084 68.7016 5.084C70.2416 5.084 71.8096 5.336 73.1536 5.756ZM91.2777 25.944V26H83.6337V25.944C84.5577 23.788 84.9217 22.612 84.9217 19.672V6.652L83.5777 6.736C82.0097 6.876 79.5457 10.404 78.1737 12.364L77.5857 12.196L78.7337 5.504H96.1777L97.3257 12.196L96.7377 12.364C95.3377 10.404 92.9017 6.876 91.3337 6.736L89.9897 6.652V19.672C89.9897 22.612 90.3537 23.788 91.2777 25.944ZM103.442 26H97.6744V25.944C98.9064 24.796 99.8584 23.004 100.698 20.708L106.214 5.42H109.658L115.23 20.848C116.014 23.032 116.854 24.74 117.89 25.944V26H109.434V25.944C110.47 24.656 110.778 22.752 109.938 20.344L109.378 18.748H102.742L102.406 19.644C101.23 22.808 101.958 24.852 103.442 25.944V26ZM103.162 17.516H108.958L106.102 9.368L103.162 17.516ZM120.726 26V25.944C121.65 23.9 122.014 22.752 122.014 19.924V11.58C122.014 8.752 121.65 7.604 120.726 5.56V5.504C124.03 5.504 125.402 5.392 129.182 5.392C136.77 5.392 141.502 9.004 141.502 15.64C141.502 22.276 137.022 26 129.182 26H120.726ZM136.014 15.892C136.014 9.564 134.222 6.652 129.322 6.652C128.846 6.652 127.838 6.708 127.054 6.792V24.628C127.922 24.712 129.126 24.74 129.602 24.74C134.614 24.684 136.014 21.464 136.014 15.892ZM154.54 26.448C149.752 26.448 146.056 24.124 146.056 18.496V11.86C146.056 8.892 145.692 7.716 144.768 5.56V5.504H152.468V5.56C151.544 7.604 151.152 8.892 151.152 11.832V18.748C151.152 23.536 153.14 24.824 155.772 24.824C159.692 24.824 160.924 21.912 160.924 18.16V12.056C160.924 9.004 160.336 7.772 158.404 5.56V5.504H164.76L164.816 5.56C163.024 7.772 162.296 9.06 162.296 12.084V17.964C162.296 22.724 160.616 26.448 154.54 26.448ZM184.156 26V25.944C185.08 23.788 185.444 22.612 185.444 19.644V9.592L178.5 25.384H177.24L170.184 9.368L170.268 19.504C170.296 22.444 171.108 23.732 172.984 25.944V26H166.712V25.944C168.28 23.732 168.896 22.5 168.896 19.476V10.376C168.756 8.192 168.056 7.212 166.544 5.56V5.504H173.88L179.844 19.14L185.836 5.504H192.836V5.56C191.156 7.38 190.484 8.416 190.484 11.132V19.672C190.484 22.556 190.876 23.788 191.772 25.944V26H184.156Z" fill="#D3224D"/>
<path d="M60.1728 50V41.805H61.2508V46.414L60.9868 46.304L64.9028 41.805H66.2558L62.9668 45.6L63.0218 44.83L66.4208 50H65.1338L62.5378 46.106L61.2508 47.58V50H60.1728ZM67.456 50V41.805H68.358L73.066 48.427L72.659 48.471V41.805H73.748V50H72.846L68.16 43.334L68.534 43.29V50H67.456ZM79.4931 50.132C78.9138 50.132 78.3711 50.0293 77.8651 49.824C77.3591 49.6113 76.9154 49.3143 76.5341 48.933C76.1601 48.5517 75.8668 48.1043 75.6541 47.591C75.4414 47.0703 75.3351 46.5057 75.3351 45.897C75.3351 45.281 75.4414 44.7163 75.6541 44.203C75.8668 43.6897 76.1601 43.2423 76.5341 42.861C76.9154 42.4797 77.3554 42.1863 77.8541 41.981C78.3601 41.7757 78.9064 41.673 79.4931 41.673C80.0798 41.673 80.6224 41.7793 81.1211 41.992C81.6271 42.1973 82.0671 42.4907 82.4411 42.872C82.8224 43.246 83.1194 43.6897 83.3321 44.203C83.5521 44.7163 83.6621 45.281 83.6621 45.897C83.6621 46.5057 83.5521 47.0703 83.3321 47.591C83.1194 48.1043 82.8224 48.5517 82.4411 48.933C82.0671 49.3143 81.6271 49.6113 81.1211 49.824C80.6224 50.0293 80.0798 50.132 79.4931 50.132ZM79.4931 49.131C79.9478 49.131 80.3621 49.0503 80.7361 48.889C81.1101 48.7203 81.4328 48.4893 81.7041 48.196C81.9828 47.8953 82.1954 47.5507 82.3421 47.162C82.4961 46.766 82.5731 46.3443 82.5731 45.897C82.5731 45.4497 82.4961 45.0317 82.3421 44.643C82.1954 44.2543 81.9828 43.9133 81.7041 43.62C81.4328 43.3193 81.1101 43.0883 80.7361 42.927C80.3621 42.7583 79.9478 42.674 79.4931 42.674C79.0458 42.674 78.6351 42.7583 78.2611 42.927C77.8871 43.0883 77.5608 43.3193 77.2821 43.62C77.0108 43.9133 76.7981 44.2543 76.6441 44.643C76.4901 45.0317 76.4131 45.4497 76.4131 45.897C76.4131 46.3443 76.4901 46.766 76.6441 47.162C76.7981 47.5507 77.0108 47.8953 77.2821 48.196C77.5608 48.4893 77.8871 48.7203 78.2611 48.889C78.6351 49.0503 79.0458 49.131 79.4931 49.131ZM86.5265 50L84.2275 41.805H85.3605L87.2855 49.021H87.0215L89.0235 41.805H90.1565L92.1475 49.021H91.8725L93.8085 41.805H94.9415L92.6425 50H91.4435L89.4415 42.817H89.7275L87.7255 50H86.5265ZM95.9765 50V41.805H97.0545V49.01H100.652V50H95.9765ZM101.863 50V41.805H107.198V42.795H102.941V45.391H106.978V46.381H102.941V49.01H107.198V50H101.863ZM108.534 50V41.805H111.218C112.047 41.805 112.769 41.9737 113.385 42.311C114.001 42.6483 114.478 43.125 114.815 43.741C115.152 44.3497 115.321 45.0683 115.321 45.897C115.321 46.7183 115.152 47.437 114.815 48.053C114.478 48.669 114.001 49.1493 113.385 49.494C112.769 49.8313 112.047 50 111.218 50H108.534ZM109.612 49.01H111.229C111.838 49.01 112.362 48.8817 112.802 48.625C113.249 48.3683 113.594 48.009 113.836 47.547C114.078 47.0777 114.199 46.5277 114.199 45.897C114.199 45.259 114.074 44.709 113.825 44.247C113.583 43.785 113.238 43.4293 112.791 43.18C112.351 42.9233 111.83 42.795 111.229 42.795H109.612V49.01ZM120.471 50.132C119.892 50.132 119.357 50.0293 118.865 49.824C118.374 49.6113 117.949 49.3143 117.589 48.933C117.23 48.5517 116.948 48.1043 116.742 47.591C116.544 47.0777 116.445 46.5167 116.445 45.908C116.445 45.292 116.544 44.7273 116.742 44.214C116.94 43.7007 117.219 43.2533 117.578 42.872C117.938 42.4907 118.363 42.1973 118.854 41.992C119.346 41.7793 119.881 41.673 120.46 41.673C121.025 41.673 121.531 41.772 121.978 41.97C122.433 42.168 122.814 42.4247 123.122 42.74C123.438 43.0553 123.661 43.3927 123.793 43.752L122.825 44.225C122.635 43.7483 122.338 43.3707 121.934 43.092C121.531 42.8133 121.04 42.674 120.46 42.674C119.888 42.674 119.379 42.8097 118.931 43.081C118.491 43.3523 118.147 43.73 117.897 44.214C117.648 44.698 117.523 45.2627 117.523 45.908C117.523 46.546 117.648 47.107 117.897 47.591C118.154 48.075 118.502 48.4527 118.942 48.724C119.39 48.9953 119.899 49.131 120.471 49.131C120.97 49.131 121.421 49.0247 121.824 48.812C122.228 48.5993 122.547 48.306 122.781 47.932C123.016 47.558 123.133 47.1253 123.133 46.634V46.128L123.628 46.59H120.46V45.655H124.222V46.381C124.222 46.953 124.123 47.47 123.925 47.932C123.727 48.394 123.456 48.79 123.111 49.12C122.767 49.4427 122.367 49.692 121.912 49.868C121.458 50.044 120.977 50.132 120.471 50.132ZM125.679 50V41.805H131.014V42.795H126.757V45.391H130.794V46.381H126.757V49.01H131.014V50H125.679ZM136.152 50V41.805H137.23V50H136.152ZM141.869 50.132C141.348 50.132 140.871 50.0367 140.439 49.846C140.006 49.648 139.639 49.3803 139.339 49.043C139.038 48.7057 138.822 48.328 138.69 47.91L139.625 47.525C139.823 48.053 140.116 48.46 140.505 48.746C140.901 49.0247 141.363 49.164 141.891 49.164C142.213 49.164 142.496 49.1127 142.738 49.01C142.98 48.9073 143.167 48.7643 143.299 48.581C143.438 48.3903 143.508 48.1703 143.508 47.921C143.508 47.5763 143.409 47.305 143.211 47.107C143.02 46.9017 142.738 46.7477 142.364 46.645L140.857 46.183C140.263 45.9997 139.808 45.71 139.493 45.314C139.177 44.918 139.02 44.4633 139.02 43.95C139.02 43.5027 139.126 43.1103 139.339 42.773C139.559 42.4283 139.859 42.1607 140.241 41.97C140.629 41.772 141.069 41.673 141.561 41.673C142.052 41.673 142.496 41.761 142.892 41.937C143.295 42.113 143.636 42.3513 143.915 42.652C144.193 42.9453 144.399 43.2827 144.531 43.664L143.607 44.049C143.431 43.587 143.167 43.2387 142.815 43.004C142.463 42.762 142.048 42.641 141.572 42.641C141.278 42.641 141.018 42.6923 140.791 42.795C140.571 42.8903 140.398 43.0333 140.274 43.224C140.156 43.4073 140.098 43.6273 140.098 43.884C140.098 44.1847 140.193 44.4523 140.384 44.687C140.574 44.9217 140.864 45.1013 141.253 45.226L142.628 45.633C143.273 45.831 143.761 46.1133 144.091 46.48C144.421 46.8467 144.586 47.3013 144.586 47.844C144.586 48.2913 144.468 48.6873 144.234 49.032C144.006 49.3767 143.687 49.648 143.277 49.846C142.873 50.0367 142.404 50.132 141.869 50.132ZM149.967 50V41.805H152.86C153.402 41.805 153.879 41.9077 154.29 42.113C154.7 42.3183 155.019 42.6117 155.247 42.993C155.481 43.3743 155.599 43.8217 155.599 44.335C155.599 44.8483 155.481 45.2957 155.247 45.677C155.019 46.051 154.7 46.3443 154.29 46.557C153.886 46.7623 153.41 46.865 152.86 46.865H151.045V50H149.967ZM151.045 45.875H152.893C153.223 45.875 153.509 45.8127 153.751 45.688C153.993 45.5633 154.18 45.3837 154.312 45.149C154.444 44.9143 154.51 44.643 154.51 44.335C154.51 44.0197 154.444 43.7483 154.312 43.521C154.18 43.2863 153.993 43.1067 153.751 42.982C153.509 42.8573 153.223 42.795 152.893 42.795H151.045V45.875ZM160.973 50.132C160.393 50.132 159.851 50.0293 159.345 49.824C158.839 49.6113 158.395 49.3143 158.014 48.933C157.64 48.5517 157.346 48.1043 157.134 47.591C156.921 47.0703 156.815 46.5057 156.815 45.897C156.815 45.281 156.921 44.7163 157.134 44.203C157.346 43.6897 157.64 43.2423 158.014 42.861C158.395 42.4797 158.835 42.1863 159.334 41.981C159.84 41.7757 160.386 41.673 160.973 41.673C161.559 41.673 162.102 41.7793 162.601 41.992C163.107 42.1973 163.547 42.4907 163.921 42.872C164.302 43.246 164.599 43.6897 164.812 44.203C165.032 44.7163 165.142 45.281 165.142 45.897C165.142 46.5057 165.032 47.0703 164.812 47.591C164.599 48.1043 164.302 48.5517 163.921 48.933C163.547 49.3143 163.107 49.6113 162.601 49.824C162.102 50.0293 161.559 50.132 160.973 50.132ZM160.973 49.131C161.427 49.131 161.842 49.0503 162.216 48.889C162.59 48.7203 162.912 48.4893 163.184 48.196C163.462 47.8953 163.675 47.5507 163.822 47.162C163.976 46.766 164.053 46.3443 164.053 45.897C164.053 45.4497 163.976 45.0317 163.822 44.643C163.675 44.2543 163.462 43.9133 163.184 43.62C162.912 43.3193 162.59 43.0883 162.216 42.927C161.842 42.7583 161.427 42.674 160.973 42.674C160.525 42.674 160.115 42.7583 159.741 42.927C159.367 43.0883 159.04 43.3193 158.762 43.62C158.49 43.9133 158.278 44.2543 158.124 44.643C157.97 45.0317 157.893 45.4497 157.893 45.897C157.893 46.3443 157.97 46.766 158.124 47.162C158.278 47.5507 158.49 47.8953 158.762 48.196C159.04 48.4893 159.367 48.7203 159.741 48.889C160.115 49.0503 160.525 49.131 160.973 49.131ZM168.006 50L165.707 41.805H166.84L168.765 49.021H168.501L170.503 41.805H171.636L173.627 49.021H173.352L175.288 41.805H176.421L174.122 50H172.923L170.921 42.817H171.207L169.205 50H168.006ZM177.456 50V41.805H182.791V42.795H178.534V45.391H182.571V46.381H178.534V49.01H182.791V50H177.456ZM184.127 50V41.805H187.02C187.563 41.805 188.039 41.9077 188.45 42.113C188.861 42.3183 189.18 42.6117 189.407 42.993C189.642 43.3743 189.759 43.8217 189.759 44.335C189.759 44.9143 189.612 45.4057 189.319 45.809C189.026 46.2123 188.63 46.502 188.131 46.678L190.034 50H188.78L186.778 46.447L187.493 46.865H185.205V50H184.127ZM185.205 45.875H187.053C187.376 45.875 187.658 45.8127 187.9 45.688C188.142 45.5633 188.329 45.3837 188.461 45.149C188.6 44.9143 188.67 44.643 188.67 44.335C188.67 44.0197 188.6 43.7483 188.461 43.521C188.329 43.2863 188.142 43.1067 187.9 42.982C187.658 42.8573 187.376 42.795 187.053 42.795H185.205V45.875Z" fill="#081933"/>
</svg>
