<svg width="265" height="64" viewBox="0 0 265 64" fill="none" xmlns="http://www.w3.org/2000/svg">
<path fill-rule="evenodd" clip-rule="evenodd" d="M38.4752 46.9275C38.4752 46.9275 37.5592 45.3452 36.1434 44.7623C34.7277 44.1793 32.9787 45.5117 34.3112 46.9275C35.5604 48.3432 38.4752 46.9275 38.4752 46.9275ZM34.3946 39.8488C34.3946 39.8488 35.3106 41.431 35.144 43.0133C34.9774 44.5123 32.8955 45.3452 32.3126 43.5131C31.7296 41.6809 34.3946 39.8488 34.3946 39.8488ZM45.9703 10.5344C45.9703 10.5344 47.4693 9.61838 48.8851 9.70166C50.3008 9.78493 51.1337 11.7004 49.4681 12.3666C47.8025 13.0329 45.9703 10.5344 45.9703 10.5344ZM52.3828 6.53711C52.3828 6.53711 50.9671 7.45314 50.3841 8.78561C49.8844 10.1181 51.2169 11.7004 52.4661 10.4512C53.8818 9.202 52.3828 6.53711 52.3828 6.53711ZM47.6359 14.1987C47.6359 14.1987 49.3015 13.6159 50.634 13.949C52.0497 14.2821 52.4661 16.364 50.7173 16.6139C48.9684 17.0303 47.6359 14.1987 47.6359 14.1987ZM54.7146 11.4506C54.7146 11.4506 53.1324 12.1168 52.2996 13.2827C51.5501 14.5319 52.5494 16.2808 54.0484 15.2814C55.6307 14.3653 54.7146 11.4506 54.7146 11.4506ZM48.4687 18.3627C48.4687 18.3627 50.2176 17.9464 51.5501 18.5293C52.8825 19.1123 53.0491 21.1942 51.2169 21.2775C49.3848 21.2775 48.4687 18.3627 48.4687 18.3627ZM55.9638 16.5306C55.9638 16.5306 54.2982 16.9469 53.2989 18.0296C52.3828 19.1122 53.1324 21.111 54.798 20.2782C56.4635 19.6119 55.9638 16.5306 55.9638 16.5306ZM48.552 22.3601C48.552 22.3601 50.3009 22.2769 51.5501 23.1097C52.7992 23.9425 52.5494 26.0244 50.7173 25.7746C48.8851 25.4415 48.552 22.3601 48.552 22.3601ZM56.2969 21.9438C56.2969 21.9438 54.5481 22.027 53.3822 22.9431C52.2162 23.8591 52.6327 25.9411 54.4648 25.4414C56.2137 25.025 56.2969 21.9438 56.2969 21.9438ZM47.8025 26.2742C47.8025 26.2742 49.5514 26.5241 50.634 27.5234C51.7166 28.5228 51.1337 30.6048 49.3848 29.9385C47.636 29.3556 47.8025 26.2742 47.8025 26.2742ZM55.5474 27.2736C55.5474 27.2736 53.7986 27.0238 52.4661 27.7733C51.2169 28.5228 51.2169 30.6047 53.049 30.4382C54.9644 30.3549 55.5474 27.2736 55.5474 27.2736ZM46.47 29.8553C46.47 29.8553 48.1356 30.5214 48.9684 31.7706C49.8012 33.0198 48.7185 34.852 47.1362 33.8526C45.5539 32.8533 46.47 29.8553 46.47 29.8553ZM53.7985 32.6034C53.7985 32.6034 52.133 32.0205 50.7173 32.3536C49.3015 32.77 48.8018 34.852 50.7173 35.1018C52.5494 35.4349 53.7985 32.6034 53.7985 32.6034ZM44.3047 33.1864C44.3047 33.1864 45.887 34.1024 46.3867 35.5182C46.9696 36.9339 45.6372 38.5996 44.2214 37.2671C42.889 36.0179 44.3047 33.1864 44.3047 33.1864ZM51.0504 37.2671C51.0504 37.2671 49.468 36.351 47.969 36.5176C46.47 36.6842 45.6372 38.6828 47.4694 39.2658C49.3015 39.8487 51.0504 37.2671 51.0504 37.2671ZM41.5566 36.1012C41.5566 36.1012 42.889 37.3503 43.2221 38.7661C43.5553 40.2651 41.8897 41.6808 40.7238 40.0985C39.5579 38.5995 41.5566 36.1012 41.5566 36.1012ZM47.4694 41.3477C47.4694 41.3477 46.0536 40.1818 44.5546 40.0153C43.0556 39.8487 41.8897 41.6809 43.5553 42.6803C45.2209 43.5963 47.4694 41.3477 47.4694 41.3477ZM38.2254 38.3497C38.2254 38.3497 39.308 39.8487 39.3913 41.3477C39.4746 42.8468 37.5591 43.9295 36.6431 42.2639C35.8936 40.4317 38.2254 38.3497 38.2254 38.3497ZM43.2221 44.6789C43.2221 44.6789 42.0563 43.2632 40.6405 42.8468C39.1415 42.4304 37.6424 44.0127 39.1414 45.2619C40.5572 46.4278 43.2221 44.6789 43.2221 44.6789Z" fill="white"/>
<path fill-rule="evenodd" clip-rule="evenodd" d="M17.8218 46.9275C17.8218 46.9275 18.7378 45.3452 20.1535 44.7623C21.5693 44.1793 23.3182 45.5117 21.9857 46.9275C20.7365 48.3432 17.8218 46.9275 17.8218 46.9275ZM21.9025 39.8488C21.9025 39.8488 20.9864 41.431 21.1529 43.0133C21.3195 44.5123 23.4015 45.3452 23.9844 43.5131C24.5674 41.6809 21.9025 39.8488 21.9025 39.8488ZM10.2434 10.5344C10.2434 10.5344 8.74435 9.61838 7.32861 9.70166C5.91286 9.78493 5.08001 11.7004 6.74559 12.3666C8.49445 13.0329 10.2434 10.5344 10.2434 10.5344ZM3.83082 6.53711C3.83082 6.53711 5.24659 7.45314 5.82954 8.78561C6.32922 10.1181 4.99675 11.7004 3.74756 10.4512C2.4151 9.202 3.83082 6.53711 3.83082 6.53711ZM8.66105 14.1987C8.66105 14.1987 6.99549 13.6159 5.66302 13.949C4.24728 14.2821 3.8308 16.364 5.57966 16.6139C7.32852 17.0303 8.66105 14.1987 8.66105 14.1987ZM1.49907 11.4506C1.49907 11.4506 3.08129 12.1168 3.91408 13.2827C4.66359 14.5319 3.66426 16.2808 2.16524 15.2814C0.582934 14.3653 1.49907 11.4506 1.49907 11.4506ZM7.745 18.3627C7.745 18.3627 5.99608 17.9464 4.66361 18.5293C3.33115 19.1123 3.16461 21.1942 4.99675 21.2775C6.91217 21.2775 7.745 18.3627 7.745 18.3627ZM0.333137 16.5306C0.333137 16.5306 1.99868 16.9469 2.99803 18.0296C3.9141 19.1122 3.16465 21.111 1.49907 20.2782C-0.166518 19.6119 0.333137 16.5306 0.333137 16.5306ZM7.745 22.3601C7.745 22.3601 5.99606 22.2769 4.74687 23.1097C3.49768 23.9425 3.74752 26.0244 5.57966 25.7746C7.32852 25.4415 7.745 22.3601 7.745 22.3601ZM0 21.9438C0 21.9438 1.74886 22.027 2.91477 22.9431C4.08068 23.8591 3.66424 25.9411 1.8321 25.4414C0.0832386 25.025 0 21.9438 0 21.9438ZM8.41117 26.2742C8.41117 26.2742 6.66229 26.5241 5.57966 27.5234C4.49703 28.5228 5.07999 30.6048 6.82885 29.9385C8.66099 29.3556 8.41117 26.2742 8.41117 26.2742ZM0.749533 27.2736C0.749533 27.2736 2.49835 27.0238 3.83082 27.7733C5.08001 28.5228 5.08005 30.6047 3.24791 30.4382C1.33249 30.3549 0.749533 27.2736 0.749533 27.2736ZM9.82698 29.8553C9.82698 29.8553 8.1614 30.5214 7.32861 31.7706C6.49581 33.0198 7.5784 34.852 9.16071 33.8526C10.743 32.8533 9.82698 29.8553 9.82698 29.8553ZM2.49837 32.6034C2.49837 32.6034 4.16392 32.0205 5.57966 32.3536C6.99541 32.77 7.49508 34.852 5.57966 35.1018C3.74752 35.4349 2.49837 32.6034 2.49837 32.6034ZM11.9922 33.1864C11.9922 33.1864 10.4099 34.1024 9.91024 35.5182C9.32728 36.9339 10.6597 38.5996 12.0755 37.2671C13.4079 36.0179 11.9922 33.1864 11.9922 33.1864ZM5.16327 37.2671C5.16327 37.2671 6.74563 36.351 8.24466 36.5176C9.74368 36.6842 10.5765 38.6828 8.74431 39.2658C6.99545 39.8487 5.16327 37.2671 5.16327 37.2671ZM14.7404 36.1012C14.7404 36.1012 13.4079 37.3503 13.0748 38.7661C12.7417 40.2651 14.4073 41.6808 15.5732 40.0985C16.7391 38.5995 14.7404 36.1012 14.7404 36.1012ZM8.74431 41.3477C8.74431 41.3477 10.1601 40.1818 11.6591 40.0153C13.1581 39.8487 14.324 41.6809 12.6584 42.6803C10.9928 43.5963 8.74431 41.3477 8.74431 41.3477ZM17.9883 38.3497C17.9883 38.3497 16.9056 39.8487 16.8223 41.3477C16.7391 42.8468 18.6545 43.9295 19.5706 42.2639C20.4034 40.4317 17.9883 38.3497 17.9883 38.3497ZM13.0748 44.6789C13.0748 44.6789 14.2408 43.2632 15.6565 42.8468C17.1555 42.4304 18.6545 44.0127 17.1555 45.2619C15.7397 46.4278 13.0748 44.6789 13.0748 44.6789Z" fill="white"/>
<path d="M28.1487 40.3498C37.9756 35.5196 42.3061 23.6106 43.2222 14.1168C38.5586 11.9516 33.4786 10.6191 28.1487 10.6191C22.8188 10.6191 17.7387 11.9516 13.0751 14.1168C13.9912 23.6106 18.2385 35.5196 28.1487 40.3498Z" stroke="#D3224D" stroke-width="2.9999" stroke-miterlimit="22.9256"/>
<path fill-rule="evenodd" clip-rule="evenodd" d="M54.7142 64.0004C50.7168 62.5014 46.2198 61.5853 41.4729 61.1689V59.2535C43.1384 59.6699 44.7207 60.1696 46.2197 60.6693L47.8853 61.2522V59.4201V54.5898C50.3004 55.0062 52.5489 55.6725 54.6309 56.422L49.5509 58.3374L54.7142 64.0004Z" fill="white"/>
<path fill-rule="evenodd" clip-rule="evenodd" d="M1.4988 64.0004C5.4962 62.5014 9.9932 61.5853 14.7401 61.1689V59.2535C13.0745 59.6699 11.4923 60.1696 9.99324 60.6693L8.32765 61.2522V59.4201V54.5898C5.91256 55.0062 3.66404 55.6725 1.58206 56.422L6.66207 58.3374L1.4988 64.0004Z" fill="white"/>
<path fill-rule="evenodd" clip-rule="evenodd" d="M9.57703 52.0079V59.503C20.4866 55.4223 35.8099 55.4223 46.8028 59.503V52.0079C36.0597 48.1771 20.2368 48.1771 9.57703 52.0079Z" fill="white"/>
<path d="M11.8254 53.1737L12.5749 53.007C12.6582 53.007 12.7415 52.9238 12.8248 52.9238C12.9913 52.8405 13.0746 52.8405 13.1579 52.8405C13.2412 52.8405 13.3244 52.8405 13.3244 52.8405C13.3244 52.9238 13.3244 52.9238 13.2412 52.9238C13.1579 52.9238 13.0746 53.0071 12.9913 53.0904C12.9913 53.1737 12.9913 53.3402 12.9913 53.59C13.0746 53.8399 13.0746 54.0897 13.1579 54.3396C13.2412 54.756 13.4077 55.0891 13.4909 55.2556C13.5742 55.4222 13.6575 55.5055 13.8241 55.5888C13.9906 55.672 14.1572 55.672 14.4071 55.5888C14.6569 55.5055 14.8235 55.4222 14.9067 55.3389C14.99 55.1723 15.0733 55.0058 14.99 54.8392C14.99 54.5894 14.9067 54.173 14.7401 53.59C14.6568 53.2569 14.5736 53.0071 14.4903 52.9238C14.4071 52.8405 14.3238 52.7573 14.1572 52.7573C14.0739 52.7573 13.9907 52.7573 13.9907 52.674C13.9907 52.5907 13.9907 52.5906 14.074 52.5906C14.074 52.5906 14.1572 52.5906 14.2405 52.5906C14.3237 52.5906 14.4071 52.5907 14.4903 52.5074C14.5736 52.5074 14.6569 52.4241 14.8235 52.4241C14.9068 52.4241 14.99 52.3409 14.99 52.3409C15.0733 52.3409 15.0732 52.3409 15.1565 52.3409C15.1565 52.3409 15.1565 52.4241 15.0733 52.4241C14.99 52.4241 14.9067 52.5074 14.9067 52.5906C14.8235 52.6739 14.8235 52.7572 14.9067 52.9238C14.9067 53.0903 14.99 53.5067 15.1565 54.0897C15.2398 54.5061 15.3232 54.8392 15.2399 55.0058C15.2399 55.1723 15.0733 55.4221 14.9067 55.5054C14.7402 55.672 14.4903 55.7553 14.1572 55.8385C13.9074 55.9218 13.7408 55.9218 13.4909 55.9218C13.3244 55.9218 13.1578 55.9218 12.9913 55.8385C12.908 55.7553 12.7414 55.672 12.6581 55.5888C12.5749 55.5055 12.4916 55.3388 12.4916 55.089L12.1585 53.8398C12.0752 53.6733 12.0753 53.5067 11.992 53.4234C11.9087 53.3402 11.9086 53.2569 11.8254 53.2569C11.7421 53.2569 11.7421 53.2569 11.5756 53.2569C11.4923 53.2569 11.4923 53.2569 11.4923 53.2569C11.4923 53.2569 11.4923 53.2569 11.4923 53.1737C11.7422 53.1737 11.8254 53.1737 11.8254 53.1737ZM16.5723 52.091C17.4884 52.8405 18.2378 53.4234 18.9041 53.8398C18.9041 53.7565 18.9041 53.6733 18.9041 53.59L18.7376 52.674C18.6543 52.4242 18.6543 52.2575 18.571 52.1742C18.4878 52.091 18.4877 52.0077 18.4044 52.0077C18.3211 52.0077 18.2378 51.9245 18.0713 51.9245C17.988 51.9245 17.988 51.9245 17.988 51.8412C17.988 51.7579 17.988 51.7578 18.0713 51.7578H18.1546C18.2379 51.7578 18.4045 51.7579 18.571 51.6746C18.8209 51.6746 18.9874 51.5913 19.0707 51.5913C19.154 51.5913 19.154 51.5913 19.154 51.5913C19.2372 51.5913 19.2372 51.5913 19.2372 51.6746C19.2372 51.7579 19.2372 51.7578 19.154 51.7578C19.0707 51.7578 18.9874 51.8412 18.9041 51.9245C18.8208 52.0077 18.8208 52.1743 18.8208 52.4241L19.0707 53.7566L19.2372 54.756C19.2372 54.8393 19.2372 54.9225 19.154 54.9225C19.154 54.9225 19.154 54.9225 19.0707 54.9225C19.0707 54.9225 18.9041 54.8392 18.6543 54.6726C18.4045 54.5061 18.0713 54.2562 17.5716 53.8398C17.072 53.5067 16.7389 53.1736 16.5723 53.007C16.5723 53.0903 16.6555 53.4234 16.8221 54.173C16.9054 54.4228 16.9054 54.5894 16.9887 54.756C17.072 54.9225 17.1552 55.0058 17.2385 55.0058C17.3218 55.0058 17.4884 55.089 17.5716 55.0058C17.6549 55.0058 17.6549 55.0057 17.6549 55.089C17.6549 55.1723 17.6549 55.1724 17.5716 55.1724C17.5716 55.1724 17.4884 55.1724 17.4051 55.1724C17.3218 55.1724 17.1553 55.1724 17.072 55.2556C16.8221 55.3389 16.6556 55.3389 16.5723 55.3389C16.489 55.3389 16.489 55.3389 16.4057 55.3389C16.3224 55.3389 16.3224 55.3389 16.3224 55.2556C16.3224 55.2556 16.3225 55.1724 16.4891 55.1724C16.6556 55.0891 16.7388 55.0058 16.8221 54.9225C16.8221 54.8392 16.8221 54.6727 16.8221 54.4228C16.6555 53.59 16.5723 53.0903 16.4891 52.9238C16.4058 52.7572 16.3225 52.5907 16.2392 52.4241C16.0726 52.2576 15.9893 52.2576 15.8228 52.2576C15.7395 52.2576 15.7395 52.2575 15.7395 52.1742C15.7395 52.091 15.7395 52.091 15.8228 52.091C15.8228 52.091 15.8228 52.091 15.9061 52.091C15.9061 52.091 15.9894 52.091 16.0727 52.091C16.2392 52.091 16.4058 52.091 16.5723 52.091ZM19.8202 51.5081C19.9035 51.5081 19.9867 51.5081 20.1533 51.5081C20.3198 51.5081 20.4031 51.5081 20.4864 51.5081L21.2359 51.4248C21.3192 51.4248 21.3192 51.4248 21.3192 51.5081C21.3192 51.5081 21.3192 51.5913 21.2359 51.5913C21.0694 51.5913 20.9861 51.6746 20.9861 51.6746C20.9861 51.6746 20.9028 51.7579 20.9028 51.9245C20.9028 52.091 20.9028 52.3409 20.9861 52.7573C21.0693 53.2569 21.0694 53.6733 21.1527 53.9232C21.236 54.173 21.2359 54.3396 21.3192 54.4228C21.4025 54.5061 21.4858 54.5061 21.5691 54.5061C21.6524 54.5061 21.6523 54.5061 21.7356 54.5894C21.7356 54.6726 21.7356 54.6726 21.6523 54.6726H21.5691C21.236 54.6726 21.0694 54.6727 20.9028 54.756C20.653 54.756 20.4864 54.8392 20.4031 54.8392C20.3199 54.8392 20.3199 54.8392 20.2366 54.8392C20.1533 54.8392 20.1533 54.8393 20.1533 54.756C20.1533 54.756 20.1533 54.6726 20.2366 54.6726C20.4032 54.6726 20.4864 54.5894 20.4864 54.5061C20.4864 54.4228 20.5697 54.2563 20.4864 54.0897C20.4864 53.8399 20.4031 53.5067 20.4031 53.007C20.3199 52.5074 20.3199 52.1743 20.2366 52.0077C20.2366 51.8412 20.1533 51.7579 20.07 51.6746C19.9867 51.6746 19.9035 51.5913 19.8202 51.5913C19.737 51.5913 19.737 51.5913 19.8202 51.5081C19.737 51.5081 19.737 51.5081 19.8202 51.5081ZM23.6511 54.4228H23.4844L22.9848 53.2569C22.8182 53.0071 22.6517 52.5906 22.4851 52.1742C22.3186 51.7578 22.152 51.5081 22.0687 51.4248C21.9854 51.3415 21.9855 51.3415 21.9022 51.2582C21.9022 51.2582 21.8189 51.2582 21.7356 51.2582C21.6523 51.2582 21.6523 51.2582 21.6523 51.1749C21.6523 51.0917 21.6523 51.0917 21.7356 51.0917H22.4019C22.6517 51.0917 22.8182 51.0917 23.068 51.0084C23.1513 51.0084 23.1514 51.0084 23.1514 51.0084C23.2347 51.0084 23.2347 51.0084 23.2347 51.0917C23.2347 51.0917 23.2347 51.1749 23.1514 51.1749C22.9848 51.1749 22.9015 51.3415 22.9015 51.4248C22.9015 51.6746 23.1514 52.3408 23.6511 53.4234C23.7343 53.0903 23.9009 52.674 23.9842 52.3409L24.1507 51.6746C24.1507 51.5913 24.1507 51.5081 24.1507 51.4248C24.1507 51.3415 24.1507 51.2582 24.0674 51.2582C23.9842 51.1749 23.9841 51.1749 23.9008 51.1749C23.8175 51.1749 23.8176 51.175 23.8176 51.0917C23.8176 51.0084 23.8175 51.0084 23.9008 51.0084C23.9841 51.0084 23.9842 51.0084 24.0674 51.0084C24.234 51.0084 24.3173 51.0084 24.4006 51.0084C24.4839 51.0084 24.6503 51.0084 24.7336 51.0084C24.8169 51.0084 24.817 51.0084 24.9002 51.0084C24.9835 51.0084 24.9835 51.0084 24.9835 51.0917C24.9835 51.0917 24.9835 51.1749 24.9002 51.1749C24.817 51.1749 24.7336 51.2582 24.6504 51.2582C24.5671 51.3415 24.5671 51.4248 24.4838 51.5081C24.4006 51.5913 24.3172 51.8412 24.234 52.2576L23.9008 53.4234C23.8175 53.8398 23.6511 54.2563 23.6511 54.4228ZM28.0648 51.0084C28.1481 51.2583 28.1481 51.508 28.2314 51.7578C28.2314 51.8411 28.2314 51.8412 28.1481 51.8412C28.1481 51.8412 28.0648 51.8411 28.0648 51.7578C27.8982 51.508 27.7317 51.3415 27.5651 51.2582C27.3986 51.1749 27.2321 51.1749 26.9822 51.1749C26.8157 51.1749 26.7324 51.1749 26.5658 51.1749C26.5658 51.4248 26.5658 51.7579 26.5658 52.091C26.5658 52.1743 26.5658 52.2576 26.5658 52.4241H26.7323C26.8156 52.4241 26.9822 52.4241 27.0655 52.3409C27.1488 52.3409 27.2321 52.2575 27.3154 52.1742C27.3986 52.091 27.3986 52.0077 27.3986 52.0077C27.3986 51.9244 27.3986 51.9245 27.4819 51.9245C27.5651 51.9245 27.5651 51.9244 27.5651 52.0077C27.5651 52.091 27.5651 52.4241 27.5651 52.9238C27.5651 53.0071 27.5651 53.0904 27.5651 53.0904C27.5651 53.1737 27.5651 53.1737 27.4819 53.1737C27.4819 53.1737 27.3986 53.0903 27.3986 53.007C27.3986 52.8405 27.3153 52.7573 27.1487 52.674C27.0655 52.5907 26.8157 52.5906 26.5658 52.5906C26.5658 52.8405 26.5658 53.0071 26.5658 53.0904C26.5658 53.4235 26.5658 53.6733 26.5658 53.7566C26.5658 53.8398 26.6491 53.9232 26.7323 53.9232C26.8156 54.0065 26.8989 54.0064 27.0655 54.0064C27.6484 54.0064 28.0648 53.8398 28.3147 53.4234C28.3147 53.3402 28.3979 53.3402 28.3979 53.3402C28.4812 53.3402 28.4812 53.3402 28.4812 53.4234V53.5068L28.3147 54.173H27.3986C27.1488 54.173 26.8989 54.173 26.7323 54.173C26.4825 54.173 26.316 54.173 26.2327 54.173C26.0661 54.173 25.8996 54.173 25.6498 54.173H25.5664C25.4831 54.173 25.4832 54.173 25.4832 54.0897C25.4832 54.0064 25.4831 54.0064 25.5664 54.0064C25.733 54.0064 25.8163 53.9231 25.8995 53.8398C25.9828 53.7565 25.9828 53.59 25.9828 53.3402V52.091C25.9828 51.6746 25.9828 51.4247 25.9828 51.3415C25.9828 51.2582 25.9828 51.1749 25.8995 51.1749C25.8163 51.1749 25.733 51.0917 25.6498 51.0917C25.5665 51.0917 25.5664 51.0917 25.5664 51.0084C25.5664 50.9251 25.5665 50.9251 25.6498 50.9251H26.2327L28.0648 51.0084ZM30.5632 52.5906C30.813 52.5906 30.9796 52.674 31.0629 52.8405C31.2295 52.9238 31.3127 53.1736 31.3959 53.4234C31.4792 53.6733 31.4793 53.9232 31.5626 54.0064C31.6458 54.0897 31.7291 54.173 31.8957 54.173C31.979 54.173 31.979 54.1729 31.979 54.2562C31.979 54.3395 31.8956 54.3396 31.8123 54.3396L30.8963 54.2562C30.813 54.1729 30.7298 54.0064 30.7298 53.7566C30.7298 53.4234 30.6465 53.1737 30.6465 53.0904C30.5632 52.9238 30.5632 52.8405 30.4799 52.7573C30.3966 52.674 30.3133 52.674 30.1468 52.674C30.1468 52.674 30.0635 52.674 29.9802 52.674C29.9802 53.257 29.897 53.59 29.897 53.7566C29.897 53.9231 29.897 54.0064 29.9802 54.0064C30.0635 54.0897 30.1468 54.0897 30.2301 54.0897C30.3134 54.0897 30.3134 54.0897 30.3134 54.173C30.3134 54.2562 30.3134 54.2562 30.2301 54.2562L29.4806 54.173C29.3973 54.173 29.2308 54.173 29.0642 54.173C28.8976 54.173 28.8143 54.173 28.8143 54.173C28.731 54.173 28.7311 54.173 28.7311 54.0897C28.7311 54.0064 28.731 54.0064 28.8143 54.0064C28.8976 54.0064 28.9809 54.0065 29.0642 53.9232C29.1475 53.8399 29.2307 53.6733 29.2307 53.3402V52.9238L29.314 52.0077C29.314 51.5913 29.314 51.2582 29.314 51.1749C29.314 51.0917 29.1475 51.0084 28.9809 51.0084C28.8977 51.0084 28.8976 51.0083 28.8976 50.9251C28.8976 50.8418 28.9809 50.8418 29.0642 50.8418C29.5639 50.8418 29.897 50.8418 30.2301 50.8418C30.3967 50.8418 30.48 50.8418 30.6465 50.8418C30.9796 50.8418 31.3127 50.9251 31.4793 51.0917C31.6459 51.2582 31.8124 51.4248 31.7291 51.6746C31.7291 51.8411 31.6458 52.0077 31.5626 52.091C31.4793 52.1743 31.3127 52.3409 31.1462 52.3409C30.8963 52.5907 30.7297 52.5906 30.5632 52.5906ZM29.897 52.5074C29.9803 52.5074 29.9802 52.5074 29.9802 52.5074C30.1468 52.5074 30.2301 52.5074 30.3966 52.4241C30.5632 52.3408 30.6465 52.2575 30.7298 52.1742C30.8131 52.091 30.813 51.9245 30.813 51.8412C30.813 51.6746 30.7298 51.508 30.6465 51.3415C30.5632 51.2582 30.3966 51.1749 30.1468 51.1749C30.0635 51.1749 29.9803 51.1749 29.897 51.1749V52.5074ZM34.3941 51.5081L34.4773 51.4248C34.4773 51.3415 34.5606 51.3415 34.5606 51.3415C34.6439 51.3415 34.6439 51.4248 34.6439 51.4248V52.091V52.1742C34.6439 52.2575 34.6439 52.2576 34.5606 52.2576H34.4773C34.4773 52.2576 34.4774 52.1743 34.3941 52.091C34.3108 51.9244 34.2275 51.7579 34.0609 51.6746C33.8944 51.508 33.7278 51.4248 33.5613 51.4248C33.3947 51.4248 33.2282 51.4248 33.1449 51.5081C33.0616 51.5913 32.9783 51.6746 32.9783 51.8412C32.9783 51.9245 32.9783 52.091 33.0615 52.1742C33.1448 52.2575 33.3114 52.3408 33.5613 52.5074C33.9777 52.6739 34.2275 52.8406 34.3941 53.0904C34.5606 53.257 34.5606 53.5067 34.5606 53.7566C34.5606 54.0064 34.4773 54.173 34.3107 54.3396C34.1442 54.5061 34.0609 54.5893 33.8943 54.6726C33.7278 54.7559 33.5612 54.756 33.3114 54.756C33.1449 54.756 33.0616 54.6726 32.895 54.6726C32.7285 54.5893 32.6452 54.5061 32.4786 54.4228C32.4786 54.4228 32.3954 54.5061 32.3954 54.5894C32.3954 54.6726 32.3121 54.6726 32.3121 54.6726C32.3121 54.6726 32.2287 54.5894 32.2287 54.5061V53.59V53.5068C32.2287 53.4235 32.2288 53.4234 32.3121 53.4234C32.3121 53.4234 32.3954 53.5068 32.3954 53.59C32.4786 53.8399 32.5619 54.0897 32.7285 54.2562C32.8951 54.4228 33.0616 54.5061 33.3114 54.5894C33.478 54.5894 33.6445 54.5894 33.8111 54.5061C33.9776 54.4228 33.9777 54.2562 34.0609 54.173C34.0609 54.0064 34.061 53.9231 33.9777 53.7566C33.8944 53.6733 33.7278 53.5067 33.3947 53.4234C33.1448 53.3402 32.9783 53.1737 32.8118 53.0904C32.7285 53.0071 32.5619 52.8405 32.5619 52.7573C32.4786 52.5907 32.4786 52.4241 32.4786 52.3409C32.4786 52.091 32.6452 51.8411 32.8118 51.7578C33.0616 51.5913 33.3114 51.5081 33.6445 51.5913C33.8944 51.2582 34.1442 51.3415 34.3941 51.5081ZM35.4766 51.5081C35.5599 51.5081 35.6432 51.5081 35.8098 51.5913C35.9763 51.5913 36.0596 51.6746 36.1429 51.6746L36.8925 51.7578C36.9757 51.7578 36.9757 51.7579 36.9757 51.8412C36.9757 51.8412 36.9757 51.9245 36.8925 51.9245C36.7259 51.9245 36.6426 51.9245 36.6426 51.9245C36.5593 51.9245 36.5593 52.0077 36.4761 52.1742C36.3928 52.2575 36.3927 52.5906 36.3094 53.007C36.2262 53.5067 36.1429 53.9231 36.1429 54.173C36.1429 54.4228 36.1429 54.5893 36.1429 54.6726C36.1429 54.7559 36.2261 54.756 36.3927 54.8392C36.476 54.8392 36.4761 54.8392 36.4761 54.9225C36.4761 55.0058 36.3927 55.0058 36.3094 55.0058H36.2262C35.8931 54.9225 35.7265 54.9225 35.6433 54.8392C35.3934 54.8392 35.2268 54.756 35.0603 54.756C34.977 54.756 34.977 54.756 34.8937 54.756C34.8105 54.756 34.8105 54.7559 34.8105 54.6726C34.8105 54.6726 34.8105 54.5894 34.8937 54.5894C35.0603 54.5894 35.1436 54.5894 35.2269 54.5061C35.3102 54.4228 35.3101 54.3395 35.3934 54.0897C35.4767 53.8399 35.4766 53.5068 35.5599 53.0904C35.6432 52.5907 35.6433 52.2575 35.6433 52.091C35.6433 51.9244 35.6433 51.8411 35.6433 51.7578C35.6433 51.6746 35.5599 51.6746 35.3934 51.6746C35.3101 51.6746 35.3101 51.5913 35.3101 51.5913C35.3934 51.5081 35.4766 51.5081 35.4766 51.5081ZM37.4754 51.7578C38.3082 51.9244 38.8911 52.091 39.3075 52.1742C39.6406 52.2575 39.9738 52.2576 40.3069 52.3409C40.4734 52.3409 40.5567 52.3408 40.64 52.4241C40.64 52.4241 40.7233 52.4241 40.8065 52.4241C40.8065 52.5074 40.8065 52.5907 40.8065 52.8405V53.2569C40.8065 53.3402 40.7233 53.3402 40.7233 53.3402C40.7233 53.3402 40.64 53.2569 40.64 53.1737C40.64 53.0071 40.5567 52.9238 40.4734 52.7573C40.3901 52.674 40.3068 52.5907 40.1403 52.5074C40.057 52.4241 39.8072 52.4241 39.5573 52.3409C39.4741 52.5907 39.3907 52.9238 39.3075 53.2569C39.2242 53.6733 39.1409 54.0065 39.1409 54.3396C39.0577 54.6727 39.0577 54.9225 39.0577 55.0058C39.0577 55.089 39.0577 55.1724 39.1409 55.1724C39.2242 55.2557 39.3075 55.2556 39.4741 55.3389C39.5574 55.3389 39.5573 55.4221 39.5573 55.4221C39.5573 55.5054 39.5574 55.5054 39.4741 55.5054H39.3908L38.8911 55.4221C38.4747 55.3389 38.3082 55.3389 38.2249 55.2556L37.8918 55.1724C37.8918 55.1724 37.8085 55.1724 37.7252 55.1724C37.7252 55.1724 37.6419 55.1723 37.6419 55.089C37.6419 55.0057 37.7252 55.0058 37.7252 55.0058C37.8918 55.0058 37.975 55.0058 38.0583 55.0058C38.1416 54.9225 38.2249 54.8393 38.2249 54.756C38.3082 54.5894 38.3081 54.3396 38.3914 53.9232C38.558 53.257 38.6413 52.674 38.6413 52.2576C38.3915 52.1743 38.2248 52.1742 38.0583 52.1742C37.975 52.1742 37.8085 52.1743 37.7252 52.2576C37.5587 52.3409 37.4754 52.4241 37.3921 52.5906C37.3921 52.6739 37.3088 52.674 37.3088 52.674C37.2256 52.674 37.2255 52.6739 37.2255 52.5906C37.2255 52.5906 37.2256 52.5074 37.3088 52.2576C37.3921 52.0078 37.4754 51.8411 37.4754 51.7578ZM42.722 54.3396C43.3049 53.8399 43.638 53.59 43.638 53.4234V53.3402C43.638 53.2569 43.5547 53.2569 43.4714 53.1737C43.3881 53.1737 43.3882 53.0904 43.3882 53.0904C43.3882 53.0071 43.4714 53.007 43.4714 53.007C43.4714 53.007 43.4715 53.007 43.5548 53.007C43.7213 53.0903 43.8879 53.0904 43.9712 53.1737C44.0545 53.1737 44.221 53.2569 44.3876 53.2569H44.4708C44.5541 53.2569 44.5541 53.2569 44.5541 53.3402C44.5541 53.3402 44.5541 53.4234 44.4708 53.4234C44.3876 53.4234 44.221 53.4234 44.1377 53.4234C44.0544 53.4234 43.8879 53.5067 43.7213 53.6733C43.5547 53.8399 43.3882 54.0064 43.1384 54.173C42.8885 54.3395 42.8053 54.5061 42.8053 54.5061C42.8053 54.5894 42.7219 54.7559 42.6386 55.0058C42.5554 55.4221 42.4721 55.7553 42.4721 55.8385C42.4721 55.9218 42.5554 56.0051 42.722 56.0884C42.8053 56.0884 42.8053 56.1717 42.8053 56.1717C42.8053 56.255 42.722 56.2549 42.722 56.2549C42.6387 56.2549 42.5554 56.1717 42.3056 56.1717C42.2223 56.1717 42.139 56.0884 42.0557 56.0884C41.8892 56.0051 41.7226 56.0052 41.4728 56.0052C41.3895 56.0052 41.3894 56.0052 41.3894 56.0052C41.3062 56.0052 41.3062 55.9218 41.3062 55.9218C41.3062 55.9218 41.3062 55.8385 41.3894 55.8385C41.556 55.8385 41.6393 55.8386 41.7226 55.7553C41.8059 55.672 41.8892 55.5055 41.8892 55.1724C41.9725 54.9225 41.9725 54.7559 41.9725 54.6726C41.9725 54.5893 41.8891 54.4228 41.8058 54.0897C41.7226 53.8399 41.6393 53.59 41.5561 53.3402C41.4728 53.0903 41.3895 52.9238 41.3062 52.8405C41.2229 52.7572 41.1397 52.674 41.0564 52.674C40.9731 52.674 40.973 52.5906 40.973 52.5906C40.973 52.5074 41.0564 52.5074 41.0564 52.5074H41.1397C41.3895 52.5907 41.556 52.674 41.6393 52.674C41.8059 52.7573 42.0557 52.7572 42.2222 52.8405C42.3055 52.8405 42.3056 52.8405 42.3056 52.8405C42.3889 52.8405 42.3889 52.8405 42.3889 52.9238L42.3056 53.007C42.139 53.007 42.0557 53.0071 42.0557 53.0904C42.3056 53.1737 42.3889 53.5901 42.722 54.3396Z" fill="#081933"/>
<path fill-rule="evenodd" clip-rule="evenodd" d="M28.0755 0L28.9875 2.75373H32L29.5679 4.4648L30.5076 7.24528L28.0755 5.50748L25.6434 7.24528L26.583 4.4648L24.1509 2.75373H27.1358L28.0755 0Z" fill="white"/>
<path fill-rule="evenodd" clip-rule="evenodd" d="M35.9386 2.41602L36.558 4.25359H38.6415L36.9522 5.38239L37.5998 7.24621L35.9386 6.09116L34.2493 7.24621L34.8969 5.38239L33.2076 4.25359H35.291L35.9386 2.41602Z" fill="white"/>
<path fill-rule="evenodd" clip-rule="evenodd" d="M20.2264 2.41602L20.8774 4.25359H22.9434L21.2736 5.38239L21.9245 7.24621L20.2264 6.09116L18.5283 7.24621L19.1792 5.38239L17.5094 4.25359H19.5755L20.2264 2.41602Z" fill="white"/>
<path fill-rule="evenodd" clip-rule="evenodd" d="M27.7322 29.8555C27.2325 26.8575 23.4016 24.9421 20.9865 24.9421V19.0293C20.237 18.946 19.9871 18.946 19.2376 19.0293V26.5244C22.1524 26.5244 25.9 27.2739 27.7322 29.8555Z" fill="white"/>
<path fill-rule="evenodd" clip-rule="evenodd" d="M28.4815 29.8555C28.9812 26.8575 32.8121 24.9421 35.2272 24.9421V19.0293C35.9767 18.946 36.2266 18.946 36.9761 19.0293V26.5244C34.0613 26.5244 30.397 27.2739 28.4815 29.8555Z" fill="white"/>
<path fill-rule="evenodd" clip-rule="evenodd" d="M27.7318 27.2737V21.1111C26.5659 19.1124 25.8164 18.0297 21.9023 17.6133V23.9426C24.6505 24.2757 25.8997 25.1085 27.7318 27.2737Z" fill="white"/>
<path fill-rule="evenodd" clip-rule="evenodd" d="M28.4815 27.2737V21.1111C29.6475 19.1124 30.397 18.0297 34.3111 17.6133V23.9426C31.6462 24.2757 30.3137 25.1085 28.4815 27.2737Z" fill="white"/>
<path d="M92.431 6.58L93.431 13.78L92.591 14.06C89.671 9.42 87.231 7.34 83.991 7.34C81.551 7.34 79.991 8.58 79.991 10.62C79.991 13.66 83.551 15.1 87.231 16.94C91.231 18.9 95.351 21.22 95.351 26.98C95.351 33.58 90.111 36.14 84.191 36.14C80.871 36.14 77.551 35.3 75.431 34.3L74.351 26.02L75.191 25.74C78.871 31.78 81.671 34.42 85.551 34.42C88.431 34.42 90.191 32.78 90.191 30.3C90.191 26.9 86.831 25.34 83.191 23.54C79.191 21.54 74.991 19.42 74.991 14.1C74.991 7.94 80.311 5.62 86.071 5.62C88.271 5.62 90.511 5.98 92.431 6.58ZM118.323 35.42V35.5H107.403V35.42C108.723 32.34 109.243 30.66 109.243 26.46V7.86L107.323 7.98C105.083 8.18 101.563 13.22 99.6025 16.02L98.7625 15.78L100.403 6.22H125.323L126.963 15.78L126.123 16.02C124.123 13.22 120.643 8.18 118.403 7.98L116.483 7.86V26.46C116.483 30.66 117.003 32.34 118.323 35.42ZM135.701 35.5H127.461V35.42C129.221 33.78 130.581 31.22 131.781 27.94L139.661 6.1H144.581L152.541 28.14C153.661 31.26 154.861 33.7 156.341 35.42V35.5H144.261V35.42C145.741 33.58 146.181 30.86 144.981 27.42L144.181 25.14H134.701L134.221 26.42C132.541 30.94 133.581 33.86 135.701 35.42V35.5ZM135.301 23.38H143.581L139.501 11.74L135.301 23.38ZM160.392 35.5V35.42C161.712 32.5 162.232 30.86 162.232 26.82V14.9C162.232 10.86 161.712 9.22 160.392 6.3V6.22C165.112 6.22 167.072 6.06 172.472 6.06C183.312 6.06 190.072 11.22 190.072 20.7C190.072 30.18 183.672 35.5 172.472 35.5H160.392ZM182.232 21.06C182.232 12.02 179.672 7.86 172.672 7.86C171.992 7.86 170.552 7.94 169.432 8.06V33.54C170.672 33.66 172.392 33.7 173.072 33.7C180.232 33.62 182.232 29.02 182.232 21.06ZM208.698 36.14C201.858 36.14 196.578 32.82 196.578 24.78V15.3C196.578 11.06 196.058 9.38 194.738 6.3V6.22H205.738V6.3C204.418 9.22 203.858 11.06 203.858 15.26V25.14C203.858 31.98 206.698 33.82 210.458 33.82C216.058 33.82 217.818 29.66 217.818 24.3V15.58C217.818 11.22 216.978 9.46 214.218 6.3V6.22H223.298L223.378 6.3C220.818 9.46 219.778 11.3 219.778 15.62V24.02C219.778 30.82 217.378 36.14 208.698 36.14ZM251.006 35.5V35.42C252.326 32.34 252.846 30.66 252.846 26.42V12.06L242.926 34.62H241.126L231.046 11.74L231.166 26.22C231.206 30.42 232.366 32.26 235.046 35.42V35.5H226.086V35.42C228.326 32.26 229.206 30.5 229.206 26.18V13.18C229.006 10.06 228.006 8.66 225.846 6.3V6.22H236.326L244.846 25.7L253.406 6.22H263.406V6.3C261.006 8.9 260.046 10.38 260.046 14.26V26.46C260.046 30.58 260.606 32.34 261.886 35.42V35.5H251.006Z" fill="white"/>
<path d="M73.6249 57.5V45.58H75.1929V52.284L74.8089 52.124L80.5049 45.58H82.4729L77.6889 51.1L77.7689 49.98L82.7129 57.5H80.8409L77.0649 51.836L75.1929 53.98V57.5H73.6249ZM84.2187 57.5V45.58H85.5307L92.3787 55.212L91.7867 55.276V45.58H93.3707V57.5H92.0587L85.2427 47.804L85.7867 47.74V57.5H84.2187ZM101.727 57.692C100.885 57.692 100.095 57.5427 99.3592 57.244C98.6232 56.9347 97.9778 56.5027 97.4232 55.948C96.8792 55.3933 96.4525 54.7427 96.1432 53.996C95.8338 53.2387 95.6792 52.4173 95.6792 51.532C95.6792 50.636 95.8338 49.8147 96.1432 49.068C96.4525 48.3213 96.8792 47.6707 97.4232 47.116C97.9778 46.5613 98.6178 46.1347 99.3432 45.836C100.079 45.5373 100.874 45.388 101.727 45.388C102.581 45.388 103.37 45.5427 104.095 45.852C104.831 46.1507 105.471 46.5773 106.015 47.132C106.57 47.676 107.002 48.3213 107.311 49.068C107.631 49.8147 107.791 50.636 107.791 51.532C107.791 52.4173 107.631 53.2387 107.311 53.996C107.002 54.7427 106.57 55.3933 106.015 55.948C105.471 56.5027 104.831 56.9347 104.095 57.244C103.37 57.5427 102.581 57.692 101.727 57.692ZM101.727 56.236C102.389 56.236 102.991 56.1187 103.535 55.884C104.079 55.6387 104.549 55.3027 104.943 54.876C105.349 54.4387 105.658 53.9373 105.871 53.372C106.095 52.796 106.207 52.1827 106.207 51.532C106.207 50.8813 106.095 50.2733 105.871 49.708C105.658 49.1427 105.349 48.6467 104.943 48.22C104.549 47.7827 104.079 47.4467 103.535 47.212C102.991 46.9667 102.389 46.844 101.727 46.844C101.077 46.844 100.479 46.9667 99.9352 47.212C99.3912 47.4467 98.9165 47.7827 98.5112 48.22C98.1165 48.6467 97.8072 49.1427 97.5832 49.708C97.3592 50.2733 97.2472 50.8813 97.2472 51.532C97.2472 52.1827 97.3592 52.796 97.5832 53.372C97.8072 53.9373 98.1165 54.4387 98.5112 54.876C98.9165 55.3027 99.3912 55.6387 99.9352 55.884C100.479 56.1187 101.077 56.236 101.727 56.236ZM111.958 57.5L108.614 45.58H110.262L113.062 56.076H112.678L115.59 45.58H117.238L120.134 56.076H119.734L122.55 45.58H124.198L120.854 57.5H119.11L116.198 47.052H116.614L113.702 57.5H111.958ZM125.703 57.5V45.58H127.271V56.06H132.503V57.5H125.703ZM134.266 57.5V45.58H142.026V47.02H135.834V50.796H141.706V52.236H135.834V56.06H142.026V57.5H134.266ZM143.969 57.5V45.58H147.873C149.078 45.58 150.129 45.8253 151.025 46.316C151.921 46.8067 152.614 47.5 153.105 48.396C153.595 49.2813 153.841 50.3267 153.841 51.532C153.841 52.7267 153.595 53.772 153.105 54.668C152.614 55.564 151.921 56.2627 151.025 56.764C150.129 57.2547 149.078 57.5 147.873 57.5H143.969ZM145.537 56.06H147.889C148.774 56.06 149.537 55.8733 150.177 55.5C150.827 55.1267 151.329 54.604 151.681 53.932C152.033 53.2493 152.209 52.4493 152.209 51.532C152.209 50.604 152.027 49.804 151.665 49.132C151.313 48.46 150.811 47.9427 150.161 47.58C149.521 47.2067 148.763 47.02 147.889 47.02H145.537V56.06ZM161.332 57.692C160.489 57.692 159.711 57.5427 158.996 57.244C158.281 56.9347 157.663 56.5027 157.14 55.948C156.617 55.3933 156.207 54.7427 155.908 53.996C155.62 53.2493 155.476 52.4333 155.476 51.548C155.476 50.652 155.62 49.8307 155.908 49.084C156.196 48.3373 156.601 47.6867 157.124 47.132C157.647 46.5773 158.265 46.1507 158.98 45.852C159.695 45.5427 160.473 45.388 161.316 45.388C162.137 45.388 162.873 45.532 163.524 45.82C164.185 46.108 164.74 46.4813 165.188 46.94C165.647 47.3987 165.972 47.8893 166.164 48.412L164.756 49.1C164.479 48.4067 164.047 47.8573 163.46 47.452C162.873 47.0467 162.159 46.844 161.316 46.844C160.484 46.844 159.743 47.0413 159.092 47.436C158.452 47.8307 157.951 48.38 157.588 49.084C157.225 49.788 157.044 50.6093 157.044 51.548C157.044 52.476 157.225 53.292 157.588 53.996C157.961 54.7 158.468 55.2493 159.108 55.644C159.759 56.0387 160.5 56.236 161.332 56.236C162.057 56.236 162.713 56.0813 163.3 55.772C163.887 55.4627 164.351 55.036 164.692 54.492C165.033 53.948 165.204 53.3187 165.204 52.604V51.868L165.924 52.54H161.316V51.18H166.788V52.236C166.788 53.068 166.644 53.82 166.356 54.492C166.068 55.164 165.673 55.74 165.172 56.22C164.671 56.6893 164.089 57.052 163.428 57.308C162.767 57.564 162.068 57.692 161.332 57.692ZM168.906 57.5V45.58H176.666V47.02H170.474V50.796H176.346V52.236H170.474V56.06H176.666V57.5H168.906ZM184.141 57.5V45.58H185.709V57.5H184.141ZM192.455 57.692C191.698 57.692 191.005 57.5533 190.375 57.276C189.746 56.988 189.213 56.5987 188.775 56.108C188.338 55.6173 188.023 55.068 187.831 54.46L189.191 53.9C189.479 54.668 189.906 55.26 190.471 55.676C191.047 56.0813 191.719 56.284 192.487 56.284C192.957 56.284 193.367 56.2093 193.719 56.06C194.071 55.9107 194.343 55.7027 194.535 55.436C194.738 55.1587 194.839 54.8387 194.839 54.476C194.839 53.9747 194.695 53.58 194.407 53.292C194.13 52.9933 193.719 52.7693 193.175 52.62L190.983 51.948C190.119 51.6813 189.458 51.26 188.999 50.684C188.541 50.108 188.311 49.4467 188.311 48.7C188.311 48.0493 188.466 47.4787 188.775 46.988C189.095 46.4867 189.533 46.0973 190.087 45.82C190.653 45.532 191.293 45.388 192.007 45.388C192.722 45.388 193.367 45.516 193.943 45.772C194.53 46.028 195.026 46.3747 195.431 46.812C195.837 47.2387 196.135 47.7293 196.327 48.284L194.983 48.844C194.727 48.172 194.343 47.6653 193.831 47.324C193.319 46.972 192.717 46.796 192.023 46.796C191.597 46.796 191.218 46.8707 190.887 47.02C190.567 47.1587 190.317 47.3667 190.135 47.644C189.965 47.9107 189.879 48.2307 189.879 48.604C189.879 49.0413 190.018 49.4307 190.295 49.772C190.573 50.1133 190.994 50.3747 191.559 50.556L193.559 51.148C194.498 51.436 195.207 51.8467 195.687 52.38C196.167 52.9133 196.407 53.5747 196.407 54.364C196.407 55.0147 196.237 55.5907 195.895 56.092C195.565 56.5933 195.101 56.988 194.503 57.276C193.917 57.5533 193.234 57.692 192.455 57.692ZM204.234 57.5V45.58H208.442C209.232 45.58 209.925 45.7293 210.522 46.028C211.12 46.3267 211.584 46.7533 211.914 47.308C212.256 47.8627 212.426 48.5133 212.426 49.26C212.426 50.0067 212.256 50.6573 211.914 51.212C211.584 51.756 211.12 52.1827 210.522 52.492C209.936 52.7907 209.242 52.94 208.442 52.94H205.802V57.5H204.234ZM205.802 51.5H208.49C208.97 51.5 209.386 51.4093 209.738 51.228C210.09 51.0467 210.362 50.7853 210.554 50.444C210.746 50.1027 210.842 49.708 210.842 49.26C210.842 48.8013 210.746 48.4067 210.554 48.076C210.362 47.7347 210.09 47.4733 209.738 47.292C209.386 47.1107 208.97 47.02 208.49 47.02H205.802V51.5ZM220.243 57.692C219.4 57.692 218.611 57.5427 217.875 57.244C217.139 56.9347 216.493 56.5027 215.939 55.948C215.395 55.3933 214.968 54.7427 214.659 53.996C214.349 53.2387 214.195 52.4173 214.195 51.532C214.195 50.636 214.349 49.8147 214.659 49.068C214.968 48.3213 215.395 47.6707 215.939 47.116C216.493 46.5613 217.133 46.1347 217.859 45.836C218.595 45.5373 219.389 45.388 220.243 45.388C221.096 45.388 221.885 45.5427 222.611 45.852C223.347 46.1507 223.987 46.5773 224.531 47.132C225.085 47.676 225.517 48.3213 225.827 49.068C226.147 49.8147 226.307 50.636 226.307 51.532C226.307 52.4173 226.147 53.2387 225.827 53.996C225.517 54.7427 225.085 55.3933 224.531 55.948C223.987 56.5027 223.347 56.9347 222.611 57.244C221.885 57.5427 221.096 57.692 220.243 57.692ZM220.243 56.236C220.904 56.236 221.507 56.1187 222.051 55.884C222.595 55.6387 223.064 55.3027 223.459 54.876C223.864 54.4387 224.173 53.9373 224.387 53.372C224.611 52.796 224.723 52.1827 224.723 51.532C224.723 50.8813 224.611 50.2733 224.387 49.708C224.173 49.1427 223.864 48.6467 223.459 48.22C223.064 47.7827 222.595 47.4467 222.051 47.212C221.507 46.9667 220.904 46.844 220.243 46.844C219.592 46.844 218.995 46.9667 218.451 47.212C217.907 47.4467 217.432 47.7827 217.027 48.22C216.632 48.6467 216.323 49.1427 216.099 49.708C215.875 50.2733 215.763 50.8813 215.763 51.532C215.763 52.1827 215.875 52.796 216.099 53.372C216.323 53.9373 216.632 54.4387 217.027 54.876C217.432 55.3027 217.907 55.6387 218.451 55.884C218.995 56.1187 219.592 56.236 220.243 56.236ZM230.473 57.5L227.129 45.58H228.777L231.577 56.076H231.193L234.105 45.58H235.753L238.649 56.076H238.249L241.065 45.58H242.713L239.369 57.5H237.625L234.713 47.052H235.129L232.217 57.5H230.473ZM244.219 57.5V45.58H251.979V47.02H245.787V50.796H251.659V52.236H245.787V56.06H251.979V57.5H244.219ZM253.922 57.5V45.58H258.13C258.919 45.58 259.612 45.7293 260.21 46.028C260.807 46.3267 261.271 46.7533 261.602 47.308C261.943 47.8627 262.114 48.5133 262.114 49.26C262.114 50.1027 261.9 50.8173 261.474 51.404C261.047 51.9907 260.471 52.412 259.746 52.668L262.514 57.5H260.69L257.778 52.332L258.818 52.94H255.49V57.5H253.922ZM255.49 51.5H258.178C258.647 51.5 259.058 51.4093 259.41 51.228C259.762 51.0467 260.034 50.7853 260.226 50.444C260.428 50.1027 260.53 49.708 260.53 49.26C260.53 48.8013 260.428 48.4067 260.226 48.076C260.034 47.7347 259.762 47.4733 259.41 47.292C259.058 47.1107 258.647 47.02 258.178 47.02H255.49V51.5Z" fill="white"/>
</svg>
