<svg width="32" height="32" viewBox="0 0 32 32" fill="none" xmlns="http://www.w3.org/2000/svg">
<g clip-path="url(#clip0_1_1567)">
<path d="M28.5521 0H3.44788C1.54669 0 0 1.54675 0 3.44794V22.5271C0 24.4283 1.54669 25.975 3.44788 25.975H18.2084V22.025C18.2084 18.8131 20.8214 16.2 24.0333 16.2C27.2452 16.2 29.8582 18.8131 29.8582 22.025V25.7173C31.1135 25.2014 32 23.9661 32 22.5271V3.44794C32 1.54675 30.4533 0 28.5521 0ZM8.97081 4.08331H23.0292C23.5469 4.08331 23.9667 4.50306 23.9667 5.02081C23.9667 5.53856 23.5469 5.95831 23.0292 5.95831H8.97081C8.45312 5.95831 8.03331 5.53856 8.03331 5.02081C8.03331 4.50306 8.45312 4.08331 8.97081 4.08331ZM15.1291 20.9542H4.95412C4.43644 20.9542 4.01662 20.5344 4.01662 20.0167C4.01662 19.4989 4.43644 19.0792 4.95412 19.0792H15.1292C15.647 19.0792 16.0667 19.4989 16.0667 20.0167C16.0667 20.5344 15.647 20.9542 15.1291 20.9542ZM27.0457 13.9917H4.95412C4.43644 13.9917 4.01662 13.5719 4.01662 13.0542C4.01662 12.5364 4.43644 12.1167 4.95412 12.1167H27.0458C27.5636 12.1167 27.9833 12.5364 27.9833 13.0542C27.9832 13.5719 27.5636 13.9917 27.0457 13.9917ZM27.0457 9.975H4.95412C4.43644 9.975 4.01662 9.55525 4.01662 9.0375C4.01662 8.51975 4.43644 8.1 4.95412 8.1H27.0458C27.5636 8.1 27.9833 8.51975 27.9833 9.0375C27.9832 9.55525 27.5636 9.975 27.0457 9.975Z" fill="#D3224D"/>
<path d="M24.0333 18.0742C21.8553 18.0742 20.0834 19.8462 20.0834 22.0242C20.0834 24.2022 21.8554 25.9742 24.0333 25.9742C26.2114 25.9742 27.9832 24.2022 27.9832 22.0242C27.9832 19.8462 26.2114 18.0742 24.0333 18.0742Z" fill="#D3224D"/>
<path d="M20.0834 26.3027V31.0632C20.0834 31.409 20.2736 31.7267 20.5785 31.8898C20.7171 31.964 20.8691 32.0007 21.0207 32.0007C21.2027 32.0007 21.3841 31.9479 21.5409 31.8432L24.0333 30.1816L26.5257 31.8432C26.6827 31.9479 26.8639 32.0007 27.0459 32.0007C27.1975 32.0007 27.3496 31.964 27.4881 31.8899C27.793 31.7267 27.9832 31.409 27.9832 31.0632V26.3027C26.9443 27.2629 25.5562 27.8507 24.0333 27.8507C22.5104 27.8507 21.1223 27.2629 20.0834 26.3027Z" fill="#D3224D"/>
</g>
<defs>
<clipPath id="clip0_1_1567">
<rect width="32" height="32" fill="white"/>
</clipPath>
</defs>
</svg>
