<svg width="40" height="32" viewBox="0 0 40 32" fill="none" xmlns="http://www.w3.org/2000/svg">
<path d="M29.2279 22.0858C28.924 20.0205 27.8898 18.1325 26.313 16.7643C24.7362 15.3962 22.7212 14.6386 20.6337 14.6289H18.6881C16.6005 14.6386 14.5855 15.3962 13.0087 16.7643C11.4319 18.1325 10.3977 20.0205 10.0938 22.0858L9.1612 28.6065C9.13141 28.8173 9.1511 29.0321 9.2187 29.2339C9.2863 29.4358 9.39996 29.6191 9.55069 29.7695C9.9164 30.1352 12.1601 32.0003 19.6627 32.0003C27.1653 32.0003 29.4035 30.1425 29.7747 29.7695C29.9254 29.6191 30.0391 29.4358 30.1067 29.2339C30.1743 29.0321 30.194 28.8173 30.1642 28.6065L29.2279 22.0858Z" fill="#D3224D"/>
<path d="M11.5398 15.6349C9.77254 17.264 8.62267 19.4539 8.28494 21.8337L7.60837 26.5148C2.17751 26.4783 0.531802 24.5034 0.257516 24.1011C0.151492 23.955 0.0758316 23.7891 0.0350028 23.6132C-0.00582592 23.4373 -0.0109946 23.255 0.0198022 23.0771L0.422088 20.8097C0.631683 19.6247 1.12393 18.5077 1.8571 17.5534C2.59027 16.5992 3.54273 15.8358 4.63374 15.3279C5.72474 14.8201 6.92211 14.5829 8.12432 14.6363C9.32654 14.6897 10.4981 15.0323 11.5398 15.6349Z" fill="#D3224D"/>
<path d="M39.2968 23.0771C39.3276 23.255 39.3225 23.4373 39.2816 23.6132C39.2408 23.7891 39.1652 23.955 39.0591 24.1011C38.7848 24.5034 37.1391 26.4783 31.7083 26.5148L31.0317 21.8337C30.694 19.4539 29.5441 17.264 27.7769 15.6349C28.8185 15.0323 29.9901 14.6897 31.1923 14.6363C32.3945 14.5829 33.5919 14.8201 34.6829 15.3279C35.7739 15.8358 36.7264 16.5992 37.4595 17.5534C38.1927 18.5077 38.685 19.6247 38.8946 20.8097L39.2968 23.0771Z" fill="#D3224D"/>
<path d="M11.8515 11.6105C11.3912 12.2633 10.7802 12.7954 10.0703 13.1615C9.36034 13.5276 8.57255 13.7169 7.77381 13.7134C6.97702 13.7134 6.19164 13.524 5.48239 13.161C4.77313 12.7979 4.16031 12.2715 3.69442 11.6251C3.22853 10.9787 2.92291 10.2308 2.80275 9.44317C2.68259 8.6555 2.75132 7.85054 3.00329 7.09465C3.25526 6.33875 3.68324 5.65355 4.25197 5.0955C4.82071 4.53746 5.51391 4.12256 6.27445 3.88498C7.03499 3.64741 7.84111 3.59396 8.62636 3.72905C9.41161 3.86414 10.1535 4.18389 10.7909 4.66196C10.6076 5.37895 10.5155 6.1162 10.5167 6.85625C10.5181 8.53332 10.9798 10.1778 11.8515 11.6105Z" fill="#D3224D"/>
<path d="M36.5723 8.68482C36.5728 9.34532 36.4431 9.99943 36.1905 10.6097C35.938 11.22 35.5676 11.7746 35.1006 12.2416C34.6335 12.7087 34.079 13.0791 33.4687 13.3316C32.8584 13.5841 32.2043 13.7139 31.5438 13.7134C30.745 13.7169 29.9572 13.5276 29.2473 13.1615C28.5374 12.7954 27.9264 12.2633 27.4661 11.6105C28.3378 10.1778 28.7995 8.53332 28.8009 6.85625C28.8021 6.1162 28.71 5.37895 28.5266 4.66197C29.2737 4.10165 30.1621 3.76044 31.0922 3.67657C32.0223 3.5927 32.9573 3.7695 33.7926 4.18713C34.6279 4.60477 35.3304 5.24675 35.8213 6.04115C36.3123 6.83554 36.5723 7.75096 36.5723 8.68482Z" fill="#D3224D"/>
<path d="M19.6584 13.7143C23.4455 13.7143 26.5155 10.6442 26.5155 6.85714C26.5155 3.07005 23.4455 0 19.6584 0C15.8713 0 12.8013 3.07005 12.8013 6.85714C12.8013 10.6442 15.8713 13.7143 19.6584 13.7143Z" fill="#D3224D"/>
</svg>
