<svg width="14" height="16" viewBox="0 0 14 16" fill="none" xmlns="http://www.w3.org/2000/svg">
<path d="M7.28125 5.3125C8.74826 5.3125 9.9375 4.12326 9.9375 2.65625C9.9375 1.18924 8.74826 0 7.28125 0C5.81424 0 4.625 1.18924 4.625 2.65625C4.625 4.12326 5.81424 5.3125 7.28125 5.3125Z" fill="#D3224D"/>
<path d="M9.23246 5.67236C8.67005 6.03758 7.99971 6.25002 7.28061 6.25002C6.56152 6.25002 5.89118 6.03758 5.32877 5.67236C4.70705 5.90996 4.13061 6.26049 3.62939 6.71036L7.28061 8.07958L10.9318 6.71036C10.4306 6.26049 9.85418 5.90993 9.23246 5.67236Z" fill="#D3224D"/>
<path d="M12.9062 9.6875H12.5938C12.3349 9.6875 12.125 9.89737 12.125 10.1562V11.4062C12.125 11.6651 12.3349 11.875 12.5938 11.875H12.9062C13.5103 11.875 14 11.3853 14 10.7812C14 10.1772 13.5103 9.6875 12.9062 9.6875Z" fill="#D3224D"/>
<path d="M2.01425 7.32106C1.88788 7.40865 1.8125 7.55259 1.8125 7.70634V8.74993H1.96875C2.74416 8.74993 3.375 9.38078 3.375 10.1562V11.4062C3.375 12.1816 2.74416 12.8124 1.96875 12.8124H1.8125V13.8001C1.8125 13.9955 1.93372 14.1704 2.11666 14.239L6.8125 15.9999V8.90493L2.44584 7.26743C2.30187 7.2134 2.14059 7.23343 2.01425 7.32106Z" fill="#D3224D"/>
<path d="M11.1875 11.4062V10.1562C11.1875 9.38078 11.8183 8.74993 12.5938 8.74993H12.75V7.70634C12.75 7.55259 12.6746 7.40865 12.5483 7.32106C12.4219 7.23343 12.2606 7.2134 12.1167 7.26743L7.75 8.90493V15.9999L12.4458 14.239C12.6288 14.1704 12.75 13.9955 12.75 13.8001V12.8124H12.5938C11.8183 12.8124 11.1875 12.1816 11.1875 11.4062Z" fill="#D3224D"/>
<path d="M2.4375 11.4062V10.1562C2.4375 9.89737 2.22763 9.6875 1.96875 9.6875H1.65625C1.05219 9.6875 0.5625 10.1772 0.5625 10.7812C0.5625 11.3853 1.05219 11.875 1.65625 11.875H1.96875C2.22763 11.875 2.4375 11.6651 2.4375 11.4062Z" fill="#D3224D"/>
</svg>
