<svg width="28" height="24" viewBox="0 0 28 24" fill="none" xmlns="http://www.w3.org/2000/svg">
<path d="M16.9083 0H2.40023C1.07205 0 0 1.07205 0 2.40023V12.0012C0 13.3292 1.07205 14.4014 2.40023 14.4014H3.20031V16.8016C3.20031 17.3797 3.79882 17.7982 4.38442 17.5057C4.40042 17.4897 4.43248 17.4897 4.44848 17.4736C8.84976 14.5221 7.86337 15.1802 8.84891 14.5293C8.97687 14.4493 9.12088 14.4014 9.2809 14.4014H16.9083C18.2365 14.4014 19.3085 13.3292 19.3085 12.0012V2.40023C19.3085 1.07205 18.2365 0 16.9083 0ZM10.5077 9.60093H4.00039C2.94572 9.60093 2.9414 8.00077 4.00039 8.00077H10.5077C11.5623 8.00077 11.5667 9.60093 10.5077 9.60093ZM15.3081 6.40062H4.00039C2.94572 6.40062 2.9414 4.80046 4.00039 4.80046H15.3081C16.3628 4.80046 16.3671 6.40062 15.3081 6.40062Z" fill="white"/>
<path d="M24.9093 6.39844H20.9089V11.999C20.9089 14.2072 19.1167 15.9994 16.9085 15.9994H9.52112L8.00098 17.0075V18.3996C8.00098 19.7277 9.07303 20.7998 10.4012 20.7998H18.2686L22.861 23.8721C23.4879 24.2201 24.1092 23.7969 24.1092 23.2001V20.7998H24.9093C26.2375 20.7998 27.3095 19.7277 27.3095 18.3996V8.79867C27.3095 7.47054 26.2375 6.39844 24.9093 6.39844Z" fill="white"/>
</svg>
