<svg width="32" height="32" viewBox="0 0 32 32" fill="none" xmlns="http://www.w3.org/2000/svg">
<path d="M2.81265 11.3105H0.937549C0.419334 11.3105 0 11.7299 0 12.2481C0 12.7663 0.419334 13.1856 0.937549 13.1856H2.81265C3.33086 13.1856 3.7502 12.7663 3.7502 12.2481C3.7502 11.7299 3.33086 11.3105 2.81265 11.3105Z" fill="#E2B93B"/>
<path d="M3.26308 6.62183L1.93733 5.29614C1.57112 4.92993 0.977776 4.92993 0.611569 5.29614C0.245362 5.66235 0.245362 6.25569 0.611569 6.6219L1.93733 7.94759C2.30359 8.31386 2.89681 8.31386 3.26308 7.94759C3.62929 7.58138 3.62929 6.98804 3.26308 6.62183Z" fill="#E2B93B"/>
<path d="M3.26308 16.5501C2.89688 16.1839 2.30353 16.1838 1.93733 16.5501L0.611569 17.8758C0.245362 18.242 0.245362 18.8354 0.611569 19.2016C0.977838 19.5679 1.57106 19.5679 1.93733 19.2016L3.26308 17.8758C3.62929 17.5096 3.62929 16.9163 3.26308 16.5501Z" fill="#E2B93B"/>
<path d="M31.0646 11.3105H29.1895C28.6713 11.3105 28.252 11.7299 28.252 12.2481C28.252 12.7663 28.6713 13.1856 29.1895 13.1856H31.0646C31.5828 13.1856 32.0021 12.7663 32.0021 12.2481C32.0021 11.7299 31.5828 11.3105 31.0646 11.3105Z" fill="#E2B93B"/>
<path d="M31.3891 5.29614C31.0229 4.92993 30.4295 4.92993 30.0633 5.29614L28.7375 6.6219C28.3713 6.9881 28.3713 7.58145 28.7375 7.94765C29.1038 8.31392 29.697 8.31392 30.0633 7.94765L31.3891 6.6219C31.7553 6.25569 31.7553 5.66235 31.3891 5.29614Z" fill="#E2B93B"/>
<path d="M31.3891 17.8757L30.0633 16.55C29.6971 16.1838 29.1038 16.1838 28.7375 16.55C28.3713 16.9163 28.3713 17.5096 28.7375 17.8758L30.0633 19.2015C30.4296 19.5678 31.0228 19.5678 31.3891 19.2015C31.7553 18.8353 31.7553 18.2419 31.3891 17.8757Z" fill="#E2B93B"/>
<path d="M23.0914 2.51417C20.4472 0.364429 16.9781 -0.463239 13.5841 0.25086C9.3523 1.13441 5.90606 4.63215 5.00882 8.86212C4.24616 12.4612 5.18733 16.0741 7.58983 18.7751C8.56113 19.8681 9.15366 21.1873 9.34798 22.5619H12.2501V14.124C12.2501 13.7609 14.9992 8.40403 15.1616 8.07933C15.4802 7.44392 16.5203 7.44392 16.8389 8.07933C17.009 8.41947 19.7505 13.7791 19.7505 14.124V22.5619H22.6558C22.8567 21.1938 23.4667 19.8536 24.4656 18.7138C26.262 16.6656 27.2509 14.036 27.2509 11.3112C27.2509 7.90807 25.7346 4.66209 23.0914 2.51417Z" fill="#E2B93B"/>
<path d="M16.0011 15.9156C15.3672 15.9156 14.7358 15.8052 14.126 15.6035V22.5609H17.8762V15.6035C17.2664 15.8052 16.635 15.9156 16.0011 15.9156Z" fill="#E2B93B"/>
<path d="M9.4375 24.4355V25.3731C9.4375 26.9241 10.6992 28.1857 12.2501 28.1857H19.7505C21.3015 28.1857 22.5632 26.9241 22.5632 25.3731V24.4355H9.4375Z" fill="#E2B93B"/>
<path d="M16.0006 10.5957L14.4512 13.6945C15.4525 14.1047 16.5487 14.1047 17.55 13.6945L16.0006 10.5957Z" fill="#E2B93B"/>
<path d="M11.4863 30.0625C11.8747 31.1514 12.9056 32.0001 14.1263 32.0001H17.8765C19.0972 32.0001 20.1281 31.1514 20.5164 30.0625H11.4863Z" fill="#E2B93B"/>
</svg>
