<svg width="32" height="33" viewBox="0 0 32 33" fill="none" xmlns="http://www.w3.org/2000/svg">
<path d="M28.796 29.441C28.796 29.6141 28.7177 29.7775 28.5829 29.8861C28.448 29.9941 28.272 30.0369 28.1029 29.9992C28.032 29.9838 27.964 29.9729 27.8943 29.9587C27.6635 29.9118 27.436 29.8695 27.2126 29.8341C27.0949 29.8152 26.9783 29.7981 26.8629 29.7827C26.6332 29.7512 26.4063 29.7255 26.1846 29.7061C26.0869 29.6975 25.9892 29.689 25.8932 29.6827C25.6606 29.6672 25.4326 29.6575 25.2092 29.6541C25.1126 29.6524 25.0166 29.6518 24.9218 29.6524C24.7047 29.6535 24.4915 29.6592 24.2835 29.6712C24.2178 29.6747 24.1509 29.6781 24.0858 29.6827C23.8601 29.6987 23.6407 29.7215 23.4252 29.749C23.3435 29.7592 23.263 29.7707 23.183 29.7827C22.987 29.8118 22.7944 29.845 22.607 29.8821C22.5624 29.8912 22.5161 29.8987 22.4715 29.9084C22.259 29.9535 22.0544 30.0055 21.8533 30.0604C21.7841 30.0792 21.7167 30.0987 21.6493 30.1187C21.4767 30.1695 21.3087 30.2227 21.1453 30.2792C21.1099 30.2912 21.0727 30.3027 21.0379 30.3152C20.8487 30.3832 20.6676 30.4558 20.4904 30.5301C20.4322 30.5547 20.3756 30.5792 20.3184 30.6044C20.171 30.6695 20.027 30.7364 19.8887 30.8049C19.8579 30.8204 19.8253 30.8346 19.7945 30.8506C19.6333 30.9324 19.4802 31.0164 19.331 31.1015C19.283 31.1289 19.2362 31.1564 19.1893 31.1844C19.0659 31.2575 18.9465 31.3306 18.8316 31.4049C18.8059 31.4215 18.7779 31.4381 18.7522 31.4552C18.619 31.5432 18.4928 31.6312 18.3716 31.7192C18.3333 31.7466 18.2962 31.7746 18.2591 31.8021C18.1596 31.8758 18.0642 31.9495 17.9733 32.0221C17.9522 32.0386 17.9293 32.0558 17.9088 32.0729C17.8031 32.1586 17.7042 32.2432 17.6105 32.3255C17.5813 32.3512 17.5533 32.3763 17.5253 32.4015C17.4505 32.4689 17.3791 32.5346 17.3122 32.5986C17.2996 32.6106 17.2859 32.6232 17.2739 32.6346H32V12.543H28.7966L28.796 29.441Z" fill="#081933"/>
<path d="M7.81813 12.1332C7.73813 11.9749 7.65756 11.8166 7.58671 11.6532C7.53871 11.5429 7.49928 11.4286 7.45585 11.316C7.39471 11.1583 7.33357 11.0012 7.281 10.8395C7.24214 10.72 7.21128 10.5978 7.177 10.4761C7.13243 10.3155 7.08843 10.1555 7.05243 9.99149C7.02443 9.8652 7.00329 9.73664 6.981 9.60807C6.95243 9.44407 6.925 9.2795 6.905 9.11265C6.889 8.98065 6.87929 8.84751 6.869 8.71437C6.86158 8.61551 6.84672 8.51894 6.84215 8.41895C6.03816 8.4258 5.20218 8.5098 4.34619 8.66923V11.968C4.34619 11.968 4.34619 11.9697 4.34619 11.9709V28.7437C4.75533 28.6723 5.15075 28.6232 5.53931 28.5854C5.59931 28.5797 5.65988 28.5723 5.71931 28.5672C5.86388 28.5546 6.00502 28.5472 6.14673 28.5392C6.23016 28.5346 6.31416 28.5289 6.39644 28.5254C6.52444 28.5203 6.64958 28.5186 6.77529 28.5169C6.83586 28.5163 6.89758 28.5129 6.95757 28.5129C6.98386 28.5129 7.00843 28.5152 7.03472 28.5152C7.237 28.5163 7.43528 28.5226 7.63071 28.5323C7.67699 28.5346 7.72442 28.5352 7.7707 28.538C8.25184 28.5666 8.7124 28.6203 9.15354 28.6946C9.21639 28.7049 9.27696 28.7174 9.33868 28.7289C9.49239 28.7569 9.64438 28.7866 9.79295 28.8197C9.86438 28.8357 9.93524 28.8523 10.0055 28.8694C10.1421 28.902 10.2764 28.9369 10.4084 28.9734C10.4775 28.9929 10.5472 29.0117 10.6152 29.0317C10.7512 29.0717 10.8844 29.1146 11.0158 29.158C11.0724 29.1769 11.1295 29.1946 11.1849 29.214C11.3638 29.2763 11.5386 29.3414 11.7083 29.4094C11.7129 29.4111 11.7175 29.4129 11.7221 29.4146C11.8975 29.4854 12.0672 29.5591 12.2329 29.6346C12.2832 29.6574 12.3306 29.6814 12.3803 29.7043C12.494 29.758 12.606 29.8123 12.7146 29.8677C12.7712 29.8963 12.8255 29.9254 12.8809 29.9546C12.9798 30.0066 13.0763 30.0597 13.1706 30.1129C13.2238 30.1431 13.2769 30.1728 13.3289 30.2031C13.4249 30.2591 13.5175 30.3157 13.6089 30.3723C13.6529 30.3997 13.698 30.4271 13.7415 30.4546C13.8523 30.5254 13.9592 30.5963 14.0632 30.6677C14.0826 30.6808 14.1032 30.694 14.122 30.7071C14.2454 30.7928 14.3637 30.878 14.4774 30.9631C14.5054 30.9837 14.5312 31.0043 14.558 31.0254C14.6414 31.0888 14.7232 31.1523 14.8009 31.2145C14.8363 31.2431 14.8706 31.2711 14.9049 31.2997C14.9711 31.3545 15.0363 31.4083 15.0986 31.4614C15.1323 31.4905 15.1654 31.5191 15.198 31.5477C15.258 31.6003 15.3151 31.6517 15.3706 31.7025C15.3889 31.7191 15.4094 31.7368 15.4271 31.7528V17.1771C15.362 17.1731 15.2986 17.1611 15.2334 17.1559C15.0986 17.1445 14.9654 17.1291 14.8323 17.1119C14.6689 17.0908 14.5066 17.0668 14.3454 17.0377C14.214 17.0137 14.0843 16.9868 13.9552 16.9571C13.7975 16.9211 13.6415 16.8805 13.4872 16.8365C13.3603 16.7999 13.234 16.7622 13.1095 16.7211C12.9575 16.6702 12.8083 16.6142 12.6598 16.5559C12.5386 16.5085 12.418 16.4605 12.2998 16.4079C12.1535 16.3428 12.0106 16.2719 11.8683 16.2C11.7541 16.1422 11.6398 16.0851 11.5289 16.0228C11.3884 15.944 11.2524 15.8577 11.1164 15.772C11.0106 15.7051 10.9038 15.6405 10.8015 15.5697C10.6655 15.4754 10.5358 15.3743 10.4055 15.2731C10.3107 15.2 10.2135 15.1297 10.1221 15.0525C9.98781 14.94 9.86095 14.8188 9.73295 14.6988C9.65353 14.624 9.57067 14.5531 9.49353 14.476C9.34553 14.3268 9.20725 14.1686 9.07011 14.0097C9.02154 13.9537 8.9684 13.9011 8.92097 13.844C8.7404 13.6246 8.57069 13.3971 8.41069 13.1617C8.36612 13.0954 8.32784 13.0251 8.28498 12.9577C8.17412 12.7846 8.06384 12.6109 7.96384 12.4297C7.91127 12.3337 7.8667 12.2332 7.81699 12.1355L7.81813 12.1332Z" fill="#081933"/>
<path d="M14.6746 32.5855C14.614 32.5278 14.5495 32.4683 14.482 32.4078C14.4495 32.3786 14.4169 32.3489 14.3826 32.3192C14.2912 32.2392 14.1958 32.1581 14.0935 32.0746C14.0683 32.0541 14.0409 32.0335 14.0152 32.0129C13.9283 31.9438 13.8375 31.8741 13.7432 31.8038C13.7043 31.7746 13.6649 31.7455 13.6243 31.7163C13.5043 31.6295 13.3798 31.5421 13.2478 31.4558C13.2198 31.4375 13.1895 31.4192 13.1609 31.4009C13.0483 31.3284 12.9312 31.2564 12.8101 31.1844C12.7626 31.1564 12.7152 31.1284 12.6666 31.1009C12.5175 31.0158 12.3644 30.9318 12.2038 30.8501C12.1735 30.8346 12.1415 30.8204 12.1112 30.8055C11.9718 30.7364 11.8272 30.6695 11.6792 30.6038C11.6232 30.5792 11.5667 30.5541 11.5089 30.5301C11.3318 30.4552 11.1501 30.3827 10.9604 30.3147C10.9261 30.3027 10.8895 30.2918 10.8547 30.2792C10.6907 30.2221 10.5215 30.1689 10.349 30.1181C10.2815 30.0981 10.2135 30.0787 10.145 30.0598C9.94383 30.0049 9.73869 29.9529 9.52612 29.9078C9.48212 29.8987 9.43583 29.8907 9.39126 29.8821C9.20441 29.8444 9.01184 29.8118 8.81642 29.7827C8.73585 29.7707 8.65528 29.7592 8.57299 29.749C8.35814 29.7215 8.13929 29.6987 7.91472 29.6827C7.84843 29.6781 7.78044 29.6747 7.71358 29.6712C7.50673 29.6598 7.2953 29.6541 7.07988 29.653C6.98331 29.653 6.88617 29.653 6.78845 29.6547C6.56674 29.6581 6.34103 29.6678 6.11075 29.6832C6.0119 29.6901 5.9119 29.6981 5.81133 29.7072C5.59076 29.7267 5.36562 29.7524 5.13705 29.7832C5.02163 29.7987 4.90506 29.8164 4.78734 29.8347C4.56392 29.8701 4.3365 29.9124 4.10621 29.9592C4.03593 29.9735 3.9685 29.9844 3.89765 29.9998C3.72793 30.0375 3.55251 29.9947 3.41765 29.8867C3.28337 29.7781 3.20452 29.6147 3.20452 29.4415V12.543H0V32.6335H14.7255C14.7095 32.618 14.6912 32.6015 14.6746 32.5855Z" fill="#081933"/>
<path d="M19.3687 7.9341L14.0431 4.21646C14.0225 4.20217 14.0014 4.19531 13.9802 4.19531C13.9631 4.19531 13.9454 4.19988 13.9277 4.20903C13.8877 4.23017 13.8677 4.26331 13.8677 4.30788V11.7438C13.8677 11.7889 13.8877 11.822 13.9277 11.8426C13.9671 11.8632 14.0071 11.8609 14.0431 11.8352L19.3687 8.11753C19.4082 8.0901 19.4162 8.05239 19.4162 8.0261C19.4162 7.99982 19.4076 7.96153 19.3687 7.9341Z" fill="#081933"/>
<path d="M25.1301 8.71535C25.1198 8.84906 25.1101 8.9822 25.0941 9.11362C25.0741 9.28048 25.0472 9.44505 25.0181 9.60904C24.9958 9.73761 24.9741 9.86561 24.9467 9.99247C24.9107 10.1565 24.8667 10.3165 24.8221 10.477C24.7884 10.5987 24.7569 10.721 24.7181 10.8405C24.6655 11.0022 24.6044 11.1593 24.5432 11.317C24.4998 11.4296 24.4598 11.5439 24.4124 11.6542C24.3415 11.8176 24.261 11.9759 24.181 12.1341C24.1318 12.2319 24.0872 12.3324 24.0341 12.4284C23.9347 12.6096 23.8244 12.7833 23.713 12.9564C23.6701 13.0238 23.6318 13.0941 23.5872 13.1604C23.4278 13.3958 23.2575 13.6238 23.077 13.8427C23.0295 13.9004 22.977 13.9524 22.9278 14.0084C22.7907 14.1672 22.6518 14.3255 22.5044 14.4747C22.4278 14.5524 22.3444 14.6227 22.265 14.6975C22.137 14.8175 22.0107 14.9387 21.8759 15.0512C21.7839 15.1284 21.6867 15.1981 21.5924 15.2718C21.4621 15.3729 21.3319 15.4747 21.1964 15.5684C21.0936 15.6392 20.9873 15.7038 20.8816 15.7706C20.7456 15.8569 20.6096 15.9426 20.469 16.0215C20.3576 16.0838 20.2433 16.1409 20.1296 16.1986C19.9873 16.2706 19.845 16.3421 19.6982 16.4066C19.5799 16.4592 19.4587 16.5066 19.3382 16.5546C19.1896 16.6129 19.0405 16.6689 18.8885 16.7198C18.7639 16.7615 18.6376 16.7992 18.5108 16.8352C18.3559 16.8792 18.2005 16.9198 18.0428 16.9558C17.9136 16.9855 17.7834 17.0123 17.6525 17.0363C17.4914 17.0661 17.3291 17.0901 17.1656 17.1106C17.0325 17.1278 16.8994 17.1432 16.7645 17.1546C16.6994 17.1598 16.6365 17.1718 16.5708 17.1758V31.7521C16.5777 31.7458 16.5862 31.7384 16.5931 31.7321C16.6834 31.6492 16.7788 31.5641 16.8805 31.4761C16.8937 31.4647 16.9057 31.4538 16.9194 31.4424C17.0354 31.3435 17.1571 31.243 17.2879 31.1407C17.2902 31.139 17.2925 31.1372 17.2942 31.1355C17.4171 31.039 17.5485 30.9412 17.6845 30.8424C17.7056 30.827 17.7274 30.8115 17.7491 30.7961C18.0342 30.5927 18.3468 30.3892 18.6873 30.191C18.7142 30.1755 18.7416 30.1601 18.7685 30.1441C18.9268 30.0538 19.0902 29.9647 19.2599 29.8773C19.2759 29.8687 19.2913 29.8607 19.3079 29.8521C19.4953 29.7567 19.6902 29.6647 19.8919 29.5756C19.9159 29.5647 19.9405 29.555 19.965 29.5441C20.1433 29.4664 20.3279 29.3921 20.517 29.3207C20.553 29.307 20.5884 29.2933 20.625 29.2801C21.053 29.123 21.509 28.9836 21.9918 28.8676C22.0387 28.8561 22.0856 28.8453 22.133 28.8344C22.3696 28.7807 22.6107 28.731 22.8598 28.6899C22.8655 28.6887 22.8713 28.6876 22.877 28.687C23.137 28.6441 23.4055 28.6099 23.6798 28.5819C23.7255 28.5773 23.7724 28.5739 23.8187 28.5693C24.0604 28.547 24.3078 28.5316 24.5604 28.523C24.6004 28.5219 24.6387 28.519 24.6787 28.5184C24.9718 28.5104 25.2718 28.5116 25.5792 28.523C25.5998 28.5236 25.6209 28.5259 25.6421 28.5264C25.9272 28.5384 26.2192 28.5607 26.5163 28.5904C26.5661 28.5956 26.6152 28.6001 26.6655 28.6059C26.9883 28.6419 27.3158 28.6841 27.6523 28.743V11.9719C27.6523 11.9719 27.6523 11.9701 27.6523 11.969V8.6702C26.7963 8.51021 25.9604 8.42621 25.1564 8.41992C25.1524 8.51992 25.1375 8.61649 25.1301 8.71535Z" fill="#081933"/>
<path d="M24.0155 7.86672C23.9349 3.52908 20.339 0 15.9996 0C11.6603 0 8.06435 3.52908 7.98378 7.86672C7.98378 7.88729 7.98207 7.90729 7.97921 7.92729C7.97521 7.95815 7.97693 7.99243 7.97693 8.02272C7.97693 12.4501 11.5757 16.0517 15.9996 16.0517C20.4236 16.0517 24.0224 12.4501 24.0224 8.02272C24.0224 7.99243 24.0241 7.95815 24.0201 7.92729C24.0178 7.90729 24.0161 7.88729 24.0155 7.86672ZM20.0219 9.05413L14.6962 12.7718C14.4814 12.9221 14.2305 12.9981 13.9785 12.9981C13.7803 12.9981 13.5814 12.9506 13.398 12.8552C12.982 12.6386 12.7237 12.2124 12.7237 11.7432V4.30735C12.7237 3.83822 12.982 3.41194 13.398 3.19537C13.8145 2.97823 14.3122 3.01023 14.6957 3.2788L20.0213 6.99645C20.3573 7.2313 20.5579 7.61529 20.5579 8.025C20.5579 8.43471 20.3573 8.81927 20.0213 9.05356L20.0219 9.05413Z" fill="#081933"/>
</svg>
