<svg width="39" height="30" viewBox="0 0 39 30" fill="none" xmlns="http://www.w3.org/2000/svg">
<path d="M6.07303 0.601562C6.07199 0.601562 6.07083 0.601562 6.0698 0.601562C5.70661 0.601562 5.36501 0.74314 5.10707 1.00044C4.84628 1.26058 4.70264 1.60695 4.70264 1.9757V22.5807C4.70264 23.3363 5.31976 23.9525 6.07846 23.9544C9.27694 23.9621 14.6357 24.6287 18.3325 28.4973V6.93362C18.3325 6.67749 18.267 6.43687 18.1436 6.23776C15.1094 1.35147 9.27875 0.609062 6.07303 0.601562Z" fill="#0EC56D"/>
<path d="M34.096 22.5808V1.9757C34.096 1.60695 33.9524 1.26058 33.6916 1.00044C33.4336 0.74314 33.0918 0.601562 32.729 0.601562C32.7278 0.601562 32.7266 0.601562 32.7256 0.601562C29.52 0.609191 23.6894 1.3516 20.6551 6.23789C20.5316 6.437 20.4663 6.67762 20.4663 6.93375V28.4973C24.1631 24.6287 29.5218 23.9621 32.7203 23.9544C33.4789 23.9525 34.096 23.3363 34.096 22.5808Z" fill="#0EC56D"/>
<path d="M37.2249 5.35352H36.2285V22.5808C36.2285 24.51 34.6567 26.0831 32.7245 26.0879C30.0115 26.0944 25.5382 26.6249 22.3701 29.6234C27.8494 28.2818 33.6254 29.1539 36.9173 29.9041C37.3283 29.9977 37.753 29.901 38.0824 29.6385C38.4105 29.3767 38.5988 28.9853 38.5988 28.5652V6.7274C38.5989 5.96986 37.9824 5.35352 37.2249 5.35352Z" fill="#0EC56D"/>
<path d="M2.56944 22.5808V5.35352H1.5731C0.815694 5.35352 0.199219 5.96986 0.199219 6.7274V28.5648C0.199219 28.985 0.387471 29.3763 0.71562 29.6381C1.04467 29.9004 1.46902 29.9975 1.88069 29.9037C5.17252 29.1534 10.9487 28.2814 16.4277 29.623C13.2598 26.6246 8.78643 26.0943 6.07345 26.0878C4.1414 26.0831 2.56944 24.51 2.56944 22.5808Z" fill="#0EC56D"/>
</svg>
