<svg width="32" height="32" viewBox="0 0 32 32" fill="none" xmlns="http://www.w3.org/2000/svg">
<path d="M30.6613 14.4H28.8V10.5237C28.8 9.72053 28.1461 9.06667 27.3429 9.06667H25.6V7.7792L17.2875 0H4.26667V5.33333H1.45707C0.653867 5.33333 0 5.9872 0 6.7904V30.9131L0.0309333 30.9141C0.0725333 31.1099 0.155733 31.2976 0.282133 31.4629C0.542933 31.8048 0.938667 32 1.368 32H25.2395C25.856 32 26.3989 31.5845 26.5461 31.0331L32 16.0795V15.9851C32 15.0667 31.4368 14.4 30.6613 14.4ZM16.5333 1.22027C16.5333 1.16373 16.6021 1.13493 16.6421 1.17547L24.4245 8.42507C24.4645 8.46507 24.4363 8.53333 24.3797 8.53333H16.5333V1.22027ZM8.53333 2.66667H13.8667C14.1611 2.66667 14.4 2.90507 14.4 3.2C14.4 3.49493 14.1611 3.73333 13.8667 3.73333H8.53333C8.23893 3.73333 8 3.49493 8 3.2C8 2.90507 8.23893 2.66667 8.53333 2.66667ZM8.53333 6.4H13.8667C14.1611 6.4 14.4 6.6384 14.4 6.93333C14.4 7.22827 14.1611 7.46667 13.8667 7.46667H8.53333C8.23893 7.46667 8 7.22827 8 6.93333C8 6.6384 8.23893 6.4 8.53333 6.4ZM8.53333 10.1333H21.3333C21.6277 10.1333 21.8667 10.3717 21.8667 10.6667C21.8667 10.9616 21.6277 11.2 21.3333 11.2H8.53333C8.23893 11.2 8 10.9616 8 10.6667C8 10.3717 8.23893 10.1333 8.53333 10.1333ZM5.4832 15.3669L1.06667 27.4805V6.7904C1.06667 6.57493 1.2416 6.4 1.45707 6.4H4.26667V16.5333L5.1552 14.3125C5.26293 14.0432 5.5232 13.8667 5.81333 13.8667H24.5333H25.6V10.1333H27.3429C27.5584 10.1333 27.7333 10.3083 27.7333 10.5237V14.4H25.0667H6.78987C6.17333 14.4 5.6304 14.8155 5.4832 15.3669Z" fill="#D3224D"/>
</svg>
