<svg width="56" height="65" viewBox="0 0 56 65" fill="none" xmlns="http://www.w3.org/2000/svg">
<path fill-rule="evenodd" clip-rule="evenodd" d="M27.9671 29.6703C29.5456 29.6703 31.0887 30.1384 32.4012 31.0154C33.7137 31.8924 34.7367 33.1389 35.3408 34.5972C35.9448 36.0556 36.1029 37.6603 35.7949 39.2085C35.487 40.7567 34.7268 42.1788 33.6107 43.295C32.4945 44.4112 31.0724 45.1713 29.5242 45.4793C27.976 45.7873 26.3712 45.6292 24.9129 45.0251C23.4545 44.421 22.208 43.3981 21.331 42.0856C20.454 40.7731 19.986 39.23 19.986 37.6515C19.986 35.5347 20.8268 33.5047 22.3236 32.0079C23.8203 30.5112 25.8504 29.6703 27.9671 29.6703ZM27.698 15.8301C27.9533 15.9203 28.2324 15.9156 28.4845 15.8171V15.818C34.1994 13.6787 39.9187 11.5498 45.6422 9.43147C45.6781 9.41801 45.7165 9.413 45.7546 9.41681C45.7927 9.42062 45.8294 9.43316 45.8619 9.45344C45.8944 9.47373 45.9218 9.50122 45.9419 9.53379C45.962 9.56636 45.9744 9.60313 45.978 9.64125L46.3307 13.2269C46.3365 13.2798 46.325 13.3332 46.2979 13.379C46.2708 13.4249 46.2296 13.4607 46.1805 13.4812C45.8562 13.6204 45.5805 13.8528 45.3886 14.149C45.1967 14.4452 45.0972 14.7918 45.1027 15.1447L45.1632 18.8389C45.1639 18.8865 45.174 18.9335 45.1929 18.9772C45.2117 19.0209 45.239 19.0604 45.2732 19.0936C45.3074 19.1267 45.3477 19.1528 45.392 19.1703C45.4362 19.1879 45.4835 19.1965 45.531 19.1958L48.3627 19.1494C48.4588 19.148 48.5504 19.1084 48.6173 19.0395C48.6842 18.9705 48.721 18.8778 48.7196 18.7817L48.6591 15.0875C48.6522 14.6848 48.5089 14.2963 48.2527 13.9855C47.9964 13.6747 47.6424 13.46 47.2484 13.3763C47.1961 13.3659 47.1487 13.3388 47.1131 13.2991C47.0775 13.2594 47.0557 13.2093 47.051 13.1562L46.666 9.24977C46.6602 9.19476 46.6729 9.13937 46.7022 9.09246C46.7315 9.04555 46.7757 9.00983 46.8278 8.991C47.7693 8.64153 48.71 8.29185 49.6499 7.94195C49.6701 7.93417 49.6874 7.92037 49.6995 7.90243C49.7116 7.88448 49.7179 7.86325 49.7176 7.8416C49.7172 7.81996 49.7102 7.79895 49.6975 7.78141C49.6848 7.76387 49.6671 7.75065 49.6466 7.74353L28.2365 0.564403C27.9812 0.474244 27.702 0.478881 27.4498 0.577466L6.28617 8.45296C6.26551 8.46011 6.24761 8.47357 6.235 8.49143C6.22238 8.5093 6.21569 8.53067 6.21587 8.55253C6.21604 8.5744 6.22307 8.59566 6.23596 8.61332C6.24886 8.63099 6.26697 8.64416 6.28774 8.65098L27.698 15.8301ZM42.2336 19.8701C42.1999 19.8856 42.1655 19.9004 42.1308 19.9142L28.9698 25.1596C28.5068 25.3502 27.9889 25.3588 27.5199 25.1836L14.1945 20.3718C14.0777 20.3296 13.983 20.2673 13.8535 20.3544C13.8187 20.3773 13.7903 20.4087 13.771 20.4457C13.7518 20.4827 13.7424 20.524 13.7437 20.5657L13.7579 21.4395C13.758 21.6794 13.833 21.9133 13.9725 22.1085C14.1119 22.3037 14.3089 22.4505 14.5358 22.5284L27.8613 27.3404C28.1321 27.4441 28.4324 27.4395 28.6998 27.3273L41.8606 22.0818C42.0851 21.9965 42.2772 21.8431 42.4102 21.6431C42.5431 21.4432 42.6103 21.2067 42.6022 20.9667L42.5879 20.0936C42.5874 20.052 42.5764 20.0111 42.5561 19.9748C42.5357 19.9385 42.5066 19.9079 42.4714 19.8857C42.4362 19.8635 42.396 19.8505 42.3544 19.8478C42.3129 19.8452 42.2713 19.853 42.2336 19.8705V19.8701ZM13.7093 18.4703L13.6095 12.3701C13.6087 12.3301 13.6175 12.2905 13.6353 12.2546C13.653 12.2187 13.6791 12.1876 13.7114 12.1639C13.7438 12.1403 13.7813 12.1247 13.8209 12.1187C13.8604 12.1126 13.9009 12.1161 13.9388 12.129L27.4248 16.6511C27.8673 16.8055 28.3503 16.7974 28.7874 16.6284V16.6274L42.1166 11.6659C42.1541 11.6518 42.1944 11.647 42.2342 11.6517C42.274 11.6565 42.312 11.6708 42.345 11.6934C42.3781 11.716 42.4053 11.7462 42.4242 11.7814C42.4431 11.8167 42.4533 11.8561 42.4538 11.8961L42.5536 17.9963C42.5615 18.2362 42.4944 18.4726 42.3614 18.6724C42.2285 18.8723 42.0364 19.0256 41.812 19.111L28.6511 24.3559C28.3837 24.4681 28.0834 24.4728 27.8127 24.3689L14.4867 19.5574C14.2599 19.4796 14.0631 19.333 13.9237 19.138C13.7843 18.9431 13.7091 18.7095 13.7088 18.4698L13.7093 18.4703ZM17.1027 48.5286C16.0907 48.0156 14.9716 47.7498 13.8371 47.7529H7.29695C5.3616 47.759 3.50725 48.5305 2.13875 49.899C0.770242 51.2675 -0.00125908 53.1219 -0.00732194 55.0572V55.9222C-0.00788849 55.9566 -0.00110807 55.9907 0.0125659 56.0222C0.02624 56.0538 0.0464925 56.082 0.0719675 56.1051C1.78548 57.7045 3.84178 58.8913 6.0839 59.5748C8.32602 60.2583 10.6947 60.4206 13.009 60.049C13.159 60.025 13.3722 59.8123 13.0613 59.5437C13.0012 59.4921 12.953 59.4281 12.92 59.3562C12.887 59.2842 12.87 59.206 12.87 59.1268V57.5502C12.872 55.8846 13.2585 54.242 13.9994 52.7503C14.7403 51.2586 15.8156 49.958 17.1415 48.95C17.1751 48.9243 17.2016 48.8904 17.2186 48.8516C17.2356 48.8128 17.2425 48.7704 17.2385 48.7282C17.2346 48.686 17.2201 48.6456 17.1962 48.6106C17.1724 48.5756 17.1401 48.5472 17.1023 48.5281L17.1027 48.5286ZM15.0127 59.8229L14.0535 58.9739L13.9707 58.7883V57.5512C13.9786 54.9754 15.0054 52.5074 16.8268 50.686C18.6482 48.8646 21.1162 47.8379 23.692 47.83H32.2436C37.5413 47.83 41.9647 52.1498 41.9647 57.5512V58.783C41.9653 58.8183 41.958 58.8533 41.9436 58.8856C41.9292 58.9178 41.9078 58.9465 41.8811 58.9696L40.9523 59.7976L40.9532 59.7986L39.481 60.9167C35.9796 63.33 31.8084 64.582 27.5567 64.4958C23.305 64.4097 19.1879 62.9897 15.7872 60.4365L15.0127 59.8235V59.8229ZM10.5666 32.5676C11.7993 32.5676 13.0044 32.9331 14.0294 33.6179C15.0544 34.3028 15.8533 35.2762 16.325 36.4151C16.7968 37.554 16.9202 38.8072 16.6798 40.0162C16.4393 41.2252 15.8457 42.3358 14.974 43.2075C14.1024 44.0792 12.9918 44.6728 11.7827 44.9133C10.5737 45.1538 9.3205 45.0304 8.1816 44.5587C7.04271 44.0869 6.06928 43.288 5.38441 42.2631C4.69954 41.2381 4.33399 40.0331 4.33399 38.8003C4.33402 37.1473 4.99068 35.562 6.15951 34.3932C7.32834 33.2243 8.91362 32.5676 10.5666 32.5676ZM42.925 60.0481C45.0955 60.3965 47.3155 60.2759 49.4356 59.6943C51.5556 59.1128 53.5265 58.0838 55.2154 56.6766L55.2145 56.6754L55.8582 56.1038C55.8851 56.0807 55.9065 56.052 55.921 56.0197C55.9355 55.9874 55.9428 55.9523 55.9422 55.9169V55.0567C55.9374 53.121 55.1663 51.2659 53.7975 49.8971C52.4287 48.5284 50.5737 47.7573 48.638 47.7524H42.0978C40.9624 47.7508 39.8425 48.0167 38.829 48.5286C38.7912 48.5477 38.7589 48.5761 38.7351 48.6111C38.7113 48.6461 38.6967 48.6865 38.6928 48.7287C38.6889 48.7708 38.6957 48.8133 38.7127 48.852C38.7296 48.8908 38.7562 48.9247 38.7898 48.9504C40.1158 49.9584 41.1914 51.2588 41.9327 52.7504C42.6741 54.242 43.0612 55.8845 43.0641 57.5502V59.1258H43.0625C43.0625 59.5738 42.6307 59.5732 42.7259 59.8762C42.7392 59.9209 42.765 59.9608 42.8003 59.9912C42.8355 60.0217 42.8787 60.0415 42.9248 60.0483L42.925 60.0481ZM45.3676 32.5674C46.6004 32.5673 47.8055 32.9327 48.8305 33.6175C49.8556 34.3023 50.6546 35.2757 51.1264 36.4145C51.5982 37.5534 51.7218 38.8066 51.4814 40.0157C51.241 41.2248 50.6474 42.3354 49.7758 43.2071C48.9042 44.0789 47.7936 44.6726 46.5846 44.9131C45.3755 45.1537 44.1223 45.0303 42.9834 44.5586C41.8444 44.0869 40.871 43.2881 40.186 42.2631C39.5011 41.2381 39.1356 40.0331 39.1355 38.8003C39.1356 37.1474 39.7921 35.5622 40.9609 34.3934C42.1296 33.2245 43.7147 32.5678 45.3676 32.5676V32.5674Z" fill="#D3224D"/>
</svg>
