<svg width="65" height="65" viewBox="0 0 65 65" fill="none" xmlns="http://www.w3.org/2000/svg">
<path d="M48.5556 28.5817L48.7585 28.3112V18.6699L32.5243 25.1636L16.2902 18.6699V28.3108L16.4931 28.5813C16.6605 28.8052 20.7379 34.0603 32.5243 34.0603C44.3107 34.0603 48.3879 28.8049 48.5556 28.5817Z" fill="#D3224D"/>
<path d="M63.4707 61.4568H8.68042C7.20039 61.4568 5.78097 60.8689 4.73442 59.8223C3.68788 58.7758 3.09993 57.3564 3.09993 55.8763C3.09993 54.3963 3.68788 52.9769 4.73442 51.9303C5.78097 50.8838 7.20039 50.2959 8.68042 50.2959H63.4707C63.8743 50.2959 64.2615 50.1355 64.5469 49.8501C64.8323 49.5647 64.9926 49.1776 64.9926 48.7739C64.9926 48.3703 64.8323 47.9831 64.5469 47.6977C64.2615 47.4123 63.8743 47.252 63.4707 47.252H8.68042C6.39309 47.252 4.19944 48.1606 2.58206 49.778C0.964669 51.3954 0.0560303 53.589 0.0560303 55.8763C0.0560303 58.1637 0.964669 60.3573 2.58206 61.9747C4.19944 63.5921 6.39309 64.5007 8.68042 64.5007H63.4707C63.8743 64.5007 64.2615 64.3404 64.5469 64.055C64.8323 63.7695 64.9926 63.3824 64.9926 62.9788C64.9926 62.5751 64.8323 62.188 64.5469 61.9026C64.2615 61.6172 63.8743 61.4568 63.4707 61.4568Z" fill="#D3224D"/>
<path d="M5.1292 55.8754C5.1292 56.3418 5.22106 56.8036 5.39952 57.2344C5.57799 57.6653 5.83957 58.0568 6.16933 58.3865C6.49909 58.7163 6.89058 58.9779 7.32143 59.1563C7.75229 59.3348 8.21407 59.4267 8.68042 59.4267H63.4707V52.3242H8.68042C7.73858 52.3242 6.83532 52.6984 6.16933 53.3643C5.50335 54.0303 5.1292 54.9336 5.1292 55.8754Z" fill="#D3224D"/>
<path d="M53.8317 26.4521C55.2326 26.4521 56.3682 25.3164 56.3682 23.9155C56.3682 22.5146 55.2326 21.3789 53.8317 21.3789C52.4307 21.3789 51.2951 22.5146 51.2951 23.9155C51.2951 25.3164 52.4307 26.4521 53.8317 26.4521Z" fill="#D3224D"/>
<path d="M49.4231 16.2187L32.1631 9.64388L32.8855 7.74652L52.2042 15.1067L60.6216 11.7391L32.5243 0.5L4.42707 11.7391L32.5243 22.9782L49.4231 16.2187Z" fill="#D3224D"/>
<path d="M52.817 17.5127V19.4723C53.4836 19.3089 54.1797 19.3089 54.8463 19.4723V16.1138L52.2043 15.1074L49.4229 16.22L52.817 17.5127Z" fill="#D3224D"/>
<path d="M9.18774 38.1191C9.18774 38.6573 9.40154 39.1735 9.7821 39.554C10.1627 39.9346 10.6788 40.1484 11.217 40.1484H48.3924L49.0688 36.0898H11.217C10.6788 36.0898 10.1627 36.3036 9.7821 36.6842C9.40154 37.0648 9.18774 37.5809 9.18774 38.1191Z" fill="#D3224D"/>
<path d="M56.8756 38.119L55.2288 28.2383C54.3252 28.5605 53.3381 28.5605 52.4345 28.2383L50.7878 38.119H56.8756Z" fill="#D3224D"/>
<path d="M11.217 45.2225H55.3536C55.7573 45.2225 56.1444 45.0621 56.4298 44.7767C56.7152 44.4913 56.8756 44.1042 56.8756 43.7005C56.8756 43.2969 56.7152 42.9097 56.4298 42.6243C56.1444 42.3389 55.7573 42.1786 55.3536 42.1786H11.217C10.1406 42.1786 9.10831 41.751 8.34719 40.9898C7.58607 40.2287 7.15847 39.1964 7.15847 38.12C7.15847 37.0436 7.58607 36.0113 8.34719 35.2502C9.10831 34.4891 10.1406 34.0615 11.217 34.0615H21.0387C19.2065 33.3383 17.5106 32.309 16.0232 31.0176H11.217C9.33333 31.0176 7.52679 31.7659 6.19483 33.0978C4.86286 34.4298 4.11457 36.2363 4.11457 38.12C4.11457 40.0037 4.86286 41.8102 6.19483 43.1422C7.52679 44.4742 9.33333 45.2225 11.217 45.2225Z" fill="#D3224D"/>
<path d="M49.9144 31.0176H49.0262C47.5389 32.3091 45.8428 33.3383 44.0105 34.0615H49.407L49.9144 31.0176Z" fill="#D3224D"/>
</svg>
