<svg width="65" height="65" viewBox="0 0 65 65" fill="none" xmlns="http://www.w3.org/2000/svg">
<path d="M55.7143 34.0122C55.5376 33.9427 51.3261 32.3056 46.2964 32.0031C41.5757 31.7186 37.6857 32.7015 34.7944 34.8714V64.499C36.8995 61.1434 40.6613 59.5947 45.9879 59.8967C50.437 60.1489 54.3039 61.6431 54.3407 61.6575C54.9184 61.8848 55.571 61.8115 56.0841 61.4621C56.5972 61.1125 56.9042 60.5319 56.9042 59.9112V35.7585C56.904 34.9871 56.4322 34.2944 55.7143 34.0122ZM50.7332 50.2077C50.6396 51.2399 49.7263 52.0007 48.695 51.9073C46.675 51.7243 44.8297 51.7996 43.2108 52.1311C41.7779 52.4238 41.1021 51.1872 40.996 50.669C40.7881 49.6537 41.4427 48.6621 42.458 48.4542C44.436 48.0493 46.6485 47.9534 49.0336 48.1695C50.0657 48.2631 50.8266 49.1756 50.7332 50.2077ZM50.7332 42.1567C50.6397 43.1889 49.7263 43.9498 48.695 43.8564C46.6771 43.6736 44.8318 43.7493 43.2107 44.0812C41.7776 44.3742 41.1019 43.1373 40.9959 42.6191C40.7879 41.6038 41.4426 40.6122 42.4579 40.4043C44.4383 39.999 46.6506 39.9029 49.0335 40.1186C50.0656 40.212 50.8266 41.1245 50.7332 42.1567Z" fill="#D3224D"/>
<path d="M19.5394 32.0029C14.5097 32.3054 10.2982 33.9425 10.1215 34.0121C9.40365 34.2943 8.93176 34.987 8.93176 35.7584V59.9112C8.93176 60.5319 9.23876 61.1125 9.7518 61.4621C10.265 61.8116 10.9176 61.8848 11.4952 61.6575C11.533 61.6426 15.3231 60.1689 19.765 59.9014C25.1346 59.5783 28.925 61.1252 31.0415 64.499V34.8714C28.15 32.7016 24.2596 31.719 19.5394 32.0029ZM24.84 50.6689C24.7339 51.1869 24.0581 52.4237 22.6252 52.131C21.0062 51.7996 19.1611 51.7241 17.1409 51.9072C16.1096 52.0006 15.1962 51.2399 15.1028 50.2075C15.0093 49.1754 15.7702 48.2629 16.8024 48.1694C19.1876 47.9533 21.4 48.0491 23.378 48.4541C24.3932 48.662 25.0479 49.6536 24.84 50.6689ZM24.84 42.6188C24.7339 43.137 24.0582 44.3739 22.6252 44.0809C21.004 43.749 19.1587 43.6733 17.1408 43.8561C14.656 43.9882 14.3352 40.4337 16.8023 40.1183C19.1852 39.9026 21.3975 39.9987 23.3779 40.404C24.3932 40.612 25.0479 41.6036 24.84 42.6188Z" fill="#D3224D"/>
<path d="M32.9179 16.3943C37.3144 16.3943 40.891 12.8175 40.891 8.42114C40.4902 -2.14184 25.3439 -2.13896 24.9447 8.42126C24.9448 12.8175 28.5215 16.3943 32.9179 16.3943Z" fill="#D3224D"/>
<path d="M12.8182 21.4177C17.2147 21.4177 20.7913 17.8409 20.7913 13.4446C20.3905 2.8816 5.24429 2.88448 4.84509 13.4447C4.84509 17.841 8.42175 21.4177 12.8182 21.4177Z" fill="#D3224D"/>
<path d="M53.0177 21.4177C57.4141 21.4177 60.9908 17.8409 60.9908 13.4446C60.59 2.8816 45.4436 2.88448 45.0444 13.4447C45.0446 17.841 48.6212 21.4177 53.0177 21.4177Z" fill="#D3224D"/>
<path d="M44.8442 25.1447C44.8442 22.1294 43.1687 19.4195 40.4723 18.0726L39.9401 17.8066C36.0388 20.8958 29.7985 20.8959 25.8971 17.8078L25.3608 18.076C22.6657 19.4248 20.9915 22.1345 20.9915 25.1479V28.204C24.315 28.1927 28.9041 28.7663 32.9178 31.5986C36.9314 28.7658 41.5194 28.1923 44.8442 28.2039V25.1447Z" fill="#D3224D"/>
<path d="M60.572 23.096L60.0399 22.8301C56.9782 25.2367 52.2137 25.8804 48.5665 24.2925C48.5869 24.5746 48.5974 24.8591 48.5974 25.1455V28.4503C53.145 29.0115 56.652 30.3498 57.0877 30.5211C59.2561 31.3739 60.6571 33.4303 60.6571 35.7601V40.3811H63.0674C64.1038 40.3811 64.944 39.5409 64.944 38.5046V30.1682C64.944 27.153 63.2685 24.4429 60.572 23.096Z" fill="#D3224D"/>
<path d="M17.2384 25.1472C17.2384 24.8599 17.249 24.5744 17.2695 24.2913C13.6223 25.8791 8.85945 25.2358 5.79734 22.8301L5.26102 23.0983C2.56608 24.447 0.891846 27.1569 0.891846 30.1701V38.5035C0.891846 39.5398 1.73203 40.38 2.76837 40.38H5.17871V35.759C5.17871 33.4292 6.57972 31.3728 8.74799 30.5201C9.18384 30.3487 12.6907 29.0105 17.2384 28.4493V25.1472Z" fill="#D3224D"/>
</svg>
