<svg width="57" height="65" viewBox="0 0 57 65" fill="none" xmlns="http://www.w3.org/2000/svg">
<path fill-rule="evenodd" clip-rule="evenodd" d="M28.9167 29.6703C30.4953 29.6703 32.0383 30.1384 33.3508 31.0154C34.6633 31.8924 35.6863 33.1389 36.2904 34.5972C36.8944 36.0556 37.0525 37.6603 36.7445 39.2085C36.4366 40.7567 35.6765 42.1788 34.5603 43.295C33.4441 44.4112 32.022 45.1713 30.4738 45.4793C28.9256 45.7873 27.3208 45.6292 25.8625 45.0251C24.4041 44.421 23.1576 43.3981 22.2806 42.0856C21.4037 40.7731 20.9356 39.23 20.9356 37.6515C20.9356 35.5347 21.7764 33.5047 23.2732 32.0079C24.77 30.5112 26.8 29.6703 28.9167 29.6703ZM28.6477 15.8301C28.9029 15.9203 29.182 15.9156 29.4341 15.8171V15.818C35.1491 13.6787 40.8683 11.5498 46.5918 9.43147C46.6277 9.41801 46.6661 9.413 46.7042 9.41681C46.7423 9.42062 46.7791 9.43316 46.8115 9.45344C46.844 9.47373 46.8714 9.50122 46.8915 9.53379C46.9117 9.56636 46.924 9.60313 46.9277 9.64125L47.2803 13.2269C47.2861 13.2798 47.2746 13.3332 47.2475 13.379C47.2204 13.4249 47.1793 13.4607 47.1301 13.4812C46.8058 13.6204 46.5301 13.8528 46.3382 14.149C46.1463 14.4452 46.0468 14.7918 46.0523 15.1447L46.1128 18.8389C46.1135 18.8865 46.1236 18.9335 46.1425 18.9772C46.1614 19.0209 46.1887 19.0604 46.2228 19.0936C46.257 19.1267 46.2973 19.1528 46.3416 19.1703C46.3858 19.1879 46.4331 19.1965 46.4807 19.1958L49.3123 19.1494C49.4084 19.148 49.5 19.1084 49.5669 19.0395C49.6338 18.9705 49.6706 18.8778 49.6692 18.7817L49.6087 15.0875C49.6018 14.6848 49.4585 14.2963 49.2023 13.9855C48.946 13.6747 48.592 13.46 48.198 13.3763C48.1457 13.3659 48.0983 13.3388 48.0627 13.2991C48.0271 13.2594 48.0053 13.2093 48.0006 13.1562L47.6157 9.24977C47.6098 9.19476 47.6225 9.13937 47.6518 9.09246C47.6812 9.04555 47.7254 9.00983 47.7774 8.991C48.7189 8.64153 49.6596 8.29185 50.5995 7.94195C50.6197 7.93417 50.637 7.92037 50.6491 7.90243C50.6612 7.88448 50.6675 7.86325 50.6672 7.8416C50.6668 7.81996 50.6598 7.79895 50.6471 7.78141C50.6345 7.76387 50.6167 7.75065 50.5962 7.74353L29.1861 0.564403C28.9308 0.474244 28.6516 0.478881 28.3995 0.577466L7.23579 8.45296C7.21513 8.46011 7.19723 8.47357 7.18461 8.49143C7.172 8.5093 7.16531 8.53067 7.16548 8.55253C7.16565 8.5744 7.17268 8.59566 7.18558 8.61332C7.19847 8.63099 7.21658 8.64416 7.23736 8.65098L28.6477 15.8301ZM43.1832 19.8701C43.1495 19.8856 43.1151 19.9004 43.0804 19.9142L29.9194 25.1596C29.4564 25.3502 28.9385 25.3588 28.4695 25.1836L15.1441 20.3718C15.0273 20.3296 14.9326 20.2673 14.8031 20.3544C14.7683 20.3773 14.7399 20.4087 14.7207 20.4457C14.7014 20.4827 14.692 20.524 14.6933 20.5657L14.7075 21.4395C14.7076 21.6794 14.7827 21.9133 14.9221 22.1085C15.0616 22.3037 15.2585 22.4505 15.4854 22.5284L28.8109 27.3404C29.0817 27.4441 29.382 27.4395 29.6494 27.3273L42.8102 22.0818C43.0347 21.9965 43.2268 21.8431 43.3598 21.6431C43.4927 21.4432 43.5599 21.2067 43.5518 20.9667L43.5376 20.0936C43.537 20.052 43.5261 20.0111 43.5057 19.9748C43.4854 19.9385 43.4562 19.9079 43.421 19.8857C43.3858 19.8635 43.3456 19.8505 43.304 19.8478C43.2625 19.8452 43.2209 19.853 43.1832 19.8705V19.8701ZM14.6589 18.4703L14.5591 12.3701C14.5583 12.3301 14.5671 12.2905 14.5849 12.2546C14.6026 12.2187 14.6288 12.1876 14.6611 12.1639C14.6934 12.1403 14.7309 12.1247 14.7705 12.1187C14.8101 12.1126 14.8505 12.1161 14.8884 12.129L28.3744 16.6511C28.8169 16.8055 29.2999 16.7974 29.7371 16.6284V16.6274L43.0663 11.6659C43.1037 11.6518 43.1441 11.647 43.1838 11.6517C43.2236 11.6565 43.2616 11.6708 43.2947 11.6934C43.3277 11.716 43.3549 11.7462 43.3738 11.7814C43.3927 11.8167 43.4029 11.8561 43.4034 11.8961L43.5032 17.9963C43.5112 18.2362 43.444 18.4726 43.311 18.6724C43.1781 18.8723 42.986 19.0256 42.7616 19.111L29.6007 24.3559C29.3334 24.4681 29.033 24.4728 28.7623 24.3689L15.4363 19.5574C15.2096 19.4796 15.0128 19.333 14.8733 19.138C14.7339 18.9431 14.6588 18.7095 14.6584 18.4698L14.6589 18.4703ZM18.0523 48.5286C17.0403 48.0156 15.9212 47.7498 14.7867 47.7529H8.24656C6.31122 47.759 4.45687 48.5305 3.08836 49.899C1.71986 51.2675 0.948356 53.1219 0.942294 55.0572V55.9222C0.941727 55.9566 0.948507 55.9907 0.962181 56.0222C0.975855 56.0538 0.996108 56.082 1.02158 56.1051C2.73509 57.7045 4.7914 58.8913 7.03351 59.5748C9.27563 60.2583 11.6443 60.4206 13.9586 60.049C14.1086 60.025 14.3218 59.8123 14.0109 59.5437C13.9508 59.4921 13.9026 59.4281 13.8696 59.3562C13.8366 59.2842 13.8196 59.206 13.8197 59.1268V57.5502C13.8217 55.8846 14.2081 54.242 14.949 52.7503C15.6899 51.2586 16.7652 49.958 18.0911 48.95C18.1247 48.9243 18.1513 48.8904 18.1682 48.8516C18.1852 48.8128 18.1921 48.7704 18.1882 48.7282C18.1842 48.686 18.1697 48.6456 18.1459 48.6106C18.122 48.5756 18.0897 48.5472 18.0519 48.5281L18.0523 48.5286ZM15.9623 59.8229L15.0031 58.9739L14.9203 58.7883V57.5512C14.9282 54.9754 15.955 52.5074 17.7764 50.686C19.5978 48.8646 22.0658 47.8379 24.6417 47.83H33.1933C38.4909 47.83 42.9143 52.1498 42.9143 57.5512V58.783C42.9149 58.8183 42.9077 58.8533 42.8932 58.8856C42.8788 58.9178 42.8575 58.9465 42.8307 58.9696L41.9019 59.7976L41.9028 59.7986L40.4306 60.9167C36.9292 63.33 32.758 64.582 28.5063 64.4958C24.2546 64.4097 20.1375 62.9897 16.7368 60.4365L15.9623 59.8235V59.8229ZM11.5162 32.5676C12.749 32.5676 13.954 32.9331 14.979 33.6179C16.004 34.3028 16.8029 35.2762 17.2746 36.4151C17.7464 37.554 17.8698 38.8072 17.6294 40.0162C17.3889 41.2252 16.7953 42.3358 15.9236 43.2075C15.052 44.0792 13.9414 44.6728 12.7324 44.9133C11.5233 45.1538 10.2701 45.0304 9.13122 44.5587C7.99232 44.0869 7.01889 43.288 6.33402 42.2631C5.64915 41.2381 5.2836 40.0331 5.2836 38.8003C5.28364 37.1473 5.9403 35.562 7.10913 34.3932C8.27796 33.2243 9.86323 32.5676 11.5162 32.5676ZM43.8746 60.0481C46.0451 60.3965 48.2652 60.2759 50.3852 59.6943C52.5052 59.1128 54.4761 58.0838 56.165 56.6766L56.1641 56.6754L56.8078 56.1038C56.8347 56.0807 56.8561 56.052 56.8706 56.0197C56.8851 55.9874 56.8924 55.9523 56.8918 55.9169V55.0567C56.887 53.121 56.1159 51.2659 54.7471 49.8971C53.3784 48.5284 51.5233 47.7573 49.5876 47.7524H43.0475C41.912 47.7508 40.7921 48.0167 39.7786 48.5286C39.7408 48.5477 39.7085 48.5761 39.6847 48.6111C39.6609 48.6461 39.6463 48.6865 39.6424 48.7287C39.6385 48.7708 39.6453 48.8133 39.6623 48.852C39.6793 48.8908 39.7058 48.9247 39.7394 48.9504C41.0654 49.9584 42.141 51.2588 42.8823 52.7504C43.6237 54.242 44.0108 55.8845 44.0137 57.5502V59.1258H44.0121C44.0121 59.5738 43.5803 59.5732 43.6755 59.8762C43.6888 59.9209 43.7146 59.9608 43.7499 59.9912C43.7851 60.0217 43.8283 60.0415 43.8744 60.0483L43.8746 60.0481ZM46.3172 32.5674C47.55 32.5673 48.7551 32.9327 49.7801 33.6175C50.8052 34.3023 51.6042 35.2757 52.076 36.4145C52.5479 37.5534 52.6714 38.8066 52.431 40.0157C52.1906 41.2248 51.597 42.3354 50.7254 43.2071C49.8538 44.0789 48.7432 44.6726 47.5342 44.9131C46.3251 45.1537 45.0719 45.0303 43.933 44.5586C42.794 44.0869 41.8206 43.2881 41.1357 42.2631C40.4508 41.2381 40.0852 40.0331 40.0851 38.8003C40.0852 37.1474 40.7418 35.5622 41.9105 34.3934C43.0792 33.2245 44.6643 32.5678 46.3172 32.5676V32.5674Z" fill="#D3224D"/>
</svg>
