<svg width="63" height="48" viewBox="0 0 63 48" fill="none" xmlns="http://www.w3.org/2000/svg">
<path d="M9.61033 0C9.60863 0 9.60673 0 9.60504 0C9.01081 0 8.45191 0.231637 8.02988 0.652603C7.60319 1.07822 7.36816 1.64494 7.36816 2.24826V35.9605C7.36816 37.1967 8.37787 38.2049 9.61921 38.2081C14.8524 38.2206 23.6201 39.3113 29.6686 45.6408V10.36C29.6686 9.94094 29.5615 9.54726 29.3595 9.22149C24.3952 1.22694 14.8554 0.0122694 9.61033 0Z" fill="#081933"/>
<path d="M55.4601 35.9607V2.24826C55.4601 1.64494 55.2251 1.07822 54.7984 0.652603C54.3764 0.231637 53.817 0 53.2235 0C53.2215 0 53.2196 0 53.218 0C47.9731 0.0124809 38.4333 1.22715 33.4688 9.2217C33.2667 9.54747 33.1599 9.94115 33.1599 10.3602V45.6408C39.2084 39.3113 47.9761 38.2206 53.2093 38.2081C54.4504 38.2049 55.4601 37.1967 55.4601 35.9607Z" fill="#081933"/>
<path d="M60.5802 7.77527H58.9501V35.9612C58.9501 39.1176 56.3783 41.6914 53.217 41.6992C48.7781 41.7098 41.4591 42.5778 36.2756 47.4836C45.2405 45.2887 54.691 46.7155 60.077 47.9429C60.7495 48.096 61.4444 47.9378 61.9832 47.5083C62.5201 47.08 62.8281 46.4396 62.8281 45.7523V10.0231C62.8283 8.78368 61.8197 7.77527 60.5802 7.77527Z" fill="#081933"/>
<path d="M3.87804 35.9612V7.77527H2.24788C1.00865 7.77527 0 8.78368 0 10.0231V45.7517C0 46.4392 0.308009 47.0793 0.84491 47.5077C1.38329 47.9369 2.07758 48.0958 2.75114 47.9422C8.13707 46.7146 17.5878 45.288 26.5523 47.483C21.369 42.5773 14.05 41.7096 9.61111 41.699C6.45 41.6914 3.87804 39.1176 3.87804 35.9612Z" fill="#081933"/>
</svg>
