<svg width="49" height="48" viewBox="0 0 49 48" fill="none" xmlns="http://www.w3.org/2000/svg">
<path d="M36.3748 21.0613L36.527 20.8584V13.6274L24.3514 18.4977L12.1758 13.6274V20.8581L12.328 21.061C12.4535 21.2289 15.5116 25.1702 24.3514 25.1702C33.1912 25.1702 36.2491 21.2287 36.3748 21.0613Z" fill="#081933"/>
<path d="M47.561 45.7176H6.46829C5.35827 45.7176 4.2937 45.2767 3.50879 44.4918C2.72388 43.7069 2.28293 42.6423 2.28293 41.5323C2.28293 40.4222 2.72388 39.3577 3.50879 38.5728C4.2937 37.7878 5.35827 37.3469 6.46829 37.3469H47.561C47.8637 37.3469 48.1541 37.2266 48.3681 37.0126C48.5822 36.7985 48.7025 36.5082 48.7025 36.2054C48.7025 35.9027 48.5822 35.6124 48.3681 35.3983C48.1541 35.1842 47.8637 35.064 47.561 35.064H6.46829C4.7528 35.064 3.10756 35.7454 1.89452 36.9585C0.681479 38.1715 0 39.8168 0 41.5323C0 43.2478 0.681479 44.893 1.89452 46.106C3.10756 47.3191 4.7528 48.0006 6.46829 48.0006H47.561C47.8637 48.0006 48.1541 47.8803 48.3681 47.6662C48.5822 47.4522 48.7025 47.1618 48.7025 46.8591C48.7025 46.5564 48.5822 46.266 48.3681 46.052C48.1541 45.8379 47.8637 45.7176 47.561 45.7176Z" fill="#081933"/>
<path d="M3.80493 41.5316C3.80493 41.8813 3.87382 42.2277 4.00767 42.5508C4.14152 42.874 4.33771 43.1676 4.58503 43.4149C4.83235 43.6622 5.12596 43.8584 5.4491 43.9923C5.77224 44.1261 6.11858 44.195 6.46835 44.195H47.561V38.8682H6.46835C5.76197 38.8682 5.08452 39.1488 4.58503 39.6483C4.08554 40.1477 3.80493 40.8252 3.80493 41.5316Z" fill="#081933"/>
<path d="M40.3319 19.4641C41.3826 19.4641 42.2343 18.6123 42.2343 17.5616C42.2343 16.5109 41.3826 15.6592 40.3319 15.6592C39.2812 15.6592 38.4294 16.5109 38.4294 17.5616C38.4294 18.6123 39.2812 19.4641 40.3319 19.4641Z" fill="#081933"/>
<path d="M37.0253 11.789L24.0804 6.85791L24.6222 5.43489L39.1111 10.955L45.4242 8.42933L24.3513 0L3.27832 8.42933L24.3513 16.8587L37.0253 11.789Z" fill="#081933"/>
<path d="M39.5706 12.7595V14.2292C40.0706 14.1066 40.5927 14.1066 41.0926 14.2292V11.7104L39.1111 10.9556L37.025 11.79L39.5706 12.7595Z" fill="#081933"/>
<path d="M6.84888 28.2143C6.84888 28.618 7.00923 29.0051 7.29465 29.2905C7.58007 29.5759 7.96718 29.7363 8.37083 29.7363H36.2524L36.7596 26.6924H8.37083C7.96718 26.6924 7.58007 26.8527 7.29465 27.1382C7.00923 27.4236 6.84888 27.8107 6.84888 28.2143Z" fill="#081933"/>
<path d="M42.6148 28.2142L41.3797 20.8037C40.7021 21.0454 39.9617 21.0454 39.284 20.8037L38.049 28.2142H42.6148Z" fill="#081933"/>
<path d="M8.37078 33.5418H41.4732C41.776 33.5418 42.0663 33.4216 42.2804 33.2075C42.4944 32.9935 42.6147 32.7031 42.6147 32.4004C42.6147 32.0976 42.4944 31.8073 42.2804 31.5932C42.0663 31.3792 41.776 31.2589 41.4732 31.2589H8.37078C7.56348 31.2589 6.78925 30.9382 6.21841 30.3674C5.64757 29.7965 5.32687 29.0223 5.32687 28.215C5.32687 27.4077 5.64757 26.6335 6.21841 26.0627C6.78925 25.4918 7.56348 25.1711 8.37078 25.1711H15.737C14.3629 24.6287 13.0909 23.8567 11.9754 22.8882H8.37078C6.95801 22.8882 5.60311 23.4494 4.60414 24.4484C3.60516 25.4473 3.04395 26.8023 3.04395 28.215C3.04395 29.6278 3.60516 30.9827 4.60414 31.9817C5.60311 32.9806 6.95801 33.5418 8.37078 33.5418Z" fill="#081933"/>
<path d="M37.3938 22.8882H36.7278C35.6122 23.8568 34.3402 24.6288 32.9659 25.1711H37.0133L37.3938 22.8882Z" fill="#081933"/>
</svg>
