<svg width="24" height="24" viewBox="0 0 24 24" fill="none" xmlns="http://www.w3.org/2000/svg">
<path fill-rule="evenodd" clip-rule="evenodd" d="M4 2C4 3.10457 3.10457 4 2 4C0.895427 4 0 3.10457 0 2C0 0.895427 0.895427 0 2 0C3.10457 0 4 0.895427 4 2ZM4 12C4 13.1045 3.10457 14 2 14C0.895427 14 0 13.1045 0 12C0 10.8955 0.895427 10 2 10C3.10457 10 4 10.8955 4 12ZM2 24C3.10457 24 4 23.1045 4 22C4 20.8955 3.10457 20 2 20C0.895427 20 0 20.8955 0 22C0 23.1045 0.895427 24 2 24ZM14 12C14 13.1045 13.1045 14 12 14C10.8955 14 10 13.1045 10 12C10 10.8955 10.8955 10 12 10C13.1045 10 14 10.8955 14 12ZM12 4C13.1045 4 14 3.10457 14 2C14 0.895427 13.1045 0 12 0C10.8955 0 10 0.895427 10 2C10 3.10457 10.8955 4 12 4ZM14 22C14 23.1045 13.1045 24 12 24C10.8955 24 10 23.1045 10 22C10 20.8955 10.8955 20 12 20C13.1045 20 14 20.8955 14 22ZM22 14C23.1045 14 24 13.1045 24 12C24 10.8955 23.1045 10 22 10C20.8955 10 20 10.8955 20 12C20 13.1045 20.8955 14 22 14ZM24 2C24 3.10457 23.1045 4 22 4C20.8955 4 20 3.10457 20 2C20 0.895427 20.8955 0 22 0C23.1045 0 24 0.895427 24 2ZM22 24C23.1045 24 24 23.1045 24 22C24 20.8955 23.1045 20 22 20C20.8955 20 20 20.8955 20 22C20 23.1045 20.8955 24 22 24Z" fill="white"/>
</svg>
