<svg width="65" height="40" viewBox="0 0 65 40" fill="none" xmlns="http://www.w3.org/2000/svg">
<path d="M4.05021 27.2026V16.9762L5.39697 17.4878V27.2026C4.95187 27.1176 4.49531 27.1176 4.05021 27.2026ZM63.7049 11.6298L33.8746 0.296455C32.8342 -0.0988185 31.8102 -0.0988185 30.7698 0.296455L0.939466 11.6298C-0.313155 12.1058 -0.313155 13.8777 0.939466 14.3537L4.09587 15.5528C4.18367 15.3224 4.39565 15.1491 4.65773 15.1232L32.2563 12.3236C32.6253 12.2872 32.954 12.5569 32.9902 12.926C33.0265 13.295 32.7568 13.6236 32.3878 13.6598L6.12516 16.324L30.7695 25.687C31.8099 26.0823 32.834 26.0823 33.8743 25.687L63.7046 14.3537C64.9573 13.8777 64.9573 12.1056 63.7046 11.6298H63.7049ZM4.72359 28.4856C3.4874 28.4856 2.47585 29.497 2.47585 30.7334V38.5431C2.47585 39.3455 3.13037 40 3.93277 40H5.51427C6.31681 40 6.9712 39.3456 6.9712 38.5431V30.7334C6.9712 29.497 5.95978 28.4856 4.72359 28.4856ZM30.2915 26.9461L11.1076 19.6576V32.3306C11.1076 33.3233 11.5583 34.177 12.378 34.737C16.6396 37.6472 23.9805 39.5689 32.3222 39.5689C40.6639 39.5689 48.0048 37.6472 52.2663 34.737C53.0861 34.1771 53.5368 33.3233 53.5368 32.3306V19.6576L34.3528 26.9461C33.0047 27.4583 31.6397 27.4583 30.2915 26.9461Z" fill="#00274C"/>
</svg>
