<svg width="25" height="16" viewBox="0 0 25 16" fill="none" xmlns="http://www.w3.org/2000/svg">
<path d="M24.579 16H1.00017C0.767649 16 0.579102 15.8115 0.579102 15.5789V0.421071C0.579102 0.188547 0.767649 0 1.00017 0H24.5791C24.8116 0 25.0001 0.188547 25.0001 0.421071V15.5789C25.0001 15.8115 24.8116 16 24.579 16Z" fill="#F5F5F5"/>
<path d="M25.0001 1.23083H0.579102V0.421071C0.579102 0.188547 0.767649 0 1.00017 0H24.5791C24.8116 0 25.0001 0.188547 25.0001 0.421071L25.0001 1.23083Z" fill="#FF4B55"/>
<path d="M25.0001 4.92383H0.579102V6.15461H25.0001V4.92383Z" fill="#FF4B55"/>
<path d="M25.0001 2.46094H0.579102V3.69172H25.0001V2.46094Z" fill="#FF4B55"/>
<path d="M25.0001 8.61559H1.00017C0.767649 8.61559 0.579102 8.42705 0.579102 8.19452V7.38477H25.0001V8.61559Z" fill="#FF4B55"/>
<path d="M25.0001 12.3086H0.579102V13.5394H25.0001V12.3086Z" fill="#FF4B55"/>
<path d="M24.579 16.0003H1.00017C0.767649 16.0003 0.579102 15.8118 0.579102 15.5792V14.7695H25.0001V15.5793C25.0001 15.8118 24.8116 16.0003 24.579 16.0003Z" fill="#FF4B55"/>
<path d="M25.0001 9.8457H0.579102V11.0765H25.0001V9.8457Z" fill="#FF4B55"/>
<path d="M11.5264 0H1.00017C0.767649 0 0.579102 0.188499 0.579102 0.421024V8.19425C0.579102 8.42677 0.767649 8.61532 1.00017 8.61532H11.5265C11.759 8.61532 11.9476 8.42677 11.9476 8.19425V0.421024C11.9475 0.188499 11.759 0 11.5264 0Z" fill="#41479B"/>
<path d="M1.76147 0.966599L1.85467 1.2461L2.14929 1.24835C2.18745 1.24868 2.20324 1.29733 2.17257 1.31999L1.93556 1.49504L2.02447 1.77593C2.03601 1.81227 1.99456 1.84242 1.96351 1.82019L1.72383 1.64891L1.48415 1.82024C1.4531 1.84242 1.41175 1.81232 1.4232 1.77597L1.51211 1.49508L1.2751 1.32004C1.24443 1.29733 1.26022 1.24873 1.29837 1.24839L1.593 1.24615L1.6862 0.966647C1.69822 0.930397 1.74935 0.930397 1.76147 0.966599Z" fill="#F5F5F5"/>
<path d="M1.76134 2.42945L1.85454 2.70896L2.14917 2.7112C2.18733 2.71154 2.20312 2.76019 2.17245 2.78284L1.93544 2.95789L2.02435 3.23878C2.03589 3.27513 1.99444 3.30527 1.96339 3.28304L1.72371 3.11176L1.48403 3.28309C1.45298 3.30527 1.41163 3.27517 1.42308 3.23883L1.51198 2.95794L1.27498 2.78289C1.24431 2.76019 1.26009 2.71158 1.29825 2.71125L1.59288 2.70901L1.68608 2.4295C1.6981 2.3933 1.74923 2.3933 1.76134 2.42945Z" fill="#F5F5F5"/>
<path d="M1.76134 3.89039L1.85454 4.1699L2.14917 4.17214C2.18733 4.17247 2.20312 4.22112 2.17245 4.24378L1.93544 4.41883L2.02435 4.69972C2.03589 4.73606 1.99444 4.76621 1.96339 4.74398L1.72371 4.5727L1.48403 4.74403C1.45298 4.76621 1.41163 4.73611 1.42308 4.69977L1.51198 4.41888L1.27498 4.24383C1.24431 4.22112 1.26009 4.17252 1.29825 4.17219L1.59288 4.16995L1.68608 3.89044C1.6981 3.85424 1.74923 3.85424 1.76134 3.89039Z" fill="#F5F5F5"/>
<path d="M1.76134 5.35332L1.85454 5.63282L2.14917 5.63507C2.18733 5.6354 2.20312 5.68405 2.17245 5.70671L1.93544 5.88176L2.02435 6.16264C2.03589 6.19899 1.99444 6.22913 1.96339 6.20691L1.72371 6.03563L1.48403 6.20696C1.45298 6.22913 1.41163 6.19904 1.42308 6.16269L1.51198 5.8818L1.27498 5.70675C1.24431 5.68405 1.26009 5.63545 1.29825 5.63511L1.59288 5.63287L1.68608 5.35337C1.6981 5.31712 1.74923 5.31712 1.76134 5.35332Z" fill="#F5F5F5"/>
<path d="M1.76134 6.81429L1.85454 7.0938L2.14917 7.09604C2.18733 7.09637 2.20312 7.14502 2.17245 7.16768L1.93544 7.34273L2.02435 7.62362C2.03589 7.65996 1.99444 7.69011 1.96339 7.66788L1.72371 7.4966L1.48403 7.66793C1.45298 7.69011 1.41163 7.66001 1.42308 7.62367L1.51198 7.34278L1.27498 7.16773C1.24431 7.14502 1.26009 7.09642 1.29825 7.09609L1.59288 7.09384L1.68608 6.81434C1.6981 6.77804 1.74923 6.77804 1.76134 6.81429Z" fill="#F5F5F5"/>
<path d="M2.89623 1.68337L2.98943 1.96287L3.28406 1.96511C3.32222 1.96545 3.338 2.0141 3.30734 2.03675L3.07033 2.2118L3.15924 2.49269C3.17078 2.52904 3.12933 2.55918 3.09828 2.53696L2.8586 2.36563L2.61892 2.53696C2.58787 2.55914 2.54652 2.52904 2.55796 2.49269L2.64687 2.2118L2.40986 2.03675C2.37919 2.01405 2.39498 1.96545 2.43314 1.96511L2.72777 1.96287L2.82097 1.68337C2.83294 1.64721 2.88416 1.64721 2.89623 1.68337Z" fill="#F5F5F5"/>
<path d="M2.89623 3.14629L2.98943 3.4258L3.28406 3.42804C3.32222 3.42837 3.338 3.47702 3.30734 3.49968L3.07033 3.67473L3.15924 3.95562C3.17078 3.99196 3.12933 4.02211 3.09828 3.99988L2.8586 3.82855L2.61892 3.99988C2.58787 4.02206 2.54652 3.99201 2.55796 3.95562L2.64687 3.67473L2.40986 3.49968C2.37919 3.47698 2.39498 3.42837 2.43314 3.42804L2.72777 3.4258L2.82097 3.14629C2.83294 3.11009 2.88416 3.11009 2.89623 3.14629Z" fill="#F5F5F5"/>
<path d="M2.89623 4.60723L2.98943 4.88674L3.28406 4.88898C3.32222 4.88931 3.338 4.93796 3.30734 4.96062L3.07033 5.13567L3.15924 5.41656C3.17078 5.4529 3.12933 5.48305 3.09828 5.46082L2.8586 5.28949L2.61892 5.46082C2.58787 5.483 2.54652 5.4529 2.55796 5.41656L2.64687 5.13567L2.40986 4.96062C2.37919 4.93791 2.39498 4.88931 2.43314 4.88898L2.72777 4.88674L2.82097 4.60723C2.83294 4.57103 2.88416 4.57103 2.89623 4.60723Z" fill="#F5F5F5"/>
<path d="M2.89623 6.07008L2.98943 6.34959L3.28406 6.35183C3.32222 6.35217 3.338 6.40082 3.30734 6.42347L3.07033 6.59852L3.15924 6.87941C3.17078 6.91576 3.12933 6.9459 3.09828 6.92367L2.8586 6.75235L2.61892 6.92367C2.58787 6.94585 2.54652 6.91576 2.55796 6.87941L2.64687 6.59852L2.40986 6.42347C2.37919 6.40077 2.39498 6.35217 2.43314 6.35183L2.72777 6.34959L2.82097 6.07008C2.83294 6.03393 2.88416 6.03393 2.89623 6.07008Z" fill="#F5F5F5"/>
<path d="M4.03112 0.966605L4.12432 1.24611L4.41895 1.24835C4.4571 1.24869 4.47289 1.29734 4.44222 1.31999L4.20521 1.49504L4.29412 1.77593C4.30567 1.81228 4.26422 1.84242 4.23317 1.82019L3.99349 1.64887L3.75381 1.82019C3.72276 1.84237 3.6814 1.81228 3.69285 1.77593L3.78176 1.49504L3.54475 1.31999C3.51408 1.29729 3.52987 1.24869 3.56803 1.24835L3.86265 1.24611L3.95585 0.966605C3.96787 0.930403 4.01905 0.930403 4.03112 0.966605Z" fill="#F5F5F5"/>
<path d="M4.03112 2.42946L4.12432 2.70897L4.41895 2.71121C4.4571 2.71154 4.47289 2.76019 4.44222 2.78285L4.20521 2.9579L4.29412 3.23879C4.30567 3.27513 4.26422 3.30528 4.23317 3.28305L3.99349 3.11172L3.75381 3.28305C3.72276 3.30523 3.6814 3.27513 3.69285 3.23879L3.78176 2.9579L3.54475 2.78285C3.51408 2.76014 3.52987 2.71154 3.56803 2.71121L3.86265 2.70897L3.95585 2.42946C3.96787 2.39331 4.01905 2.39331 4.03112 2.42946Z" fill="#F5F5F5"/>
<path d="M4.03112 3.8904L4.12432 4.1699L4.41895 4.17215C4.4571 4.17248 4.47289 4.22113 4.44222 4.24379L4.20521 4.41884L4.29412 4.69972C4.30567 4.73607 4.26422 4.76621 4.23317 4.74399L3.99349 4.57266L3.75381 4.74399C3.72276 4.76617 3.6814 4.73607 3.69285 4.69972L3.78176 4.41884L3.54475 4.24379C3.51408 4.22108 3.52987 4.17248 3.56803 4.17215L3.86265 4.1699L3.95585 3.8904C3.96787 3.85424 4.01905 3.85424 4.03112 3.8904Z" fill="#F5F5F5"/>
<path d="M4.03112 5.35332L4.12432 5.63283L4.41895 5.63507C4.4571 5.63541 4.47289 5.68406 4.44222 5.70671L4.20521 5.88176L4.29412 6.16265C4.30567 6.199 4.26422 6.22914 4.23317 6.20691L3.99349 6.03558L3.75381 6.20691C3.72276 6.22909 3.6814 6.199 3.69285 6.16265L3.78176 5.88176L3.54475 5.70671C3.51408 5.68401 3.52987 5.63541 3.56803 5.63507L3.86265 5.63283L3.95585 5.35332C3.96787 5.31712 4.01905 5.31712 4.03112 5.35332Z" fill="#F5F5F5"/>
<path d="M4.03112 6.8143L4.12432 7.0938L4.41895 7.09604C4.4571 7.09638 4.47289 7.14503 4.44222 7.16769L4.20521 7.34273L4.29412 7.62362C4.30567 7.65997 4.26422 7.69011 4.23317 7.66789L3.99349 7.49656L3.75381 7.66789C3.72276 7.69007 3.6814 7.65997 3.69285 7.62362L3.78176 7.34273L3.54475 7.16769C3.51408 7.14498 3.52987 7.09638 3.56803 7.09604L3.86265 7.0938L3.95585 6.8143C3.96787 6.77805 4.01905 6.77805 4.03112 6.8143Z" fill="#F5F5F5"/>
<path d="M5.16601 1.68337L5.25921 1.96287L5.55383 1.96511C5.59199 1.96545 5.60778 2.0141 5.57711 2.03675L5.3401 2.2118L5.42901 2.49269C5.44055 2.52904 5.3991 2.55918 5.36805 2.53696L5.12837 2.36563L4.8887 2.53696C4.85764 2.55914 4.81629 2.52904 4.82774 2.49269L4.91665 2.2118L4.67964 2.03675C4.64897 2.01405 4.66476 1.96545 4.70291 1.96511L4.99754 1.96287L5.09074 1.68337C5.10271 1.64721 5.15394 1.64721 5.16601 1.68337Z" fill="#F5F5F5"/>
<path d="M5.16601 3.14629L5.25921 3.4258L5.55383 3.42804C5.59199 3.42837 5.60778 3.47702 5.57711 3.49968L5.3401 3.67473L5.42901 3.95562C5.44055 3.99196 5.3991 4.02211 5.36805 3.99988L5.12837 3.82855L4.8887 3.99988C4.85764 4.02206 4.81629 3.99201 4.82774 3.95562L4.91665 3.67473L4.67964 3.49968C4.64897 3.47698 4.66476 3.42837 4.70291 3.42804L4.99754 3.4258L5.09074 3.14629C5.10271 3.11009 5.15394 3.11009 5.16601 3.14629Z" fill="#F5F5F5"/>
<path d="M5.16601 4.60723L5.25921 4.88674L5.55383 4.88898C5.59199 4.88931 5.60778 4.93796 5.57711 4.96062L5.3401 5.13567L5.42901 5.41656C5.44055 5.4529 5.3991 5.48305 5.36805 5.46082L5.12837 5.28949L4.8887 5.46082C4.85764 5.483 4.81629 5.4529 4.82774 5.41656L4.91665 5.13567L4.67964 4.96062C4.64897 4.93791 4.66476 4.88931 4.70291 4.88898L4.99754 4.88674L5.09074 4.60723C5.10271 4.57103 5.15394 4.57103 5.16601 4.60723Z" fill="#F5F5F5"/>
<path d="M5.16601 6.07008L5.25921 6.34959L5.55383 6.35183C5.59199 6.35217 5.60778 6.40082 5.57711 6.42347L5.3401 6.59852L5.42901 6.87941C5.44055 6.91576 5.3991 6.9459 5.36805 6.92367L5.12837 6.75235L4.8887 6.92367C4.85764 6.94585 4.81629 6.91576 4.82774 6.87941L4.91665 6.59852L4.67964 6.42347C4.64897 6.40077 4.66476 6.35217 4.70291 6.35183L4.99754 6.34959L5.09074 6.07008C5.10271 6.03393 5.15394 6.03393 5.16601 6.07008Z" fill="#F5F5F5"/>
<path d="M6.30082 0.966605L6.39402 1.24611L6.68865 1.24835C6.72681 1.24869 6.74259 1.29734 6.71192 1.31999L6.47492 1.49504L6.56382 1.77593C6.57537 1.81228 6.53392 1.84242 6.50287 1.82019L6.26314 1.64887L6.02346 1.82019C5.99241 1.84237 5.95106 1.81228 5.9625 1.77593L6.05141 1.49504L5.8144 1.31999C5.78373 1.29729 5.79952 1.24869 5.83768 1.24835L6.13231 1.24611L6.22551 0.966605C6.23757 0.930403 6.28875 0.930403 6.30082 0.966605Z" fill="#F5F5F5"/>
<path d="M6.30082 2.42946L6.39402 2.70897L6.68865 2.71121C6.72681 2.71154 6.74259 2.76019 6.71192 2.78285L6.47492 2.9579L6.56382 3.23879C6.57537 3.27513 6.53392 3.30528 6.50287 3.28305L6.26314 3.11172L6.02346 3.28305C5.99241 3.30523 5.95106 3.27513 5.9625 3.23879L6.05141 2.9579L5.8144 2.78285C5.78373 2.76014 5.79952 2.71154 5.83768 2.71121L6.13231 2.70897L6.22551 2.42946C6.23757 2.39331 6.28875 2.39331 6.30082 2.42946Z" fill="#F5F5F5"/>
<path d="M6.30082 3.8904L6.39402 4.1699L6.68865 4.17215C6.72681 4.17248 6.74259 4.22113 6.71192 4.24379L6.47492 4.41884L6.56382 4.69972C6.57537 4.73607 6.53392 4.76621 6.50287 4.74399L6.26314 4.57266L6.02346 4.74399C5.99241 4.76617 5.95106 4.73607 5.9625 4.69972L6.05141 4.41884L5.8144 4.24379C5.78373 4.22108 5.79952 4.17248 5.83768 4.17215L6.13231 4.1699L6.22551 3.8904C6.23757 3.85424 6.28875 3.85424 6.30082 3.8904Z" fill="#F5F5F5"/>
<path d="M6.30082 5.35332L6.39402 5.63283L6.68865 5.63507C6.72681 5.63541 6.74259 5.68406 6.71192 5.70671L6.47492 5.88176L6.56382 6.16265C6.57537 6.199 6.53392 6.22914 6.50287 6.20691L6.26314 6.03558L6.02346 6.20691C5.99241 6.22909 5.95106 6.199 5.9625 6.16265L6.05141 5.88176L5.8144 5.70671C5.78373 5.68401 5.79952 5.63541 5.83768 5.63507L6.13231 5.63283L6.22551 5.35332C6.23757 5.31712 6.28875 5.31712 6.30082 5.35332Z" fill="#F5F5F5"/>
<path d="M6.30082 6.8143L6.39402 7.0938L6.68865 7.09604C6.72681 7.09638 6.74259 7.14503 6.71192 7.16769L6.47492 7.34273L6.56382 7.62362C6.57537 7.65997 6.53392 7.69011 6.50287 7.66789L6.26314 7.49656L6.02346 7.66789C5.99241 7.69007 5.95106 7.65997 5.9625 7.62362L6.05141 7.34273L5.8144 7.16769C5.78373 7.14498 5.79952 7.09638 5.83768 7.09604L6.13231 7.0938L6.22551 6.8143C6.23757 6.77805 6.28875 6.77805 6.30082 6.8143Z" fill="#F5F5F5"/>
<path d="M7.43566 1.68337L7.52886 1.96287L7.82349 1.96511C7.86165 1.96545 7.87743 2.0141 7.84676 2.03675L7.60976 2.2118L7.69866 2.49269C7.71021 2.52904 7.66876 2.55918 7.63771 2.53696L7.39803 2.36563L7.15835 2.53696C7.1273 2.55914 7.08594 2.52904 7.09739 2.49269L7.1863 2.2118L6.94929 2.03675C6.91862 2.01405 6.93441 1.96545 6.97257 1.96511L7.26719 1.96287L7.36039 1.68337C7.37246 1.64721 7.42359 1.64721 7.43566 1.68337Z" fill="#F5F5F5"/>
<path d="M7.43566 3.14629L7.52886 3.4258L7.82349 3.42804C7.86165 3.42837 7.87743 3.47702 7.84676 3.49968L7.60976 3.67473L7.69866 3.95562C7.71021 3.99196 7.66876 4.02211 7.63771 3.99988L7.39803 3.82855L7.15835 3.99988C7.1273 4.02206 7.08594 3.99201 7.09739 3.95562L7.1863 3.67473L6.94929 3.49968C6.91862 3.47698 6.93441 3.42837 6.97257 3.42804L7.26719 3.4258L7.36039 3.14629C7.37246 3.11009 7.42359 3.11009 7.43566 3.14629Z" fill="#F5F5F5"/>
<path d="M7.43566 4.60723L7.52886 4.88674L7.82349 4.88898C7.86165 4.88931 7.87743 4.93796 7.84676 4.96062L7.60976 5.13567L7.69866 5.41656C7.71021 5.4529 7.66876 5.48305 7.63771 5.46082L7.39803 5.28949L7.15835 5.46082C7.1273 5.483 7.08594 5.4529 7.09739 5.41656L7.1863 5.13567L6.94929 4.96062C6.91862 4.93791 6.93441 4.88931 6.97257 4.88898L7.26719 4.88674L7.36039 4.60723C7.37246 4.57103 7.42359 4.57103 7.43566 4.60723Z" fill="#F5F5F5"/>
<path d="M7.43566 6.07008L7.52886 6.34959L7.82349 6.35183C7.86165 6.35217 7.87743 6.40082 7.84676 6.42347L7.60976 6.59852L7.69866 6.87941C7.71021 6.91576 7.66876 6.9459 7.63771 6.92367L7.39803 6.75235L7.15835 6.92367C7.1273 6.94585 7.08594 6.91576 7.09739 6.87941L7.1863 6.59852L6.94929 6.42347C6.91862 6.40077 6.93441 6.35217 6.97257 6.35183L7.26719 6.34959L7.36039 6.07008C7.37246 6.03393 7.42359 6.03393 7.43566 6.07008Z" fill="#F5F5F5"/>
<path d="M8.57067 0.966605L8.66387 1.24611L8.9585 1.24835C8.99665 1.24869 9.01244 1.29734 8.98177 1.31999L8.74477 1.49504L8.83367 1.77593C8.84522 1.81228 8.80377 1.84242 8.77272 1.82019L8.53304 1.64887L8.29336 1.82019C8.26231 1.84237 8.22095 1.81228 8.2324 1.77593L8.32131 1.49504L8.0843 1.31999C8.05363 1.29729 8.06942 1.24869 8.10758 1.24835L8.4022 1.24611L8.4954 0.966605C8.50738 0.930403 8.5586 0.930403 8.57067 0.966605Z" fill="#F5F5F5"/>
<path d="M8.57067 2.42946L8.66387 2.70897L8.9585 2.71121C8.99665 2.71154 9.01244 2.76019 8.98177 2.78285L8.74477 2.9579L8.83367 3.23879C8.84522 3.27513 8.80377 3.30528 8.77272 3.28305L8.53304 3.11172L8.29336 3.28305C8.26231 3.30523 8.22095 3.27513 8.2324 3.23879L8.32131 2.9579L8.0843 2.78285C8.05363 2.76014 8.06942 2.71154 8.10758 2.71121L8.4022 2.70897L8.4954 2.42946C8.50738 2.39331 8.5586 2.39331 8.57067 2.42946Z" fill="#F5F5F5"/>
<path d="M8.57067 3.8904L8.66387 4.1699L8.9585 4.17215C8.99665 4.17248 9.01244 4.22113 8.98177 4.24379L8.74477 4.41884L8.83367 4.69972C8.84522 4.73607 8.80377 4.76621 8.77272 4.74399L8.53304 4.57266L8.29336 4.74399C8.26231 4.76617 8.22095 4.73607 8.2324 4.69972L8.32131 4.41884L8.0843 4.24379C8.05363 4.22108 8.06942 4.17248 8.10758 4.17215L8.4022 4.1699L8.4954 3.8904C8.50738 3.85424 8.5586 3.85424 8.57067 3.8904Z" fill="#F5F5F5"/>
<path d="M8.57067 5.35332L8.66387 5.63283L8.9585 5.63507C8.99665 5.63541 9.01244 5.68406 8.98177 5.70671L8.74477 5.88176L8.83367 6.16265C8.84522 6.199 8.80377 6.22914 8.77272 6.20691L8.53304 6.03558L8.29336 6.20691C8.26231 6.22909 8.22095 6.199 8.2324 6.16265L8.32131 5.88176L8.0843 5.70671C8.05363 5.68401 8.06942 5.63541 8.10758 5.63507L8.4022 5.63283L8.4954 5.35332C8.50738 5.31712 8.5586 5.31712 8.57067 5.35332Z" fill="#F5F5F5"/>
<path d="M8.57067 6.8143L8.66387 7.0938L8.9585 7.09604C8.99665 7.09638 9.01244 7.14503 8.98177 7.16769L8.74477 7.34273L8.83367 7.62362C8.84522 7.65997 8.80377 7.69011 8.77272 7.66789L8.53304 7.49656L8.29336 7.66789C8.26231 7.69007 8.22095 7.65997 8.2324 7.62362L8.32131 7.34273L8.0843 7.16769C8.05363 7.14498 8.06942 7.09638 8.10758 7.09604L8.4022 7.0938L8.4954 6.8143C8.50738 6.77805 8.5586 6.77805 8.57067 6.8143Z" fill="#F5F5F5"/>
<path d="M9.70544 1.68337L9.79864 1.96287L10.0933 1.96511C10.1314 1.96545 10.1472 2.0141 10.1165 2.03675L9.87953 2.2118L9.96844 2.49269C9.97998 2.52904 9.93853 2.55918 9.90748 2.53696L9.6678 2.36563L9.42812 2.53696C9.39707 2.55914 9.35572 2.52904 9.36717 2.49269L9.45607 2.2118L9.21907 2.03675C9.1884 2.01405 9.20419 1.96545 9.24234 1.96511L9.53697 1.96287L9.63017 1.68337C9.64219 1.64721 9.69342 1.64721 9.70544 1.68337Z" fill="#F5F5F5"/>
<path d="M9.70544 3.14629L9.79864 3.4258L10.0933 3.42804C10.1314 3.42837 10.1472 3.47702 10.1165 3.49968L9.87953 3.67473L9.96844 3.95562C9.97998 3.99196 9.93853 4.02211 9.90748 3.99988L9.6678 3.82855L9.42812 3.99988C9.39707 4.02206 9.35572 3.99201 9.36717 3.95562L9.45607 3.67473L9.21907 3.49968C9.1884 3.47698 9.20419 3.42837 9.24234 3.42804L9.53697 3.4258L9.63017 3.14629C9.64219 3.11009 9.69342 3.11009 9.70544 3.14629Z" fill="#F5F5F5"/>
<path d="M9.70544 4.60723L9.79864 4.88674L10.0933 4.88898C10.1314 4.88931 10.1472 4.93796 10.1165 4.96062L9.87953 5.13567L9.96844 5.41656C9.97998 5.4529 9.93853 5.48305 9.90748 5.46082L9.6678 5.28949L9.42812 5.46082C9.39707 5.483 9.35572 5.4529 9.36717 5.41656L9.45607 5.13567L9.21907 4.96062C9.1884 4.93791 9.20419 4.88931 9.24234 4.88898L9.53697 4.88674L9.63017 4.60723C9.64219 4.57103 9.69342 4.57103 9.70544 4.60723Z" fill="#F5F5F5"/>
<path d="M9.70544 6.07008L9.79864 6.34959L10.0933 6.35183C10.1314 6.35217 10.1472 6.40082 10.1165 6.42347L9.87953 6.59852L9.96844 6.87941C9.97998 6.91576 9.93853 6.9459 9.90748 6.92367L9.6678 6.75235L9.42812 6.92367C9.39707 6.94585 9.35572 6.91576 9.36717 6.87941L9.45607 6.59852L9.21907 6.42347C9.1884 6.40077 9.20419 6.35217 9.24234 6.35183L9.53697 6.34959L9.63017 6.07008C9.64219 6.03393 9.69342 6.03393 9.70544 6.07008Z" fill="#F5F5F5"/>
<path d="M10.8403 0.966605L10.9335 1.24611L11.2282 1.24835C11.2663 1.24869 11.2821 1.29734 11.2514 1.31999L11.0144 1.49504L11.1033 1.77593C11.1149 1.81228 11.0734 1.84242 11.0424 1.82019L10.8027 1.64887L10.563 1.82019C10.532 1.84237 10.4906 1.81228 10.5021 1.77593L10.591 1.49504L10.354 1.31999C10.3233 1.29729 10.3391 1.24869 10.3772 1.24835L10.6719 1.24611L10.7651 0.966605C10.7771 0.930403 10.8282 0.930403 10.8403 0.966605Z" fill="#F5F5F5"/>
<path d="M10.8403 2.42946L10.9335 2.70897L11.2282 2.71121C11.2663 2.71154 11.2821 2.76019 11.2514 2.78285L11.0144 2.9579L11.1033 3.23879C11.1149 3.27513 11.0734 3.30528 11.0424 3.28305L10.8027 3.11172L10.563 3.28305C10.532 3.30523 10.4906 3.27513 10.5021 3.23879L10.591 2.9579L10.354 2.78285C10.3233 2.76014 10.3391 2.71154 10.3772 2.71121L10.6719 2.70897L10.7651 2.42946C10.7771 2.39331 10.8282 2.39331 10.8403 2.42946Z" fill="#F5F5F5"/>
<path d="M10.8403 3.8904L10.9335 4.1699L11.2282 4.17215C11.2663 4.17248 11.2821 4.22113 11.2514 4.24379L11.0144 4.41884L11.1033 4.69972C11.1149 4.73607 11.0734 4.76621 11.0424 4.74399L10.8027 4.57266L10.563 4.74399C10.532 4.76617 10.4906 4.73607 10.5021 4.69972L10.591 4.41884L10.354 4.24379C10.3233 4.22108 10.3391 4.17248 10.3772 4.17215L10.6719 4.1699L10.7651 3.8904C10.7771 3.85424 10.8282 3.85424 10.8403 3.8904Z" fill="#F5F5F5"/>
<path d="M10.8403 5.35332L10.9335 5.63283L11.2282 5.63507C11.2663 5.63541 11.2821 5.68406 11.2514 5.70671L11.0144 5.88176L11.1033 6.16265C11.1149 6.199 11.0734 6.22914 11.0424 6.20691L10.8027 6.03558L10.563 6.20691C10.532 6.22909 10.4906 6.199 10.5021 6.16265L10.591 5.88176L10.354 5.70671C10.3233 5.68401 10.3391 5.63541 10.3772 5.63507L10.6719 5.63283L10.7651 5.35332C10.7771 5.31712 10.8282 5.31712 10.8403 5.35332Z" fill="#F5F5F5"/>
<path d="M10.8403 6.8143L10.9335 7.0938L11.2282 7.09604C11.2663 7.09638 11.2821 7.14503 11.2514 7.16769L11.0144 7.34273L11.1033 7.62362C11.1149 7.65997 11.0734 7.69011 11.0424 7.66789L10.8027 7.49656L10.563 7.66789C10.532 7.69007 10.4906 7.65997 10.5021 7.62362L10.591 7.34273L10.354 7.16769C10.3233 7.14498 10.3391 7.09638 10.3772 7.09604L10.6719 7.0938L10.7651 6.8143C10.7771 6.77805 10.8282 6.77805 10.8403 6.8143Z" fill="#F5F5F5"/>
</svg>
