<svg width="32" height="32" viewBox="0 0 32 32" fill="none" xmlns="http://www.w3.org/2000/svg">
<g clip-path="url(#clip0_782_5065)">
<path d="M8.53316 6.93419V4.8009C8.53316 4.50638 8.29436 4.26758 7.99984 4.26758H0.533323C0.238797 4.26758 0 4.50638 0 4.8009V6.93419H8.53316Z" fill="#D3224D"/>
<path d="M0 8V25.5996H8.53316V8H0ZM6.39987 14.9332H2.13329C1.83877 14.9332 1.59997 14.6944 1.59997 14.3999V10.1333C1.59997 9.83877 1.83877 9.59997 2.13329 9.59997H6.39987C6.6944 9.59997 6.93319 9.83877 6.93319 10.1333V14.3999C6.93319 14.6944 6.6944 14.9332 6.39987 14.9332Z" fill="#D3224D"/>
<path d="M0 28.8008V31.4674C0 31.7619 0.238797 32.0007 0.533323 32.0007H7.99984C8.29436 32.0007 8.53316 31.7619 8.53316 31.4674V28.8008H0Z" fill="#D3224D"/>
<path d="M0 26.666H8.53316V27.7327H0V26.666Z" fill="#D3224D"/>
<path d="M9.59961 26.666H16.5328V27.7327H9.59961V26.666Z" fill="#D3224D"/>
<path d="M16.5328 2.13329V0.533323C16.5328 0.238797 16.294 0 15.9995 0H10.1329C9.83841 0 9.59961 0.238797 9.59961 0.533323V2.13329H16.5328Z" fill="#D3224D"/>
<path d="M9.59961 5.86719H16.5328V25.6001H9.59961V5.86719Z" fill="#D3224D"/>
<path d="M9.59961 28.8008V31.4674C9.59961 31.7619 9.83841 32.0007 10.1329 32.0007H15.9995C16.294 32.0007 16.5328 31.7619 16.5328 31.4674V28.8008H9.59961Z" fill="#D3224D"/>
<path d="M9.59961 3.20117H16.5328V4.80114H9.59961V3.20117Z" fill="#D3224D"/>
<path d="M17.5869 11.0453L17.8723 12.1408L26.9044 9.73227L26.6188 8.63672L17.5869 11.0453Z" fill="#D3224D"/>
<path d="M22.0441 28.1302L31.0759 25.7217L30.5041 23.5293L21.4717 25.9378L22.0441 28.1302Z" fill="#D3224D"/>
<path d="M30.2346 22.4968L27.174 10.7637L18.1416 13.1722L21.2022 24.9053L30.2346 22.4968Z" fill="#D3224D"/>
<path d="M17.3176 10.0128L26.3492 7.60455L25.5836 4.66737C25.5047 4.383 25.2141 4.21295 24.9276 4.28352L16.9278 6.41682C16.6453 6.49416 16.4768 6.78347 16.5489 7.06732L17.3176 10.0128Z" fill="#D3224D"/>
<path d="M31.3449 26.7539L22.3125 29.1625L22.9487 31.6007C22.9857 31.7382 23.0758 31.8554 23.1995 31.9262C23.2799 31.9749 23.3721 32.0007 23.4661 32.0007C23.5127 32.0007 23.5593 31.9952 23.6047 31.9848L31.6045 29.8515C31.887 29.7742 32.0555 29.4846 31.9834 29.2007L31.3449 26.7539Z" fill="#D3224D"/>
</g>
<defs>
<clipPath id="clip0_782_5065">
<rect width="32" height="32" fill="white"/>
</clipPath>
</defs>
</svg>
