<svg width="63" height="48" viewBox="0 0 63 48" fill="none" xmlns="http://www.w3.org/2000/svg">
<path d="M9.76339 0C9.76169 0 9.75979 0 9.7581 0C9.16387 0 8.60498 0.23164 8.18295 0.652611C7.75626 1.07824 7.52124 1.64496 7.52124 2.24828V35.9609C7.52124 37.1971 8.53094 38.2053 9.77227 38.2085C15.0054 38.221 23.773 39.3117 29.8215 45.6413V10.3601C29.8215 9.94105 29.7145 9.54737 29.5124 9.22159C24.5481 1.22695 15.0084 0.0122695 9.76339 0Z" fill="#D3224D"/>
<path d="M55.6142 35.9611V2.24828C55.6142 1.64496 55.3792 1.07824 54.9525 0.652611C54.5305 0.23164 53.9712 0 53.3776 0C53.3757 0 53.3738 0 53.3721 0C48.1273 0.012481 38.5876 1.22716 33.6231 9.2218C33.421 9.54758 33.3142 9.94126 33.3142 10.3603V45.6413C39.3627 39.3117 48.1303 38.221 53.3634 38.2085C54.6045 38.2053 55.6142 37.1971 55.6142 35.9611Z" fill="#D3224D"/>
<path d="M60.7358 7.77539H59.1057V35.9616C59.1057 39.1181 56.5339 41.6919 53.3726 41.6997C48.9338 41.7103 41.6148 42.5783 36.4314 47.4842C45.3962 45.2892 54.8467 46.7161 60.2325 47.9434C60.905 48.0966 61.6 47.9384 62.1388 47.5089C62.6757 47.0805 62.9837 46.4402 62.9837 45.7529V10.0232C62.9839 8.78382 61.9752 7.77539 60.7358 7.77539Z" fill="#D3224D"/>
<path d="M4.02816 35.9616V7.77539H2.39801C1.15878 7.77539 0.150146 8.78382 0.150146 10.0232V45.7523C0.150146 46.4398 0.458153 47.0799 0.99505 47.5083C1.53343 47.9375 2.22771 48.0964 2.90127 47.9428C8.28716 46.7152 17.7379 45.2886 26.7022 47.4835C21.519 42.5779 14.2 41.7101 9.76119 41.6995C6.6001 41.6919 4.02816 39.1181 4.02816 35.9616Z" fill="#D3224D"/>
</svg>
