<svg width="16" height="14" viewBox="0 0 16 14" fill="none" xmlns="http://www.w3.org/2000/svg">
<path d="M2.44747 0.887939C2.44704 0.887939 2.44656 0.887939 2.44612 0.887939C2.29479 0.887939 2.15246 0.946931 2.04498 1.05414C1.93632 1.16253 1.87646 1.30686 1.87646 1.46051V10.0461C1.87646 10.3609 2.1336 10.6177 2.44973 10.6185C3.78246 10.6217 6.0153 10.8994 7.55566 12.5114V3.52634C7.55566 3.41962 7.52839 3.31936 7.47695 3.2364C6.21269 1.20041 3.78321 0.891064 2.44747 0.887939Z" fill="#D3224D"/>
<path d="M14.124 10.0461V1.46051C14.124 1.30686 14.0641 1.16253 13.9554 1.05414C13.848 0.946931 13.7055 0.887939 13.5544 0.887939C13.5539 0.887939 13.5534 0.887939 13.553 0.887939C12.2173 0.891118 9.78778 1.20046 8.52348 3.23645C8.47203 3.31942 8.44482 3.41967 8.44482 3.5264V12.5114C9.98518 10.8994 12.218 10.6217 13.5507 10.6185C13.8668 10.6177 14.124 10.3609 14.124 10.0461Z" fill="#D3224D"/>
<path d="M15.4274 2.86792H15.0122V10.0461C15.0122 10.8499 14.3573 11.5054 13.5522 11.5074C12.4218 11.5101 10.5579 11.7311 9.23779 12.9805C11.5208 12.4215 13.9276 12.7849 15.2992 13.0975C15.4705 13.1365 15.6475 13.0962 15.7847 12.9868C15.9214 12.8777 15.9998 12.7147 15.9998 12.5396V3.44038C15.9999 3.12474 15.743 2.86792 15.4274 2.86792Z" fill="#D3224D"/>
<path d="M0.98761 10.0461V2.86792H0.572461C0.256869 2.86792 0 3.12474 0 3.44038V12.5395C0 12.7146 0.0784399 12.8776 0.215171 12.9867C0.352279 13.096 0.529092 13.1364 0.700626 13.0973C2.07225 12.7847 4.47905 12.4214 6.76199 12.9804C5.44198 11.731 3.57807 11.51 2.44764 11.5074C1.64261 11.5054 0.98761 10.8499 0.98761 10.0461Z" fill="#D3224D"/>
</svg>
