<svg width="65" height="40" viewBox="0 0 65 40" fill="none" xmlns="http://www.w3.org/2000/svg">
<path d="M4.22794 27.2026V16.9762L5.5747 17.4878V27.2026C5.1296 27.1176 4.67305 27.1176 4.22794 27.2026ZM63.8826 11.6298L34.0523 0.296455C33.012 -0.0988185 31.9879 -0.0988185 30.9475 0.296455L1.1172 11.6298C-0.135421 12.1058 -0.135421 13.8777 1.1172 14.3537L4.2736 15.5528C4.36141 15.3224 4.57339 15.1491 4.83547 15.1232L32.4341 12.3236C32.8031 12.2872 33.1317 12.5569 33.1679 12.926C33.2043 13.295 32.9345 13.6236 32.5655 13.6598L6.3029 16.324L30.9472 25.687C31.9876 26.0823 33.0117 26.0823 34.0521 25.687L63.8824 14.3537C65.135 13.8777 65.135 12.1056 63.8824 11.6298H63.8826ZM4.90132 28.4856C3.66513 28.4856 2.65358 29.497 2.65358 30.7334V38.5431C2.65358 39.3455 3.30811 40 4.11051 40H5.69201C6.49454 40 7.14893 39.3456 7.14893 38.5431V30.7334C7.14893 29.497 6.13751 28.4856 4.90132 28.4856ZM30.4693 26.9461L11.2854 19.6576V32.3306C11.2854 33.3233 11.736 34.177 12.5558 34.737C16.8173 37.6472 24.1582 39.5689 32.4999 39.5689C40.8416 39.5689 48.1825 37.6472 52.4441 34.737C53.2639 34.1771 53.7145 33.3233 53.7145 32.3306V19.6576L34.5306 26.9461C33.1825 27.4583 31.8174 27.4583 30.4693 26.9461Z" fill="#00274C"/>
</svg>
