<svg width="62" height="60" viewBox="0 0 62 60" fill="none" xmlns="http://www.w3.org/2000/svg">
<path d="M60.4485 51.2813H58.8585V18.9966C58.8585 16.632 56.9342 14.7083 54.569 14.7083H52.4582C52.6889 14.2254 52.8162 13.6898 52.8162 13.1333C52.8162 11.7781 52.0725 10.5421 50.8751 9.9074L39.1245 3.68282C38.686 3.45037 38.142 3.61764 37.9098 4.0563C37.6775 4.49483 37.8447 5.03869 38.2833 5.27102L50.0336 11.4955C50.6506 11.8225 51.0189 12.4347 51.0189 13.1333C51.0189 13.8318 50.6506 14.444 50.0339 14.7708L38.6113 20.8219L31.3494 12.5408C31.0221 12.1675 30.4543 12.1304 30.0812 12.4576C29.7081 12.7848 29.6708 13.3527 29.998 13.7258L36.9792 21.6867L32.6571 23.9763C31.4151 24.6332 29.9324 24.6332 28.6908 23.9765L11.3135 14.7711C10.6967 14.4441 10.3283 13.8318 10.3283 13.1334C10.3283 12.435 10.6966 11.8227 11.3133 11.4957L28.6902 2.29029C29.9321 1.6332 31.4149 1.6332 32.6563 2.29005L35.1438 3.60806C35.5823 3.8405 36.1263 3.67336 36.3586 3.23482C36.591 2.79628 36.4238 2.25231 35.9854 2.01998L33.4975 0.701733C31.7292 -0.233931 29.6177 -0.233931 27.8493 0.701853L10.4718 9.90764C9.27469 10.5422 8.53109 11.7783 8.53109 13.1334C8.53109 13.69 8.65834 14.2254 8.88911 14.7084H6.77814C4.41292 14.7084 2.48863 16.6321 2.48863 18.9967V51.2814H0.89864C0.402351 51.2814 0 51.6837 0 52.18V54.1718C0 57.3854 2.61444 60 5.8281 60H55.5189C58.7326 60 61.3472 57.3856 61.3472 54.1718V52.18C61.3472 51.6836 60.9448 51.2813 60.4485 51.2813ZM38.4038 35.6909L39.5755 37.7204C39.8177 38.1399 39.6562 38.5103 39.5755 38.65C39.4949 38.7897 39.2549 39.1148 38.7705 39.1148H38.037C37.5526 39.1148 37.3127 38.7897 37.232 38.65C37.1512 38.5102 36.9898 38.1399 37.232 37.7204L38.4038 35.6909ZM39.3024 22.4898L43.0209 20.52V24.0885C43.0209 26.6515 41.5725 28.9491 39.3024 30.0402V22.4898ZM30.6735 26.2666C31.6434 26.2666 32.6136 26.0326 33.4978 25.5648L37.5052 23.442V30.7355C32.5952 32.3619 27.163 32.1793 22.3706 30.1874C19.9137 29.1663 18.3263 26.7724 18.3263 24.0887V20.5199L27.8498 25.5649C28.7338 26.0328 29.7035 26.2666 30.6735 26.2666ZM4.28591 18.9966C4.28591 17.623 5.40394 16.5056 6.77814 16.5056H10.7486L15.2721 18.902H7.58093C7.08464 18.902 6.68229 19.3043 6.68229 19.8006V47.9867C6.68229 48.483 7.08464 48.8854 7.58093 48.8854H12.3246C12.8208 48.8854 13.2232 48.483 13.2232 47.9867C13.2232 47.4905 12.8208 47.0881 12.3246 47.0881H8.47957V20.6992H16.529V24.0885C16.529 27.5009 18.5512 30.5462 21.681 31.847C24.5384 33.0347 27.606 33.6285 30.6737 33.6285C32.9807 33.6285 35.2876 33.2924 37.5053 32.6207V33.6528L35.6757 36.8218C35.1827 37.6755 35.1827 38.6949 35.6757 39.5486C36.1686 40.4023 37.0513 40.912 38.0372 40.912H38.7706C39.7564 40.912 40.6391 40.4023 41.1321 39.5486C41.625 38.6949 41.625 37.6755 41.1321 36.8218L39.3024 33.6528V31.9929C39.4239 31.9448 39.5456 31.8972 39.6663 31.847C42.796 30.5462 44.8182 27.5009 44.8182 24.0885V20.6992H52.8676V47.0881H15.9191C15.4228 47.0881 15.0205 47.4905 15.0205 47.9867C15.0205 48.483 15.4228 48.8854 15.9191 48.8854H53.7662C54.2625 48.8854 54.6649 48.483 54.6649 47.9867V19.8006C54.6649 19.3043 54.2625 18.902 53.7662 18.902H46.075L50.5985 16.5056H54.5689C55.9431 16.5056 57.0611 17.623 57.0611 18.9966V51.2813H4.28591V18.9966ZM36.2308 53.079C35.8988 54.0454 34.9806 54.7419 33.9031 54.7419H27.4442C26.3666 54.7419 25.4485 54.0454 25.1164 53.079H36.2308ZM59.5499 54.1717C59.5499 56.3943 57.7416 58.2026 55.5189 58.2026H5.8281C3.60546 58.2026 1.79728 56.3943 1.79728 54.1717V53.0786H3.37805C3.38116 53.0786 3.38416 53.079 3.38727 53.079H23.2624C23.637 55.0467 25.3691 56.5392 27.4442 56.5392H33.9031C35.9781 56.5392 37.7102 55.0466 38.0847 53.079H57.9599C57.963 53.079 57.966 53.0786 57.9691 53.0786H59.5499V54.1717Z" fill="white"/>
</svg>
