<svg width="74" height="44" viewBox="0 0 74 44" fill="none" xmlns="http://www.w3.org/2000/svg">
<path d="M68.7778 5.70083C65.5685 1.9712 60.9672 0 55.4714 0C45.5068 0 37.4 8.10684 37.4 18.0714C37.4 27.7624 45.0675 35.6961 54.6546 36.1246C54.3856 39.5214 52.4612 42.7755 52.4403 42.8106C52.2949 43.0532 52.2912 43.3554 52.4306 43.6015C52.5699 43.8477 52.8311 44 53.1143 44C56.8504 44 61.9699 41.1568 66.1567 36.7568C70.8507 31.8239 73.5429 25.8725 73.5429 20.4286C73.5429 14.4161 71.8952 9.32344 68.7778 5.70083ZM65.0183 35.6738C61.6811 39.1809 57.6358 41.6891 54.4839 42.2901C55.215 40.7493 56.2571 38.0765 56.2571 35.3571C56.2571 34.9231 55.9055 34.5714 55.4714 34.5714C46.3733 34.5714 38.9714 27.1695 38.9714 18.0714C38.9714 8.97333 46.3733 1.57143 55.4714 1.57143C65.6491 1.57143 71.9714 8.79702 71.9714 20.4286C71.9714 25.4733 69.437 31.0299 65.0183 35.6738ZM18.0714 0C8.10684 0 0 8.10684 0 18.0714C0 27.7624 7.66747 35.6961 17.2546 36.1246C16.9854 39.5214 15.0612 42.7755 15.0403 42.8106C14.8949 43.0532 14.8912 43.3554 15.0306 43.6015C15.1701 43.8477 15.4313 44 15.7143 44C19.4504 44 24.5699 41.1568 28.7567 36.7568C33.4507 31.8239 36.1429 25.8725 36.1429 20.4286C36.1429 14.4161 34.4951 9.32344 31.3778 5.70083C28.1685 1.9712 23.5672 0 18.0714 0ZM27.6183 35.6738C24.2811 39.1809 20.2358 41.6891 17.0838 42.2901C17.815 40.7493 18.8571 38.0765 18.8571 35.3571C18.8571 34.9231 18.5053 34.5714 18.0714 34.5714C8.97333 34.5714 1.57143 27.1695 1.57143 18.0714C1.57143 8.97333 8.97333 1.57143 18.0714 1.57143C28.2489 1.57143 34.5714 8.79702 34.5714 20.4286C34.5714 25.4733 32.0372 31.0299 27.6183 35.6738Z" fill="#506172"/>
</svg>
