<svg width="46" height="32" viewBox="0 0 46 32" fill="none" xmlns="http://www.w3.org/2000/svg">
<path d="M10.1378 20.0902C10.2291 21.0773 10.1593 23.7605 7.58879 27.4918C7.39435 27.7734 7.42963 28.1531 7.6711 28.3945C8.71908 29.4425 9.36792 30.1038 9.82303 30.5666C10.4214 31.1767 10.6946 31.4548 11.0945 31.8173C11.3615 32.0573 11.7654 32.0615 12.0352 31.8262C16.5156 27.9276 21.492 19.8716 20.7719 10.0019C20.3499 4.20649 16.1227 0 10.7209 0C5.1774 0 0.667267 4.50944 0.667267 10.0531C0.667267 15.4009 4.86466 19.7865 10.1378 20.0902ZM10.7209 1.41668C15.3598 1.41668 18.992 5.07045 19.3593 10.1042C20.1694 21.2046 13.5709 28.4153 11.5773 30.3245C11.3829 30.1329 11.1609 29.9074 10.8337 29.574C10.4394 29.1728 9.89981 28.6235 9.08359 27.8045C12.204 22.9969 11.6153 19.5714 11.3574 19.0802C11.2349 18.8471 10.9838 18.6901 10.7209 18.6901C5.95834 18.6901 2.08394 14.8157 2.08394 10.0531C2.08394 5.2911 5.95834 1.41668 10.7209 1.41668Z" fill="white"/>
<path d="M35.2949 20.0904C35.3869 21.0747 35.3191 23.7559 32.7458 27.492C32.5521 27.7735 32.5868 28.1533 32.8282 28.3947C33.8741 29.4406 34.5222 30.1012 34.9767 30.564C35.5771 31.1755 35.8511 31.4543 36.2508 31.8175C36.5179 32.0575 36.9218 32.0609 37.1916 31.8271C41.672 27.9285 46.649 19.8738 45.9303 10.002C45.507 4.20737 41.2791 0.000177383 35.8773 0.000177383C30.3337 0.000177383 25.8236 4.50962 25.8236 10.0532C25.8236 15.4017 30.0211 19.7881 35.2949 20.0904ZM35.8773 1.41686C40.5154 1.41686 44.1498 5.07063 44.5178 10.1051C45.3257 21.2082 38.7273 28.4162 36.7337 30.3246C36.5386 30.133 36.3159 29.9062 35.988 29.572C35.5944 29.1708 35.0555 28.6223 34.2406 27.8046C37.3611 22.9964 36.7724 19.5716 36.5144 19.0811C36.3919 18.848 36.1402 18.6903 35.8773 18.6903C31.1147 18.6903 27.2403 14.8159 27.2403 10.0532C27.2403 5.29128 31.1147 1.41686 35.8773 1.41686Z" fill="white"/>
</svg>
