<svg width="64" height="48" viewBox="0 0 64 48" fill="none" xmlns="http://www.w3.org/2000/svg">
<path d="M62.0317 12.4837L32.8471 0.145758C32.6225 0.0495873 32.3807 0 32.1364 0C31.8921 0 31.6503 0.0495873 31.4257 0.145758L2.09669 12.4393C1.76654 12.5848 1.48568 12.823 1.28813 13.1249C1.09057 13.4268 0.984812 13.7796 0.983652 14.1404C0.982492 14.5012 1.08598 14.8546 1.28159 15.1578C1.4772 15.4609 1.75652 15.7009 2.08573 15.8486C3.81926 16.5913 13.9659 20.8486 15.3895 21.4678L31.4257 28.2309C31.8827 28.4133 32.393 28.4093 32.8471 28.2198C37.9991 26.0459 51.2974 20.4245 56.2459 18.325C56.2338 19.6998 56.2546 31.2919 56.2459 32.9729C54.0401 33.5292 53.1445 37.2895 54.3803 39.3251L52.7477 46.6545C52.696 46.8744 52.7141 47.105 52.7998 47.314C52.8854 47.5231 53.0341 47.7002 53.2253 47.8206C53.415 47.9448 53.6386 48.0073 53.8653 47.9993C54.092 47.9914 54.3107 47.9134 54.4913 47.7762C55.2808 47.193 56.2308 46.8673 57.212 46.8433C58.2561 46.8279 59.2757 47.1599 60.1105 47.7873C60.2984 47.9194 60.5224 47.9907 60.7521 47.9915C60.9818 47.9923 61.2063 47.9226 61.3951 47.7919C61.584 47.6611 61.7282 47.4755 61.8083 47.2602C61.8884 47.0449 61.9005 46.8102 61.8429 46.5878L59.7662 39.2918C60.835 37.4596 60.2538 34.1691 58.4668 33.2506C58.4769 31.5551 58.4598 18.7265 58.4669 17.3922L62.0317 15.8819C62.3599 15.7354 62.6386 15.4969 62.8342 15.1954C63.0297 14.8939 63.1338 14.5422 63.1338 14.1828C63.1338 13.8234 63.0297 13.4717 62.8342 13.1702C62.6386 12.8687 62.3599 12.6302 62.0317 12.4837Z" fill="#D3224D"/>
<path d="M30.5599 30.2736C29.2224 29.7092 13.993 23.2725 13.169 22.933V33.7495C13.1766 34.3302 13.3251 34.9004 13.6017 35.4111C13.8783 35.9218 14.2748 36.3577 14.7571 36.6813C19.6394 40.0005 25.3693 41.8539 31.2706 42.0229C37.7372 42.1513 44.0884 40.299 49.4721 36.7145C49.9664 36.3893 50.3737 35.9481 50.6582 35.4293C50.9428 34.9106 51.096 34.33 51.1046 33.7384V22.9219C50.3343 23.2561 35.0206 29.7209 33.7137 30.2736C32.7037 30.6898 31.5699 30.6898 30.5599 30.2736Z" fill="#D3224D"/>
</svg>
