<svg width="73" height="80" viewBox="0 0 73 80" fill="none" xmlns="http://www.w3.org/2000/svg">
<path d="M72.4863 54.5801L60.4536 35.7181C60.0236 35.046 59.3445 34.5718 58.5654 34.3995C57.7862 34.2273 56.9706 34.371 56.2973 34.7992L50.3894 38.5676C49.8434 38.9171 49.4245 39.4333 49.1951 40.0396C48.9656 40.646 48.9377 41.3102 49.1156 41.9336C48.893 41.9336 48.666 41.9301 48.4302 41.9174C47.1426 41.847 46.3378 41.4528 45.486 41.0356C43.2848 39.9574 41.442 39.4324 36.7982 41.9293C35.0329 39.7106 32.1683 40.4202 29.6058 41.0567C27.687 41.5333 25.7145 42.0222 23.9026 41.606C24.1324 40.9639 24.1375 40.2628 23.9173 39.6174C23.697 38.9719 23.2643 38.4203 22.69 38.0526L16.7821 34.2839C16.1087 33.8555 15.2929 33.7117 14.5135 33.884C13.7342 34.0563 13.055 34.5306 12.625 35.2029L0.592275 54.0648C0.163776 54.7382 0.0198754 55.554 0.19214 56.3334C0.364404 57.1127 0.838766 57.7919 1.51116 58.222L7.41851 61.9903C7.90039 62.2986 8.46057 62.4623 9.03264 62.4619C9.74199 62.4618 10.4287 62.2123 10.9728 61.7571C10.4068 62.7165 10.0422 63.7989 10.1489 65.0391C10.2795 66.5543 10.8291 67.6779 11.7846 68.3787C12.6216 68.9928 13.7319 69.2405 15.0974 69.121C15.2981 70.3095 15.7755 71.2645 16.5238 71.9702C17.3971 72.7933 18.6096 73.2444 20.1375 73.3159C20.4387 74.3607 20.9881 75.1631 21.7774 75.7092C22.8189 76.4297 24.1838 76.6564 25.9289 76.3942C26.714 78.2519 28.2448 79.222 30.4157 79.2218C30.4936 79.2218 30.5728 79.2205 30.6523 79.2181C31.8217 79.1812 32.9603 78.3611 33.834 77.5102C36.2471 79.1603 38.349 79.9921 40.1089 79.9921C40.6464 79.9961 41.1809 79.9102 41.6901 79.738C42.997 79.2873 43.9898 78.2848 44.6537 76.7512C46.1291 77.2046 47.423 77.1627 48.5081 76.6232C49.6887 76.0365 50.566 74.8871 51.1239 73.2C52.5419 73.3326 53.7076 73.0594 54.5991 72.3838C55.4412 71.7457 56.0009 70.7777 56.2702 69.4977C58.2772 69.6967 59.9707 69.1795 61.3181 67.9555C61.3862 67.8937 61.4466 67.8238 61.4977 67.7474C62.4992 66.2524 62.8581 64.7922 62.5666 63.4072C62.4884 63.0425 62.3671 62.6884 62.2051 62.3524C62.7331 62.7573 63.3798 62.9769 64.0452 62.9772C64.6175 62.9775 65.178 62.8136 65.6601 62.505L71.5674 58.7365C72.2396 58.3065 72.7139 57.6274 72.8861 56.8483C73.0584 56.0691 72.9146 55.2534 72.4863 54.5801ZM44.4887 43.0713C45.411 43.523 46.5589 44.0853 48.3065 44.1807C48.9947 44.2215 49.685 44.2064 50.3708 44.1356L59.9265 59.1158C59.8033 59.261 59.6525 59.3804 59.4829 59.4672C59.4081 59.4176 59.3341 59.3677 59.2562 59.3188C58.4314 58.8053 57.1877 57.9193 55.7478 56.8935C48.1463 51.478 42.5779 47.8028 40.1502 49.8508C32.6735 56.158 30.0835 55.4229 29.8124 55.3181C29.6297 55.2475 29.4527 55.1229 29.3956 54.6943C29.1599 52.9268 31.3741 48.5686 37.0304 44.3944C41.6992 41.7056 42.8705 42.2789 44.4887 43.0713ZM9.19815 60.1759C9.10309 60.1974 9.00471 60.1998 8.90868 60.1832C8.81265 60.1665 8.72087 60.131 8.63862 60.0787L2.73127 56.3105C2.56723 56.2027 2.45174 56.0351 2.4094 55.8434C2.36705 55.6518 2.40119 55.4511 2.50455 55.2842L14.5372 36.4222C14.6059 36.3171 14.6998 36.2309 14.8104 36.1715C14.921 36.1121 15.0447 36.0814 15.1703 36.0822C15.3095 36.0816 15.446 36.1209 15.5636 36.1955L21.4708 39.964C21.6358 40.0711 21.7521 40.2387 21.7945 40.4307C21.8369 40.6227 21.8021 40.8237 21.6976 40.9903L9.66488 59.8523C9.61235 59.9344 9.54404 60.0053 9.46393 60.0608C9.38381 60.1164 9.29348 60.1555 9.19815 60.1759ZM12.2858 59.9593L12.3066 59.9789C12.2658 60.0251 12.2249 60.0717 12.1841 60.1185L12.2858 59.9593ZM13.1272 66.5506C12.7223 66.2536 12.4805 65.6798 12.4088 64.8448C12.2758 63.3014 13.4938 62.0076 14.7824 60.6379C15.0415 60.3626 15.3087 60.0784 15.5607 59.7958C15.7956 59.5248 16.1008 59.324 16.4426 59.2158C16.7845 59.1075 17.1496 59.0959 17.4976 59.1823C17.8962 59.2807 18.2642 59.4763 18.5689 59.7515C18.8736 60.0267 19.1054 60.373 19.2437 60.7595C18.8844 61.8491 17.9482 63.8707 15.5133 66.7794C14.4221 66.9747 13.6008 66.8983 13.1272 66.5506ZM17.273 68.2091C20.0473 64.8866 21.0788 62.5095 21.4582 61.276C22.4299 60.2831 24.1402 59.8359 25.3181 60.3006C26.144 60.6264 26.5675 61.3466 26.5812 62.441L20.4676 71.0582C19.3879 71.0437 18.5859 70.7964 18.0813 70.3204C17.6081 69.8752 17.3376 69.1659 17.2728 68.2091H17.273ZM23.0688 73.8449C22.6692 73.5684 22.4038 73.1082 22.259 72.4505L28.3656 63.8432C29.7127 63.6276 30.7603 63.837 31.2741 64.4381C31.8277 65.0859 31.8449 66.2633 31.3295 67.6842C29.8072 69.5311 28.6017 70.995 27.7129 72.0759C26.9505 73.0021 26.3723 73.7046 26.0734 74.0664C24.7112 74.3398 23.6764 74.2651 23.0686 73.8447L23.0688 73.8449ZM30.5823 76.9521C29.176 76.9967 28.3832 76.5251 27.9536 75.3502C28.2308 75.0143 28.6913 74.4549 29.4636 73.5167C30.2853 72.5183 31.3769 71.1926 32.7383 69.5398C33.6849 69.8336 34.6294 70.3159 34.831 71.0909C34.9767 71.6503 34.4988 73.0897 33.3272 74.6556C32.1587 76.2166 31.0186 76.9382 30.5821 76.952L30.5823 76.9521ZM59.6931 66.3666C58.6981 67.2112 57.4053 67.4601 55.7523 67.1278L44.4184 59.4677C44.2951 59.3843 44.1565 59.3261 44.0107 59.2963C43.8648 59.2664 43.7145 59.2657 43.5683 59.2939C43.4222 59.3222 43.283 59.379 43.1588 59.4611C43.0346 59.5431 42.9277 59.6489 42.8444 59.7722C42.676 60.0213 42.6136 60.3271 42.6707 60.6223C42.7278 60.9175 42.8998 61.1779 43.1489 61.3463L54.1045 68.7502C53.9691 69.6258 53.6763 70.2389 53.23 70.5766C52.7045 70.975 51.8622 71.0652 50.732 70.8534L41.9973 65.1543L40.7584 67.0531L48.9934 72.4257C48.6362 73.5488 48.1351 74.2771 47.5006 74.5927C46.7961 74.9427 45.7979 74.8394 44.5334 74.2884L39.3773 70.6231C39.1323 70.4489 38.8281 70.3791 38.5316 70.4292C38.2351 70.4793 37.9707 70.6451 37.7965 70.8902C37.6223 71.1353 37.5526 71.4395 37.6027 71.736C37.6528 72.0324 37.8186 72.2968 38.0636 72.4711L42.6289 75.7168C42.2226 76.7199 41.6603 77.3504 40.952 77.5946C39.682 78.0318 37.743 77.4017 35.3162 75.7749C36.0166 74.7895 37.5127 72.3948 37.0251 70.5201C36.6672 69.1435 35.5698 68.1275 33.7576 67.4892C34.2075 65.6573 33.9494 64.0788 32.9978 62.9651C32.0685 61.8776 30.5949 61.379 28.769 61.5131C28.5045 59.938 27.5905 58.76 26.1495 58.1914C24.4652 57.5274 22.3868 57.8416 20.8007 58.8926C20.1404 57.9258 19.1427 57.2407 18.0032 56.9717C17.2593 56.7944 16.481 56.8233 15.7522 57.0552C15.0234 57.2872 14.3717 57.7135 13.8671 58.2882C13.86 58.2963 13.852 58.3044 13.8447 58.3127C13.738 58.2105 13.6372 58.1024 13.5427 57.9888L22.7073 43.6223C25.2771 44.4658 27.9544 43.8022 30.1523 43.2563C32.7333 42.6151 34.0566 42.3971 34.8762 43.1871C29.8769 47.1135 26.7328 51.8717 27.149 54.9931C27.3055 56.166 27.9614 57.0321 28.996 57.432C31.5464 58.4178 35.9089 56.3946 41.6117 51.5834C41.6192 51.5781 42.4701 51.1105 46.3853 53.3648C49.0045 54.8726 52.0142 57.0169 54.4326 58.7399C55.9034 59.7877 57.1736 60.6926 58.0508 61.2387C59.3846 62.0836 60.1578 62.9716 60.3487 63.8757C60.5058 64.6187 60.2912 65.4348 59.693 66.3665L59.6931 66.3666ZM70.3483 56.826L64.4409 60.594C64.2741 60.6975 64.0734 60.7316 63.8816 60.6893C63.6899 60.6469 63.5223 60.5314 63.4145 60.3673L51.3818 41.5055C51.2773 41.3389 51.2425 41.1378 51.2849 40.9458C51.3273 40.7537 51.4436 40.5861 51.6086 40.479L57.5158 36.7107C57.6826 36.6072 57.8833 36.573 58.0751 36.6154C58.2668 36.6577 58.4344 36.7733 58.5422 36.9374L70.5749 55.7992C70.6783 55.9662 70.7124 56.1669 70.6701 56.3586C70.6278 56.5503 70.5122 56.718 70.3481 56.8258L70.3483 56.826ZM19.5343 42.2266L19.354 42.5053C19.2738 42.6316 19.1694 42.7408 19.0467 42.8266C18.9241 42.9124 18.7857 42.973 18.6395 43.005C18.4934 43.0371 18.3423 43.0398 18.195 43.0131C18.0478 42.9865 17.9073 42.9309 17.7816 42.8497C17.6559 42.7685 17.5476 42.6631 17.4628 42.5398C17.378 42.4165 17.3185 42.2776 17.2877 42.1312C17.2569 41.9847 17.2553 41.8336 17.2832 41.6866C17.3111 41.5396 17.3678 41.3995 17.45 41.2745L17.6301 40.9958C17.7109 40.8708 17.8156 40.7629 17.9381 40.6783C18.0606 40.5937 18.1986 40.5341 18.3441 40.5028C18.4897 40.4716 18.6399 40.4693 18.7864 40.4961C18.9328 40.5229 19.0726 40.5783 19.1976 40.6591C19.3226 40.7399 19.4305 40.8446 19.5151 40.9671C19.5997 41.0896 19.6593 41.2276 19.6906 41.3731C19.7218 41.5187 19.7241 41.669 19.6973 41.8154C19.6705 41.9618 19.6151 42.1016 19.5343 42.2266ZM55.339 41.275C55.4198 41.4 55.4752 41.5398 55.502 41.6863C55.5289 41.8327 55.5266 41.983 55.4953 42.1286C55.464 42.2742 55.4043 42.4121 55.3197 42.5347C55.2351 42.6572 55.1272 42.7618 55.0022 42.8427C54.8771 42.9235 54.7374 42.9789 54.5909 43.0057C54.4445 43.0325 54.2942 43.0302 54.1486 42.9989C54.003 42.9676 53.865 42.908 53.7425 42.8234C53.62 42.7388 53.5153 42.6309 53.4345 42.5058L53.2544 42.2271C53.1736 42.102 53.1182 41.9623 53.0914 41.8158C53.0646 41.6694 53.0669 41.5191 53.0982 41.3735C53.1295 41.2279 53.1891 41.0899 53.2737 40.9674C53.3583 40.8449 53.4662 40.7403 53.5913 40.6594C53.7163 40.5786 53.8561 40.5232 54.0025 40.4964C54.149 40.4696 54.2993 40.4719 54.4449 40.5032C54.5904 40.5345 54.7284 40.5941 54.851 40.6787C54.9735 40.7633 55.0781 40.8712 55.1589 40.9963L55.339 41.275ZM51.7483 17.9013C52.8803 17.9014 53.9868 17.5657 54.9279 16.9369C55.8691 16.3081 56.6027 15.4142 57.0359 14.3685C57.469 13.3227 57.5824 12.172 57.3616 11.0619C57.1408 9.95168 56.5957 8.93191 55.7954 8.13151C54.995 7.33111 53.9752 6.78603 52.8651 6.56519C51.7549 6.34435 50.6042 6.45768 49.5584 6.89084C48.5127 7.324 47.6188 8.05754 46.99 8.99869C46.3611 9.93985 46.0254 11.0463 46.0254 12.1783C46.0272 13.6955 46.6307 15.1502 47.7036 16.2231C48.7764 17.296 50.2311 17.8995 51.7483 17.9013ZM51.7483 8.72264C52.4318 8.7226 53.1 8.92526 53.6683 9.30497C54.2367 9.68469 54.6796 10.2244 54.9412 10.8559C55.2028 11.4873 55.2712 12.1822 55.1379 12.8526C55.0046 13.523 54.6754 14.1387 54.1921 14.622C53.7088 15.1054 53.093 15.4345 52.4226 15.5678C51.7523 15.7012 51.0574 15.6327 50.4259 15.3711C49.7945 15.1096 49.2548 14.6666 48.875 14.0983C48.4953 13.5299 48.2927 12.8618 48.2927 12.1783C48.2937 11.262 48.6581 10.3836 49.3059 9.73574C49.9537 9.08785 50.8321 8.72338 51.7483 8.72231V8.72264ZM23.8907 17.9013C25.0226 17.9013 26.1291 17.5657 27.0702 16.9368C28.0114 16.308 28.7449 15.4141 29.1781 14.3684C29.6112 13.3226 29.7246 12.1719 29.5037 11.0618C29.2829 9.95159 28.7378 8.93184 27.9375 8.13146C27.1371 7.33107 26.1173 6.78601 25.0072 6.56518C23.897 6.34435 22.7463 6.45769 21.7005 6.89085C20.6548 7.32402 19.761 8.05756 19.1321 8.99871C18.5033 9.93986 18.1676 11.0464 18.1676 12.1783C18.1693 13.6956 18.7728 15.1503 19.8457 16.2232C20.9186 17.2961 22.3733 17.8996 23.8907 17.9013ZM23.8907 8.72264C24.5742 8.72264 25.2423 8.92532 25.8106 9.30505C26.3789 9.68479 26.8218 10.2245 27.0834 10.856C27.345 11.4875 27.4134 12.1823 27.28 12.8527C27.1467 13.523 26.8175 14.1388 26.3342 14.6221C25.8509 15.1054 25.2351 15.4345 24.5647 15.5678C23.8944 15.7012 23.1995 15.6327 22.5681 15.3711C21.9366 15.1095 21.3969 14.6666 21.0172 14.0982C20.6375 13.5299 20.4348 12.8618 20.4349 12.1783C20.4358 11.262 20.8002 10.3835 21.4481 9.73564C22.0959 9.08773 22.9744 8.7233 23.8907 8.72231V8.72264ZM18.5841 30.2775H29.0739C29.3188 30.2773 29.5621 30.2387 29.7951 30.1633C30.0866 30.2642 30.3927 30.316 30.7012 30.3165H44.9375C45.2457 30.316 45.5518 30.2643 45.8431 30.1635C46.0762 30.2387 46.3197 30.2769 46.5647 30.2768H57.0545C57.681 30.2762 58.2816 30.027 58.7246 29.584C59.1676 29.1411 59.4168 28.5405 59.4175 27.914V22.6734C59.4161 21.4809 58.9418 20.3376 58.0986 19.4944C57.2554 18.6512 56.1121 18.1769 54.9196 18.1755H48.6998C48.2482 18.1771 47.7995 18.2472 47.369 18.3834C46.9582 17.3022 46.2287 16.3712 45.2771 15.7139C44.3254 15.0565 43.1965 14.7038 42.0399 14.7024H38.1856C40.0956 14.5856 41.8851 13.7296 43.1748 12.316C44.4645 10.9023 45.1531 9.04203 45.0947 7.12934C45.0363 5.21665 44.2354 3.40186 42.8618 2.06957C41.4882 0.737282 39.6498 -0.0078125 37.7362 -0.0078125C35.8226 -0.0078125 33.9842 0.737282 32.6106 2.06957C31.237 3.40186 30.4361 5.21665 30.3776 7.12934C30.3192 9.04203 31.0078 10.9023 32.2975 12.316C33.5873 13.7296 35.3767 14.5856 37.2868 14.7024H33.5989C32.4429 14.7037 31.3145 15.0561 30.3631 15.7128C29.4117 16.3695 28.6821 17.2996 28.2708 18.38C27.8397 18.2448 27.3905 18.1759 26.9387 18.1755H20.7192C19.5267 18.1769 18.3835 18.6512 17.5402 19.4944C16.697 20.3376 16.2227 21.4809 16.2213 22.6734V27.9142C16.2219 28.5407 16.471 29.1414 16.914 29.5845C17.3569 30.0276 17.9576 30.2768 18.5841 30.2775ZM32.6411 7.3558C32.6411 6.34812 32.9399 5.36306 33.4997 4.52519C34.0595 3.68732 34.8552 3.03427 35.7862 2.64863C36.7172 2.263 37.7416 2.16209 38.7299 2.35867C39.7182 2.55525 40.6261 3.04049 41.3386 3.75303C42.0512 4.46557 42.5364 5.3734 42.733 6.36172C42.9296 7.35004 42.8287 8.37446 42.443 9.30543C42.0574 10.2364 41.4043 11.0321 40.5665 11.5919C39.7286 12.1517 38.7435 12.4505 37.7358 12.4505C36.3851 12.4487 35.0903 11.9113 34.1352 10.9561C33.1802 10.001 32.6429 8.70603 32.6413 7.35532L32.6411 7.3558ZM54.9196 20.4432C55.511 20.4439 56.078 20.6792 56.4961 21.0973C56.9143 21.5155 57.1496 22.0825 57.1502 22.6739V27.9147C57.1493 27.9397 57.1389 27.9635 57.1211 27.9812C57.1034 27.9989 57.0796 28.0093 57.0545 28.0102H47.6928C47.7231 27.8468 47.7387 27.6809 47.7395 27.5147V20.6643C48.0387 20.5187 48.3671 20.4432 48.6998 20.4436L54.9196 20.4432ZM30.1664 20.4024C30.1675 19.4924 30.5294 18.62 31.1729 17.9766C31.8163 17.3331 32.6888 16.9712 33.5987 16.9701H42.0398C42.9497 16.9712 43.8222 17.3331 44.4656 17.9766C45.1091 18.62 45.471 19.4924 45.4721 20.4024V27.5147C45.4702 27.6558 45.4133 27.7907 45.3134 27.8905C45.2136 27.9903 45.0788 28.0472 44.9376 28.0491H30.7013C30.5602 28.0472 30.4254 27.9903 30.3255 27.8905C30.2257 27.7907 30.1688 27.6558 30.1669 27.5147L30.1664 20.4024ZM18.4884 22.6739C18.4891 22.0825 18.7243 21.5155 19.1425 21.0973C19.5607 20.6791 20.1277 20.4439 20.7191 20.4432H26.9388C27.2716 20.4431 27.6 20.5188 27.8992 20.6645V27.5148C27.8999 27.6811 27.9155 27.8469 27.9458 28.0104H18.5841C18.5591 28.0095 18.5353 27.9991 18.5176 27.9814C18.4999 27.9637 18.4895 27.9399 18.4886 27.9148L18.4884 22.6739Z" fill="white"/>
</svg>
