<svg width="77" height="80" viewBox="0 0 77 80" fill="none" xmlns="http://www.w3.org/2000/svg">
<path d="M23.896 63.6163L23.8828 63.6296C23.4237 64.0858 23.4217 64.8279 23.8781 65.2868C24.1071 65.5171 24.4081 65.6324 24.709 65.6324C25.0078 65.6324 25.3067 65.5188 25.5353 65.2915L25.5485 65.2782C26.0076 64.8219 26.0096 64.0799 25.5532 63.621C25.0971 63.1621 24.3551 63.1599 23.896 63.6163Z" fill="white"/>
<path d="M33.462 59.8667L33.4487 59.88C32.9911 60.3376 32.9911 61.0796 33.4487 61.5371C33.6775 61.7659 33.9775 61.8804 34.2773 61.8804C34.5771 61.8804 34.8771 61.7661 35.1059 61.5371L35.1192 61.5239C35.5768 61.0662 35.5768 60.3242 35.1192 59.8667C34.6617 59.409 33.9196 59.409 33.462 59.8667Z" fill="white"/>
<path d="M34.9178 40.4353C34.9178 38.0845 33.0053 36.1719 30.6544 36.1719C28.3011 36.1719 26.3867 38.0844 26.3867 40.4353C26.3867 42.7886 28.3013 44.7031 30.6544 44.7031C33.0053 44.7031 34.9178 42.7886 34.9178 40.4353ZM28.7305 40.4353C28.7305 39.3769 29.5936 38.5156 30.6544 38.5156C31.7128 38.5156 32.5741 39.3767 32.5741 40.4353C32.5741 41.4962 31.713 42.3594 30.6544 42.3594C29.5936 42.3594 28.7305 41.4962 28.7305 40.4353Z" fill="white"/>
<path d="M42.8079 61.4414C39.5462 61.4414 36.8926 64.095 36.8926 67.3569C36.8926 70.6211 39.5462 73.2767 42.8079 73.2767C46.0721 73.2767 48.7276 70.6211 48.7276 67.3569C48.7276 64.0952 46.0721 61.4414 42.8079 61.4414ZM42.8079 70.9331C40.8385 70.9331 39.2363 69.3289 39.2363 67.357C39.2363 65.3877 40.8385 63.7853 42.8079 63.7853C44.7798 63.7853 46.3838 65.3877 46.3838 67.357C46.3838 69.3289 44.7798 70.9331 42.8079 70.9331Z" fill="white"/>
<path d="M16.0615 65.959C13.823 65.959 12.002 67.7782 12.002 70.0143C12.002 72.2529 13.823 74.074 16.0615 74.074C18.2999 74.074 20.121 72.2529 20.121 70.0143C20.121 67.778 18.2999 65.959 16.0615 65.959ZM16.0615 71.7301C15.1154 71.7301 14.3457 70.9604 14.3457 70.0141C14.3457 69.0704 15.1154 68.3026 16.0615 68.3026C17.0076 68.3026 17.7773 69.0704 17.7773 70.0141C17.7773 70.9604 17.0076 71.7301 16.0615 71.7301Z" fill="white"/>
<path d="M61.5596 60.4995L61.5464 60.5128C61.0887 60.9704 61.0887 61.7125 61.5464 62.17C61.7751 62.3987 62.0751 62.5132 62.375 62.5132C62.6748 62.5132 62.9748 62.3989 63.2036 62.17L63.2168 62.1567C63.6745 61.699 63.6745 60.957 63.2168 60.4995C62.7593 60.0418 62.0173 60.0418 61.5596 60.4995Z" fill="white"/>
<path d="M64.0601 69.4483L64.0468 69.4616C63.5878 69.9179 63.5857 70.6599 64.0421 71.1188C64.2712 71.3491 64.5721 71.4644 64.8731 71.4644C65.1718 71.4644 65.4707 71.3508 65.6993 71.1235L65.7126 71.1102C66.1717 70.654 66.1737 69.9119 65.7173 69.453C65.261 68.9941 64.519 68.9919 64.0601 69.4483Z" fill="white"/>
<path d="M64.1876 55.3083C66.3552 55.3083 68.1188 53.5447 68.1188 51.377C68.1188 49.2069 66.3552 47.4414 64.1876 47.4414C62.0174 47.4414 60.252 49.2069 60.252 51.377C60.252 53.5447 62.0174 55.3083 64.1876 55.3083ZM64.1876 49.7852C65.0629 49.7852 65.7751 50.4992 65.7751 51.377C65.7751 52.2523 65.0629 52.9645 64.1876 52.9645C63.3099 52.9645 62.5957 52.2523 62.5957 51.377C62.5957 50.4992 63.3098 49.7852 64.1876 49.7852Z" fill="white"/>
<path d="M72.2162 5.66047H56.1565C53.7153 5.66047 51.7293 7.75984 51.7293 10.3402C51.7293 12.61 53.2692 14.5064 55.3036 14.9275V53.6525L43.0226 37.4813C41.4484 35.4111 39.8153 31.1731 39.807 27.6641L39.7612 9.33203C42.1257 9.09937 43.9792 7.09984 43.9792 4.67516C43.9793 2.09734 41.88 0 39.2997 0H22.0043C19.4239 0 17.3247 2.09734 17.3247 4.67531C17.3247 7.09984 19.1782 9.09953 21.5426 9.33219V27.6641C21.5345 31.1697 19.8573 35.4092 18.2851 37.4819L14.3698 42.6375C13.9784 43.153 14.079 43.8881 14.5943 44.2795C14.8062 44.4405 15.0553 44.5183 15.3023 44.5183C15.6562 44.5183 16.0059 44.3586 16.2364 44.0552L20.1522 38.8989C21.8714 36.6323 23.6989 32.143 23.8323 28.1038H27.8107C28.4579 28.1038 28.9826 27.5791 28.9826 26.9319C28.9826 26.2847 28.4579 25.76 27.8107 25.76H23.8453L23.8551 21.8542H27.8109C28.4581 21.8542 28.9828 21.3295 28.9828 20.6823C28.9828 20.0352 28.4581 19.5105 27.8109 19.5105H23.8611L23.8709 15.6047H27.8109C28.4581 15.6047 28.9828 15.08 28.9828 14.4328C28.9828 13.7856 28.4581 13.2609 27.8109 13.2609H23.8767L23.8865 9.35516H37.4178V27.6689C37.4275 31.8209 39.3739 36.5548 41.1568 38.8994L49.4251 49.787C46.6328 48.8903 43.8928 48.7411 41.0312 49.3084C38.0422 49.9008 35.2148 51.1952 32.1567 52.785C25.9989 48.3614 16.8368 49.3255 10.7172 51.3881L13.0082 48.405C13.4025 47.8917 13.3059 47.1559 12.7926 46.7617C12.279 46.3677 11.5436 46.4641 11.1493 46.9773L4.0359 56.2394C2.21434 58.6142 0.847778 61.8803 0.286528 65.2002C-0.318003 68.7759 0.0410593 72.1481 1.29747 74.6953C2.49122 77.1153 5.06622 80 10.5553 80H50.7487C53.6981 80 56.1626 79.1214 57.9661 77.4505C59.5698 79.0259 61.7661 80 64.1864 80C69.0843 80 73.0692 76.0152 73.0692 71.1169V31.9058C73.0692 31.2586 72.5445 30.7339 71.8973 30.7339C71.2501 30.7339 70.7254 31.2586 70.7254 31.9058V39.4394C68.9653 40.2941 66.41 40.1991 64.8368 39.147C62.8597 37.8275 60.0057 37.5406 57.6473 38.2863V33.7684H61.5689C62.2161 33.7684 62.7407 33.2437 62.7407 32.5966C62.7407 31.9494 62.2161 31.4247 61.5689 31.4247H57.6473V27.5145H61.5689C62.2161 27.5145 62.7407 26.9898 62.7407 26.3427C62.7407 25.6955 62.2161 25.1708 61.5689 25.1708H57.6473V21.265H61.5689C62.2161 21.265 62.7407 20.7403 62.7407 20.0931C62.7407 19.4459 62.2161 18.9212 61.5689 18.9212H57.6473V15.0156H70.7254V26.4978C70.7254 27.145 71.2501 27.6697 71.8973 27.6697C72.5445 27.6697 73.0692 27.145 73.0692 26.4978V14.9277C75.1036 14.5066 76.6434 12.61 76.6434 10.3403C76.6434 7.75984 74.6573 5.66047 72.2162 5.66047ZM22.0043 7.01141C20.7162 7.01141 19.6684 5.96344 19.6684 4.67531C19.6684 3.38969 20.7164 2.34375 22.0043 2.34375H39.2997C40.5878 2.34375 41.6356 3.38969 41.6356 4.67531C41.6356 5.96344 40.5876 7.01141 39.2997 7.01141H22.0043ZM5.89528 57.6664L7.78747 55.2028C12.4923 52.4955 23.0559 50.1714 29.7837 54.0419C29.6957 54.0891 29.6089 54.1355 29.5203 54.1828C22.7253 57.8228 15.06 61.9247 3.43481 62.4055C4.05465 60.6081 4.90465 58.9578 5.89528 57.6664ZM50.7487 77.6562H10.5553C7.11543 77.6562 4.70793 76.3112 3.3995 73.6586C2.17168 71.1695 2.10278 67.892 2.77325 64.7739C15.372 64.4172 23.814 59.8986 30.6268 56.2491C38.4567 52.0547 44.1314 49.0164 52.3528 53.6427L55.3034 57.528V71.117C55.3034 72.7502 55.7484 74.2806 56.5204 75.5969C55.1384 76.9641 53.2014 77.6562 50.7487 77.6562ZM63.5348 41.0959C64.7975 41.9403 66.4183 42.3625 68.0401 42.3623C68.9565 42.3623 69.8731 42.2272 70.7253 41.9575V71.1169C70.7253 74.7227 67.7918 77.6562 64.1862 77.6562C60.5806 77.6562 57.6472 74.7228 57.6472 71.1169V40.8042C59.4062 39.9508 61.9614 40.0458 63.5348 41.0959ZM72.2162 12.6719H56.1565C55.0076 12.6719 54.0731 11.6259 54.0731 10.3403C54.0731 9.05219 55.0078 8.00438 56.1565 8.00438H72.2162C73.3651 8.00438 74.2997 9.05234 74.2997 10.3403C74.2997 11.6258 73.365 12.6719 72.2162 12.6719Z" fill="white"/>
</svg>
