<svg width="80" height="80" viewBox="0 0 80 80" fill="none" xmlns="http://www.w3.org/2000/svg">
<path d="M39.7201 10.1656C40.5891 10.1656 41.2937 9.46111 41.2937 8.59205V1.5736C41.2937 0.704533 40.5891 0 39.7201 0C38.851 0 38.1465 0.704533 38.1465 1.5736V8.59205C38.1466 9.46111 38.8512 10.1656 39.7201 10.1656Z" fill="white"/>
<path d="M78.1855 54.0597L75.4056 51.2877C74.4167 50.3 73.0987 49.756 71.6944 49.756C70.7964 49.756 69.9344 49.9794 69.1704 50.398L63.932 45.1658L64.1872 44.9109C66.3123 42.7816 66.3115 39.3214 64.187 37.1992C63.4278 36.4386 62.4804 35.9314 61.4478 35.718C61.59 35.2272 61.6648 34.7131 61.6648 34.187C61.6648 32.7253 61.097 31.3547 60.0692 30.3311C59.3098 29.5704 58.3626 29.0633 57.33 28.8498C57.4721 28.359 57.547 27.8451 57.547 27.3189C57.547 25.857 56.9792 24.4865 55.9496 23.4614C55.1721 22.6848 54.2164 22.1932 53.2128 21.984C53.7496 20.1329 53.2909 18.0503 51.8346 16.5915C50.6224 15.3845 48.9776 14.8657 47.3924 15.0339L37.012 13.069C35.4288 12.7687 33.4518 12.5701 32.2038 13.7084C32.1251 13.7803 32.0448 13.8629 31.9657 13.9549C30.0307 13.2496 27.7738 13.6696 26.2243 15.2174C25.1963 16.2442 24.6301 17.6142 24.6301 19.0751C24.6301 19.6014 24.7046 20.1153 24.8466 20.6062C23.815 20.8195 22.869 21.326 22.1122 22.0842C21.0822 23.11 20.5143 24.4784 20.5132 25.9376C20.5127 26.4651 20.5875 26.9807 20.7304 27.4729C19.6983 27.6858 18.7516 28.1914 17.9925 28.9495C16.9625 29.9784 16.3953 31.3492 16.3953 32.8094C16.3953 33.9278 16.7293 34.9933 17.348 35.8933C16.5668 36.1581 15.8511 36.5989 15.2519 37.1975C13.1253 39.3214 13.1246 42.7817 15.2533 44.9142L15.5075 45.1673L10.2685 50.3969C8.32142 49.4802 5.92251 49.8236 4.31579 51.4283L1.53422 54.202C0.544845 55.1902 0.00015625 56.5083 0 57.9135C0 59.3188 0.544845 60.6371 1.53422 61.6253L5.00563 65.0925C5.62048 65.7068 6.61689 65.7061 7.23095 65.0913C7.84517 64.4764 7.84455 63.48 7.2297 62.866L3.75829 59.3988C3.36423 59.0052 3.14719 58.4777 3.14719 57.9136C3.14719 57.3497 3.36423 56.8224 3.75735 56.4297L6.53908 53.6558C7.23408 52.9616 8.29783 52.8581 9.10564 53.3411C9.16252 53.4266 9.2283 53.5078 9.30361 53.5833C9.43846 53.7185 9.59236 53.8221 9.7558 53.8978L25.7079 69.8265C25.7836 69.9916 25.8877 70.1471 26.0235 70.283C26.1557 70.4154 26.3065 70.5177 26.4665 70.593C26.8038 70.9744 26.9902 71.4616 26.9902 71.9813C26.9902 72.5454 26.7732 73.0727 26.3791 73.4663L23.6002 76.2419C22.7791 77.0594 21.4435 77.0593 20.6249 76.2444L17.1535 72.7727C16.5389 72.1582 15.5427 72.1582 14.9282 72.7727C14.3136 73.3872 14.3136 74.3835 14.9282 74.998L18.4021 78.4723C19.4246 79.4905 20.7674 79.9994 22.1108 79.9994C23.4546 79.9994 24.799 79.4898 25.8227 78.4705L28.6033 75.6932C29.5927 74.7049 30.1376 73.3868 30.1376 71.9813C30.1376 70.9783 29.8587 70.0205 29.3401 69.1946L35.2363 63.3055C35.2426 63.2991 35.2488 63.2927 35.2552 63.2863C35.9304 62.5883 37.8105 62.7189 39.6288 62.8452C40.9207 62.935 42.361 63.0349 43.7682 62.8727L50.2251 69.3219C49.8068 70.0846 49.5835 70.9455 49.5835 71.8421C49.5835 73.246 50.1284 74.5633 51.1178 75.5516L53.8985 78.329C54.8873 79.3166 56.2053 79.8607 57.6096 79.8607C59.0139 79.8607 60.3318 79.3168 61.3207 78.329L78.1866 61.4836C79.1759 60.4955 79.7208 59.1774 79.7208 57.7721C79.7206 56.3669 79.1758 55.0488 78.1855 54.0597ZM36.426 16.1612L43.2521 17.4532L39.1663 21.5375C38.5343 21.2337 37.668 20.6671 36.7177 19.7581C35.4169 18.5137 34.4865 17.077 34.4018 16.1809C34.4016 16.1804 34.4016 16.1799 34.4016 16.1795C34.4016 16.1793 34.4015 16.1792 34.4015 16.179C34.3954 16.1146 34.3938 16.0632 34.3946 16.024C34.6004 15.974 35.1469 15.9185 36.426 16.1612ZM28.4482 17.4442C29.2454 16.6478 30.4838 16.5559 31.3846 17.1659C31.8951 19.3062 33.7208 21.246 34.5423 22.032C35.151 22.6145 37.1043 24.3609 39.0759 24.8409C39.3426 25.2232 39.4877 25.679 39.4877 26.16C39.4877 26.7795 39.2495 27.3587 38.8152 27.7925C38.3823 28.2262 37.8021 28.465 37.1815 28.465C36.5607 28.465 35.9805 28.2262 35.5455 27.7904L35.5454 27.7903L35.5446 27.7895L28.448 20.7057C28.0154 20.2737 27.7771 19.6945 27.7771 19.0751C27.7772 18.4556 28.0155 17.8764 28.4482 17.4442ZM24.3363 24.3109C24.7693 23.8773 25.3488 23.6384 25.9685 23.6384C26.589 23.6384 27.1704 23.8778 27.6061 24.3131L33.3205 30.0161C34.2204 30.9173 34.2204 32.3839 33.3237 33.282C32.8883 33.7156 32.3062 33.9544 31.6844 33.9544C31.0627 33.9544 30.4805 33.7156 30.0471 33.2839L30.0469 33.2837L25.7118 28.9495C25.7051 28.9428 25.6977 28.9365 25.6908 28.9297L24.3346 27.574C23.8994 27.1393 23.6599 26.559 23.6604 25.94C23.661 25.3229 23.8997 24.7456 24.3363 24.3109ZM20.2166 31.1762C20.6499 30.7436 21.2307 30.5053 21.8522 30.5053C22.4686 30.5053 23.0444 30.7401 23.4758 31.1653L27.8243 35.5117C28.2579 35.9436 28.4968 36.5222 28.4968 37.1409C28.4968 37.7595 28.2579 38.3381 27.8226 38.7717C27.3894 39.2042 26.8093 39.4425 26.1888 39.4425C25.5674 39.4425 24.9854 39.2036 24.5516 38.7717L22.9752 37.1972C22.9749 37.1967 22.9744 37.1964 22.9741 37.1961L20.2168 34.442C19.7821 34.0078 19.5427 33.4278 19.5427 32.809C19.5427 32.1904 19.7821 31.6103 20.2166 31.1762ZM17.476 39.4241C17.9111 38.9894 18.4927 38.75 19.1135 38.75C19.7341 38.75 20.3155 38.9892 20.7505 39.4236L22.3291 41.0003C22.7629 41.4322 23.0016 42.0108 23.0016 42.6295C23.0016 43.2483 22.7627 43.8267 22.3258 44.262C21.8929 44.6956 21.3127 44.9345 20.6921 44.9345C20.0713 44.9345 19.4911 44.6958 19.055 44.2589L18.8574 44.062C18.8547 44.0594 18.8527 44.0566 18.8502 44.0541C18.8472 44.0513 18.8441 44.0487 18.8411 44.0459L17.4775 42.6877C16.5777 41.7859 16.5769 40.322 17.476 39.4241ZM49.5438 57.3081C48.9296 56.6931 47.9332 56.6927 47.3185 57.3067L45.9185 58.705C44.5882 60.0353 42.1777 59.8678 39.8466 59.7061C37.3152 59.5302 34.6976 59.3486 33.0037 61.0877L27.2076 66.8768L12.7133 52.4038L17.8427 47.2836C18.6905 47.8033 19.6688 48.0819 20.6924 48.0819C22.1547 48.0819 23.526 47.515 24.5502 46.4889C25.5813 45.462 26.1493 44.0916 26.1493 42.6297C26.1493 42.6161 26.1483 42.6027 26.1483 42.5891C26.1619 42.5892 26.1755 42.59 26.1891 42.59C27.6494 42.59 29.0196 42.0248 30.0452 41.0005C31.0763 39.9736 31.6443 38.603 31.6443 37.1412C31.6443 37.1276 31.6433 37.1142 31.6433 37.1006C31.6571 37.1006 31.6708 37.1015 31.6848 37.1015C33.1446 37.1015 34.5155 36.537 35.548 35.5087C36.6199 34.4351 37.1501 33.0217 37.1399 31.6112C37.154 31.6114 37.168 31.6122 37.1821 31.6122C38.6445 31.612 40.0155 31.0453 41.0413 30.0176C42.0693 28.9909 42.6356 27.6209 42.6356 26.16C42.6356 25.1382 42.3577 24.1615 41.8398 23.3154L46.3356 18.8215C46.6706 18.4879 47.0837 18.2785 47.5167 18.1921C47.5635 18.1871 47.6098 18.1796 47.6556 18.1706C48.3503 18.0748 49.0798 18.2892 49.611 18.8182C50.5109 19.7196 50.5109 21.1862 49.6143 22.0843L48.2451 23.4479C48.2406 23.4525 48.2357 23.4565 48.2312 23.4611L46.6542 25.0354C46.0392 25.6495 46.0385 26.6459 46.6527 27.2607C47.2671 27.8758 48.2634 27.8762 48.8781 27.2622L50.2528 25.8893C50.2531 25.889 50.2534 25.8887 50.2537 25.8884L50.4615 25.6814C51.3638 24.7873 52.8257 24.7892 53.7271 25.6893C54.1609 26.1212 54.3998 26.6998 54.3998 27.3186C54.3998 27.9372 54.1609 28.5158 53.7237 28.9511L52.3467 30.3309C52.3465 30.3311 52.3464 30.3312 52.3462 30.3315L50.7693 31.902C50.1535 32.5153 50.1515 33.5117 50.7648 34.1273C51.3781 34.7431 52.3743 34.745 52.9901 34.1319L54.5742 32.5542C55.0071 32.1204 55.5873 31.8817 56.2079 31.8817C56.8287 31.8817 57.409 32.1204 57.8451 32.5573C58.2789 32.9894 58.5176 33.5679 58.5176 34.1867C58.5176 34.8053 58.2789 35.3839 57.8426 35.8183L55.0973 38.5647C54.4829 39.1794 54.4831 40.1756 55.0976 40.79C55.405 41.0972 55.8075 41.2506 56.2101 41.2506C56.6129 41.2506 57.0157 41.0969 57.3229 40.7895L58.6684 39.4436C58.6761 39.4362 58.6843 39.4298 58.692 39.4222C59.125 38.9884 59.7051 38.7497 60.3257 38.7497C60.9465 38.7497 61.5267 38.9884 61.9612 39.4237C62.8601 40.3217 62.8593 41.7858 61.9612 42.6855L60.5932 44.0519C60.5928 44.0523 60.5921 44.0528 60.5917 44.0533C60.5912 44.0537 60.5907 44.0544 60.5903 44.0548L58.419 46.2234C57.8042 46.8377 57.8036 47.8341 58.4176 48.4489C58.725 48.7566 59.1281 48.9105 59.5311 48.9105C59.9334 48.9105 60.3359 48.757 60.6431 48.4503L61.7051 47.3895L66.7953 52.4738L52.3023 66.9491L47.1095 61.7625C47.4715 61.5297 47.8179 61.256 48.1431 60.9308L49.5423 59.5333C50.1574 58.9194 50.1581 57.923 49.5438 57.3081ZM75.9623 59.2569L59.0965 76.1022C58.702 76.4963 58.1739 76.7133 57.6095 76.7133C57.0451 76.7133 56.517 76.4963 56.1223 76.1021L53.3415 73.3247C52.9474 72.9313 52.7304 72.4047 52.7304 71.8421C52.7304 71.2796 52.9474 70.753 53.3415 70.3594L70.2073 53.5141C70.602 53.1199 71.13 52.9028 71.6945 52.9028C72.2589 52.9028 72.787 53.1199 73.1826 53.515L75.9625 56.2871C76.3566 56.6806 76.5736 57.2078 76.5736 57.7719C76.5734 58.3361 76.3564 58.8635 75.9623 59.2569Z" fill="white"/>
<path d="M18.825 8.83988C19.1322 9.14644 19.5344 9.29957 19.9365 9.29957C20.3397 9.29957 20.7429 9.14551 21.0503 8.83754C21.6642 8.22238 21.6633 7.22613 21.0481 6.61222L15.314 0.889552C14.699 0.275645 13.7026 0.276426 13.0887 0.89174C12.4748 1.5069 12.4757 2.50315 13.0909 3.11706L18.825 8.83988Z" fill="white"/>
<path d="M59.5052 9.29951C59.9075 9.29951 60.31 9.14607 60.6172 8.83935L66.3469 3.11653C66.9618 2.50247 66.9624 1.50606 66.3482 0.891212C65.7341 0.276367 64.7379 0.275742 64.1229 0.889962L58.3932 6.61279C57.7783 7.22685 57.7777 8.22326 58.3919 8.8381C58.6993 9.14576 59.1022 9.29951 59.5052 9.29951Z" fill="white"/>
<path d="M9.67604 67.6892C9.06682 68.3089 9.07525 69.3053 9.6951 69.9145L9.69963 69.9189C10.0054 70.2195 10.4024 70.3692 10.7993 70.3692C11.2067 70.3692 11.614 70.2115 11.9226 69.8976C12.5318 69.2779 12.521 68.2793 11.9014 67.6701C11.2818 67.0609 10.2856 67.0695 9.67604 67.6892Z" fill="white"/>
<path d="M53.392 55.0409C53.6314 55.0409 53.8742 54.9864 54.1022 54.8715C54.8781 54.4801 55.1899 53.5339 54.7986 52.7579C54.4072 51.982 53.4608 51.6701 52.685 52.0615L52.6763 52.0659C51.9003 52.4573 51.593 53.4014 51.9842 54.1773C52.2605 54.7254 52.8161 55.0409 53.392 55.0409Z" fill="white"/>
</svg>
