<svg width="23" height="20" viewBox="0 0 23 20" fill="none" xmlns="http://www.w3.org/2000/svg">
<path d="M10.0164 14.7811C10.0191 14.7838 10.0204 14.786 10.0204 14.79V16.6847C10.0204 16.6883 10.0191 16.691 10.0164 16.6937C10.0137 16.6964 10.0114 16.6973 10.0088 16.6973H8.11275C8.11006 16.6973 8.10647 16.6959 8.10378 16.6937C8.10243 16.691 8.09974 16.6887 8.09974 16.6847V14.79C8.09974 14.7865 8.10243 14.7838 8.10378 14.7811C8.10647 14.7784 8.11006 14.7775 8.11275 14.7775H10.0088C10.011 14.7775 10.0137 14.7788 10.0164 14.7811ZM4.503 9.37855C4.50569 9.3799 4.50704 9.38349 4.50704 9.38618V11.2822C4.50704 11.2849 4.50569 11.2871 4.503 11.2898C4.5003 11.2925 4.49806 11.2934 4.49402 11.2934H2.59937C2.59667 11.2934 2.59308 11.2921 2.59039 11.2898C2.5877 11.2871 2.58635 11.2849 2.58635 11.2822V9.38618C2.58635 9.38349 2.5877 9.3799 2.59039 9.37855C2.59308 9.37586 2.59667 9.37361 2.59937 9.37361H4.49402C4.49806 9.37361 4.5003 9.3763 4.503 9.37855ZM4.2651 9.79105C4.12012 9.64607 3.88581 9.64607 3.74083 9.79105L3.44054 10.0913L3.35256 10.0034C3.20892 9.85838 2.97327 9.85838 2.82829 10.0034C2.68465 10.1483 2.68465 10.3827 2.82829 10.5276L3.1784 10.8778C3.32338 11.0227 3.55904 11.0227 3.70267 10.8778L4.2651 10.3153C4.41008 10.1699 4.41008 9.93604 4.2651 9.79105ZM10.0164 9.37855C10.0191 9.3799 10.0204 9.38349 10.0204 9.38618V11.2822C10.0204 11.2849 10.0191 11.2871 10.0164 11.2898C10.0137 11.2925 10.0114 11.2934 10.0088 11.2934H8.11275C8.11006 11.2934 8.10647 11.2921 8.10378 11.2898C8.10243 11.2871 8.09974 11.2849 8.09974 11.2822V9.38618C8.09974 9.38349 8.10243 9.3799 8.10378 9.37855C8.10647 9.37586 8.11006 9.37361 8.11275 9.37361H10.0088C10.011 9.37361 10.0137 9.3763 10.0164 9.37855ZM9.77849 9.79105C9.6335 9.64607 9.3992 9.64607 9.25421 9.79105L8.95392 10.0913L8.86595 10.0034C8.72231 9.85838 8.48666 9.85838 8.34167 10.0034C8.19804 10.1483 8.19804 10.3827 8.34167 10.5276L8.69269 10.8778C8.83632 11.0227 9.07197 11.0227 9.21561 10.8778L9.77804 10.3153C9.92347 10.1699 9.92347 9.93604 9.77849 9.79105ZM18.1211 4.37687V3.28254C18.1211 2.59039 17.555 2.02437 16.8629 2.02437H14.224V3.25336C14.224 4.09947 13.5346 4.78892 12.6885 4.78892C11.8424 4.78892 11.1529 4.09947 11.1529 3.25336V2.02437H6.96815V3.25336C6.96815 4.09947 6.2787 4.78892 5.43349 4.78892C4.58738 4.78892 3.89793 4.09947 3.89793 3.25336V2.02437H1.25861C0.566465 2.02437 0 2.59039 0 3.28254V5.70011H16.7978L18.1211 4.37687ZM15.5217 14.7775H13.6257C13.623 14.7775 13.6208 14.7788 13.6181 14.7811C13.6154 14.7833 13.614 14.786 13.614 14.79V16.6847C13.614 16.6883 13.6154 16.691 13.6181 16.6937C13.6208 16.6964 13.623 16.6973 13.6257 16.6973H15.5217C15.5244 16.6973 15.5266 16.6959 15.5293 16.6937C15.532 16.6914 15.5334 16.6887 15.5334 16.6847V14.79C15.5334 14.7865 15.532 14.7838 15.5293 14.7811C15.5266 14.7784 15.5244 14.7775 15.5217 14.7775ZM4.49402 14.7775H2.59937C2.59667 14.7775 2.59308 14.7788 2.59039 14.7811C2.5877 14.7838 2.58635 14.786 2.58635 14.79V16.6847C2.58635 16.6883 2.5877 16.691 2.59039 16.6937C2.59308 16.6964 2.59667 16.6973 2.59937 16.6973H4.49402C4.49806 16.6973 4.5003 16.6959 4.503 16.6937C4.50569 16.6914 4.50704 16.6887 4.50704 16.6847V14.79C4.50704 14.7865 4.50569 14.7838 4.503 14.7811C4.5003 14.7784 4.49806 14.7775 4.49402 14.7775ZM14.0409 9.37361H13.6261C13.6234 9.37361 13.6212 9.3763 13.6185 9.37855C13.6158 9.3799 13.6145 9.38349 13.6145 9.38618V11.2822C13.6145 11.2849 13.6158 11.2871 13.6185 11.2898C13.6212 11.2925 13.6234 11.2934 13.6261 11.2934H15.5221C15.5248 11.2934 15.5271 11.2921 15.5298 11.2898C15.5325 11.2876 15.5338 11.2849 15.5338 11.2822V10.8674L15.0158 10.9909C14.7066 11.0645 14.3847 10.9729 14.1594 10.7489C13.9354 10.5236 13.8438 10.2018 13.9175 9.8925L14.0409 9.37361ZM16.919 10.3993L18.1215 9.19676V18.7418C18.1215 19.434 17.5555 20 16.8633 20H1.25861C0.566465 20.0004 0 19.4344 0 18.7418V6.44208H16.0558L14.5086 7.98932C14.3892 8.10871 14.3062 8.25639 14.2667 8.42202L14.2159 8.63344H13.6257C13.4183 8.63344 13.2298 8.71737 13.0938 8.85472C12.9564 8.99073 12.8725 9.17925 12.8725 9.38663V11.2826C12.8725 11.49 12.9564 11.6785 13.0938 11.8145C13.2298 11.9519 13.4183 12.0358 13.6257 12.0358H15.5217C15.7291 12.0358 15.9176 11.9519 16.0536 11.8145C16.1909 11.6785 16.2749 11.49 16.2749 11.2826V10.6924L16.4863 10.6417C16.6515 10.6013 16.7992 10.5187 16.919 10.3993ZM5.24856 14.79C5.24856 14.5827 5.16327 14.3932 5.02727 14.2568C4.89126 14.1208 4.70274 14.0355 4.49402 14.0355H2.59937C2.39199 14.0355 2.20347 14.1208 2.06612 14.2568C1.93011 14.3928 1.84617 14.5827 1.84617 14.79V16.6847C1.84617 16.8921 1.93011 17.0815 2.06612 17.2179C2.20347 17.354 2.39199 17.4392 2.59937 17.4392H4.49402C4.70274 17.4392 4.89081 17.354 5.02727 17.2179C5.16372 17.0819 5.24856 16.8921 5.24856 16.6847V14.79ZM5.24856 9.38618C5.24856 9.17881 5.16327 8.99028 5.02727 8.85428C4.89126 8.71692 4.70274 8.63299 4.49402 8.63299H2.59937C2.39199 8.63299 2.20347 8.71692 2.06612 8.85428C1.93011 8.99028 1.84617 9.17881 1.84617 9.38618V11.2822C1.84617 11.4896 1.93011 11.6781 2.06612 11.8141C2.20347 11.9514 2.39199 12.0354 2.59937 12.0354H4.49402C4.70274 12.0354 4.89081 11.9514 5.02727 11.8141C5.16327 11.6781 5.24856 11.4896 5.24856 11.2822V9.38618ZM10.7619 14.79C10.7619 14.5827 10.6767 14.3932 10.5407 14.2568C10.4046 14.1208 10.2161 14.0355 10.0088 14.0355H8.11275C7.90538 14.0355 7.71686 14.1208 7.58085 14.2568C7.4435 14.3928 7.35956 14.5827 7.35956 14.79V16.6847C7.35956 16.8921 7.4435 17.0815 7.58085 17.2179C7.71686 17.354 7.90538 17.4392 8.11275 17.4392H10.0088C10.2161 17.4392 10.4046 17.354 10.5407 17.2179C10.6767 17.0819 10.7619 16.8921 10.7619 16.6847V14.79ZM10.7619 9.38618C10.7619 9.17881 10.6767 8.99028 10.5407 8.85428C10.4046 8.71692 10.2161 8.63299 10.0088 8.63299H8.11275C7.90538 8.63299 7.71686 8.71692 7.58085 8.85428C7.4435 8.99028 7.35956 9.17881 7.35956 9.38618V11.2822C7.35956 11.4896 7.4435 11.6781 7.58085 11.8141C7.71686 11.9514 7.90538 12.0354 8.11275 12.0354H10.0088C10.2161 12.0354 10.4046 11.9514 10.5407 11.8141C10.6767 11.6781 10.7619 11.4896 10.7619 11.2822V9.38618ZM16.2749 14.79C16.2749 14.5827 16.1909 14.3932 16.0536 14.2568C15.9176 14.1208 15.7291 14.0355 15.5217 14.0355H13.6257C13.4183 14.0355 13.2298 14.1208 13.0938 14.2568C12.9564 14.3928 12.8725 14.5827 12.8725 14.79V16.6847C12.8725 16.8921 12.9564 17.0815 13.0938 17.2179C13.2298 17.354 13.4183 17.4392 13.6257 17.4392H15.5217C15.7291 17.4392 15.9176 17.354 16.0536 17.2179C16.1909 17.0819 16.2749 16.8921 16.2749 16.6847V14.79ZM12.688 4.0474C13.1243 4.0474 13.4821 3.68966 13.4821 3.25336V0.795386C13.4821 0.357744 13.1243 0 12.688 0C12.2517 0 11.894 0.357744 11.894 0.795386V3.25381C11.8944 3.6901 12.2517 4.0474 12.688 4.0474ZM5.43304 4.0474C5.86934 4.0474 6.22708 3.68966 6.22708 3.25336V0.795386C6.22708 0.357744 5.86934 0 5.43304 0C4.9954 0 4.639 0.357744 4.639 0.795386V3.25381C4.639 3.6901 4.9954 4.0474 5.43304 4.0474ZM22.8175 2.65817L22.2502 2.09036C22.0311 1.87131 21.6752 1.87131 21.4561 2.09036L21.0373 2.50915L22.3987 3.87055L22.8175 3.45176C23.0366 3.23316 23.0366 2.87542 22.8175 2.65817ZM14.8982 8.97008L14.6374 10.0644C14.6235 10.1241 14.6401 10.1816 14.6832 10.2247C14.7263 10.2677 14.7838 10.2844 14.8435 10.2691L15.9378 10.0097L14.8982 8.97008ZM15.2609 8.28422L16.6237 9.64697L21.8749 4.39482L20.5131 3.03342L15.2609 8.28422Z" fill="#D3224D"/>
</svg>
