<svg width="20" height="20" viewBox="0 0 20 20" fill="none" xmlns="http://www.w3.org/2000/svg">
<path fill-rule="evenodd" clip-rule="evenodd" d="M10.1998 14.8007C12.7607 14.6959 14.8048 12.5866 14.8048 10C14.8048 7.41333 12.7607 5.30412 10.1998 5.19933C10.0882 5.19479 10 5.10296 10 4.99125V0.208333C10 0.0935833 10.0936 0 10.2083 0H11C11.3626 0 11.6568 0.293958 11.6568 0.656875C11.6568 2.62617 14.0425 3.61421 15.435 2.22179C15.6915 1.96533 16.1075 1.96533 16.364 2.22179L17.7782 3.63604C18.0346 3.89254 18.0346 4.30858 17.7782 4.56504C16.3858 5.95742 17.3738 8.34317 19.3431 8.34317C19.706 8.34317 20 8.63733 20 9.00008V11C20 11.3627 19.706 11.6568 19.3431 11.6568C17.3738 11.6568 16.3858 14.0425 17.7782 15.435C18.0346 15.6914 18.0346 16.1075 17.7782 16.364L16.364 17.7782C16.1075 18.0347 15.6914 18.0347 15.435 17.7782C14.0408 16.384 11.6568 17.3714 11.6568 19.3431C11.6568 19.706 11.3626 20 11 20H10.2083C10.0936 20 10 19.9064 10 19.7917V15.0087C10 14.897 10.0882 14.8052 10.1998 14.8007ZM3.71358 18.7L5.48196 17.1814C5.53475 17.1362 5.60146 17.1107 5.67108 17.1108H9.41667V17.6941H5.77796L4.09263 19.1414C4.10821 19.1985 4.11658 19.2586 4.11658 19.3207C4.11658 19.6959 3.81246 20 3.43729 20C3.06213 20 2.758 19.6959 2.758 19.3207C2.758 18.9455 3.06213 18.6414 3.43729 18.6414C3.53567 18.6414 3.62917 18.6623 3.71358 18.7ZM3.43729 0C3.81246 0 4.11658 0.304125 4.11658 0.679292C4.11658 0.741375 4.10821 0.8015 4.09263 0.858625L5.77796 2.30592H9.41667V2.88925H5.67108C5.60413 2.88929 5.53683 2.86554 5.48196 2.81863L3.71358 1.30004C3.62917 1.33767 3.53567 1.35862 3.43725 1.35862C3.06208 1.35862 2.75796 1.0545 2.75796 0.679292C2.75796 0.304125 3.06213 0 3.43729 0ZM7.83579 4.00492C7.46063 4.00492 7.1565 4.30904 7.1565 4.68425C7.1565 5.05942 7.46063 5.36354 7.83579 5.36354C7.93421 5.36354 8.02771 5.34258 8.11213 5.30496L9.8805 6.82354C9.93538 6.8705 10.0027 6.89421 10.0696 6.89417H12.859C12.6155 6.66975 12.3455 6.47354 12.054 6.31083H10.1765L8.49113 4.86354C8.50671 4.80642 8.51513 4.74629 8.51513 4.68421C8.51513 4.30904 8.211 4.00492 7.83579 4.00492ZM10 9.32071C9.62483 9.32071 9.32071 9.62483 9.32071 10C9.32071 10.3752 9.62483 10.6793 10 10.6793C10.2708 10.6793 10.5045 10.5209 10.6137 10.2917H14.2113C14.2246 10.0968 14.2246 9.90317 14.2113 9.70833H10.6137C10.5045 9.47913 10.2708 9.32071 10 9.32071ZM7.83579 15.9951C8.21096 15.9951 8.51508 15.691 8.51508 15.3158C8.51508 15.2537 8.50671 15.1936 8.49108 15.1365L10.1765 13.6892H12.0538C12.3454 13.5265 12.6154 13.3303 12.8589 13.1058H10.0696C10.0026 13.1058 9.93529 13.1295 9.88046 13.1765L8.11208 14.695C8.02767 14.6574 7.93417 14.6365 7.83575 14.6365C7.46058 14.6365 7.15646 14.9406 7.15646 15.3158C7.1565 15.691 7.46063 15.9951 7.83579 15.9951ZM1.538 12.3856H5.33658C5.64913 12.3856 5.90479 12.6413 5.90479 12.9538V14.1802C5.90479 14.4928 5.64908 14.7484 5.33658 14.7484H4.75246V15.3182C4.75246 15.613 4.51121 15.8542 4.21638 15.8542H2.65817C2.36333 15.8542 2.12208 15.613 2.12208 15.3182V14.7484H1.538C1.22546 14.7484 0.96975 14.4927 0.96975 14.1802V12.9538C0.96975 12.6413 1.22546 12.3856 1.538 12.3856ZM3.43729 4.14575C5.33567 4.14575 6.87458 5.68467 6.87458 7.58304C6.87458 9.481 5.71529 9.39054 5.36562 11.8027C5.35596 11.8024 5.34629 11.8023 5.33658 11.8023H4.55421V10.1744L4.95854 8.21142C5.25608 8.13917 5.47704 7.87108 5.47704 7.55133C5.47704 7.17617 5.17292 6.87204 4.79775 6.87204C4.42258 6.87204 4.11846 7.17617 4.11846 7.55133C4.11846 7.77313 4.22475 7.97008 4.38917 8.09404L3.98279 10.0669C3.97508 10.0931 3.97092 10.1208 3.97092 10.1495V11.8023H2.90367V10.1495C2.90367 10.1208 2.8995 10.0931 2.89179 10.0669L2.48542 8.09404C2.64983 7.97004 2.75613 7.77313 2.75613 7.55133C2.75613 7.17617 2.452 6.87204 2.07683 6.87204C1.70167 6.87204 1.3975 7.17617 1.3975 7.55133C1.3975 7.87108 1.61846 8.13921 1.916 8.21142L2.32033 10.1744V11.8023H1.538C1.52829 11.8023 1.51858 11.8024 1.50892 11.8027C1.15925 9.39054 0 9.48096 0 7.58304C0 5.68467 1.53892 4.14575 3.43729 4.14575Z" fill="#D3224D"/>
</svg>
