<svg width="27" height="20" viewBox="0 0 27 20" fill="none" xmlns="http://www.w3.org/2000/svg">
<path d="M4.32559 3.31525C5.24108 3.31525 5.98322 2.57311 5.98322 1.65763C5.98322 0.742144 5.24108 0 4.32559 0C3.41011 0 2.66797 0.742144 2.66797 1.65763C2.66797 2.57311 3.41011 3.31525 4.32559 3.31525Z" fill="#D3224D"/>
<path d="M22.474 3.31525C23.3895 3.31525 24.1317 2.57311 24.1317 1.65763C24.1317 0.742144 23.3895 0 22.474 0C21.5585 0 20.8164 0.742144 20.8164 1.65763C20.8164 2.57311 21.5585 3.31525 22.474 3.31525Z" fill="#D3224D"/>
<path d="M10.9378 17.6548C10.7696 17.9296 10.4183 18.0807 9.89425 18.1036H9.86035C9.81256 18.1056 9.76349 18.1078 9.71635 18.111C9.57783 18.1204 9.11548 18.1272 8.99214 17.8205L8.92757 17.659C8.82457 17.4007 8.71802 17.136 8.60179 16.8757L7.27253 13.9066C7.24706 13.8498 7.20572 13.8016 7.15348 13.7677C7.10124 13.7338 7.04032 13.7158 6.97807 13.7158H4.37378C4.15261 13.7158 3.92854 13.7158 3.71189 13.719L3.4029 13.7213H3.39321C3.03806 13.7213 2.41879 13.6034 2.18664 12.8292C2.13685 12.6587 2.11216 12.4818 2.11335 12.3042V6.98454C2.10892 6.27391 2.32111 5.57879 2.72164 4.99177C3.48685 3.87883 4.21557 4.16038 4.69697 4.46904C4.84999 4.56802 4.9918 4.68332 5.11994 4.8129L5.62749 5.32046C6.32318 6.01879 7.26092 6.42263 8.24631 6.44825L8.92725 6.46698C9.15005 6.47126 9.36482 6.55093 9.53651 6.69299C9.64564 6.78533 9.96141 7.05299 9.66113 7.71779H6.27905L4.29467 5.73115C4.23378 5.67234 4.15222 5.63979 4.06757 5.64053C3.98291 5.64127 3.90193 5.67522 3.84207 5.73508C3.7822 5.79495 3.74825 5.87593 3.74751 5.96058C3.74678 6.04524 3.77932 6.1268 3.83813 6.18769L5.79119 8.14075L5.48155 9.4755L5.47962 9.48325C5.47642 9.49642 5.47415 9.5098 5.47284 9.52329C5.47284 9.53426 5.47122 9.54524 5.47122 9.55557C5.47122 10.0065 5.65035 10.439 5.96921 10.7578C6.28807 11.0767 6.72053 11.2558 7.17147 11.2558H8.28441C8.33381 11.2587 8.88656 11.2997 9.04251 11.6872C9.18231 12.0346 9.32309 12.3888 9.45934 12.731C9.82677 13.6551 10.2068 14.6105 10.6091 15.54L10.8454 16.0889L10.848 16.0954C10.9714 16.3682 11.2293 17.1792 10.9378 17.6548Z" fill="#D3224D"/>
<path d="M24.6872 6.98476V12.3057C24.6883 12.4833 24.6636 12.6601 24.6139 12.8307C24.3818 13.6056 23.7625 13.7228 23.407 13.7228H23.3977L23.089 13.7205C22.872 13.7189 22.648 13.7173 22.4271 13.7173H19.8228C19.7605 13.7173 19.6995 13.7353 19.6472 13.7691C19.5949 13.803 19.5535 13.8512 19.528 13.9081L18.1994 16.8772C18.0838 17.1355 17.9783 17.3996 17.8766 17.6547C17.855 17.7109 17.8325 17.7672 17.8091 17.8236C17.6857 18.1297 17.2234 18.1229 17.0845 18.1142C17.0368 18.1109 16.9877 18.1087 16.9412 18.1067H16.9066C16.3826 18.0838 16.0317 17.9327 15.8634 17.6579C15.5729 17.1824 15.8312 16.3713 15.9538 16.0994L15.9568 16.0927L16.1934 15.5438C16.5951 14.6139 16.9748 13.6592 17.3419 12.7348C17.4785 12.3919 17.6195 12.0371 17.7597 11.689C17.9166 11.2993 18.4745 11.2599 18.5171 11.2576H19.6304C20.0813 11.2576 20.5138 11.0784 20.8327 10.7596C21.1516 10.4408 21.3308 10.0083 21.331 9.5574C21.331 9.54643 21.331 9.53512 21.3293 9.52512C21.3293 9.51963 21.3293 9.51446 21.3271 9.50897C21.3248 9.50348 21.3271 9.50187 21.3255 9.49832C21.3239 9.49477 21.3255 9.49025 21.3229 9.48637L21.321 9.47862L21.0113 8.14419L22.9647 6.19081C22.9949 6.16069 23.0188 6.12491 23.0351 6.08554C23.0515 6.04616 23.0599 6.00395 23.0599 5.96132C23.06 5.91868 23.0516 5.87646 23.0353 5.83706C23.019 5.79766 22.9951 5.76186 22.965 5.73169C22.9349 5.70152 22.8991 5.67758 22.8597 5.66124C22.8204 5.6449 22.7782 5.63647 22.7355 5.63644C22.6929 5.63641 22.6507 5.64478 22.6113 5.66106C22.5719 5.67735 22.5361 5.70124 22.5059 5.73137L20.5206 7.71671H17.1394C16.8392 7.05191 17.1549 6.78425 17.2637 6.69191C17.4356 6.5499 17.6504 6.47023 17.8733 6.4659L18.5543 6.44717C19.5395 6.42181 20.4772 6.01833 21.1731 5.32035L21.681 4.81247C21.809 4.68296 21.9507 4.56777 22.1036 4.46893C22.585 4.16027 23.3137 3.87905 24.0789 4.99167C24.4794 5.57885 24.6915 6.27404 24.6872 6.98476Z" fill="#D3224D"/>
<path d="M7.04327 14.9772H3.90269C2.78523 14.9326 1.99225 14.5138 1.54572 13.7325C1.33358 13.354 1.20964 12.9325 1.18314 12.4994V12.4914L0.968749 3.16455C0.965752 3.0361 0.911852 2.9141 0.818908 2.8254C0.725963 2.73669 0.601587 2.68854 0.47314 2.69154C0.344693 2.69454 0.222698 2.74844 0.133992 2.84138C0.0452858 2.93432 -0.00286511 3.0587 0.000131981 3.18715L0.214196 12.512C0.241458 13.0937 0.400904 13.6614 0.680424 14.1722C1.10726 14.9416 2.00775 15.876 3.8746 15.9454H7.47689L7.04327 14.9772Z" fill="#D3224D"/>
<path d="M3.78393 17.2131H4.5288H4.56109V15.4622C4.56109 15.3551 4.51857 15.2525 4.44288 15.1768C4.36719 15.1011 4.26454 15.0586 4.1575 15.0586C4.05046 15.0586 3.9478 15.1011 3.87212 15.1768C3.79643 15.2525 3.75391 15.3551 3.75391 15.4622V17.2138L3.78393 17.2131Z" fill="#D3224D"/>
<path d="M3.78224 17.8574H4.52743C5.09542 17.8574 5.64014 18.0831 6.04177 18.4847C6.4434 18.8863 6.66904 19.431 6.66904 19.999H1.64063C1.64062 19.431 1.86626 18.8863 2.26789 18.4847C2.66952 18.0831 3.21425 17.8574 3.78224 17.8574Z" fill="#D3224D"/>
<path d="M26.3237 2.69153C26.2601 2.69008 26.1969 2.70116 26.1375 2.72416C26.0782 2.74717 26.024 2.78163 25.978 2.82558C25.932 2.86954 25.8951 2.92213 25.8695 2.98034C25.8438 3.03856 25.8299 3.10126 25.8284 3.16486L25.6147 12.4917V12.4997C25.5896 12.9212 25.4718 13.3318 25.2696 13.7024C24.8256 14.5035 24.0265 14.9323 22.8945 14.9775H19.7539L19.3203 15.9461H22.9226C24.7898 15.8754 25.6903 14.9423 26.1171 14.1722C26.3966 13.6614 26.5561 13.0937 26.5833 12.512L26.7971 3.18746C26.7986 3.12381 26.7876 3.06047 26.7646 3.00108C26.7417 2.94168 26.7072 2.8874 26.6632 2.84134C26.6193 2.79528 26.5667 2.75833 26.5084 2.73263C26.4502 2.70692 26.3874 2.69296 26.3237 2.69153Z" fill="#D3224D"/>
<path d="M22.2683 17.2131H23.0132H23.0455V15.4622C23.0455 15.3551 23.0029 15.2525 22.9273 15.1768C22.8516 15.1011 22.7489 15.0586 22.6419 15.0586C22.5348 15.0586 22.4322 15.1011 22.3565 15.1768C22.2808 15.2525 22.2383 15.3551 22.2383 15.4622V17.2138L22.2683 17.2131Z" fill="#D3224D"/>
<path d="M25.1562 20H20.1278C20.1278 19.432 20.3535 18.8873 20.7551 18.4857C21.1567 18.084 21.7015 17.8584 22.2694 17.8584H23.0143C23.5823 17.8584 24.127 18.084 24.5287 18.4857C24.9303 18.8873 25.1559 19.432 25.1559 20H25.1562Z" fill="#D3224D"/>
<path d="M12.7617 10.1055H14.0403V18.0785H12.7617V10.1055Z" fill="#D3224D"/>
<path d="M7.03906 8.36133H19.6275V9.45909H7.03906V8.36133Z" fill="#D3224D"/>
</svg>
