<svg width="18" height="20" viewBox="0 0 18 20" fill="none" xmlns="http://www.w3.org/2000/svg">
<path d="M14.4375 7.03125C14.5937 6.84375 14.8438 6.75 15.0938 6.75C15.1875 6.75 15.2812 6.78125 15.4062 6.8125V3.28125H2.75V9.46875H7.46875C7.375 9.1875 7.40625 8.8125 7.6875 8.53125L9.1875 7.03125C9.53125 6.6875 10.125 6.65625 10.4688 7.03125V7C10.4688 6.5 10.875 6.09375 11.375 6.09375H13.5C14.0312 6.125 14.4375 6.53125 14.4375 7.03125ZM5.9375 7.96875H3.65625C3.5 7.96875 3.34375 7.84375 3.34375 7.65625C3.34375 7.5 3.46875 7.34375 3.65625 7.34375H5.9375C6.09375 7.34375 6.25 7.46875 6.25 7.65625C6.21875 7.84375 6.09375 7.96875 5.9375 7.96875ZM6.53125 6.40625H3.625C3.46875 6.40625 3.3125 6.28125 3.3125 6.09375C3.3125 5.9375 3.4375 5.78125 3.625 5.78125H6.53125C6.6875 5.78125 6.84375 5.90625 6.84375 6.09375C6.84375 6.28125 6.71875 6.40625 6.53125 6.40625ZM7.21875 4.875H3.625C3.46875 4.875 3.3125 4.75 3.3125 4.5625C3.3125 4.375 3.4375 4.25 3.625 4.25H7.21875C7.375 4.25 7.53125 4.375 7.53125 4.5625C7.53125 4.75 7.375 4.875 7.21875 4.875Z" fill="#D3224D"/>
<path d="M2.40625 11.5625H2.46875H6.75V10.75C6.75 10.5 6.875 10.25 7.0625 10.0938H2.4375C2.28125 10.0938 2.125 9.96875 2.125 9.78125V3C2.125 2.84375 2.25 2.6875 2.4375 2.6875H15.6875C15.8437 2.6875 16 2.8125 16 3V7.3125L17.25 8.5625C17.2812 8.59375 17.3438 8.65625 17.375 8.6875V1.6875C17.3438 0.75 16.5938 0 15.6562 0H2.46875C1.53125 0 0.78125 0.75 0.78125 1.6875V9.875C0.78125 10.8125 1.5 11.5312 2.40625 11.5625ZM6.625 1.40625C6.78125 1.40625 6.9375 1.53125 6.9375 1.71875C6.9375 1.90625 6.8125 2.03125 6.625 2.03125C6.46875 2.03125 6.3125 1.90625 6.3125 1.71875C6.3125 1.53125 6.46875 1.40625 6.625 1.40625ZM5.125 1.40625C5.28125 1.40625 5.4375 1.53125 5.4375 1.71875C5.4375 1.90625 5.3125 2.03125 5.125 2.03125C4.96875 2.03125 4.8125 1.90625 4.8125 1.71875C4.8125 1.53125 4.96875 1.40625 5.125 1.40625ZM3.625 1.40625C3.78125 1.40625 3.9375 1.53125 3.9375 1.71875C3.9375 1.90625 3.8125 2.03125 3.625 2.03125C3.46875 2.03125 3.3125 1.90625 3.3125 1.71875C3.3125 1.53125 3.46875 1.40625 3.625 1.40625Z" fill="#D3224D"/>
<path d="M7.125 15.25H6.46875C6.46875 15.2188 6.4375 15.1563 6.40625 15.125L6.875 14.6563C7 14.5313 7 14.3438 6.875 14.2188L5.8125 13.1562C5.6875 13.0312 5.5 13.0312 5.375 13.1562L4.90625 13.625C4.875 13.5937 4.8125 13.5938 4.78125 13.5625V12.9062C4.78125 12.75 4.65625 12.5938 4.46875 12.5938H2.96875C2.8125 12.5938 2.65625 12.7187 2.65625 12.9062V13.5625C2.625 13.5625 2.5625 13.5937 2.53125 13.625L2.0625 13.1562C1.9375 13.0312 1.75 13.0312 1.625 13.1562L0.5625 14.2188C0.4375 14.3438 0.4375 14.5313 0.5625 14.6563L1.03125 15.125C1.03125 15.1563 1 15.2188 0.96875 15.25H0.3125C0.15625 15.25 0 15.375 0 15.5625V17.0625C0 17.2188 0.125 17.375 0.3125 17.375H0.96875C0.96875 17.4062 1 17.4688 1.03125 17.5L0.5625 17.9688C0.4375 18.0938 0.4375 18.2813 0.5625 18.4063L1.625 19.4688C1.75 19.5938 1.9375 19.5938 2.0625 19.4688L2.53125 19C2.5625 19.0312 2.625 19.0312 2.65625 19.0625V19.6875C2.65625 19.8438 2.78125 20 2.96875 20H4.46875C4.625 20 4.78125 19.875 4.78125 19.6875V19.0313C4.8125 19.0313 4.875 19 4.90625 18.9688L5.375 19.4375C5.5 19.5625 5.6875 19.5625 5.8125 19.4375L6.875 18.375C7 18.25 7 18.0625 6.875 17.9375L6.40625 17.4688C6.4375 17.4375 6.4375 17.375 6.46875 17.3438H7.125C7.28125 17.3438 7.4375 17.2188 7.4375 17.0312V15.5313C7.4375 15.375 7.28125 15.25 7.125 15.25ZM3.71875 18C2.78125 18 2 17.25 2 16.2812C2 15.3437 2.75 14.5625 3.71875 14.5625C4.65625 14.5625 5.4375 15.3125 5.4375 16.2812C5.4375 17.25 4.65625 18 3.71875 18Z" fill="#D3224D"/>
<path d="M17.25 10.4375H16.2188C16.1875 10.3438 16.125 10.2188 16.0938 10.125L16.8125 9.40625C16.875 9.34375 16.9062 9.28125 16.9062 9.1875C16.9062 9.09375 16.875 9.03125 16.8125 8.96875L15.3125 7.46875C15.1875 7.34375 15 7.34375 14.875 7.46875L14.1563 8.1875C14.0625 8.125 13.9375 8.09375 13.8438 8.0625V7.03125C13.8438 6.875 13.7188 6.71875 13.5313 6.71875H11.4063C11.25 6.71875 11.0938 6.84375 11.0938 7.03125V8.0625C11 8.09375 10.875 8.15625 10.7813 8.1875L10.0312 7.46875C9.90625 7.34375 9.71875 7.34375 9.59375 7.46875C8.28125 8.84375 7.78125 9.09375 8.09375 9.40625L8.8125 10.125C8.75 10.2188 8.71875 10.3438 8.6875 10.4375H7.65625C7.5 10.4375 7.34375 10.5625 7.34375 10.75V12.875C7.34375 13.0312 7.46875 13.1875 7.65625 13.1875H8.6875C8.71875 13.2813 8.78125 13.4062 8.8125 13.5L8.09375 14.2188C8.03125 14.2812 8 14.3438 8 14.4375C8 14.5313 8.03125 14.5938 8.09375 14.6563L9.59375 16.1562C9.71875 16.2812 9.90625 16.2812 10.0312 16.1562L10.75 15.4375C10.8438 15.5 10.9687 15.5312 11.0625 15.5625V16.5938C11.0625 16.75 11.1875 16.9062 11.375 16.9062H13.5C13.6562 16.9062 13.8125 16.7812 13.8125 16.5938V15.5625C13.9062 15.5312 14.0312 15.4688 14.125 15.4375L14.8438 16.1562C14.9688 16.2812 15.1562 16.2812 15.2812 16.1562L16.7812 14.6563C16.8438 14.5938 16.875 14.5313 16.875 14.4375C16.875 14.3438 16.8438 14.2812 16.7812 14.2188L16.0625 13.5C16.125 13.4062 16.1562 13.2813 16.1875 13.1875H17.2188C17.375 13.1875 17.5312 13.0625 17.5312 12.875V10.75C17.5312 10.5938 17.4062 10.4375 17.25 10.4375ZM12.4688 13.875C11.3438 13.875 10.4063 12.9375 10.4063 11.8125C10.4063 10.6875 11.3125 9.75 12.4688 9.75C13.5938 9.75 14.5313 10.6562 14.5313 11.8125C14.5313 12.9375 13.5938 13.875 12.4688 13.875Z" fill="#D3224D"/>
</svg>
