<svg width="22" height="20" viewBox="0 0 22 20" fill="none" xmlns="http://www.w3.org/2000/svg">
<path d="M7.46983 0H6.67989C6.63114 0 6.58622 0.0205491 6.55277 0.0530454C6.52027 0.0855416 6.49973 0.130463 6.49973 0.180163V0.486488C6.49973 0.637022 6.45098 0.775131 6.36448 0.887434C6.27894 0.999737 6.15708 1.08385 6.01228 1.1216C5.83738 1.16891 5.6682 1.22578 5.50572 1.29364H5.50429C5.34037 1.36293 5.17933 1.4413 5.02497 1.53067C4.89498 1.60665 4.75019 1.63341 4.61064 1.61478C4.46967 1.59709 4.33586 1.53354 4.22977 1.42792L4.01281 1.21001C3.97744 1.17608 3.93157 1.1584 3.88569 1.1584C3.83981 1.1584 3.79346 1.17608 3.75857 1.21001L3.19992 1.76913L3.19849 1.7677C3.16456 1.80306 3.14688 1.84894 3.14688 1.89625C3.14688 1.94213 3.16456 1.98848 3.19992 2.02337L3.41688 2.24033C3.5225 2.34594 3.58606 2.48023 3.60374 2.61977C3.62285 2.76075 3.59561 2.90555 3.52106 3.03553C3.4317 3.18845 3.35285 3.34855 3.28403 3.51485C3.21617 3.67877 3.15787 3.84794 3.11199 4.02284C3.07281 4.16764 2.9887 4.2895 2.87639 4.37505C2.76553 4.46154 2.62598 4.51029 2.47688 4.51029H2.16912C2.12038 4.51029 2.0745 4.53036 2.04201 4.56333C2.00951 4.59583 1.98896 4.64171 1.98896 4.69045V5.4804C1.98896 5.53057 2.00951 5.57502 2.04201 5.60751C2.0745 5.64001 2.12038 5.66056 2.16912 5.66056H2.47688C2.62598 5.66056 2.76553 5.71074 2.87639 5.7958C2.9887 5.8823 3.07281 6.00464 3.11199 6.14944C3.15787 6.32291 3.21617 6.49208 3.28403 6.65599C3.35333 6.82278 3.4317 6.98239 3.52106 7.13531C3.59561 7.2653 3.62285 7.4101 3.60374 7.55107C3.58606 7.69062 3.5225 7.8249 3.41688 7.93052L3.19992 8.14748C3.16456 8.18284 3.14688 8.22872 3.14688 8.27459C3.14688 8.32191 3.16456 8.36826 3.19992 8.40315L3.75809 8.96132C3.79202 8.99668 3.83934 9.01436 3.88521 9.01436C3.93109 9.01436 3.97744 8.99668 4.01233 8.96132L4.22929 8.74436C4.3349 8.63731 4.46919 8.57518 4.61017 8.55607C4.74971 8.53695 4.89451 8.56419 5.02449 8.64018C5.17742 8.72811 5.33894 8.80791 5.50525 8.87721C5.66773 8.94507 5.8369 9.00194 6.0118 9.04925C6.1566 9.087 6.27846 9.17111 6.36401 9.28341C6.4505 9.39571 6.49925 9.53382 6.49925 9.68436V9.99068C6.49925 10.0409 6.51932 10.0853 6.55229 10.1178C6.58622 10.1517 6.63067 10.1718 6.67941 10.1718H7.46936C7.51953 10.1718 7.56398 10.1517 7.59647 10.1178C7.62897 10.0853 7.64952 10.0404 7.64952 9.99068V9.68436C7.64952 9.53382 7.6997 9.39571 7.78476 9.28341C7.87126 9.17111 7.9936 9.087 8.1384 9.04925C8.3133 9.00194 8.48104 8.94507 8.64495 8.87721C8.81174 8.80791 8.97135 8.72811 9.12571 8.64018C9.25569 8.56419 9.40049 8.53743 9.54004 8.55607C9.68101 8.57518 9.81386 8.63731 9.91948 8.74436L10.1374 8.96132C10.1713 8.99668 10.2186 9.01436 10.265 9.01436C10.3109 9.01436 10.3572 8.99668 10.3921 8.96132L10.9503 8.40315C10.9856 8.36778 11.0033 8.32191 11.0033 8.27459C11.0033 8.22872 10.9856 8.18236 10.9503 8.14748L10.7333 7.93052C10.6277 7.8249 10.5641 7.69062 10.545 7.55107C10.5273 7.4101 10.5546 7.2653 10.6291 7.13531C10.7185 6.98239 10.7974 6.8223 10.8662 6.65599C10.934 6.49351 10.9909 6.32434 11.0382 6.14944C11.0774 6.00464 11.1601 5.88277 11.2724 5.7958C11.3847 5.71026 11.5242 5.66056 11.6733 5.66056V5.66199H11.982V5.66056C12.0308 5.66056 12.0757 5.64001 12.1091 5.60751C12.1416 5.57502 12.1622 5.5301 12.1622 5.4804V4.69045C12.1622 4.64171 12.1421 4.59583 12.1091 4.56333C12.0767 4.53084 12.0308 4.51029 11.982 4.51029H11.6748C11.5257 4.51029 11.3861 4.46154 11.2738 4.37505C11.1615 4.2895 11.0788 4.16621 11.0396 4.02284C10.9938 3.8508 10.9379 3.68546 10.8729 3.52728L10.8676 3.51485C10.7983 3.34807 10.7199 3.18845 10.6306 3.03553C10.556 2.90555 10.5288 2.76075 10.5465 2.6212C10.5656 2.48023 10.6291 2.34642 10.7347 2.24033L10.9517 2.02337C10.9871 1.98801 11.0048 1.94213 11.0048 1.89625C11.0048 1.84894 10.9871 1.80259 10.9517 1.7677L10.3931 1.21001C10.3577 1.17464 10.3118 1.1584 10.2659 1.1584C10.2201 1.1584 10.1723 1.17464 10.1383 1.21001L9.92043 1.42792C9.81482 1.53354 9.68197 1.59709 9.54099 1.61478C9.40145 1.63389 9.25665 1.60665 9.12666 1.53067C8.97231 1.44274 8.81221 1.36245 8.64591 1.29364C8.48486 1.22721 8.31521 1.16891 8.13935 1.12303C7.99455 1.08385 7.87269 0.999737 7.78572 0.887434C7.70017 0.776565 7.65047 0.637022 7.65047 0.486488V0.180163C7.65047 0.129985 7.62993 0.0855416 7.59743 0.0530454C7.56446 0.0205491 7.52001 0 7.46983 0ZM9.09799 3.0642C8.58044 2.54665 7.86552 2.22551 7.07558 2.22551C6.28563 2.22551 5.57071 2.54665 5.05316 3.0642C4.53561 3.58175 4.21448 4.29715 4.21448 5.08662C4.21448 5.87656 4.53561 6.59005 5.05316 7.10903C5.57071 7.62658 6.28611 7.94629 7.07558 7.94629C7.86552 7.94629 8.58044 7.62658 9.09799 7.10903C9.61554 6.59005 9.93525 5.87656 9.93525 5.08662C9.93525 4.29715 9.61554 3.58175 9.09799 3.0642ZM7.07558 1.74763C7.99694 1.74763 8.83133 2.12134 9.43538 2.72586C10.0394 3.33039 10.4136 4.1643 10.4136 5.08709C10.4136 6.00846 10.0399 6.84285 9.43538 7.4469C8.83133 8.05094 7.99694 8.42513 7.07558 8.42513C6.15326 8.42513 5.31839 8.05142 4.71434 7.4469C4.11173 6.84285 3.73755 6.00846 3.73755 5.08709C3.73755 4.16478 4.11125 3.32991 4.71434 2.72586C5.31887 2.12134 6.15326 1.74763 7.07558 1.74763ZM6.0314 5.82113C6.02041 5.68971 6.11694 5.57311 6.24836 5.56259C6.37834 5.55064 6.49495 5.6467 6.50689 5.77812C6.51502 5.87847 6.57714 5.9731 6.67081 6.04382C6.77499 6.1222 6.9174 6.17094 7.07606 6.17094C7.24284 6.17094 7.39146 6.11694 7.49755 6.0314C7.58978 5.95541 7.64665 5.85506 7.64665 5.74849C7.64665 5.44121 7.33937 5.38147 7.03161 5.32174C6.53031 5.22281 6.02805 5.12533 6.02805 4.42475C6.02805 4.16717 6.15278 3.9373 6.35301 3.77339C6.48443 3.66491 6.64978 3.58653 6.83233 3.54974V3.3237C6.83233 3.19228 6.93938 3.08523 7.07223 3.08523H7.08036H7.08561C7.21703 3.0881 7.32121 3.19753 7.31882 3.32895L7.31356 3.5483C7.49898 3.5851 7.6672 3.66347 7.80005 3.77339C8.00076 3.9373 8.12358 4.16764 8.12358 4.42475C8.12358 4.5576 8.01654 4.66464 7.88512 4.66464C7.7537 4.66464 7.64665 4.5576 7.64665 4.42475C7.64665 4.3177 7.58978 4.21734 7.49755 4.14184C7.39194 4.05629 7.24284 4.00229 7.07606 4.00229C6.90927 4.00229 6.76065 4.05629 6.65456 4.14184C6.56233 4.21782 6.50546 4.31818 6.50546 4.42475C6.50546 4.73203 6.81274 4.79176 7.1205 4.85293C7.6218 4.95042 8.1231 5.04791 8.1231 5.74849C8.1231 6.00607 7.99981 6.23641 7.79957 6.40128C7.66672 6.50833 7.50042 6.58813 7.31452 6.62493L7.3107 6.81465V6.85002C7.3107 6.98144 7.20365 7.08848 7.07223 7.08848C6.93938 7.08848 6.83233 6.98144 6.83233 6.85002V6.62398C6.66316 6.59005 6.50881 6.5198 6.38264 6.4247C6.18575 6.27464 6.05434 6.06198 6.0314 5.82113ZM4.16047 12.448C3.91675 12.2042 3.57937 12.0523 3.20661 12.0523C2.83434 12.0523 2.49695 12.2038 2.25275 12.448C2.00903 12.6917 1.8585 13.0291 1.8585 13.4004C1.8585 13.7731 2.00903 14.1101 2.25275 14.3543C2.49648 14.598 2.83386 14.7499 3.20661 14.7499C3.57937 14.7499 3.91627 14.5985 4.16047 14.3543C4.4042 14.1105 4.55473 13.7731 4.55473 13.4004C4.55473 13.0291 4.4042 12.6917 4.16047 12.448ZM13.3368 12.5263C13.0955 12.2864 12.7639 12.1373 12.3968 12.1373C12.0313 12.1373 11.6991 12.2864 11.4583 12.5263C11.2184 12.7677 11.0693 13.0993 11.0693 13.4663C11.0693 13.8319 11.2184 14.1641 11.4583 14.4049C11.6996 14.6448 12.0313 14.7939 12.3968 14.7939C12.7639 14.7939 13.096 14.6448 13.3368 14.4049C13.5767 14.1636 13.7258 13.8319 13.7258 13.4663C13.7254 13.0993 13.5763 12.7677 13.3368 12.5263ZM17.5117 2.45729C17.5657 2.57772 17.5131 2.71869 17.3927 2.77269C17.2737 2.82669 17.1313 2.77413 17.0773 2.6537L16.5989 1.58897C16.5449 1.46854 16.5975 1.32757 16.7179 1.27357C16.8369 1.21956 16.9793 1.27357 17.0333 1.39256L17.5117 2.45729ZM18.8244 2.36936C18.7957 2.49791 18.67 2.58058 18.5401 2.55239C18.4115 2.52515 18.3303 2.39803 18.357 2.26948L18.5845 1.22243C18.6132 1.09388 18.7403 1.01121 18.8688 1.0394C18.9974 1.06664 19.0786 1.19376 19.0519 1.32231L18.8244 2.36936ZM16.1626 3.07233C16.2725 3.14544 16.3007 3.29311 16.2261 3.40303C16.153 3.51151 16.0054 3.5397 15.8954 3.46658L15.0501 2.89073C14.9416 2.81762 14.9134 2.66995 14.9865 2.56003C15.0611 2.45155 15.2087 2.42336 15.3172 2.49648L16.1626 3.07233ZM17.99 17.5738V13.3149C17.99 13.182 18.0971 13.075 18.2299 13.075C18.3613 13.075 18.4684 13.182 18.4684 13.3149V17.5738C18.5009 17.6349 18.5539 17.6889 18.6199 17.731C18.704 17.7826 18.8096 17.8137 18.9248 17.8137C19.124 17.8137 19.3625 17.7812 19.525 17.7038C19.5967 17.6684 19.6468 17.6306 19.6468 17.5915V12.3682C19.6468 12.1894 19.6468 12.1918 19.6468 12.1909C19.644 12.1718 19.6416 12.1517 19.6416 11.9428V8.67554C19.6416 8.54269 19.7486 8.43564 19.8801 8.43564C20.0115 8.43564 20.1185 8.54269 20.1185 8.67554V11.8062C20.1458 11.8129 20.174 11.8172 20.2064 11.8181C20.3326 11.8224 20.4827 11.7871 20.6222 11.7288C20.7603 11.6719 20.8798 11.5973 20.9486 11.5214C20.9692 11.4998 20.9797 11.4903 20.9797 11.4889C21.049 9.79427 21.0905 8.67124 20.7589 8.028C20.4487 7.42635 19.7482 7.21273 18.3126 7.27199C16.7575 7.33555 16.748 7.34797 16.1506 8.13601C16.0178 8.31235 15.8596 8.52214 15.6412 8.79023C15.6058 8.83372 15.5571 8.86335 15.4988 8.87434L12.6148 9.39571C12.6014 9.39858 12.5875 9.40097 12.5727 9.40097C12.4293 9.40766 12.3017 9.47265 12.2138 9.57158C12.1259 9.66907 12.0728 9.80048 12.0786 9.94289V9.94958C12.0853 10.0944 12.1502 10.2234 12.2477 10.3128C12.3424 10.3993 12.4685 10.4509 12.6066 10.448L15.8171 9.91279C15.829 9.90992 15.8414 9.90896 15.8539 9.90896C15.9255 9.90514 15.9972 9.88603 16.0637 9.85353C16.1258 9.82103 16.1841 9.77611 16.2304 9.71685H16.2319L16.3972 9.51232C16.4407 9.45927 16.5081 9.42439 16.5826 9.42582C16.7141 9.42582 16.8197 9.53287 16.8197 9.66429C16.8168 10.0461 16.8144 10.4093 16.8115 10.7668L16.8101 10.9431L16.8115 17.4371C16.8115 17.5021 16.8875 17.5795 16.9946 17.6483C17.1532 17.7487 17.3616 17.8137 17.5336 17.8137C17.6488 17.8137 17.7544 17.7826 17.8385 17.731C17.9059 17.6889 17.959 17.6349 17.99 17.5738ZM8.47769 12.5263C8.23636 12.2864 7.90471 12.1373 7.53913 12.1373C7.17211 12.1373 6.83998 12.2864 6.59913 12.5263C6.35923 12.7677 6.21013 13.0993 6.21013 13.4663C6.21013 13.8319 6.35923 14.1641 6.59913 14.4049C6.84046 14.6448 7.17211 14.7939 7.53913 14.7939C7.90471 14.7939 8.23684 14.6448 8.47769 14.4049C8.71759 14.1636 8.86669 13.8319 8.86669 13.4663C8.86622 13.0993 8.71759 12.7677 8.47769 12.5263ZM14.7891 18.7006H14.6783H10.1159H9.82055H5.29354C5.28255 18.7035 5.2706 18.7035 5.25818 18.7035C5.24575 18.7035 5.23381 18.7035 5.22138 18.7006H0.895558H0.648969C0.47024 18.7006 0.307759 18.7737 0.189721 18.8918C0.0731166 19.0098 0 19.1723 0 19.351C0 19.5298 0.0731166 19.6913 0.189721 19.8088C0.307759 19.9269 0.47024 20 0.648969 20H14.7887C14.9674 20 15.1299 19.9269 15.2479 19.8088C15.3659 19.6908 15.4391 19.5298 15.4391 19.351C15.4391 19.1723 15.3659 19.0098 15.2479 18.8918C15.1303 18.7742 14.9679 18.7006 14.7891 18.7006ZM10.3553 18.2242H14.4393V16.6581C14.4393 16.2625 14.2917 15.9007 14.0494 15.6245C13.8162 15.3602 13.4993 15.1748 13.1419 15.1112C12.9144 15.214 12.6625 15.2723 12.3968 15.2723C12.1326 15.2723 11.8807 15.214 11.6532 15.1112C11.2958 15.1748 10.9775 15.3607 10.7457 15.6245C10.5035 15.9007 10.3558 16.2625 10.3558 16.6581V18.2242H10.3553ZM5.49617 18.2242H9.58018V16.6581C9.58018 16.2625 9.43251 15.9007 9.19022 15.6245C8.95845 15.3602 8.64018 15.1748 8.28272 15.1112C8.05524 15.214 7.8034 15.2723 7.53913 15.2723C7.27342 15.2723 7.02158 15.214 6.7941 15.1112C6.43664 15.1748 6.11933 15.3607 5.8866 15.6245C5.64431 15.9007 5.49664 16.2625 5.49664 16.6581V18.2242H5.49617ZM1.13402 18.2242H5.0178V16.6581C5.0178 16.4182 5.05986 16.1893 5.13584 15.9752C5.02879 15.7411 4.86631 15.5375 4.6656 15.3808C4.46393 15.2221 4.2226 15.1112 3.95976 15.0654C3.73085 15.1695 3.47471 15.2278 3.20661 15.2278C2.93852 15.2278 2.68237 15.1695 2.45347 15.0654C2.09457 15.1275 1.7763 15.3119 1.54166 15.5733C1.53784 15.5772 1.53497 15.5829 1.53067 15.5853C1.28408 15.8658 1.13355 16.2343 1.13355 16.6338V18.2242H1.13402ZM19.5842 4.31196C19.308 4.04769 18.9248 3.88521 18.499 3.88521C18.0732 3.88521 17.6904 4.04769 17.4137 4.31196C17.1399 4.57193 16.9707 4.93226 16.9707 5.32938C16.9707 5.72651 17.1399 6.08683 17.4137 6.3468C17.6899 6.61107 18.0732 6.77355 18.499 6.77355C18.9248 6.77355 19.3075 6.61107 19.5842 6.3468C19.8581 6.08683 20.0272 5.72651 20.0272 5.32938C20.0272 4.93226 19.8581 4.57193 19.5842 4.31196Z" fill="#D3224D"/>
</svg>
