<svg width="22" height="20" viewBox="0 0 22 20" fill="none" xmlns="http://www.w3.org/2000/svg">
<path fill-rule="evenodd" clip-rule="evenodd" d="M15.288 13.0135C15.288 12.9666 15.2972 12.9202 15.3151 12.8769C15.333 12.8336 15.3593 12.7943 15.3924 12.7612C15.4256 12.7281 15.4649 12.7018 15.5082 12.6839C15.5515 12.6659 15.5978 12.6567 15.6447 12.6567H19.042C19.1367 12.6567 19.2274 12.6943 19.2943 12.7612C19.3612 12.8281 19.3988 12.9188 19.3988 13.0135C19.3988 13.1081 19.3612 13.1988 19.2943 13.2657C19.2274 13.3326 19.1367 13.3702 19.042 13.3702H15.6447C15.5978 13.3702 15.5515 13.361 15.5082 13.3431C15.4649 13.3251 15.4256 13.2989 15.3924 13.2657C15.3593 13.2326 15.333 13.1933 15.3151 13.15C15.2972 13.1067 15.288 13.0603 15.288 13.0135ZM10.9565 14.5223C10.9565 11.5013 8.49858 9.04405 5.47822 9.04405C2.45787 9.04405 0 11.5012 0 14.5223C0 17.5425 2.45758 20 5.47822 20C8.49887 20 10.9565 17.5424 10.9565 14.5222V14.5223ZM5.17809 5.13538L11.6342 7.45724C11.6644 7.39967 11.7099 7.35146 11.7655 7.3178C11.8212 7.28414 11.885 7.26631 11.9501 7.26624H14.6273C14.6924 7.26628 14.7563 7.2841 14.812 7.31776C14.8677 7.35142 14.9131 7.39965 14.9434 7.45724L21.3993 5.13538V2.64361H5.17809V5.13538ZM12.3068 7.97969V8.88285H14.2706V7.97969H12.3068ZM5.83466 6.1294V8.34126C9.08342 8.52675 11.6696 11.228 11.6696 14.5222C11.6696 14.5744 11.6688 14.6267 11.6675 14.6787H20.5491C20.5905 14.6786 20.6303 14.6621 20.6596 14.6328C20.6889 14.6035 20.7054 14.5637 20.7055 14.5223V6.1429L14.9841 8.20074V9.23957C14.9841 9.28642 14.9749 9.3328 14.9569 9.37608C14.939 9.41936 14.9127 9.45869 14.8796 9.49181C14.8465 9.52493 14.8071 9.55121 14.7639 9.56913C14.7206 9.58705 14.6742 9.59626 14.6273 9.59625H11.9501C11.9032 9.59625 11.8569 9.58702 11.8136 9.56909C11.7703 9.55116 11.731 9.52488 11.6979 9.49176C11.6648 9.45864 11.6385 9.41932 11.6206 9.37605C11.6027 9.33278 11.5935 9.2864 11.5935 9.23957V8.20074L5.83466 6.1294ZM7.96088 16.7281H9.12484C9.172 16.7276 9.21879 16.7365 9.2625 16.7541C9.30622 16.7718 9.34599 16.798 9.37952 16.8312C9.41304 16.8644 9.43966 16.9038 9.45783 16.9474C9.47599 16.9909 9.48534 17.0376 9.48534 17.0847C9.48534 17.1319 9.47599 17.1786 9.45783 17.2221C9.43966 17.2656 9.41304 17.3051 9.37952 17.3383C9.34599 17.3715 9.30622 17.3976 9.2625 17.4153C9.21879 17.433 9.172 17.4419 9.12484 17.4414H1.83135C1.7842 17.4419 1.73741 17.433 1.69369 17.4153C1.64998 17.3976 1.61021 17.3715 1.57668 17.3383C1.54315 17.3051 1.51654 17.2656 1.49837 17.2221C1.48021 17.1786 1.47085 17.1319 1.47085 17.0847C1.47085 17.0376 1.48021 16.9909 1.49837 16.9474C1.51654 16.9038 1.54315 16.8644 1.57668 16.8312C1.61021 16.798 1.64998 16.7718 1.69369 16.7541C1.73741 16.7365 1.7842 16.7276 1.83135 16.7281H2.85376V15.1887C2.85325 15.1415 2.86209 15.0948 2.87979 15.051C2.89748 15.0073 2.92367 14.9676 2.95683 14.934C2.99 14.9005 3.02948 14.8739 3.07301 14.8557C3.11653 14.8376 3.16322 14.8282 3.21038 14.8282C3.25754 14.8282 3.30423 14.8376 3.34775 14.8557C3.39127 14.8739 3.43076 14.9005 3.46392 14.934C3.49709 14.9676 3.52328 15.0073 3.54097 15.051C3.55866 15.0948 3.56751 15.1415 3.567 15.1887V16.7281H4.31827V13.8561C4.31776 13.8089 4.32661 13.7621 4.3443 13.7184C4.362 13.6747 4.38818 13.6349 4.42135 13.6014C4.45451 13.5679 4.494 13.5412 4.53752 13.5231C4.58104 13.5049 4.62773 13.4956 4.67489 13.4956C4.72205 13.4956 4.76874 13.5049 4.81226 13.5231C4.85579 13.5412 4.89527 13.5679 4.92844 13.6014C4.9616 13.6349 4.98779 13.6747 5.00548 13.7184C5.02318 13.7621 5.03202 13.8089 5.03151 13.8561V16.7281H5.78258V14.4503C5.78258 14.3557 5.82016 14.2649 5.88706 14.198C5.95396 14.1311 6.04469 14.0935 6.1393 14.0935C6.23391 14.0935 6.32465 14.1311 6.39155 14.198C6.45845 14.2649 6.49603 14.3557 6.49603 14.4503V16.7281H7.24772V13.0995C7.24721 13.0524 7.25606 13.0056 7.27375 12.9619C7.29144 12.9181 7.31763 12.8784 7.3508 12.8448C7.38396 12.8113 7.42345 12.7847 7.46697 12.7665C7.51049 12.7484 7.55718 12.739 7.60434 12.739C7.6515 12.739 7.69819 12.7484 7.74171 12.7665C7.78523 12.7847 7.82472 12.8113 7.85789 12.8448C7.89105 12.8784 7.91724 12.9181 7.93493 12.9619C7.95263 13.0056 7.96147 13.0524 7.96096 13.0995V16.7281H7.96088ZM3.21027 14.4052C3.13829 14.4053 3.06799 14.3835 3.00861 14.3428C2.94923 14.3021 2.90355 14.2444 2.87757 14.1773C2.85158 14.1102 2.84651 14.0368 2.86302 13.9667C2.87953 13.8966 2.91685 13.8332 2.97007 13.7848L4.43501 12.4521C4.48468 12.4069 4.54615 12.3765 4.61232 12.3647C4.67849 12.3529 4.74666 12.36 4.80895 12.3853L6.06399 12.8945L7.36216 11.6975C7.39651 11.6653 7.43687 11.6403 7.48094 11.6238C7.525 11.6073 7.57189 11.5998 7.6189 11.6015C7.66592 11.6032 7.71212 11.6142 7.75487 11.6339C7.79761 11.6535 7.83604 11.6814 7.86794 11.716C7.89985 11.7506 7.9246 11.7911 7.94077 11.8353C7.95694 11.8795 7.96421 11.9264 7.96216 11.9734C7.96011 12.0204 7.94878 12.0665 7.92883 12.1091C7.90888 12.1517 7.88069 12.19 7.8459 12.2216L6.38138 13.5726C6.33154 13.6184 6.26975 13.6491 6.20317 13.6611C6.13659 13.6732 6.06795 13.6661 6.00522 13.6408L4.74893 13.1309L3.45026 14.3121C3.38475 14.3721 3.29911 14.4053 3.21027 14.4052ZM11.1449 1.93041V1.10842C11.1449 1.05644 11.1552 1.00499 11.1751 0.956985C11.1951 0.908983 11.2243 0.865377 11.261 0.82866C11.2978 0.791942 11.3415 0.762832 11.3895 0.742992C11.4376 0.723152 11.489 0.712971 11.541 0.713032H14.9996C15.0516 0.712971 15.1031 0.723151 15.1511 0.742989C15.1992 0.762826 15.2429 0.791934 15.2796 0.82865C15.3164 0.865365 15.3456 0.908969 15.3656 0.956972C15.3855 1.00497 15.3958 1.05644 15.3959 1.10842V1.93041H16.1093V1.10842C16.1089 0.814345 15.9919 0.53245 15.7838 0.32463C15.5757 0.116811 15.2937 5.50983e-05 14.9996 0H11.541C11.247 7.73637e-05 10.965 0.116854 10.757 0.32468C10.549 0.532507 10.432 0.81439 10.4317 1.10842V1.93041H11.1449Z" fill="#D3224D"/>
</svg>
