<svg width="62" height="90" viewBox="0 0 62 90" fill="none" xmlns="http://www.w3.org/2000/svg">
<path d="M30.8731 75.7987C30.3455 75.7987 29.7739 75.6229 29.3342 75.2711L29.2463 75.1832C11.176 61.8613 4.93267 44.0107 2.86624 31.3923C0.667896 17.7626 2.69037 7.34245 2.7783 6.90278C2.82227 6.68295 2.86623 6.50708 2.99814 6.28725L3.08607 6.11138C3.3059 5.62775 3.7016 5.23205 4.14127 4.96825C4.14127 4.96825 4.22921 4.92428 4.36111 4.83635C4.58094 4.66048 4.84474 4.57254 5.15251 4.48461C5.19647 4.48461 9.15348 3.60528 12.7148 2.50611C16.6718 1.27504 23.003 0 30.7851 0H31.2248C39.0069 0 45.3381 1.27504 49.2951 2.50611C52.8565 3.60528 56.7695 4.57255 56.8135 4.57255C57.1212 4.66048 57.385 4.74841 57.6049 4.92428C57.7368 4.96825 57.7807 5.01221 57.7807 5.01221C58.2644 5.27601 58.6161 5.67171 58.8359 6.11138L58.9239 6.28725C59.0118 6.46312 59.0997 6.68295 59.1437 6.90278C59.2316 7.34245 61.2541 17.7626 59.0558 31.3923C56.9893 44.0107 50.7461 61.9052 32.6317 75.2272L32.4998 75.3151C31.9283 75.6229 31.4007 75.7987 30.8731 75.7987Z" fill="#081933"/>
<path d="M30.8728 73.8203C30.7409 73.8203 30.653 73.7764 30.5651 73.7324L30.4332 73.6444C12.8904 60.7182 6.823 43.3513 4.8445 31.0846C2.69012 17.8066 4.7126 7.43048 4.7126 7.34255C4.7126 7.29858 4.7126 7.25461 4.75656 7.21065L4.8445 7.03478C4.88846 6.94685 4.9764 6.85891 5.06433 6.81495C5.06433 6.81495 5.19623 6.77098 5.3721 6.63908C5.41606 6.59511 5.504 6.55115 5.59193 6.50718C5.6359 6.50718 9.59291 5.45198 13.1982 4.35281C17.0233 3.20967 23.1347 1.80273 30.653 1.80273H31.0927C38.611 1.80273 44.7224 3.20967 48.5475 4.39678C52.1527 5.49594 56.1098 6.55115 56.1537 6.55115C56.2417 6.59511 56.3296 6.59511 56.3736 6.68305C56.5934 6.77098 56.6813 6.81495 56.6813 6.81495C56.7693 6.85891 56.8572 6.94685 56.9012 7.03478L56.9891 7.21065C56.9891 7.25461 57.0331 7.29858 57.0331 7.34255C57.0331 7.43048 59.0555 17.8066 56.9012 31.0846C54.9227 43.3513 48.8552 60.6743 31.2685 73.6005L31.1366 73.6884C31.0927 73.7764 30.9608 73.8203 30.8728 73.8203Z" fill="#070E20"/>
<path d="M31.0925 2.28567C38.347 2.28567 44.3265 3.60467 48.4154 4.87971C52.0646 5.97888 56.0656 7.07805 56.0656 7.07805V7.12202C56.3294 7.25392 56.5053 7.34185 56.5053 7.34185L56.5932 7.51772C56.5932 7.51772 64.771 48.4508 31.0485 73.292L30.9166 73.38L30.7847 73.292C-2.98176 48.4068 5.19606 7.42978 5.19606 7.42978L5.284 7.25392C5.284 7.25392 5.4159 7.16598 5.72366 7.03408V6.99012C5.72366 6.99012 9.72464 5.93491 13.3739 4.79178C17.4628 3.51674 23.4423 2.19774 30.6968 2.19774C30.7847 2.19774 30.8287 2.19774 30.9166 2.19774C30.9606 2.28567 31.0046 2.28567 31.0925 2.28567ZM31.0925 1.23047H30.9606H30.8727H30.7847H30.6528C23.0466 1.23047 16.8912 2.68137 13.0221 3.86848C9.41687 4.96764 5.45986 6.02285 5.41589 6.02285C5.28399 6.06681 5.1521 6.11078 5.0202 6.24268C4.84433 6.33061 4.75639 6.37458 4.75639 6.37458C4.58053 6.46252 4.40466 6.63838 4.31673 6.81425L4.27276 6.99012C4.22879 7.07805 4.22879 7.16598 4.18483 7.20995C4.09689 7.64962 2.11839 17.762 4.31673 31.1279C5.59176 38.9979 8.0539 46.2964 11.6152 52.8914C16.0998 61.1132 22.2991 68.1919 30.1252 73.9515L30.2571 74.0395C30.433 74.1714 30.6528 74.2593 30.8727 74.2593C31.0925 74.2593 31.3123 74.2153 31.4882 74.0834L31.6201 73.9955C39.4462 68.2358 45.6455 61.1572 50.1301 52.9354C53.6914 46.3404 56.1536 39.0419 57.4286 31.1718C59.583 17.8059 57.6484 7.64962 57.5605 7.25392C57.5605 7.16598 57.5165 7.07805 57.4726 7.03408L57.3846 6.85822C57.2967 6.68235 57.1208 6.50648 56.945 6.41855C56.945 6.41855 56.857 6.37458 56.6812 6.28665C56.5493 6.19871 56.4174 6.11078 56.2855 6.06681C56.2415 6.06681 52.2845 5.01161 48.6792 3.91244C44.8541 2.68137 38.6548 1.23047 31.0925 1.23047Z" fill="white"/>
<path d="M7.96626 67.4025C7.83436 69.7327 6.20759 71.5354 6.20759 71.5354C6.20759 71.5354 4.80065 69.5569 4.93255 67.2266C5.06446 64.8964 6.69123 63.0938 6.69123 63.0938C6.69123 63.0938 8.09816 65.0723 7.96626 67.4025Z" fill="#D3224D"/>
<path d="M1.10739 69.2941C2.42639 71.2287 4.71267 71.9321 4.71267 71.9321C4.71267 71.9321 4.9325 69.514 3.6135 67.5794C2.29449 65.6449 0.0082217 64.9414 0.0082217 64.9414C0.0082217 64.9414 -0.167645 67.3596 1.10739 69.2941Z" fill="#D3224D"/>
<path d="M13.638 74.7887C14.5173 76.9431 13.8139 79.2734 13.8139 79.2734C13.8139 79.2734 11.7035 78.0863 10.7802 75.9319C9.90082 73.7775 10.6043 71.4473 10.6043 71.4473C10.6043 71.4473 12.7587 72.6344 13.638 74.7887Z" fill="#D3224D"/>
<path d="M8.27386 79.4498C10.2963 80.6369 12.6705 80.2852 12.6705 80.2852C12.6705 80.2852 11.8352 77.9989 9.81269 76.8118C7.79022 75.6247 5.41602 75.9764 5.41602 75.9764C5.41602 75.9764 6.25138 78.2627 8.27386 79.4498Z" fill="#D3224D"/>
<path d="M21.4199 80.1953C23.0467 81.866 23.2665 84.2842 23.2665 84.2842C23.2665 84.2842 20.8484 83.9764 19.2216 82.3057C17.5948 80.635 17.375 78.2168 17.375 78.2168C17.375 78.2168 19.7932 78.5246 21.4199 80.1953Z" fill="#D3224D"/>
<path d="M18.1665 86.5266C20.4527 86.8783 22.5631 85.6473 22.5631 85.6473C22.5631 85.6473 20.9364 83.8446 18.6501 83.4929C16.3638 83.1412 14.2534 84.3722 14.2534 84.3722C14.2534 84.3722 15.8362 86.1749 18.1665 86.5266Z" fill="#D3224D"/>
<path d="M3.61356 58.6083C4.18512 60.8506 3.12992 63.0489 3.12992 63.0489C3.12992 63.0489 1.19538 61.554 0.667781 59.3117C0.0962134 57.0694 1.15142 54.8711 1.15142 54.8711C1.15142 54.8711 3.04199 56.322 3.61356 58.6083Z" fill="#D3224D"/>
<path d="M53.7797 67.4025C53.9116 69.7327 55.5384 71.5354 55.5384 71.5354C55.5384 71.5354 56.9453 69.5569 56.8134 67.2266C56.6815 64.8964 55.0548 63.0938 55.0548 63.0938C55.0548 63.0938 53.6478 65.0723 53.7797 67.4025Z" fill="#D3224D"/>
<path d="M60.6385 69.2941C59.3195 71.2287 57.0333 71.9321 57.0333 71.9321C57.0333 71.9321 56.8134 69.514 58.1324 67.5794C59.4514 65.6449 61.7377 64.9414 61.7377 64.9414C61.7377 64.9414 61.9136 67.3596 60.6385 69.2941Z" fill="#D3224D"/>
<path d="M48.1078 74.7887C47.2285 76.9431 47.9319 79.2734 47.9319 79.2734C47.9319 79.2734 50.0423 78.0863 50.9656 75.9319C51.845 73.7775 51.1415 71.4473 51.1415 71.4473C51.1415 71.4473 48.9871 72.6344 48.1078 74.7887Z" fill="#D3224D"/>
<path d="M53.4719 79.4498C51.4494 80.6369 49.0752 80.2852 49.0752 80.2852C49.0752 80.2852 49.9106 77.9989 51.933 76.8118C53.9555 75.6247 56.3297 75.9764 56.3297 75.9764C56.3297 75.9764 55.4943 78.2627 53.4719 79.4498Z" fill="#D3224D"/>
<path d="M40.3256 80.1953C38.6988 81.866 38.479 84.2842 38.479 84.2842C38.479 84.2842 40.8972 83.9764 42.5239 82.3057C44.1507 80.635 44.3705 78.2168 44.3705 78.2168C44.3705 78.2168 41.9524 78.5246 40.3256 80.1953Z" fill="#D3224D"/>
<path d="M43.5793 86.5266C41.293 86.8783 39.1826 85.6473 39.1826 85.6473C39.1826 85.6473 40.8094 83.8446 43.0957 83.4929C45.3819 83.1412 47.4923 84.3722 47.4923 84.3722C47.4923 84.3722 45.9095 86.1749 43.5793 86.5266Z" fill="#D3224D"/>
<path d="M58.1321 58.6083C57.5606 60.8506 58.6158 63.0489 58.6158 63.0489C58.6158 63.0489 60.5503 61.554 61.0779 59.3117C61.6495 57.0694 60.5943 54.8711 60.5943 54.8711C60.5943 54.8711 58.7037 56.322 58.1321 58.6083Z" fill="#D3224D"/>
<path d="M35.3134 85.5598L30.8728 90.0004L26.4321 85.5598L30.8728 81.1191L35.3134 85.5598Z" fill="#D3224D"/>
<path d="M42.48 25.8089C42.48 25.8089 31.7522 26.7322 19.3535 25.8089C19.3096 25.0614 19.3535 21.2363 19.3535 21.2363C32.2358 22.2476 42.48 21.2363 42.48 21.2363V25.8089Z" fill="white"/>
<path d="M42.4803 25.94C41.9967 25.9839 32.9835 26.9952 19.3538 25.94C18.7383 25.4124 19.3098 24.8848 19.3098 24.8848C32.1481 25.896 42.4803 24.8848 42.4803 24.8848C42.4803 24.8848 43.0519 25.3244 42.4803 25.94Z" fill="white"/>
<path d="M39.1387 21.4121H42.4362L43.7112 13.498L39.1387 21.4121Z" fill="white"/>
<path d="M37.732 12.0918L33.5552 21.5886V21.7205H39.2709V21.5007L37.732 12.0918Z" fill="white"/>
<path d="M30.9169 11.6953L28.191 21.1042L24.102 11.8712L22.5632 20.9283L18.1665 13.2781H18.1226L19.3976 21.1921H22.5632V21.2801V21.5439H28.103L28.059 21.6758H27.9711V21.7197H33.8627V21.2801L30.9169 11.6953Z" fill="white"/>
<path d="M42.4803 22.0279C41.9967 22.0718 32.9835 23.0831 19.3538 22.0279C18.7383 21.5003 19.3098 20.9727 19.3098 20.9727C32.1481 21.9839 42.4803 21.0166 42.4803 21.0166C42.4803 21.0166 43.0519 21.4123 42.4803 22.0279Z" fill="white"/>
<path d="M30.8729 12.575C31.31 12.575 31.6643 12.2207 31.6643 11.7836C31.6643 11.3465 31.31 10.9922 30.8729 10.9922C30.4359 10.9922 30.0815 11.3465 30.0815 11.7836C30.0815 12.2207 30.4359 12.575 30.8729 12.575Z" fill="white"/>
<path d="M38.5672 12.3986C38.5672 12.8383 38.2154 13.19 37.7758 13.19C37.3361 13.19 36.9844 12.8383 36.9844 12.3986C36.9844 11.959 37.3361 11.6072 37.7758 11.6072C38.2154 11.5633 38.5672 11.915 38.5672 12.3986Z" fill="white"/>
<path d="M44.5027 13.7621C44.5027 14.2018 44.151 14.5535 43.7113 14.5535C43.2717 14.5535 42.9199 14.2018 42.9199 13.7621C42.9199 13.3224 43.2717 12.9707 43.7113 12.9707C44.151 12.9707 44.5027 13.3224 44.5027 13.7621Z" fill="white"/>
<path d="M24.7615 12.0037C24.7615 12.4434 24.4098 12.7951 23.9701 12.7951C23.5304 12.7951 23.1787 12.4434 23.1787 12.0037C23.1787 11.5641 23.5304 11.2123 23.9701 11.2123C24.4098 11.1684 24.7615 11.5641 24.7615 12.0037Z" fill="white"/>
<path d="M18.8699 13.3656C18.8699 13.8053 18.5182 14.157 18.0785 14.157C17.6388 14.157 17.2871 13.8053 17.2871 13.3656C17.2871 12.926 17.6388 12.5742 18.0785 12.5742C18.5182 12.5742 18.8699 12.926 18.8699 13.3656Z" fill="white"/>
<path d="M20.5405 35.657H17.5068V32.0957H28.3227V35.657H25.245V47.9677C25.245 49.4186 25.5528 50.6936 26.1243 51.573C27.0037 53.0239 28.7623 53.8153 30.9167 53.8153C33.0711 53.8153 34.6978 53.0679 35.6651 51.529C36.2367 50.5618 36.5444 49.3307 36.5444 47.9237V35.657H33.5107V32.0957H44.2826V35.657H41.2049V47.9677C41.2049 50.4298 40.5454 52.7161 39.3583 54.3429C37.5117 56.7611 34.3461 57.9482 30.9167 57.9482C27.3114 57.9482 24.2338 56.6731 22.4751 54.3869C21.1561 52.7161 20.5845 50.5617 20.5845 47.9677V35.657H20.5405Z" fill="white"/>
</svg>
