<svg width="86" height="92" viewBox="0 0 86 92" fill="none" xmlns="http://www.w3.org/2000/svg">
<path d="M15.3861 84.9608C10.5665 84.204 8.13675 83.7261 3.35693 82.6108C5.1892 80.7387 6.10532 79.7827 7.85792 77.8708C7.02145 75.3614 6.66297 74.1266 5.90617 71.6172C10.3673 72.6528 12.6377 73.091 17.1786 73.8079C16.4616 78.2691 16.1031 80.4997 15.3861 84.9608Z" fill="#D3224D" stroke="#070E20" stroke-width="3.4018" stroke-miterlimit="10"/>
<path d="M69.8756 85.0405C74.8944 84.2439 77.4038 83.7659 82.3828 82.6108C80.5506 80.7387 79.6344 79.7827 77.8818 77.8708C78.7183 75.3614 79.0768 74.1266 79.8336 71.6172C75.1733 72.6926 72.8232 73.1706 68.123 73.8876C68.84 78.3488 69.1985 80.5793 69.8756 85.0405Z" fill="#D3224D" stroke="#070E20" stroke-width="3.4018" stroke-miterlimit="10"/>
<path d="M75.8111 87.231C53.4655 90.9354 31.8368 90.9354 9.49121 87.1514C10.3277 82.73 10.7658 80.4995 11.6023 76.0781C32.5937 79.5833 52.7087 79.6232 73.7001 76.1578C74.5365 80.5791 74.9747 82.8097 75.8111 87.231Z" fill="#D3224D" stroke="#070E20" stroke-width="3.4018" stroke-miterlimit="10"/>
<path d="M15.9836 80.4591C15.7048 80.4193 15.5454 80.3794 15.2666 80.3396C15.3064 80.021 15.3463 79.8616 15.3861 79.543C16.4217 79.7023 16.8997 79.782 17.9353 79.9413C17.8955 80.2599 17.8557 80.4193 17.8158 80.7379C17.537 80.6981 17.3777 80.6583 17.0989 80.6184C16.9395 81.7337 16.8599 82.2914 16.6607 83.3668C16.6209 83.6855 16.6607 84.0041 16.7404 84.2033C16.8997 84.5618 17.298 84.8008 17.8158 84.8804C18.3336 84.9601 18.7718 84.8406 19.0506 84.5219C19.2099 84.3228 19.3295 84.044 19.3693 83.7253C19.5286 82.61 19.6083 82.0524 19.7676 80.9769C19.4888 80.9371 19.3294 80.8972 19.0506 80.8574C19.0905 80.5388 19.1303 80.3794 19.1701 80.0608C20.2057 80.2201 20.6837 80.2599 21.7194 80.4193C21.6795 80.7379 21.6397 80.8973 21.5999 81.2159C21.321 81.1761 21.1617 81.1761 20.8829 81.1362C20.7236 82.2515 20.6837 82.8092 20.5244 83.9245C20.4447 84.4821 20.2057 84.9999 19.8871 85.3186C19.3693 85.7966 18.5328 85.9559 17.6963 85.8364C16.82 85.7169 16.1031 85.2787 15.7446 84.7211C15.5056 84.283 15.4259 83.805 15.5056 83.2075C15.7048 82.0922 15.7844 81.5346 15.9836 80.4591Z" fill="white"/>
<path d="M21.799 85.4782C22.0778 85.518 22.2371 85.518 22.5558 85.5579C22.7549 83.8849 22.8346 83.0883 23.0338 81.4154C22.7549 81.3755 22.5956 81.3755 22.3168 81.3357C22.3566 81.017 22.3566 80.8577 22.3964 80.5391C23.1134 80.6187 23.5117 80.6586 24.2287 80.7382C25.0652 82.3315 25.5033 83.1281 26.4195 84.6816C26.4593 84.7612 26.4991 84.9206 26.539 85.0002C26.5788 85.0799 26.5788 85.1197 26.5788 85.1595C26.5788 85.1595 26.5788 85.1595 26.6186 85.1595C26.6186 85.0799 26.6186 85.04 26.6186 84.9604C26.6186 84.8409 26.6186 84.7214 26.6186 84.6019C26.7381 83.4468 26.778 82.8891 26.8974 81.7738C26.5788 81.734 26.4593 81.734 26.1406 81.6942C26.1805 81.3755 26.1805 81.2162 26.2203 80.8975C27.2559 81.017 27.7737 81.0569 28.8094 81.1365C28.7695 81.4552 28.7695 81.6145 28.7297 81.9332C28.4509 81.8933 28.2916 81.8933 28.0127 81.8535C27.8534 83.8451 27.7339 84.8409 27.5746 86.7927C27.0966 86.7528 26.8974 86.713 26.4195 86.6731C25.5033 85.1197 25.0652 84.3231 24.1889 82.7298C24.149 82.6103 24.1092 82.4908 24.0694 82.4112C24.0694 82.3315 24.0296 82.2917 24.0296 82.2518H23.9897C23.9897 82.3315 23.9897 82.3713 23.9897 82.451C23.9897 82.5705 23.9897 82.69 23.9499 82.8095C23.8304 83.9248 23.7507 84.5222 23.6312 85.6375C23.9499 85.6774 24.1092 85.6774 24.388 85.7172C24.3482 86.0358 24.3482 86.1952 24.3084 86.5138C23.2329 86.3943 22.7151 86.3545 21.6396 86.1952C21.7193 85.9562 21.7591 85.7968 21.799 85.4782Z" fill="white"/>
<path d="M29.1681 86.2341C29.4469 86.2739 29.6063 86.2739 29.9249 86.2739C30.0444 84.601 30.1241 83.7645 30.2436 82.1314C29.9647 82.0916 29.8054 82.0916 29.5266 82.0916C29.5664 81.7729 29.5664 81.6136 29.6062 81.2949C30.6419 81.3746 31.1597 81.4144 32.1555 81.4941C32.1156 81.8127 32.1157 81.9721 32.1157 82.2907C31.8368 82.2907 31.6775 82.2509 31.3987 82.2509C31.2792 83.9238 31.2394 84.7603 31.1199 86.3934C31.4385 86.4332 31.558 86.4332 31.8767 86.4332C31.8368 86.7519 31.8368 86.9112 31.8368 87.2299C30.7614 87.1502 30.2436 87.1104 29.1681 87.0307C29.1283 86.7121 29.1681 86.5527 29.1681 86.2341Z" fill="white"/>
<path d="M33.1514 82.3306C32.9124 82.3306 32.8327 82.3306 32.5938 82.2908C32.5938 81.9721 32.6336 81.8128 32.6336 81.4941C33.5895 81.534 34.0675 81.5738 34.9837 81.6137C34.9837 81.9323 34.9438 82.0916 34.9438 82.4103C34.7048 82.4103 34.5455 82.4103 34.3065 82.3704C34.7048 83.7247 34.904 84.362 35.3023 85.7163C35.3422 85.8358 35.3421 85.9553 35.382 86.0748C35.382 86.1545 35.382 86.1943 35.382 86.2341H35.4218C35.4218 86.1545 35.4616 86.1146 35.4616 86.0748C35.5015 85.9951 35.5015 85.8358 35.5811 85.7163C36.0989 84.4019 36.3379 83.7646 36.8558 82.4501C36.6168 82.4501 36.4574 82.4501 36.2184 82.4103C36.2184 82.0916 36.2184 81.9323 36.2583 81.6137C37.2142 81.6535 37.6922 81.6535 38.6084 81.6933C38.6084 82.012 38.6083 82.1713 38.5685 82.4899C38.3295 82.4899 38.21 82.4899 38.0109 82.4899C37.2142 84.4417 36.8159 85.4375 35.9795 87.3893C35.5015 87.3893 35.2625 87.3494 34.7845 87.3494C34.1074 85.3578 33.7887 84.3222 33.1514 82.3306Z" fill="white"/>
<path d="M39.0063 86.7133C39.2852 86.7133 39.4445 86.7133 39.7631 86.7133C39.803 85.0404 39.803 84.2039 39.8428 82.531C39.564 82.531 39.4047 82.531 39.1258 82.531C39.1258 82.2124 39.1258 82.053 39.1258 81.7344C40.9183 81.7742 41.8344 81.7742 43.6268 81.7742C43.6268 82.3717 43.6268 82.6505 43.6268 83.248C43.2285 83.248 43.0294 83.248 42.6709 83.248C42.6709 83.009 42.6709 82.8497 42.6709 82.6107C41.9937 82.6107 41.6352 82.6107 40.9581 82.6107C40.9581 83.248 40.9581 83.5666 40.9581 84.204C41.7547 84.204 42.1531 84.204 42.9895 84.204C42.9895 84.5624 42.9895 84.7218 42.9895 85.0404C42.1929 85.0404 41.7547 85.0404 40.9581 85.0404C40.9581 85.6777 40.9581 86.0362 40.9581 86.6735C41.7149 86.6735 42.0734 86.6735 42.8302 86.6735C42.8302 86.3947 42.8302 86.2752 42.8302 86.0362C43.2285 86.0362 43.4277 86.0362 43.826 86.0362C43.826 86.6337 43.826 86.9523 43.826 87.5498C41.9141 87.5498 40.9581 87.5498 39.0462 87.51C39.0064 87.1913 39.0063 87.032 39.0063 86.7133Z" fill="white"/>
<path d="M44.6226 86.7532C44.9014 86.7532 45.0607 86.7532 45.3794 86.7532C45.3395 85.0802 45.3395 84.2438 45.3395 82.5708C45.0607 82.5708 44.9014 82.5708 44.6226 82.5708C44.6226 82.2522 44.6226 82.0929 44.6226 81.7742C45.698 81.7742 46.2158 81.7344 47.2913 81.7344C47.7294 81.7344 48.0879 81.7344 48.4464 81.814C49.1236 82.0132 49.6015 82.4912 49.6414 83.3276C49.6812 84.1641 49.243 84.7217 48.5261 84.9607C48.5659 85.0006 48.6057 85.0006 48.6456 85.0404C48.7252 85.0802 48.8049 85.1599 48.8447 85.2794C49.1634 85.7574 49.2829 85.9964 49.6015 86.4743C49.721 86.6337 49.8007 86.6337 50.0397 86.6337C50.1193 86.6337 50.1592 86.6337 50.2388 86.6337C50.2388 86.9523 50.2787 87.1117 50.2787 87.4303C49.9998 87.4303 49.8405 87.4303 49.5617 87.4701C49.0439 87.4701 48.8846 87.3905 48.6854 87.0718C48.3269 86.4743 48.1278 86.1955 47.7693 85.5981C47.6498 85.3989 47.5303 85.3192 47.1718 85.3192C46.9328 85.3192 46.8133 85.3192 46.6141 85.3192C46.6141 85.8769 46.6142 86.1557 46.654 86.7532C46.9328 86.7532 47.0921 86.7532 47.3709 86.7532C47.3709 87.0718 47.371 87.2312 47.4108 87.5498C46.3752 87.5896 45.8175 87.5897 44.7819 87.5897C44.6226 87.2312 44.6226 87.0718 44.6226 86.7532ZM47.4904 84.4429C48.0879 84.4429 48.4862 84.0844 48.4464 83.4471C48.4464 83.0488 48.2472 82.8098 47.9286 82.6505C47.7693 82.5708 47.5303 82.5708 47.2515 82.5708C46.9328 82.5708 46.7735 82.5708 46.415 82.5708C46.415 83.3276 46.4548 83.6861 46.4548 84.4429C46.893 84.4429 47.0921 84.4429 47.4904 84.4429Z" fill="white"/>
<path d="M51.832 85.478C51.832 85.6373 51.832 85.717 51.8718 85.9161C51.8718 86.2746 52.4295 86.4738 52.9871 86.4339C53.6244 86.3941 54.0626 86.1153 54.0228 85.6373C53.9829 85.0797 53.266 84.9203 52.549 84.6813C51.7125 84.4423 50.8761 84.1237 50.8362 83.0881C50.7964 81.9329 51.7523 81.4151 52.788 81.3753C53.7439 81.3355 54.7397 81.5745 54.7796 82.2516C54.8194 82.5703 54.8194 82.6898 54.8194 83.0084C54.4211 83.0483 54.2219 83.0482 53.7838 83.0881C53.7838 82.9287 53.7838 82.8491 53.7439 82.6897C53.7439 82.4109 53.266 82.2914 52.8278 82.2914C52.3498 82.3313 51.9117 82.5304 51.9515 82.9686C51.9913 83.4864 52.5888 83.6457 53.2261 83.8449C54.1423 84.1237 55.0982 84.3627 55.1779 85.4382C55.2575 86.6331 54.2219 87.2306 53.027 87.3103C51.9913 87.3899 50.8761 86.9916 50.8362 86.1153C50.8362 85.8365 50.8362 85.717 50.7964 85.4382C51.1947 85.478 51.4337 85.478 51.832 85.478Z" fill="white"/>
<path d="M56.0548 86.275C56.3336 86.2352 56.4929 86.2352 56.8116 86.2352C56.6921 84.5622 56.6124 83.7258 56.4929 82.0927C56.2141 82.1325 56.0548 82.1325 55.776 82.1325C55.7361 81.8139 55.7361 81.6545 55.6963 81.3359C56.7319 81.2562 57.2497 81.2164 58.2455 81.1367C58.2854 81.4554 58.2854 81.6147 58.3252 81.9334C58.0464 81.9732 57.887 81.9732 57.6082 82.013C57.7675 83.686 57.8074 84.5224 57.9667 86.1555C58.2854 86.1157 58.4049 86.1157 58.7235 86.0758C58.7633 86.3945 58.7633 86.5538 58.8032 86.8725C57.7277 86.9521 57.2099 87.0318 56.1344 87.1115C56.0946 86.753 56.0946 86.5937 56.0548 86.275Z" fill="white"/>
<path d="M60.7945 85.837C61.0733 85.7972 61.2326 85.7972 61.5513 85.7574C61.3919 84.1243 61.2724 83.2878 61.1131 81.6547C60.675 81.6945 60.436 81.7344 59.958 81.7742C59.9978 82.1327 59.9978 82.292 60.0376 82.6505C59.6393 82.6903 59.48 82.6903 59.0817 82.7302C59.002 82.053 59.002 81.6945 58.9224 81.0174C61.0334 80.8182 62.1089 80.6987 64.1802 80.4199C64.2598 81.0971 64.2997 81.4555 64.3793 82.1327C63.981 82.1725 63.8217 82.2123 63.4234 82.2522C63.3835 81.8937 63.3437 81.7344 63.3039 81.3759C62.8259 81.4157 62.6267 81.4555 62.1487 81.4954C62.3479 83.1285 62.4276 83.965 62.6267 85.5981C62.9454 85.5582 63.0649 85.5582 63.3835 85.5184C63.4234 85.837 63.4234 85.9964 63.4632 86.315C62.3877 86.4345 61.8699 86.5142 60.8343 86.5938C60.8343 86.315 60.8343 86.1557 60.7945 85.837Z" fill="white"/>
<path d="M66.6096 85.1194C66.9283 85.0796 67.0478 85.0398 67.3664 84.9999C67.2868 84.3626 67.2469 84.044 67.1274 83.4067C66.3308 82.4905 65.9325 82.0125 65.1757 81.0964C64.9367 81.1362 64.857 81.1362 64.618 81.1761C64.5782 80.8574 64.5384 80.6981 64.4985 80.3794C65.3748 80.2599 65.8528 80.2201 66.7291 80.0608C66.7689 80.3794 66.8088 80.5388 66.8486 80.8574C66.6096 80.8972 66.4901 80.8972 66.2511 80.9371C66.6893 81.4947 66.9283 81.7735 67.3664 82.2913C67.4063 82.3312 67.4461 82.4109 67.4859 82.4507C67.4859 82.4905 67.5258 82.4905 67.5258 82.5304C67.5258 82.4905 67.5258 82.4507 67.5656 82.4507C67.6054 82.4109 67.6054 82.3312 67.6452 82.2515C67.9241 81.6142 68.0834 81.2557 68.3622 80.6184C68.1232 80.6583 68.0037 80.6582 67.7647 80.6981C67.7249 80.3794 67.6851 80.2201 67.6452 79.9014C68.5215 79.7819 68.9597 79.7023 69.8758 79.543C69.9157 79.8616 69.9555 80.021 69.9953 80.3396C69.7962 80.3794 69.6767 80.3794 69.4377 80.4193C68.9597 81.5346 68.7207 82.0922 68.2029 83.2075C68.2825 83.8448 68.3622 84.1635 68.4419 84.8008C68.7207 84.7609 68.88 84.7211 69.1987 84.6813C69.2385 84.9999 69.2784 85.1592 69.3182 85.4779C68.2826 85.6372 67.7249 85.7169 66.6893 85.8762C66.6893 85.5974 66.6494 85.4381 66.6096 85.1194Z" fill="white"/>
<path d="M15.0275 55.0493C15.147 57.1205 13.8724 58.8731 13.8724 58.8731C13.8724 58.8731 12.4384 57.2799 12.3189 55.2086C12.1994 53.1374 13.4741 51.3848 13.4741 51.3848C13.4741 51.3848 14.908 52.978 15.0275 55.0493Z" fill="#070E20"/>
<path d="M9.13239 57.4004C10.4867 58.9937 12.5978 59.392 12.5978 59.392C12.5978 59.392 12.5579 57.2411 11.2037 55.6478C9.84937 54.0546 7.73828 53.6562 7.73828 53.6562C7.73828 53.6562 7.77811 55.847 9.13239 57.4004Z" fill="#070E20"/>
<path d="M20.7633 61.1023C21.7591 62.9346 21.3608 65.0457 21.3608 65.0457C21.3608 65.0457 19.3692 64.2092 18.3734 62.3769C17.3776 60.5447 17.7759 58.4336 17.7759 58.4336C17.7759 58.4336 19.7675 59.2701 20.7633 61.1023Z" fill="#070E20"/>
<path d="M16.4616 65.724C18.3736 66.5605 20.4448 66.0427 20.4448 66.0427C20.4448 66.0427 19.449 64.1308 17.5769 63.2545C15.665 62.418 13.5938 62.9358 13.5938 62.9358C13.5938 62.9358 14.5497 64.8876 16.4616 65.724Z" fill="#070E20"/>
<path d="M28.1722 65.1265C29.7655 66.441 30.2036 68.5521 30.2036 68.5521C30.2036 68.5521 28.0527 68.5122 26.4196 67.1978C24.8263 65.8833 24.3882 63.7324 24.3882 63.7324C24.3882 63.7324 26.5789 63.7723 28.1722 65.1265Z" fill="#070E20"/>
<path d="M25.9016 71.0207C27.9729 71.1004 29.7255 69.8258 29.7255 69.8258C29.7255 69.8258 28.0924 68.3918 26.0211 68.3122C23.9499 68.2325 22.1973 69.5071 22.1973 69.5071C22.1973 69.5071 23.8304 70.9411 25.9016 71.0207Z" fill="#070E20"/>
<path d="M10.2878 47.7194C11.0048 49.6712 10.2878 51.7026 10.2878 51.7026C10.2878 51.7026 8.41572 50.5873 7.73858 48.6355C7.0216 46.6838 7.73858 44.6523 7.73858 44.6523C7.73858 44.6523 9.57084 45.7676 10.2878 47.7194Z" fill="#070E20"/>
<path d="M70.752 55.0493C70.6326 57.1205 71.9072 58.8731 71.9072 58.8731C71.9072 58.8731 73.3411 57.2799 73.4606 55.2086C73.5801 53.1374 72.3055 51.3848 72.3055 51.3848C72.3055 51.3848 70.8715 52.978 70.752 55.0493Z" fill="#070E20"/>
<path d="M76.6074 57.4004C75.2532 58.9937 73.1421 59.392 73.1421 59.392C73.1421 59.392 73.1819 57.2411 74.5362 55.6478C75.8905 54.0546 78.0016 53.6562 78.0016 53.6562C78.0016 53.6562 77.9617 55.847 76.6074 57.4004Z" fill="#070E20"/>
<path d="M65.0165 61.1023C64.0207 62.9346 64.419 65.0457 64.419 65.0457C64.419 65.0457 66.4106 64.2092 67.4064 62.3769C68.4022 60.5447 68.0039 58.4336 68.0039 58.4336C68.0039 58.4336 66.0123 59.2701 65.0165 61.1023Z" fill="#070E20"/>
<path d="M69.3181 65.724C67.4062 66.5605 65.335 66.0427 65.335 66.0427C65.335 66.0427 66.3307 64.1308 68.2028 63.2545C70.1148 62.418 72.186 62.9358 72.186 62.9358C72.186 62.9358 71.1902 64.8876 69.3181 65.724Z" fill="#070E20"/>
<path d="M57.568 65.1265C55.9748 66.441 55.5366 68.5521 55.5366 68.5521C55.5366 68.5521 57.6875 68.5122 59.3206 67.1978C60.9139 65.8833 61.3521 63.7324 61.3521 63.7324C61.3521 63.7324 59.1613 63.7723 57.568 65.1265Z" fill="#070E20"/>
<path d="M59.8385 71.0207C57.7672 71.1004 56.0146 69.8258 56.0146 69.8258C56.0146 69.8258 57.6477 68.3918 59.719 68.3122C61.7903 68.2325 63.5429 69.5071 63.5429 69.5071C63.5429 69.5071 61.9097 70.9411 59.8385 71.0207Z" fill="#070E20"/>
<path d="M75.492 47.7194C74.775 49.6712 75.492 51.7026 75.492 51.7026C75.492 51.7026 77.3641 50.5873 78.0412 48.6355C78.7582 46.6838 78.0412 44.6523 78.0412 44.6523C78.0412 44.6523 76.1691 45.7676 75.492 47.7194Z" fill="#070E20"/>
<path d="M70.2744 12.7064C70.2744 11.3521 69.8362 10.1173 68.6811 9.40029C67.4862 8.64349 56.9706 2.15092 51.5136 0.796636C49.4822 0.278823 46.3753 0 42.9896 0C39.6039 0 36.497 0.278823 34.4656 0.796636C29.0485 2.15092 18.0151 8.64349 16.7803 9.40029C15.5853 10.0774 14.9082 11.3521 14.9082 12.7462V38.9953C14.9082 48.9134 34.9038 60.5443 40.998 63.8902C41.5955 64.2089 42.2328 64.3682 42.8701 64.3682C43.5074 64.3682 43.9456 64.2089 44.5032 63.8902C48.7652 61.58 59.5995 55.2467 65.8531 48.2761L66.2115 48.077L66.1319 47.8778C68.6811 44.9303 70.2744 41.903 70.2744 38.9953V12.7064ZM21.2813 39.553V31.0688H42.671L42.5116 5.49678C42.6311 5.49678 42.7506 5.49678 42.9099 5.49678C45.8575 5.49678 48.2474 5.73579 49.8008 6.13411C52.8679 6.93074 59.958 10.5953 63.9411 13.3436V30.9095L42.3921 31.0688L42.6311 58.1544C30.6816 51.3033 21.2813 42.8988 21.2813 39.553Z" fill="#070E20"/>
<path d="M24.9458 22.5457H25.9814L29.4468 12.1895H33.0715L36.5368 22.5457H37.5725V24.856H32.2748V22.5457H33.3901L32.9122 20.8728H29.6459L29.168 22.5457H30.2833V24.856H24.9856V22.5457H24.9458ZM32.1952 18.443L31.5579 16.093C31.4384 15.6947 31.3985 15.376 31.3587 15.137L31.3189 14.7785H31.2392C31.2392 14.898 31.2392 15.0175 31.1994 15.137C31.1596 15.376 31.1197 15.6947 31.0002 16.093L30.3231 18.443H32.1952Z" fill="white"/>
<path d="M47.1321 46.842H48.6059V38.3977H47.1321V36.0078H53.306C54.3417 36.0078 54.979 36.0476 55.7358 36.2866C57.1299 36.8044 58.046 37.8799 58.046 39.4732C58.046 40.6283 57.5282 41.7436 56.4528 42.3012V42.3411C58.0062 42.819 58.5638 44.0937 58.5638 45.3683C58.5638 47.3599 57.1697 48.6743 55.6163 49.0726C54.8993 49.232 54.3417 49.2718 53.6247 49.2718H47.0923V46.842H47.1321ZM53.5849 41.1063C54.3815 41.1063 54.74 40.5486 54.74 39.8317C54.74 39.3537 54.5408 38.8757 54.1425 38.6765C53.9035 38.5969 53.6645 38.557 53.3459 38.557H51.9518V41.1063H53.5849ZM53.8637 46.6429C54.1027 46.6429 54.3018 46.6031 54.4612 46.5234C54.979 46.2844 55.2578 45.6869 55.2578 45.0895C55.2578 44.2928 54.8197 43.7352 53.8637 43.7352H51.9518V46.6429H53.8637Z" fill="white"/>
</svg>
