<svg width="121" height="90" viewBox="0 0 121 90" fill="none" xmlns="http://www.w3.org/2000/svg">
<path d="M27.518 65.5368C27.2501 68.2154 25.2412 70.2243 25.2412 70.2243C25.2412 70.2243 23.7233 67.8583 23.9912 65.1797C24.259 62.5011 26.268 60.4922 26.268 60.4922C26.268 60.4922 27.7858 62.8583 27.518 65.5368Z" fill="#D3224D"/>
<path d="M19.4822 67.3666C20.8661 69.6881 23.5 70.6256 23.5 70.6256C23.5 70.6256 23.8572 67.8577 22.4732 65.5363C21.0893 63.2148 18.4554 62.2773 18.4554 62.2773C18.4554 62.2773 18.0536 65.0452 19.4822 67.3666Z" fill="#D3224D"/>
<path d="M32.8747 73.7955C33.8122 76.3401 32.9194 78.9741 32.9194 78.9741C32.9194 78.9741 30.5086 77.5455 29.5711 75.0008C28.6336 72.4562 29.5265 69.8223 29.5265 69.8223C29.5265 69.8223 31.9372 71.2955 32.8747 73.7955Z" fill="#D3224D"/>
<path d="M26.4909 78.974C28.7677 80.4025 31.5356 80.09 31.5356 80.09C31.5356 80.09 30.6427 77.4115 28.3659 75.9829C26.0892 74.5543 23.3213 74.8668 23.3213 74.8668C23.3213 74.8668 24.2141 77.5454 26.4909 78.974Z" fill="#D3224D"/>
<path d="M41.0443 79.0184C43.1425 80.7595 43.6782 83.4827 43.6782 83.4827C43.6782 83.4827 40.8657 83.4381 38.8121 81.7416C36.7139 80.0006 36.1782 77.2773 36.1782 77.2773C36.1782 77.2773 38.9907 77.322 41.0443 79.0184Z" fill="#D3224D"/>
<path d="M38.0978 86.6964C40.7764 86.8304 43.0532 85.1339 43.0532 85.1339C43.0532 85.1339 40.9549 83.2589 38.2317 83.1696C35.5532 83.0357 33.2764 84.7321 33.2764 84.7321C33.2764 84.7321 35.4192 86.5625 38.0978 86.6964Z" fill="#D3224D"/>
<path d="M23.1873 55.6702C23.4998 58.3488 21.982 60.7148 21.982 60.7148C21.982 60.7148 19.9731 58.7506 19.6606 56.072C19.3481 53.3934 20.8659 51.0273 20.8659 51.0273C20.8659 51.0273 22.8748 52.9916 23.1873 55.6702Z" fill="#D3224D"/>
<path d="M93.8125 65.5368C94.0803 68.2154 96.0892 70.2243 96.0892 70.2243C96.0892 70.2243 97.6071 67.8583 97.3392 65.1797C97.0714 62.5011 95.0625 60.4922 95.0625 60.4922C95.0625 60.4922 93.5446 62.8583 93.8125 65.5368Z" fill="#D3224D"/>
<path d="M101.848 67.3666C100.464 69.6881 97.8305 70.6256 97.8305 70.6256C97.8305 70.6256 97.4733 67.8577 98.8572 65.5363C100.241 63.2148 102.875 62.2773 102.875 62.2773C102.875 62.2773 103.232 65.0452 101.848 67.3666Z" fill="#D3224D"/>
<path d="M88.4105 73.7955C87.473 76.3401 88.3659 78.9741 88.3659 78.9741C88.3659 78.9741 90.7766 77.5455 91.7141 75.0008C92.6516 72.4562 91.7587 69.8223 91.7587 69.8223C91.7587 69.8223 89.348 71.2955 88.4105 73.7955Z" fill="#D3224D"/>
<path d="M94.7946 78.974C92.5179 80.4025 89.75 80.09 89.75 80.09C89.75 80.09 90.6429 77.4115 92.9196 75.9829C95.1964 74.5543 97.9643 74.8668 97.9643 74.8668C97.9643 74.8668 97.0714 77.5454 94.7946 78.974Z" fill="#D3224D"/>
<path d="M80.2409 79.0184C78.1426 80.7595 77.6069 83.4827 77.6069 83.4827C77.6069 83.4827 80.4194 83.4381 82.473 81.7416C84.5712 80.0006 85.1069 77.2773 85.1069 77.2773C85.1069 77.2773 82.3391 77.322 80.2409 79.0184Z" fill="#D3224D"/>
<path d="M83.1873 86.6964C80.5087 86.8304 78.2319 85.1339 78.2319 85.1339C78.2319 85.1339 80.3302 83.2589 83.0534 83.1696C85.7319 83.0357 88.0087 84.7321 88.0087 84.7321C88.0087 84.7321 85.9105 86.5625 83.1873 86.6964Z" fill="#D3224D"/>
<path d="M98.0976 55.6702C97.7851 58.3488 99.3029 60.7148 99.3029 60.7148C99.3029 60.7148 101.312 58.7506 101.624 56.072C101.937 53.3934 100.419 51.0273 100.419 51.0273C100.419 51.0273 98.4101 52.9916 98.0976 55.6702Z" fill="#D3224D"/>
<path d="M60.5983 73.3931C52.0269 73.3931 44.4376 70.3574 39.8394 65.0449C36.268 61.0717 34.5269 55.6699 34.5269 48.661V28.9288H31.4912V12.2324H57.9198V28.9288H54.8841V48.661C54.8841 50.3128 55.1966 51.8306 55.7323 52.7681C56.4912 54.0628 58.3216 54.8217 60.643 54.8217C63.0537 54.8217 64.4376 54.1967 65.4644 52.6789C66.0001 51.786 66.3126 50.4467 66.3126 48.661V28.9288H63.2769V12.2324H89.7055V28.9288H86.6698V48.661C86.6698 54.6878 84.7948 60.536 81.5359 64.6878C76.9823 70.2235 69.3483 73.3931 60.5983 73.3931Z" fill="#070E20"/>
<path d="M60.598 71.6529C52.5176 71.6529 45.4641 68.8404 41.1784 63.885C37.8748 60.2243 36.2676 55.2243 36.2676 48.6618V27.1886H33.2319V13.9743H56.1337V27.1886H53.098V48.6618C53.098 50.6261 53.4998 52.4565 54.2141 53.6618C55.3301 55.4922 57.6516 56.5636 60.6426 56.5636C63.6337 56.5636 65.598 55.6708 66.9373 53.6172C67.6962 52.4118 68.0534 50.76 68.0534 48.6172V27.144H65.0177V13.9297H87.9194V27.144H84.8837V48.6172C84.8837 54.2422 83.1426 59.6886 80.1069 63.5725C75.9551 68.7065 68.8569 71.6529 60.598 71.6529Z" fill="white"/>
<path d="M38.0538 25.4023H35.0181V15.7148H54.3931V25.4023H51.3574V48.6613C51.3574 51.0273 51.8931 53.1256 52.6966 54.5541C54.1252 56.9202 57.027 58.3488 60.6877 58.3488C64.1699 58.3488 66.7145 57.2327 68.4556 54.6434C69.4377 53.0809 69.8841 51.1613 69.8841 48.7059V25.447H66.8484V15.7595H86.2234V25.447H83.1877V48.7059C83.1877 54.0631 81.5359 59.0631 78.8127 62.5452C74.6609 67.5898 67.6966 69.9113 60.6431 69.9113C52.9645 69.9113 46.402 67.2327 42.5627 62.7684C39.3484 59.197 38.0984 54.3309 38.0984 48.7059V25.4023H38.0538Z" fill="#070E20"/>
<path d="M12.25 19.2852C9.39286 19.8209 6.66964 20.4012 2.875 21.2941C5.41964 23.928 6.66964 25.2673 9.08035 27.9459C7.96428 31.428 7.42857 33.2137 6.44643 36.6959C12.7411 35.2227 15.8661 34.5976 22.2054 33.6155C21.9821 32.1869 21.7589 30.8923 21.5804 29.7316C19.2143 30.0441 16.8036 30.4012 14.3929 30.803C13.5446 26.0709 12.9643 23.1691 12.25 19.2852Z" fill="#D3224D" stroke="white" stroke-width="2" stroke-miterlimit="10"/>
<path d="M118.946 21.2933C114.928 20.3558 112.027 19.7307 108.946 19.1504C108.232 23.0343 107.652 25.9807 106.759 30.7129C104.348 30.3111 101.982 29.954 99.5713 29.6415C99.3927 30.8468 99.1695 32.0968 98.9463 33.5254C105.509 34.5522 108.812 35.1772 115.286 36.695C114.303 33.1683 113.768 31.4272 112.652 27.945C115.152 25.2665 116.402 23.9272 118.946 21.2933Z" fill="#D3224D" stroke="white" stroke-width="2" stroke-miterlimit="10"/>
<path d="M11.2676 15.2681C11.5354 16.7414 11.8926 18.036 12.1158 19.286C12.8747 23.1699 13.4551 26.1164 14.3926 30.8485C16.8033 30.4467 18.9908 30.0896 21.4015 29.7771C24.0801 29.4199 26.9819 29.0628 29.214 28.7503V12.8574C22.964 13.4378 17.339 14.2414 11.2676 15.2681Z" fill="#D3224D" stroke="white" stroke-width="2" stroke-miterlimit="10"/>
<path d="M108.947 19.1515C109.17 17.9461 109.393 16.6515 109.661 15.1336C103.634 14.1515 97.4735 13.3479 91.6699 12.7676V28.6604C94.3485 28.9283 96.8931 29.2854 99.5271 29.6426C101.893 29.9551 104.304 30.3122 106.715 30.714C107.652 25.9819 108.232 23.0354 108.947 19.1515Z" fill="#D3224D" stroke="white" stroke-width="2" stroke-miterlimit="10"/>
<path d="M32.8751 0.937779H32.1162V0.0449219H34.7948V0.937779H34.0358V3.97349C34.0358 4.33063 34.1251 4.64313 34.2591 4.86634C34.4823 5.22349 34.9287 5.44671 35.4644 5.44671C36.0001 5.44671 36.4019 5.26813 36.6251 4.86634C36.7591 4.64313 36.8484 4.33063 36.8484 3.97349V0.937779H36.0894V0.0449219H38.768V0.937779H38.0091V3.97349C38.0091 4.59849 37.8305 5.1342 37.5626 5.53599C37.1162 6.16099 36.3126 6.42884 35.4644 6.42884C34.5716 6.42884 33.8126 6.11634 33.3662 5.53599C33.0537 5.1342 32.8751 4.59848 32.8751 3.92884V0.937779Z" fill="#070E20"/>
<path d="M39.4819 5.49107H40.2409V0.937503H39.4819V0.0446456H41.4016L44.0355 4.10715C44.0802 4.19643 44.1694 4.33036 44.2141 4.46429L44.3034 4.64285H44.348V4.41964C44.348 4.28571 44.348 4.15179 44.348 4.01786V0.892857H43.5444V0H46.223V0.892857H45.4641V6.33929H44.3034L41.6694 2.32143C41.6248 2.23215 41.5355 2.09821 41.4909 1.96428L41.4016 1.78571H41.3569L41.4016 2.00893C41.4016 2.14286 41.4462 2.27678 41.4016 2.41071V5.53571H42.2052V6.38392H39.5266V5.49107H39.4819Z" fill="#070E20"/>
<path d="M46.9819 5.49134H47.7409V0.937779H46.9819V0.0449219H49.6605V0.937779H48.9016V5.49134H49.6605V6.33957H46.9819V5.49134Z" fill="#070E20"/>
<path d="M50.7766 0.937779H50.1963V0.0449219H52.6516V0.937779H51.982L53.1427 4.55385C53.1874 4.68778 53.1874 4.82171 53.232 4.95564L53.2766 5.1342H53.3213L53.3659 4.95564C53.4106 4.86635 53.4106 4.68778 53.4552 4.55385L54.6159 0.937779H53.9463V0.0449219H56.4016V0.937779H55.8213L53.9016 6.3842H52.6963L50.7766 0.937779Z" fill="#070E20"/>
<path d="M56.9375 5.49134H57.6964V0.937779H56.9375V0.0449219H61.625V1.65207H60.6429V0.937779H58.8571V2.67885H60.9554V3.61635H58.8571V5.40206H60.7768V4.68778H61.7589V6.33957H56.9375V5.49134Z" fill="#070E20"/>
<path d="M62.6071 5.49134H63.3661V0.937779H62.6071V0.0449219H65.375C65.8214 0.0449219 66.2232 0.0895593 66.5804 0.178845C67.2946 0.402059 67.7411 0.982425 67.7411 1.87528C67.7411 2.76814 67.2946 3.39314 66.5357 3.61635L66.625 3.70563C66.6696 3.75027 66.7589 3.83956 66.8482 3.97349L67.5625 5.26813C67.6518 5.4467 67.7857 5.49134 68.0089 5.49134H68.2321V6.33957H67.4732C66.9375 6.33957 66.8036 6.25028 66.5804 5.84849L65.6875 4.24135C65.5536 4.01813 65.4196 3.92884 65.0625 3.92884H64.4821V5.49134H65.1964V6.33957H62.5625V5.49134H62.6071ZM65.5982 2.99135C66.2232 2.99135 66.625 2.6342 66.625 1.96456C66.625 1.56277 66.4911 1.25028 66.1339 1.11635C65.9554 1.02706 65.7321 0.982425 65.4196 0.982425H64.5714V2.99135H65.5982Z" fill="#070E20"/>
<path d="M69.9733 4.33036V4.82142C69.9733 5.22321 70.509 5.49107 71.0894 5.49107C71.7144 5.49107 72.1608 5.22321 72.1608 4.6875C72.1608 4.0625 71.4465 3.83929 70.7322 3.57143C69.884 3.25893 69.0804 2.85714 69.0804 1.74107C69.0804 0.491069 70.1072 0 71.1786 0C72.1608 0 73.1876 0.357143 73.1876 1.11607V1.91964H72.1161V1.47321C72.1161 1.16071 71.6251 0.982148 71.1786 0.982148C70.6429 0.982148 70.2411 1.20535 70.2411 1.69642C70.2411 2.27678 70.8215 2.45536 71.4911 2.72322C72.4286 3.03572 73.3661 3.43749 73.3661 4.59821C73.3661 5.89285 72.2947 6.47321 71.0894 6.47321C70.0626 6.47321 68.9019 5.98214 68.9019 5.04464V4.33036H69.9733Z" fill="#070E20"/>
<path d="M74.2144 5.49134H74.9733V0.937779H74.2144V0.0449219H76.8929V0.937779H76.134V5.49134H76.8929V6.33957H74.2144V5.49134Z" fill="#070E20"/>
<path d="M79.036 5.49134H79.7949V0.982425H78.5896V1.91991H77.6074V0.0449219H83.1431V1.91991H82.1164V0.982425H80.911V5.49134H81.6699V6.33957H78.9914V5.49134H79.036Z" fill="#070E20"/>
<path d="M84.9288 5.49134H85.6877V3.70563L83.9913 0.937779H83.4556V0.0449219H85.777V0.937779H85.152L86.0895 2.58956C86.1341 2.67884 86.1788 2.7235 86.1788 2.76814C86.1788 2.81278 86.2234 2.81277 86.2234 2.85742C86.2234 2.81277 86.2234 2.81278 86.2681 2.76814C86.3127 2.7235 86.3127 2.6342 86.3574 2.58956L87.2949 0.937779H86.6699V0.0449219H88.9913V0.937779H88.4109L86.7145 3.70563V5.49134H87.4734V6.33957H84.7949V5.49134H84.9288Z" fill="#070E20"/>
<path d="M49.5267 88.7486H51.1339V84.6415C51.1339 84.5075 51.1339 84.3736 51.1339 84.2843V84.1504H51.0892L50.9999 84.2843C50.9553 84.3736 50.866 84.4629 50.7321 84.5968L50.1517 85.1325L49.3481 84.329L51.1785 82.5879H52.3392V88.7932H53.9017V89.8647H49.4374V88.7486H49.5267Z" fill="#070E20"/>
<path d="M55.8214 85.8476C55.3303 85.4905 54.9731 85.0441 54.9731 84.3744C54.9731 83.3923 55.7321 82.4102 57.2946 82.4102C58.6785 82.4102 59.7053 83.1691 59.7053 84.3744C59.7053 85.3119 59.0356 86.0262 58.9017 86.2048C59.4821 86.5619 59.8839 87.053 59.8839 87.7673C59.8839 88.8834 58.9464 89.9102 57.2946 89.9102C55.6874 89.9102 54.6606 88.928 54.6606 87.7227C54.7053 86.6959 55.5981 85.9816 55.8214 85.8476ZM57.3392 88.7941C58.0089 88.7941 58.5892 88.3923 58.5892 87.7673C58.5892 87.0977 57.7857 86.8298 56.7589 86.3834C56.5803 86.5619 56.0446 86.9637 56.0446 87.6334C56.0446 88.303 56.6249 88.7941 57.3392 88.7941ZM57.9642 85.7584C58.0981 85.6244 58.4553 85.1334 58.4553 84.553C58.4553 83.928 58.0089 83.5709 57.3392 83.5709C56.6249 83.5709 56.3124 83.928 56.3124 84.4191C56.3124 85.1334 57.0714 85.3566 57.9642 85.7584Z" fill="#070E20"/>
<path d="M61.0894 82.5449H65.6876V83.4824L63.9912 85.536C64.9287 85.6699 65.8662 86.3396 65.8662 87.5896C65.8662 88.8396 64.9287 90.0003 63.2769 90.0003C62.518 90.0003 61.893 89.7324 61.4912 89.5092C61.268 89.3753 61.0448 89.1967 60.8662 89.0181L61.5359 88.0806C61.6698 88.2146 61.8484 88.3485 62.0269 88.4378C62.3394 88.6164 62.7412 88.7949 63.2323 88.7949C63.9912 88.7949 64.5269 88.3038 64.5269 87.6342C64.5269 86.9199 63.9466 86.4735 63.0984 86.4735C62.9198 86.4735 62.7859 86.4735 62.6966 86.4735L62.3841 85.8039L63.9466 83.8842C64.0359 83.7949 64.0805 83.7503 64.1698 83.661L64.2591 83.5717C64.2144 83.5717 64.1698 83.5717 64.1251 83.5717C64.0359 83.5717 63.9466 83.5717 63.8573 83.5717H62.2501V84.4199H61.0894V82.5449Z" fill="#070E20"/>
<path d="M67.0269 82.5449H71.6251V83.4824L69.9287 85.536C70.8662 85.6699 71.8037 86.3396 71.8037 87.5896C71.8037 88.8396 70.8662 90.0003 69.2144 90.0003C68.4555 90.0003 67.8305 89.7324 67.4287 89.5092C67.2055 89.3753 66.9823 89.1967 66.8037 89.0181L67.4734 88.0806C67.6073 88.2146 67.7858 88.3485 67.9644 88.4378C68.2769 88.6164 68.6787 88.7949 69.1698 88.7949C69.9287 88.7949 70.4644 88.3038 70.4644 87.6342C70.4644 86.9199 69.8841 86.4735 69.0359 86.4735C68.8573 86.4735 68.7233 86.4735 68.6341 86.4735L68.3216 85.8039L69.8841 83.8842C69.9734 83.7949 70.018 83.7503 70.1073 83.661L70.1966 83.5717C70.1519 83.5717 70.1073 83.5717 70.0626 83.5717C69.9733 83.5717 69.8841 83.5717 69.7948 83.5717H68.1876V84.4199H67.0269V82.5449Z" fill="#070E20"/>
</svg>
