<svg width="80" height="90" viewBox="0 0 80 90" fill="none" xmlns="http://www.w3.org/2000/svg">
<path d="M23.6317 9.99908C21.3598 10.7242 19.0396 9.75739 19.0396 9.75739C19.0396 9.75739 20.4414 7.67882 22.7133 7.00208C24.9852 6.277 27.3055 7.24377 27.3055 7.24377C27.3055 7.24377 25.9037 9.274 23.6317 9.99908Z" fill="#070E20"/>
<path d="M19.3783 4.10248C17.9764 6.03603 18.1214 8.54964 18.1214 8.54964C18.1214 8.54964 20.5384 7.8729 21.8919 5.93935C23.2937 4.0058 23.1487 1.49219 23.1487 1.49219C23.1487 1.49219 20.7801 2.12059 19.3783 4.10248Z" fill="#070E20"/>
<path d="M15.9945 15.5102C13.8193 16.5253 11.4023 15.9936 11.4023 15.9936C11.4023 15.9936 12.4658 13.77 14.641 12.7066C16.8163 11.6914 19.2332 12.2232 19.2332 12.2232C19.2332 12.2232 18.1698 14.4951 15.9945 15.5102Z" fill="#070E20"/>
<path d="M10.9191 10.2885C9.80728 12.4154 10.339 14.8324 10.339 14.8324C10.339 14.8324 12.6109 13.8172 13.7227 11.6903C14.8345 9.56342 14.3028 7.14648 14.3028 7.14648C14.3028 7.14648 12.0309 8.1616 10.9191 10.2885Z" fill="#070E20"/>
<path d="M10.7738 22.8568C9.03364 24.5004 6.56836 24.7421 6.56836 24.7421C6.56836 24.7421 6.90673 22.2768 8.59859 20.6333C10.3388 18.9897 12.8041 18.748 12.8041 18.748C12.8041 18.748 12.514 21.2133 10.7738 22.8568Z" fill="#070E20"/>
<path d="M4.3449 19.4731C3.95819 21.8417 5.215 23.9686 5.215 23.9686C5.215 23.9686 7.05188 22.325 7.43859 19.9564C7.8253 17.5878 6.56849 15.4609 6.56849 15.4609C6.56849 15.4609 4.68327 17.1528 4.3449 19.4731Z" fill="#070E20"/>
<path d="M7.53519 32.6205C6.27838 34.6508 3.90978 35.4725 3.90978 35.4725C3.90978 35.4725 3.61975 33.0072 4.87656 30.977C6.13337 28.9468 8.50197 28.125 8.50197 28.125C8.50197 28.125 8.792 30.5903 7.53519 32.6205Z" fill="#070E20"/>
<path d="M0.429062 30.9296C0.670756 33.2982 2.36262 35.0867 2.36262 35.0867C2.36262 35.0867 3.7161 33.0082 3.52275 30.6396C3.28105 28.271 1.58919 26.4824 1.58919 26.4824C1.58919 26.4824 0.235707 28.561 0.429062 30.9296Z" fill="#070E20"/>
<path d="M8.01815 42.2899C7.53477 44.6102 5.60121 46.2054 5.60121 46.2054C5.60121 46.2054 4.44108 43.9818 4.92447 41.6615C5.40786 39.3413 7.34141 37.7461 7.34141 37.7461C7.34141 37.7461 8.4532 39.9213 8.01815 42.2899Z" fill="#070E20"/>
<path d="M0.767594 43.1605C1.78271 45.3358 4.05464 46.3993 4.05464 46.3993C4.05464 46.3993 4.6347 43.9823 3.57125 41.8071C2.55613 39.6318 0.284206 38.5684 0.284206 38.5684C0.284206 38.5684 -0.247521 40.9853 0.767594 43.1605Z" fill="#070E20"/>
<path d="M11.3539 52.7304C11.4989 55.099 10.0487 57.1292 10.0487 57.1292C10.0487 57.1292 8.35687 55.2923 8.26019 52.8754C8.11518 50.5068 9.56534 48.4766 9.56534 48.4766C9.56534 48.4766 11.2572 50.3618 11.3539 52.7304Z" fill="#070E20"/>
<path d="M4.58639 55.4369C6.13323 57.2738 8.59852 57.7088 8.59852 57.7088C8.59852 57.7088 8.55018 55.2436 7.00333 53.4067C5.45649 51.5698 2.99121 51.1348 2.99121 51.1348C2.99121 51.1348 3.03955 53.6 4.58639 55.4369Z" fill="#070E20"/>
<path d="M17.9763 59.643C19.1365 61.7216 18.7014 64.1868 18.7014 64.1868C18.7014 64.1868 16.3811 63.2201 15.2693 61.1415C14.1092 59.0629 14.5443 56.5977 14.5443 56.5977C14.5443 56.5977 16.8162 57.5644 17.9763 59.643Z" fill="#070E20"/>
<path d="M13.0458 65.0083C15.2211 65.9751 17.638 65.3467 17.638 65.3467C17.638 65.3467 16.5262 63.1231 14.351 62.1563C12.1757 61.1895 9.75879 61.8179 9.75879 61.8179C9.75879 61.8179 10.8706 64.0415 13.0458 65.0083Z" fill="#070E20"/>
<path d="M26.5326 64.2832C28.3695 65.83 28.8529 68.247 28.8529 68.247C28.8529 68.247 26.3876 68.1986 24.5024 66.7001C22.6655 65.2016 22.1821 62.7363 22.1821 62.7363C22.1821 62.7363 24.6957 62.7847 26.5326 64.2832Z" fill="#070E20"/>
<path d="M23.9218 71.0983C26.2904 71.195 28.3206 69.7448 28.3206 69.7448C28.3206 69.7448 26.4354 68.1013 24.0668 68.0046C21.6982 67.9079 19.668 69.3581 19.668 69.3581C19.668 69.3581 21.5048 71.0016 23.9218 71.0983Z" fill="#070E20"/>
<path d="M35.9101 66.653C38.037 67.7165 39.1004 69.94 39.1004 69.94C39.1004 69.94 36.6835 70.5201 34.5082 69.4567C32.3813 68.3932 31.3179 66.1696 31.3179 66.1696C31.3179 66.1696 33.7348 65.5896 35.9101 66.653Z" fill="#070E20"/>
<path d="M34.9433 73.8546C37.2635 73.3712 38.907 71.486 38.907 71.486C38.907 71.486 36.6835 70.3258 34.3632 70.8092C32.0429 71.2926 30.3994 73.1778 30.3994 73.1778C30.3994 73.1778 32.623 74.338 34.9433 73.8546Z" fill="#070E20"/>
<path d="M29.7226 3.61852C27.6923 4.87533 25.2271 4.53696 25.2271 4.53696C25.2271 4.53696 26.0971 2.2167 28.1274 0.959886C30.1576 -0.296923 32.6229 0.0414514 32.6229 0.0414514C32.6229 0.0414514 31.7528 2.36171 29.7226 3.61852Z" fill="#070E20"/>
<path d="M55.7773 9.99908C58.0492 10.7242 60.3695 9.75739 60.3695 9.75739C60.3695 9.75739 58.9676 7.67882 56.6957 7.00208C54.4238 6.277 52.1035 7.24377 52.1035 7.24377C52.1035 7.24377 53.5053 9.274 55.7773 9.99908Z" fill="#070E20"/>
<path d="M60.031 4.10248C61.4329 6.03603 61.2879 8.54964 61.2879 8.54964C61.2879 8.54964 58.8709 7.8729 57.5174 5.93935C56.1156 4.0058 56.2606 1.49219 56.2606 1.49219C56.2606 1.49219 58.6292 2.12059 60.031 4.10248Z" fill="#070E20"/>
<path d="M63.3661 15.5102C65.5414 16.5253 67.9583 15.9936 67.9583 15.9936C67.9583 15.9936 66.8949 13.77 64.7196 12.7066C62.5444 11.6914 60.1274 12.2232 60.1274 12.2232C60.1274 12.2232 61.2392 14.4951 63.3661 15.5102Z" fill="#070E20"/>
<path d="M68.4903 10.2885C69.6021 12.4154 69.0704 14.8324 69.0704 14.8324C69.0704 14.8324 66.7984 13.8172 65.6866 11.6903C64.5749 9.56342 65.1066 7.14648 65.1066 7.14648C65.1066 7.14648 67.3785 8.1616 68.4903 10.2885Z" fill="#070E20"/>
<path d="M68.5869 22.8568C70.3271 24.5004 72.7924 24.7421 72.7924 24.7421C72.7924 24.7421 72.454 22.2768 70.7621 20.6333C69.0219 18.9897 66.5566 18.748 66.5566 18.748C66.5566 18.748 66.895 21.2133 68.5869 22.8568Z" fill="#070E20"/>
<path d="M75.0646 19.4731C75.4513 21.8417 74.1945 23.9686 74.1945 23.9686C74.1945 23.9686 72.3576 22.325 71.9709 19.9564C71.5842 17.5878 72.841 15.4609 72.841 15.4609C72.841 15.4609 74.6779 17.1528 75.0646 19.4731Z" fill="#070E20"/>
<path d="M71.8739 32.6205C73.1307 34.6508 75.4993 35.4725 75.4993 35.4725C75.4993 35.4725 75.7894 33.0072 74.5325 30.977C73.2757 28.9468 70.9071 28.125 70.9071 28.125C70.9071 28.125 70.5688 30.5903 71.8739 32.6205Z" fill="#070E20"/>
<path d="M78.9314 30.9296C78.6897 33.2982 76.9979 35.0867 76.9979 35.0867C76.9979 35.0867 75.6444 33.0082 75.8378 30.6396C76.0794 28.271 77.7713 26.4824 77.7713 26.4824C77.7713 26.4824 79.1731 28.561 78.9314 30.9296Z" fill="#070E20"/>
<path d="M71.3908 42.2899C71.8742 44.6102 73.8077 46.2054 73.8077 46.2054C73.8077 46.2054 74.9679 43.9818 74.4845 41.6615C74.0011 39.3413 72.0675 37.7461 72.0675 37.7461C72.0675 37.7461 70.9074 39.9213 71.3908 42.2899Z" fill="#070E20"/>
<path d="M78.6412 43.1605C77.6261 45.3358 75.3542 46.3993 75.3542 46.3993C75.3542 46.3993 74.7741 43.9823 75.8376 41.8071C76.8527 39.6318 79.1246 38.5684 79.1246 38.5684C79.1246 38.5684 79.6563 40.9853 78.6412 43.1605Z" fill="#070E20"/>
<path d="M68.0068 52.7304C67.8618 55.099 69.3119 57.1292 69.3119 57.1292C69.3119 57.1292 71.0038 55.2923 71.1005 52.8754C71.2455 50.5068 69.7953 48.4766 69.7953 48.4766C69.7953 48.4766 68.1518 50.3618 68.0068 52.7304Z" fill="#070E20"/>
<path d="M74.7743 55.4369C73.2275 57.2738 70.7622 57.7088 70.7622 57.7088C70.7622 57.7088 70.8105 55.2436 72.3574 53.4067C73.9042 51.5698 76.3695 51.1348 76.3695 51.1348C76.3695 51.1348 76.3212 53.6 74.7743 55.4369Z" fill="#070E20"/>
<path d="M61.4329 59.643C60.2728 61.7216 60.7078 64.1868 60.7078 64.1868C60.7078 64.1868 63.0281 63.2201 64.1399 61.1415C65.3 59.0629 64.865 56.5977 64.865 56.5977C64.865 56.5977 62.5447 57.5644 61.4329 59.643Z" fill="#070E20"/>
<path d="M66.3632 65.0083C64.1879 65.9751 61.771 65.3467 61.771 65.3467C61.771 65.3467 62.8828 63.1231 65.058 62.1563C67.2333 61.1895 69.6502 61.8179 69.6502 61.8179C69.6502 61.8179 68.5384 64.0415 66.3632 65.0083Z" fill="#070E20"/>
<path d="M52.8769 64.2832C51.04 65.83 50.5566 68.247 50.5566 68.247C50.5566 68.247 53.0219 68.1986 54.9071 66.7001C56.744 65.2016 57.2274 62.7363 57.2274 62.7363C57.2274 62.7363 54.7138 62.7847 52.8769 64.2832Z" fill="#070E20"/>
<path d="M55.4872 71.0983C53.1186 71.195 51.0884 69.7448 51.0884 69.7448C51.0884 69.7448 52.9736 68.1013 55.3422 68.0046C57.7108 67.9079 59.741 69.3581 59.741 69.3581C59.741 69.3581 57.8558 71.0016 55.4872 71.0983Z" fill="#070E20"/>
<path d="M49.6381 3.61852C51.6684 4.87533 54.1336 4.53696 54.1336 4.53696C54.1336 4.53696 53.2635 2.2167 51.2333 0.959886C49.2031 -0.296923 46.7378 0.0414514 46.7378 0.0414514C46.7378 0.0414514 47.6079 2.36171 49.6381 3.61852Z" fill="#070E20"/>
<path d="M44.9975 66.653C42.8706 67.7165 41.8071 69.94 41.8071 69.94C41.8071 69.94 44.2241 70.5201 46.3993 69.4567C48.5262 68.3932 49.5897 66.1696 49.5897 66.1696C49.5897 66.1696 47.1244 65.5896 44.9975 66.653Z" fill="#070E20"/>
<path d="M45.9159 73.8546C43.5957 73.3712 41.9521 71.486 41.9521 71.486C41.9521 71.486 44.1757 70.3258 46.496 70.8092C48.8163 71.2926 50.4598 73.1778 50.4598 73.1778C50.4598 73.1778 48.2362 74.338 45.9159 73.8546Z" fill="#070E20"/>
<path d="M58.0007 40.5488H21.7466V43.9325H58.0007V40.5488Z" fill="#D3224D"/>
<path d="M59.4508 42.9668H20.2964V45.8671H59.4508V42.9668Z" fill="#D3224D"/>
<path d="M60.901 46.834H18.8462V48.7675H60.901V46.834Z" fill="#D3224D"/>
<path d="M25.6137 25.5645H23.1968V41.0329H25.6137V25.5645Z" fill="#D3224D"/>
<path d="M30.9311 25.5645H28.5142V41.0329H30.9311V25.5645Z" fill="#D3224D"/>
<path d="M35.7651 25.5645H33.3481V41.0329H35.7651V25.5645Z" fill="#D3224D"/>
<path d="M41.082 25.5645H38.665V41.0329H41.082V25.5645Z" fill="#D3224D"/>
<path d="M46.3994 25.5645H43.9824V41.0329H46.3994V25.5645Z" fill="#D3224D"/>
<path d="M51.2333 25.5645H48.8164V41.0329H51.2333V25.5645Z" fill="#D3224D"/>
<path d="M56.5507 25.5645H54.1338V41.0329H56.5507V25.5645Z" fill="#D3224D"/>
<path d="M59.4025 26.0476H39.7286H20.0063L18.9429 23.2439L39.7286 12.8027L60.4659 23.2923L59.4025 26.0476ZM39.7286 16.1381C38.4718 16.1381 37.505 17.1532 37.505 18.3617C37.505 19.5702 38.5201 20.5853 39.7286 20.5853C40.9854 20.5853 41.9522 19.5702 41.9522 18.3617C41.9522 17.1532 40.937 16.1381 39.7286 16.1381Z" fill="#D3224D"/>
<path d="M9.71045 85.7948C9.71045 85.5048 9.75879 85.1181 9.80713 84.7313L10.7739 79.6558H13.4325L12.4658 84.7797C12.4174 85.1664 12.3691 85.5048 12.3691 85.7465C12.3691 86.0365 12.4174 86.2298 12.5624 86.3749C12.6591 86.5199 12.8525 86.5682 13.0458 86.5682C13.2392 86.5682 13.4325 86.5199 13.5776 86.4715C13.7226 86.4232 13.8193 86.3265 13.9643 86.1815C14.1576 85.8915 14.351 85.4081 14.496 84.7313L15.4628 79.6074H17.2996L16.3329 84.7313C16.0912 85.8915 15.7045 86.6649 15.0761 87.1483C14.496 87.5833 13.5776 87.825 12.3691 87.825C11.499 87.825 10.7739 87.6317 10.3389 87.245C9.90381 86.9066 9.71045 86.4232 9.71045 85.7948Z" fill="#070E20"/>
<path d="M22.6166 87.8241C21.6498 87.8241 21.1664 87.4374 21.1664 86.7123C21.1664 86.5189 21.2148 86.2289 21.2631 85.8905L21.4565 84.7787C21.6498 83.7153 21.7948 83.0869 21.7948 82.8452C21.7948 82.3618 21.6498 82.1684 21.4081 82.1684C20.9731 82.1684 20.5864 82.7485 20.3447 83.957L19.6196 87.6307L17.2026 87.8724L18.4594 81.4917L20.4413 81.25L20.248 82.4101C20.6347 81.6367 21.4081 81.25 22.5682 81.25C23.1483 81.25 23.535 81.3467 23.7767 81.5884C24.0184 81.8301 24.1151 82.2168 24.1151 82.7485C24.1151 83.2319 23.9701 84.102 23.7284 85.2621C23.5834 85.7938 23.535 86.1322 23.535 86.3256C23.535 86.5189 23.5834 86.6639 23.68 86.809C23.7767 86.9056 23.9217 87.0023 24.0668 87.0023C23.9701 87.2924 23.8251 87.4857 23.535 87.6307C23.2933 87.7274 23.0033 87.8241 22.6166 87.8241Z" fill="#070E20"/>
<path d="M27.9824 86.9061C27.7407 87.4861 27.2089 87.8245 26.4355 87.8245C26.0488 87.8245 25.7104 87.6795 25.4204 87.3895C25.227 87.1478 25.082 86.9061 25.082 86.6644C25.082 86.036 25.227 85.0692 25.5171 83.7641L25.9521 81.4438L28.4174 81.2021L27.6923 85.0209C27.5473 85.6009 27.499 86.036 27.499 86.2293C27.499 86.6644 27.644 86.9061 27.9824 86.9061ZM26.1938 79.7519C26.1938 79.4619 26.3388 79.2202 26.5805 79.0269C26.8222 78.8818 27.1606 78.7852 27.5473 78.7852C27.934 78.7852 28.2241 78.8818 28.4657 79.0269C28.7074 79.1719 28.8041 79.4136 28.8041 79.7519C28.8041 80.042 28.6591 80.2837 28.4174 80.477C28.1757 80.622 27.8373 80.7187 27.4506 80.7187C27.0639 80.7187 26.7739 80.622 26.5322 80.477C26.3388 80.2837 26.1938 80.042 26.1938 79.7519Z" fill="#070E20"/>
<path d="M33.3964 81.6362C33.6381 81.3462 34.0248 81.2012 34.4599 81.2012C34.7499 81.2012 34.9916 81.2978 35.1849 81.4429C35.3783 81.5879 35.5233 81.8296 35.5233 82.1196C35.5233 82.4096 35.475 82.6997 35.3783 82.9897C35.2816 83.2797 35.1849 83.6181 35.0399 83.9081C34.7499 84.5366 34.4598 85.0683 34.0731 85.6C33.5414 86.3251 33.0097 86.9052 32.5263 87.2919C31.9946 87.6786 31.4628 87.8719 30.9311 87.8719C30.4961 87.8719 30.1094 87.8236 29.8677 87.7269C29.8193 86.0351 29.771 84.8749 29.7226 84.2949C29.6743 83.7148 29.626 83.2314 29.5776 82.893C29.4809 82.2646 29.3359 81.8296 29.0942 81.6846C29.2876 81.5395 29.481 81.3945 29.626 81.3462C29.8193 81.2978 30.061 81.2495 30.4477 81.2495C30.8344 81.2495 31.1245 81.3945 31.4145 81.6846C31.6562 81.9746 31.8496 82.3613 31.8979 82.893C31.9462 83.4248 31.9946 84.0048 31.9946 84.6332C31.9946 85.2616 31.9946 85.9384 31.9462 86.7118C32.1879 86.5184 32.4296 86.1801 32.7197 85.6483C33.058 84.9233 33.3481 84.1015 33.4447 83.1831C33.4931 82.893 33.4931 82.6513 33.4931 82.3613C33.4447 81.9263 33.3964 81.7329 33.3964 81.6362Z" fill="#070E20"/>
<path d="M40.744 85.5531C40.9374 85.6981 41.0341 85.8915 41.0341 86.2299C41.0341 86.5199 40.9374 86.7616 40.7924 86.955C40.6474 87.1483 40.454 87.2933 40.2123 87.4383C39.6806 87.68 39.1489 87.825 38.6171 87.825C38.0854 87.825 37.602 87.7767 37.312 87.6317C36.9736 87.4867 36.7319 87.3417 36.4902 87.1C36.0552 86.6649 35.8618 86.0849 35.8618 85.3114C35.8618 84.103 36.2002 83.1362 36.8286 82.3628C37.5537 81.5893 38.5205 81.1543 39.7289 81.1543C40.5023 81.1543 41.0824 81.2993 41.4208 81.6377C41.7108 81.8794 41.8558 82.2178 41.8558 82.6045C41.8558 84.0063 40.6474 84.7314 38.1821 84.7314C38.1337 84.9247 38.1337 85.1181 38.1337 85.3114C38.1337 85.6981 38.2304 85.9398 38.3754 86.0849C38.5205 86.2299 38.7621 86.2782 39.1005 86.2782C39.3905 86.2782 39.7289 86.2299 40.0673 86.0849C40.3573 85.9398 40.599 85.7465 40.744 85.5531ZM38.2788 84.1996C38.8588 84.1996 39.2939 84.0063 39.6322 83.6679C39.9706 83.3296 40.1156 82.8945 40.1156 82.3628C40.1156 82.1694 40.0673 82.0244 40.019 81.9277C39.9706 81.831 39.8256 81.7827 39.7289 81.7827C39.5839 81.7827 39.4872 81.831 39.3422 81.8794C39.2455 81.9277 39.1005 82.0244 39.0038 82.2178C38.6655 82.6045 38.4721 83.2812 38.2788 84.1996Z" fill="#070E20"/>
<path d="M46.061 84.1996C46.351 83.6679 46.496 83.1845 46.496 82.6528C46.496 82.3144 46.351 82.1211 46.1093 82.1211C45.9159 82.1211 45.7226 82.2661 45.5292 82.6045C45.3359 82.9428 45.1909 83.3295 45.1425 83.7162L44.5141 87.535L42.0005 87.7767L43.209 81.396L45.1909 81.1543L44.9975 82.3628C45.3842 81.541 46.0126 81.1543 46.9311 81.1543C47.4144 81.1543 47.7528 81.251 47.9945 81.4927C48.2362 81.7344 48.3812 82.1211 48.3812 82.6045C48.3812 83.0879 48.2362 83.5229 47.8978 83.8129C47.5595 84.103 47.1244 84.2963 46.5927 84.2963C46.3026 84.3447 46.1576 84.2963 46.061 84.1996Z" fill="#070E20"/>
<path d="M52.1518 83.3281C52.2484 83.038 52.2968 82.748 52.2968 82.5063C52.2968 82.0229 52.1034 81.7812 51.7167 81.7812C51.5234 81.7812 51.33 81.8779 51.185 82.0713C51.04 82.2646 50.9433 82.458 50.9433 82.6997C50.9433 82.8447 50.9916 82.9897 51.1367 83.1347C51.33 83.3281 51.6684 83.5214 52.1034 83.8115C52.5868 84.1015 52.9252 84.3432 53.0702 84.5849C53.2636 84.8266 53.3602 85.1166 53.3602 85.4066C53.3602 85.745 53.2636 86.0351 53.1185 86.3251C52.9735 86.6151 52.7318 86.8568 52.4418 87.0985C51.8617 87.5335 51.04 87.7753 50.0732 87.7753C49.5415 87.7753 49.1064 87.6302 48.6714 87.3885C48.2847 87.1468 48.0913 86.8568 48.0913 86.5184C48.0913 86.1801 48.188 85.9384 48.4297 85.7934C48.6714 85.6 48.9614 85.5033 49.2998 85.5033C49.6382 85.5033 49.9282 85.5517 50.1215 85.6967C50.0249 85.9384 49.9765 86.1801 49.9765 86.3734C49.9765 86.9051 50.2182 87.1468 50.6533 87.1468C50.8466 87.1468 50.9916 87.0985 51.1367 86.9535C51.2817 86.8085 51.33 86.6635 51.33 86.4701C51.33 86.0834 50.9916 85.6483 50.3149 85.2133C49.7348 84.8266 49.3965 84.5849 49.2998 84.4399C49.1064 84.1982 48.9614 83.9081 48.9614 83.5698C48.9614 83.2314 49.0581 82.9414 49.2031 82.6513C49.3481 82.3613 49.5898 82.0713 49.8315 81.8779C50.4116 81.4429 51.2333 81.2012 52.2485 81.2012C52.7802 81.2012 53.1669 81.2979 53.5053 81.4912C53.7953 81.6846 53.9886 81.9746 53.9886 82.313C53.9886 82.6513 53.892 82.9414 53.6503 83.1347C53.4569 83.3281 53.1185 83.4248 52.7318 83.4248C52.4901 83.4731 52.2968 83.4248 52.1518 83.3281Z" fill="#070E20"/>
<path d="M57.2758 86.9061C57.0341 87.4861 56.5024 87.8245 55.729 87.8245C55.3423 87.8245 55.0039 87.6795 54.7139 87.3895C54.5205 87.1478 54.3755 86.9061 54.3755 86.6644C54.3755 86.036 54.5205 85.0692 54.8105 83.7641L55.2456 81.4438L57.7109 81.2021L56.9858 85.0209C56.8408 85.6009 56.7924 86.036 56.7924 86.2293C56.7924 86.6644 56.9858 86.9061 57.2758 86.9061ZM55.5356 79.7519C55.5356 79.4619 55.6806 79.2202 55.9223 79.0269C56.164 78.8818 56.5024 78.7852 56.8891 78.7852C57.2758 78.7852 57.5659 78.8818 57.8075 79.0269C58.0492 79.1719 58.1459 79.4136 58.1459 79.7519C58.1459 80.042 58.0009 80.2837 57.7592 80.477C57.5175 80.622 57.1791 80.7187 56.7924 80.7187C56.4057 80.7187 56.1157 80.622 55.874 80.477C55.6323 80.2837 55.5356 80.042 55.5356 79.7519Z" fill="#070E20"/>
<path d="M58.5327 86.3744C58.5327 86.181 58.5811 85.7943 58.7261 85.2142L59.3545 81.9756H58.6294L58.6777 81.6372C59.6445 81.3471 60.6113 80.8638 61.5297 80.1387H62.1098L61.8197 81.4438H62.7382L62.6415 81.9756H61.7231L61.0947 85.2142C60.998 85.6976 60.9497 86.036 60.9497 86.2294C60.9497 86.6161 61.0947 86.8578 61.433 86.9061C61.3364 87.1961 61.1913 87.3895 60.9013 87.5345C60.6113 87.6795 60.2729 87.7762 59.8379 87.7762C59.4512 87.7762 59.1128 87.6312 58.8711 87.3895C58.6294 87.1478 58.5327 86.8094 58.5327 86.3744Z" fill="#070E20"/>
<path d="M66.5087 86.181C66.0737 86.6161 65.4936 86.8095 64.7202 86.8095C63.7534 86.8095 63.1733 86.4711 62.98 85.746C62.9316 85.5526 62.8833 85.311 62.8833 85.0693C62.8833 84.8276 62.9316 84.5859 62.98 84.3442L63.56 81.3472L66.0253 81.1055L65.3486 84.6342C65.3486 84.7309 65.3002 84.8276 65.3002 84.9726C65.3002 85.0693 65.2519 85.2143 65.2519 85.311C65.2519 85.4076 65.2519 85.5043 65.3002 85.601C65.3486 85.6977 65.3969 85.746 65.4452 85.7943C65.5419 85.8427 65.6869 85.891 65.832 85.891C66.0253 85.891 66.1703 85.7943 66.3153 85.601C66.4604 85.4076 66.557 85.1176 66.6537 84.7309L67.3305 81.3955L69.6991 81.1538L68.7806 85.891C68.4906 87.4379 68.0072 88.5013 67.4271 89.1297C67.1371 89.4198 66.7504 89.6614 66.3637 89.8065C65.977 89.9515 65.4936 89.9998 64.9619 89.9998C64.1401 89.9998 63.4634 89.8548 62.98 89.6131C62.4966 89.3714 62.2549 88.9847 62.2549 88.5496C62.2549 88.2113 62.3999 87.9696 62.6416 87.7762C62.8833 87.5829 63.2217 87.4862 63.6084 87.4862C63.9467 87.4862 64.2368 87.5829 64.4785 87.6796C64.6235 87.7762 64.7202 87.8729 64.8168 87.9696C64.6235 88.1146 64.5268 88.3563 64.5268 88.598C64.5268 88.9364 64.6718 89.1297 65.0102 89.1297C65.5419 89.1297 65.977 88.5013 66.267 87.2928C66.3637 86.9545 66.412 86.5678 66.5087 86.181Z" fill="#070E20"/>
<path d="M31.2212 59.8373C31.0278 59.8373 30.8345 59.8373 30.6411 59.8373C30.4477 59.8373 30.2544 59.8373 30.061 59.8856C30.0127 59.7889 30.0127 59.6922 30.0127 59.5472C30.0127 59.3055 30.061 59.1122 30.2061 58.9672C30.3511 58.8222 30.5444 58.7255 30.7378 58.7255H31.2212L31.9946 55.1967C31.8012 55.3901 31.5112 55.4868 31.1245 55.4868C30.9311 55.4868 30.7378 55.3901 30.5928 55.1967C30.4477 55.0034 30.3511 54.81 30.3027 54.5683C31.2212 54.4233 32.3813 54.0366 33.7348 53.4082L34.0248 53.7466L33.1064 58.7255H33.3481C33.7348 58.7255 34.0248 58.6771 34.2182 58.6288C34.3149 58.7738 34.3632 58.9672 34.3632 59.1605C34.3632 59.4022 34.2665 59.5472 34.1215 59.6923C33.9765 59.8373 33.7348 59.8856 33.4448 59.8856C32.913 59.8856 32.333 59.8856 31.8012 59.8373H31.2212Z" fill="#070E20"/>
<path d="M38.2304 54.8091C37.6503 55.0507 37.1186 55.1474 36.6352 55.1474C36.1518 55.1474 35.7651 55.0508 35.5234 54.9057C35.2817 54.7607 35.1367 54.519 35.1367 54.229C35.1367 54.0356 35.1851 53.8906 35.2334 53.7456C35.2817 53.6006 35.3784 53.4556 35.5234 53.3105C35.5718 53.4556 36.0552 53.5522 36.8769 53.6006C37.1186 53.6006 37.312 53.6006 37.5053 53.6006H39.5839L39.7772 54.374L39.3422 55.0507L38.9071 55.7758L38.3271 56.8393C38.0371 57.4194 37.7954 57.8544 37.747 58.1444C37.6503 58.4345 37.602 58.5795 37.602 58.7245C37.5537 58.8695 37.5537 59.0145 37.5537 59.1595C37.5537 59.3046 37.602 59.4012 37.6503 59.4496C37.5053 59.6913 37.2636 59.8363 36.9253 59.933C36.8286 59.9813 36.6836 59.9813 36.5385 59.9813C36.3935 59.9813 36.2485 59.933 36.1518 59.8846C36.0068 59.8363 35.9101 59.7396 35.8618 59.6913C35.7168 59.4979 35.6201 59.3046 35.6201 59.1112C35.6201 58.9179 35.6684 58.7245 35.7168 58.5795C35.7651 58.4345 35.8618 58.2894 35.9585 58.1444L38.2304 54.8091Z" fill="#070E20"/>
<path d="M39.3901 58.4823C39.3901 57.7572 39.8735 57.1772 40.792 56.7421C40.4052 56.4037 40.1636 56.017 40.1636 55.582C40.1636 55.0019 40.4053 54.4702 40.8886 54.0835C41.372 53.6968 42.0004 53.4551 42.7255 53.4551C43.2089 53.4551 43.644 53.5517 43.934 53.7934C44.224 54.0351 44.369 54.3252 44.369 54.6635C44.369 55.1953 44.079 55.6787 43.5473 56.017C43.4023 56.1137 43.2089 56.2104 43.0639 56.3071C43.4506 56.6454 43.7406 56.8871 43.8373 57.0321C43.9823 57.2738 44.079 57.5155 44.079 57.8056C44.079 58.0956 44.0307 58.3373 43.8856 58.6273C43.7406 58.9174 43.5473 59.1107 43.3056 59.3041C42.7739 59.7391 42.1455 59.9325 41.372 59.9325C40.7436 59.9325 40.2602 59.7875 39.9219 59.5458C39.5835 59.2557 39.3901 58.9174 39.3901 58.4823ZM41.372 57.2255C41.0337 57.4672 40.8886 57.8056 40.8886 58.1923C40.8886 58.434 40.937 58.579 41.0337 58.724C41.1303 58.869 41.2754 58.9657 41.4687 58.9657C41.6621 58.9657 41.8071 58.9174 41.9521 58.7723C42.0971 58.6273 42.1938 58.434 42.1938 58.2406C42.1938 58.0473 42.1454 57.9023 42.0004 57.8056L41.372 57.2255ZM42.5322 55.8237C42.8705 55.6787 43.0639 55.3886 43.0639 55.0019C43.0639 54.8086 43.0156 54.6152 42.9189 54.5185C42.8222 54.3735 42.6772 54.3252 42.4838 54.3252C42.2905 54.3252 42.1454 54.3735 42.0004 54.4702C41.8554 54.5669 41.8071 54.7119 41.8071 54.8569C41.8071 55.0986 41.8554 55.292 42.0004 55.3886L42.5322 55.8237Z" fill="#070E20"/>
<path d="M46.3027 55.9213C46.6411 55.873 46.9311 55.873 47.1728 55.873C47.4145 55.873 47.6078 55.9213 47.8495 56.018C48.0912 56.1147 48.2846 56.2114 48.4779 56.3564C48.8647 56.6464 49.058 56.9848 49.058 57.3715C49.058 57.7582 49.0097 58.0966 48.8647 58.435C48.7196 58.725 48.5263 59.015 48.2846 59.2567C47.7529 59.7401 47.1245 59.9818 46.351 59.9818C45.771 59.9818 45.3359 59.8851 45.0459 59.6918C44.7559 59.4984 44.6108 59.2567 44.6108 58.9183C44.6108 58.58 44.7075 58.2899 44.9492 58.1449C45.1909 58.58 45.626 58.8217 46.1577 58.8217C46.4961 58.8217 46.7377 58.725 46.9311 58.58C47.1245 58.4349 47.2211 58.1933 47.2211 57.9032C47.2211 57.3232 46.7861 57.0331 45.916 57.0331C45.5776 57.0331 45.3359 57.0331 45.0942 57.0815L45.9643 53.6978H48.1396C48.623 53.6978 48.9613 53.6011 49.1064 53.3594C49.2514 53.5044 49.348 53.7461 49.348 54.0361C49.348 54.3261 49.2514 54.5678 49.0097 54.8095C48.768 55.0029 48.4779 55.1479 48.1396 55.1479H46.5444L46.3027 55.9213Z" fill="#070E20"/>
</svg>
