<svg width="93" height="90" viewBox="0 0 93 90" fill="none" xmlns="http://www.w3.org/2000/svg">
<path d="M9.40773 58.481C9.22426 61.1872 7.29783 63.2512 7.29783 63.2512C7.29783 63.2512 5.69247 60.912 5.87594 58.2058C6.05941 55.4996 7.98584 53.4355 7.98584 53.4355C7.98584 53.4355 9.5912 55.7748 9.40773 58.481Z" fill="#070E20"/>
<path d="M1.38099 60.5913C2.84875 62.8847 5.55494 63.7562 5.55494 63.7562C5.55494 63.7562 5.83014 60.9582 4.36238 58.6649C2.89462 56.3715 0.188439 55.5 0.188439 55.5C0.188439 55.5 -0.0867671 58.2979 1.38099 60.5913Z" fill="#070E20"/>
<path d="M13.1688 69.1227C13.3064 71.8289 11.6552 74.1223 11.6552 74.1223C11.6552 74.1223 9.77462 72.0124 9.59115 69.3062C9.45355 66.6 11.1048 64.3066 11.1048 64.3066C11.1048 64.3066 12.9853 66.4165 13.1688 69.1227Z" fill="#070E20"/>
<path d="M5.46312 72.1969C7.20608 74.2609 10.004 74.8113 10.004 74.8113C10.004 74.8113 9.91227 71.9676 8.1693 69.9035C6.42634 67.8395 3.62842 67.2891 3.62842 67.2891C3.62842 67.2891 3.72015 70.1329 5.46312 72.1969Z" fill="#070E20"/>
<path d="M20.6912 77.0113C21.9755 79.3964 21.471 82.1943 21.471 82.1943C21.471 82.1943 18.8565 81.0935 17.5723 78.7084C16.288 76.3233 16.7925 73.5254 16.7925 73.5254C16.7925 73.5254 19.3611 74.6262 20.6912 77.0113Z" fill="#070E20"/>
<path d="M15.0497 83.1113C17.5266 84.2121 20.2786 83.5241 20.2786 83.5241C20.2786 83.5241 18.9943 81.0014 16.5175 79.9005C14.0406 78.7997 11.2886 79.4878 11.2886 79.4878C11.2886 79.4878 12.5729 81.9646 15.0497 83.1113Z" fill="#070E20"/>
<path d="M30.3692 82.2849C32.4792 84.0279 33.0296 86.7799 33.0296 86.7799C33.0296 86.7799 30.1858 86.7341 28.1217 84.9911C26.0118 83.2482 25.4614 80.4961 25.4614 80.4961C25.4614 80.4961 28.3052 80.542 30.3692 82.2849Z" fill="#070E20"/>
<path d="M27.4338 89.9909C30.1399 90.1285 32.4333 88.4314 32.4333 88.4314C32.4333 88.4314 30.3234 86.5508 27.6172 86.4591C24.911 86.3215 22.6177 88.0186 22.6177 88.0186C22.6177 88.0186 24.6817 89.8992 27.4338 89.9909Z" fill="#070E20"/>
<path d="M4.59174 48.2069C5.05042 50.8672 3.67439 53.3441 3.67439 53.3441C3.67439 53.3441 1.56449 51.4635 1.10581 48.8032C0.647139 46.1429 2.02316 43.666 2.02316 43.666C2.02316 43.666 4.13307 45.5466 4.59174 48.2069Z" fill="#070E20"/>
<path d="M83.1171 58.481C83.3006 61.1872 85.2271 63.2512 85.2271 63.2512C85.2271 63.2512 86.8324 60.912 86.6489 58.2058C86.4655 55.4996 84.539 53.4355 84.539 53.4355C84.539 53.4355 82.9337 55.7748 83.1171 58.481Z" fill="#070E20"/>
<path d="M91.1436 60.5913C89.6759 62.8847 86.9697 63.7562 86.9697 63.7562C86.9697 63.7562 86.6945 60.9582 88.1622 58.6649C89.63 56.3715 92.3362 55.5 92.3362 55.5C92.3362 55.5 92.6114 58.2979 91.1436 60.5913Z" fill="#070E20"/>
<path d="M79.3558 69.1227C79.2182 71.8289 80.8694 74.1223 80.8694 74.1223C80.8694 74.1223 82.75 72.0124 82.9335 69.3062C83.0711 66.6 81.4198 64.3066 81.4198 64.3066C81.4198 64.3066 79.4934 66.4165 79.3558 69.1227Z" fill="#070E20"/>
<path d="M87.0619 72.1969C85.3189 74.2609 82.521 74.8113 82.521 74.8113C82.521 74.8113 82.6127 71.9676 84.3557 69.9035C86.0987 67.8395 88.8966 67.2891 88.8966 67.2891C88.8966 67.2891 88.8048 70.1329 87.0619 72.1969Z" fill="#070E20"/>
<path d="M71.8335 77.0113C70.5492 79.3964 71.0537 82.1943 71.0537 82.1943C71.0537 82.1943 73.6682 81.0935 74.9525 78.7084C76.2368 76.3233 75.7322 73.5254 75.7322 73.5254C75.7322 73.5254 73.1178 74.6262 71.8335 77.0113Z" fill="#070E20"/>
<path d="M77.475 83.1113C74.9981 84.2121 72.2461 83.5241 72.2461 83.5241C72.2461 83.5241 73.5304 81.0014 76.0072 79.9005C78.4841 78.7997 81.2361 79.4878 81.2361 79.4878C81.2361 79.4878 79.9518 81.9646 77.475 83.1113Z" fill="#070E20"/>
<path d="M62.1095 82.2849C59.9996 84.0279 59.4492 86.7799 59.4492 86.7799C59.4492 86.7799 62.293 86.7341 64.357 84.9911C66.4669 83.2482 67.0174 80.4961 67.0174 80.4961C67.0174 80.4961 64.2194 80.542 62.1095 82.2849Z" fill="#070E20"/>
<path d="M65.0909 89.9909C62.3847 90.1285 60.0913 88.4314 60.0913 88.4314C60.0913 88.4314 62.2012 86.5508 64.9074 86.4591C67.6136 86.3215 69.907 88.0186 69.907 88.0186C69.907 88.0186 67.797 89.8992 65.0909 89.9909Z" fill="#070E20"/>
<path d="M87.8871 48.2069C87.4284 50.8672 88.8044 53.3441 88.8044 53.3441C88.8044 53.3441 90.9143 51.4635 91.373 48.8032C91.8317 46.1429 90.4556 43.666 90.4556 43.666C90.4556 43.666 88.3457 45.5466 87.8871 48.2069Z" fill="#070E20"/>
<path d="M27.0671 34.4924C26.8837 33.8962 26.425 34.309 26.2874 33.9879C26.1498 33.621 26.8837 33.3916 27.1589 33.2999C27.3882 33.2082 28.0762 32.9788 28.2138 33.3457C28.3056 33.6668 27.801 33.621 27.9386 34.1255C28.1221 34.7218 28.2138 35.0429 28.4432 35.685C28.5349 35.9602 28.9477 37.2904 26.9295 37.9784C24.6362 38.804 24.2233 37.061 24.1775 37.0151C23.9481 36.5106 23.8564 36.2354 23.6729 35.7309C23.5353 35.3639 23.1225 35.5474 23.0308 35.2722C22.9849 35.1805 22.8015 34.9052 24.0857 34.4007C25.0948 33.9879 25.37 34.1255 25.4618 34.309C25.5994 34.7218 25.0031 34.4924 25.2324 35.1804C25.37 35.5933 25.4618 35.8226 25.5994 36.2354C25.8287 36.9234 26.2874 37.2445 26.8837 37.0151C27.801 36.6941 27.5258 35.9602 27.5258 35.9143C27.3882 35.3639 27.2965 35.0887 27.0671 34.4924Z" fill="#070E20"/>
<path d="M32.0663 33.4838C32.158 33.5296 32.3874 33.6673 32.525 33.6214C32.6626 33.5755 32.6167 33.3462 32.6167 33.2544C32.5708 33.1168 32.525 32.8416 32.4332 32.7499C32.2956 32.5206 31.9746 32.7041 31.8828 32.383C31.7911 32.016 32.4332 31.8784 32.7084 31.8326C32.9836 31.7867 33.6717 31.6032 33.7634 31.9702C33.8551 32.2912 33.4423 32.2454 33.3965 32.5664C33.3506 32.7958 33.4423 33.1627 33.4882 33.3921C33.6258 33.9883 33.6717 34.3094 33.8093 34.9057C33.8551 35.1809 34.0845 35.9606 33.6717 36.0524C33.5341 36.0982 33.4423 36.0524 33.3047 35.9606C32.4332 35.502 31.9746 35.2726 31.0113 34.814C30.9196 34.7681 30.6903 34.6763 30.5985 34.7222C30.4151 34.7681 30.5068 35.135 30.5527 35.2726C30.5985 35.4561 30.6444 35.6396 30.7361 35.7772C30.9196 36.0982 31.1948 35.9148 31.2865 36.19C31.3783 36.5569 30.782 36.7863 30.5068 36.878C30.2316 36.9697 29.6353 37.1073 29.4977 36.7404C29.406 36.4193 29.7729 36.4652 29.7271 36.0524C29.6812 35.7772 29.5894 35.4102 29.5436 35.1809C29.406 34.7681 29.3142 34.3553 29.0849 33.9425C28.8097 33.392 28.4428 33.759 28.3052 33.4379C28.1676 33.0251 29.039 32.7958 29.3142 32.7041C29.7271 32.6123 29.7729 32.6123 30.1399 32.7499C31.0113 32.9793 31.3783 33.1627 32.0663 33.4838Z" fill="#070E20"/>
<path d="M34.8185 33.2537C34.6809 32.5198 34.5891 32.3363 34.4974 32.2904C34.3139 32.1528 34.0846 32.1987 34.0387 31.9694C33.947 31.5566 35.2771 31.2814 35.4147 31.2814C35.8275 31.1896 36.6073 31.0979 36.6532 31.5107C36.699 31.74 36.4238 31.74 36.3321 31.9235C36.2404 32.0611 36.3321 32.6115 36.378 33.0243C36.4238 33.2537 36.4238 33.3913 36.4697 33.6206C36.6532 34.6756 36.699 34.6297 36.8366 34.6756C37.0201 34.7214 37.1577 34.7214 37.2036 34.9049C37.2494 35.0884 37.2036 35.3636 35.8734 35.5929C35.6441 35.6388 34.8643 35.7764 34.7726 35.4094C34.7267 35.226 34.9561 35.1342 35.0019 34.9966C35.0478 34.9049 35.0937 34.6756 34.9102 33.85C34.8643 33.6206 34.8643 33.483 34.8185 33.2537Z" fill="#070E20"/>
<path d="M40.2767 34.4004C40.1849 34.6756 40.0932 34.9509 39.7721 34.9967C39.4052 35.0426 39.3134 34.8591 39.13 34.5839C38.5337 33.5748 38.2126 33.1162 37.5246 32.1529C37.2953 31.786 37.2035 31.7401 36.9283 31.7401C36.7907 31.7401 36.699 31.6484 36.699 31.5567C36.6073 31.098 37.6622 30.9145 37.9833 30.8687C39.3593 30.6852 39.3593 31.0063 39.3593 31.098C39.4052 31.3273 39.0841 31.3732 39.0841 31.5108C39.0841 31.6484 39.4052 32.1071 39.5886 32.3823C39.6345 32.474 39.7721 32.7034 39.9097 32.7034C40.1391 32.7034 40.1849 32.3364 40.2767 32.1988C40.3225 32.0612 40.5977 31.4649 40.5519 31.3273C40.5519 31.098 40.1849 31.1897 40.1849 30.9604C40.1391 30.5934 40.9647 30.5017 41.2399 30.5017C42.0655 30.4558 42.2031 30.5476 42.249 30.7769C42.249 30.9604 42.1114 31.0062 41.9738 31.0521C41.6985 31.098 41.6527 31.098 41.4692 31.5567C40.9647 32.6575 40.7353 33.2538 40.2767 34.4004Z" fill="#070E20"/>
<path d="M45.0011 30.3642C45.8726 30.3642 46.0102 30.2266 46.102 30.2266C46.4689 30.2266 46.6524 30.8229 46.6065 31.0981C46.6065 31.2815 46.5148 31.5108 46.2854 31.5108C45.7809 31.5108 46.1937 30.9146 44.9553 30.9604C44.2214 30.9604 44.3131 31.0981 44.3131 31.7861C44.3131 32.153 44.359 32.153 44.7259 32.153C45.2305 32.153 44.8177 31.465 45.2763 31.465C45.6433 31.465 45.6892 32.153 45.6892 32.3823C45.6892 32.6117 45.6433 33.3455 45.2763 33.3455C44.9094 33.3455 45.2763 32.7034 44.6342 32.7493C44.359 32.7493 44.4049 32.9786 44.4049 33.1621C44.4507 34.0336 44.4966 33.9877 45.1387 33.9877C46.423 33.9877 46.0561 33.1162 46.5606 33.1162C46.7441 33.1162 46.8817 33.3455 46.8358 33.4831C46.8358 33.896 46.4689 34.6298 46.2396 34.6298C46.1937 34.6298 46.102 34.6298 45.9644 34.584C45.8267 34.584 45.6433 34.5381 45.4598 34.5381C44.4507 34.5381 43.9462 34.584 42.9371 34.6298C42.5243 34.6298 42.5243 34.4922 42.5243 34.4005C42.5243 34.0794 42.9371 34.3088 42.9371 33.6666C42.9371 32.5658 42.9371 32.6575 42.8454 31.6026C42.7536 30.6852 42.295 31.1898 42.2491 30.777C42.2032 30.41 42.7995 30.4559 43.0288 30.41C43.8544 30.3642 44.2214 30.3642 45.0011 30.3642Z" fill="#070E20"/>
<path d="M47.5241 31.6026C47.5241 30.6853 47.0654 31.0522 47.0654 30.6853C47.0654 30.3642 47.57 30.3184 47.8452 30.3184C47.9828 30.3184 48.1204 30.3183 48.258 30.3642C48.3956 30.3642 48.5332 30.4101 48.6708 30.4101C48.9001 30.4101 49.0836 30.4101 49.3129 30.4101C49.5423 30.4101 49.7257 30.4101 49.9551 30.4101C50.689 30.456 51.5146 30.8229 51.4687 31.6026C51.4228 31.9696 51.1935 32.2907 50.8724 32.4283C50.8266 32.4741 50.7807 32.4741 50.7807 32.52C50.7807 32.6117 50.8724 32.6576 50.9183 32.6576C51.3311 32.8411 51.5146 33.1621 51.5604 33.8043C51.6063 34.3547 52.0191 34.0795 51.9733 34.4464C51.9733 34.6758 51.6522 34.8592 50.9642 34.8134C50.001 34.7216 49.9092 34.1712 49.7716 33.3915C49.7257 33.1163 49.634 32.8411 49.2671 32.8411C49.1295 32.8411 49.0836 32.8411 49.0377 33.208C49.0377 33.3915 49.0377 33.6208 49.0377 33.8043C49.0836 34.0795 49.4047 34.0336 49.3588 34.3088C49.3588 34.5382 49.1753 34.6758 48.2121 34.6299C47.9369 34.6299 47.0654 34.584 47.0654 34.1712C47.0654 33.8501 47.5241 34.0795 47.5241 33.2997C47.4782 32.6117 47.4782 32.2907 47.5241 31.6026ZM48.9919 31.9237C48.9919 32.0613 48.946 32.1989 49.1295 32.1989C49.5423 32.1989 49.6799 32.0154 49.7257 31.6485C49.7257 31.3733 49.6799 31.0522 49.3129 31.0522C49.0836 31.0522 49.0836 31.1898 49.0377 31.3733C49.0377 31.6026 48.9919 31.6944 48.9919 31.9237Z" fill="#070E20"/>
<path d="M52.4315 31.9698C52.4773 31.3277 53.2571 30.6396 54.4955 30.8231C54.9083 30.869 55.367 31.1442 55.4587 31.1442C55.5504 31.1442 55.6422 31.0983 55.7798 31.1442C56.0091 31.1901 56.4219 31.6946 56.3302 32.1991C56.2843 32.3826 56.1009 32.5661 55.8715 32.5202C55.4587 32.4285 55.3211 31.7405 54.6331 31.6487C54.4496 31.6029 54.2203 31.6946 54.1744 31.8781C54.1286 32.3367 55 32.3368 55.688 32.933C56.055 33.2541 56.1926 33.5752 56.1009 34.0338C55.9633 34.7218 55.2752 35.4099 53.8533 35.1805C53.4405 35.1347 52.7525 34.9512 52.4315 34.7218C52.1563 34.5384 52.0645 33.8962 52.1104 33.5752C52.1104 33.3917 52.2021 33.2541 52.3856 33.3C52.8443 33.3458 52.6608 34.2632 53.7616 34.4467C53.8992 34.4467 54.2662 34.4467 54.2662 34.2173C54.312 33.8045 53.4864 33.7586 52.8443 33.1624C52.6149 32.7954 52.3856 32.4285 52.4315 31.9698Z" fill="#070E20"/>
<path d="M57.0186 33.1623C57.1562 32.4285 57.1103 32.245 57.0644 32.1532C56.9727 31.9698 56.6975 31.878 56.7434 31.6487C56.8351 31.2359 58.1652 31.4652 58.257 31.5111C58.6698 31.6028 59.4495 31.7863 59.3578 32.1532C59.3119 32.3826 59.0826 32.2908 58.8991 32.4284C58.7615 32.5202 58.6239 33.0706 58.5322 33.4834C58.4863 33.7127 58.4405 33.8503 58.3946 34.0797C58.1653 35.1346 58.257 35.1346 58.3487 35.2264C58.4863 35.364 58.6239 35.4098 58.5781 35.5933C58.5322 35.7768 58.4405 36.0061 57.1103 35.7309C56.8351 35.685 56.1012 35.5474 56.1471 35.1346C56.1929 34.9512 56.3764 34.9511 56.514 34.8594C56.6058 34.7677 56.6975 34.5842 56.881 33.7586C56.9727 33.5293 56.9727 33.3917 57.0186 33.1623Z" fill="#070E20"/>
<path d="M62.7518 32.6571C63.027 32.7488 63.1646 32.7488 63.2563 32.7488C63.3481 32.7488 63.3939 32.7488 63.5315 32.7947C63.7609 32.8864 64.1737 33.4827 63.9443 34.079C63.8526 34.3542 63.6233 34.4918 63.3022 34.4001C62.7518 34.2166 62.9811 33.5744 62.6601 33.4827C62.4307 33.391 62.339 33.7121 62.339 33.7579C62.1555 34.4459 62.0179 34.8129 61.8344 35.5467C61.651 36.2348 62.2931 36.0513 62.1555 36.4641C62.1096 36.6476 61.9262 36.831 60.8254 36.5558C60.5043 36.4641 59.4035 36.1889 59.4952 35.7761C59.5869 35.455 59.908 35.6844 60.0915 35.5009C60.1832 35.4091 60.2749 35.0422 60.3208 34.9046C60.4584 34.4001 60.5502 34.1249 60.6878 33.6203C60.8712 33.024 60.7336 32.9782 60.6419 32.9782C60.3667 32.8864 60.0456 33.5744 59.5411 33.4368C59.3117 33.391 59.22 33.1158 59.2659 32.9323C59.3576 32.4278 59.9997 31.8773 60.3667 31.9691C60.4126 31.9691 60.4584 32.015 60.596 32.0608C60.6878 32.1067 60.8712 32.1526 61.1464 32.2443C61.7886 32.3819 62.1097 32.4736 62.7518 32.6571Z" fill="#070E20"/>
<path d="M67.3385 35.823C66.9715 36.0064 66.8798 36.1899 66.7422 36.6027C66.5587 37.1073 66.5129 37.3366 66.5129 37.4742C66.5129 37.6576 66.8798 37.7494 66.7422 38.0246C66.6046 38.4374 65.6872 38.0705 65.3662 37.9787C64.2195 37.5659 64.1736 37.2907 64.2195 37.1072C64.3112 36.7862 64.6323 37.0155 64.8158 36.832C64.9075 36.7403 65.0451 36.4651 65.2286 35.9147C65.3203 35.5936 65.3203 35.456 65.1827 35.1349C64.9992 34.7221 64.9075 34.5386 64.724 34.1717C64.5406 33.7589 64.0819 33.713 64.1736 33.4378C64.2195 33.3002 64.2654 33.025 65.7331 33.5296C67.0633 33.9883 66.9715 34.2176 66.9257 34.3093C66.8798 34.4469 66.6963 34.4469 66.6505 34.5845C66.6046 34.7221 66.7422 35.1349 66.8798 35.2267C67.0633 35.2725 67.4302 35.0891 67.4761 34.9515C67.522 34.8139 67.3385 34.7221 67.4302 34.4928C67.5678 34.1717 68.3017 34.4469 68.531 34.5387C69.3108 34.8597 69.4943 34.9973 69.3566 35.2725C69.219 35.6395 68.8521 35.2267 68.4393 35.4101C67.9348 35.5477 67.7513 35.6395 67.3385 35.823Z" fill="#070E20"/>
<path d="M37.7995 64.2586C37.7995 63.8916 37.7537 63.754 37.3867 63.754C37.295 63.754 37.2032 63.754 37.1115 63.754C36.928 63.754 36.7904 63.6623 36.7904 63.4788C36.7904 62.9284 38.5334 62.5156 39.6801 62.5156C39.9094 62.5156 40.3222 62.5156 40.3222 62.8826C40.3222 63.2495 39.7718 62.9743 39.726 63.7082C39.726 64.121 39.726 64.3962 39.726 64.6255C39.726 64.9466 39.726 65.6346 39.8177 65.9557C39.9553 66.6437 40.8268 66.0933 40.8268 66.6437C40.8268 66.9189 40.5974 66.9648 40.3681 67.0565C39.9553 67.1482 39.2214 67.1941 38.8086 67.1941C38.5334 67.1941 36.6528 67.1482 36.6528 66.6437C36.6528 66.4602 36.8363 66.3226 37.0198 66.3226C37.1574 66.3226 37.295 66.3685 37.4326 66.3685C37.7078 66.3685 37.8454 66.185 37.8454 65.2677V64.2586H37.7995Z" fill="#070E20"/>
<path d="M45.1844 64.3041C45.1844 64.3959 45.322 64.4417 45.3678 64.4876C45.6889 64.717 45.9182 65.1298 45.9182 65.5426C45.9182 66.1847 45.3678 67.1938 43.7166 67.1938C42.7534 67.1938 41.2397 66.8269 41.2397 65.6343C41.2397 64.9004 41.8819 64.7628 41.8819 64.5794C41.8819 64.4418 41.3774 64.2124 41.3774 63.5244C41.3774 62.5612 42.4323 62.0566 43.4873 62.0566C44.267 62.0566 45.8265 62.286 45.8265 63.295C45.8724 64.0289 45.1844 64.1665 45.1844 64.3041ZM44.0835 66.0471C44.0835 65.726 43.8083 65.6343 43.5331 65.4967C43.3497 65.405 42.9368 65.2215 42.7534 65.2215C42.6158 65.2215 42.5699 65.405 42.5699 65.5426C42.5699 66.0471 43.0286 66.4599 43.5331 66.4599C43.8083 66.414 44.0835 66.3223 44.0835 66.0471ZM43.3038 63.1574C43.3038 63.4326 43.8542 63.7996 44.1294 63.7996C44.3129 63.7996 44.4046 63.4785 44.4046 63.3409C44.4046 62.974 44.0377 62.8364 43.7166 62.8364C43.5331 62.8364 43.3038 62.9281 43.3038 63.1574Z" fill="#070E20"/>
<path d="M50.2297 62.6532C50.4132 62.6532 50.6884 62.6532 50.6884 62.9284C50.6884 63.0201 50.6425 63.1118 50.6425 63.2036L49.083 67.882C49.0371 68.0655 49.0371 68.1573 48.6243 68.1573C47.7987 68.1573 47.4318 67.8362 47.4318 67.7444C47.4318 67.6986 47.4777 67.6069 47.5235 67.561L48.8995 64.9007C48.9454 64.7631 49.1289 64.5337 49.1289 64.3961C49.1289 64.0751 48.4409 64.1209 48.2115 64.1209C46.6979 64.1209 47.3859 64.5796 46.7896 64.5796C46.331 64.5796 46.1934 64.0751 46.1934 63.7081C46.1934 62.9742 46.5144 62.4238 46.8814 62.4238C47.2024 62.4238 47.1107 62.6532 47.8905 62.6532H50.2297Z" fill="#070E20"/>
<path d="M53.4403 67.2406C52.0184 67.2406 51.0552 66.2315 51.0552 64.9473C51.0552 63.7088 52.3395 62.0117 52.844 62.0117C53.0275 62.0117 53.9448 62.2411 53.9448 62.4704C53.9448 62.5621 53.8072 62.6997 53.7614 62.7915C53.4862 63.1125 53.2109 63.4795 53.2109 63.7088C53.2109 63.8006 53.2568 63.8464 53.3486 63.8464C53.4862 63.8464 53.8531 63.6171 54.2659 63.6171C55.0915 63.6171 55.7337 64.3051 55.7337 65.1307C55.6878 66.1857 54.8163 67.2406 53.4403 67.2406ZM53.3027 64.7179C53.0275 64.7179 52.9357 64.9473 52.9357 65.1766C52.9357 65.4977 53.2568 66.1398 53.6238 66.1398C53.8531 66.1398 53.9907 66.0022 53.9907 65.7729C53.9907 65.4518 53.7614 64.7179 53.3027 64.7179Z" fill="#070E20"/>
<path d="M73.8057 25.503C73.3471 25.2737 62.8434 19.8613 46.0559 19.8613C29.2684 19.8613 18.7189 25.7782 18.3061 26.0076C17.8015 26.3286 17.4346 26.879 17.4346 27.4753C17.4346 27.4753 17.4346 49.033 17.4346 58.2524C17.4346 68.8937 43.258 78.1131 46.1935 79.1221C46.377 79.168 46.5604 79.3056 46.7439 79.3056H46.9274C47.1567 79.3056 47.4319 79.168 47.6154 79.1221C50.3675 78.0213 74.769 67.8387 74.769 57.2892V27.0167C74.769 26.3745 74.3562 25.7782 73.8057 25.503ZM45.9642 23.2097C59.1281 23.2097 68.3475 26.7873 71.0996 28.0257V43.529H20.7829C20.7829 37.1075 20.737 31.0071 20.737 28.6679C23.4891 27.3377 32.7085 23.2097 45.9642 23.2097ZM46.6522 75.6821C36.3779 72.1044 20.6453 64.3528 20.6453 58.2524C20.6453 57.1516 20.6453 55.4545 20.6453 54.5372H71.0996V57.2892C71.0996 63.4355 56.3302 71.7375 46.6522 75.6821Z" fill="#070E20"/>
<path d="M55.9633 48.8039L46.1477 58.6196L36.332 48.8039L46.1477 38.9883L55.9633 48.8039Z" fill="#D3224D" stroke="white" stroke-width="3.6736" stroke-miterlimit="10"/>
<path d="M57.7061 4.49506C56.1925 1.74301 47.2024 1.6054 46.1934 1.55953L45.9182 1.51367C45.9182 1.51367 35.8732 1.51366 34.2678 4.44918C33.0294 6.74255 36.8822 11.8797 36.8822 11.8797L39.038 12.0632C39.038 12.0632 35.231 7.65991 35.7356 5.09133C36.1025 3.11903 41.2855 2.29342 44.5421 1.97235C44.7256 2.01821 44.9091 2.06408 45.1384 2.10994C42.524 2.61449 38.1207 3.80704 37.8913 5.91694C37.5703 8.57726 39.8636 12.0173 39.8636 12.0173L42.0653 12.1549C42.0653 12.1549 39.0839 8.62313 39.4967 6.00868C39.726 4.63266 42.0653 3.53184 44.2669 2.79796C43.4413 3.4401 42.3405 4.40332 42.0194 5.32067C41.0103 7.98099 43.3037 12.6136 43.3037 12.6136H45.0467C45.0467 12.6136 42.6157 8.39379 43.3037 5.55001C43.4872 4.81613 44.7715 3.21077 45.4136 2.43102C45.5971 2.38515 45.7805 2.33926 45.964 2.2934C46.0099 2.2934 46.0099 2.29341 46.0557 2.33928C46.652 3.07316 48.2115 4.67852 48.395 5.45827C49.083 8.25619 47.0648 12.6595 47.0648 12.6595H48.8078C48.8078 12.6595 50.6884 7.88925 49.6793 5.22893C49.3123 4.21984 47.8905 3.25664 47.019 2.66036C49.4041 3.34837 52.3855 4.54092 52.6607 6.14628C53.0735 8.76073 50.0921 12.2925 50.0921 12.2925L52.2937 12.1549C52.2937 12.1549 54.5412 8.71486 54.266 6.05454C53.9908 3.8529 49.3582 2.66036 46.7438 2.20168C46.9272 2.15582 47.1107 2.10993 47.2483 2.06406C50.459 2.33926 56.009 3.1649 56.3759 5.18307C56.8805 7.75165 53.0735 12.1549 53.0735 12.1549L55.2293 11.9715C55.1375 11.9715 58.9904 6.8343 57.7061 4.49506ZM45.8264 2.0182C45.6429 1.97234 45.4595 1.97233 45.3219 1.92646C45.4136 1.92646 45.5053 1.92646 45.5971 1.92646C45.7805 1.92646 45.964 1.97235 46.1934 1.97235C46.1016 1.97235 45.964 1.97234 45.8264 2.0182Z" fill="#D3224D"/>
<path d="M46.0099 4.03636C47.1245 4.03636 48.028 3.13279 48.028 2.01818C48.028 0.903577 47.1245 0 46.0099 0C44.8953 0 43.9917 0.903577 43.9917 2.01818C43.9917 3.13279 44.8953 4.03636 46.0099 4.03636Z" fill="#D3224D"/>
<path d="M42.3457 14.5757L43.2534 15.4844L44.162 14.5766L43.2543 13.668L42.3457 14.5757Z" fill="#D3224D"/>
<path d="M47.8115 14.5796L48.7192 15.4883L49.6279 14.5805L48.7201 13.6719L47.8115 14.5796Z" fill="#D3224D"/>
<path d="M55.2755 15.595C55.2755 15.595 55.2296 15.6409 55.1837 15.595C54.6792 15.1363 54.6792 13.0264 55.1379 12.5677C55.2755 12.476 55.4131 12.5219 55.4589 12.5219C55.9176 12.0173 55.4589 11.6504 55.4589 11.6504C55.4589 11.6504 47.0193 12.476 36.5615 11.6504C36.5615 11.6504 36.1028 12.1091 36.6074 12.5219C36.745 12.5219 36.8826 12.476 36.9743 12.5677C37.5247 13.0723 37.3871 15.0904 36.8826 15.595C36.8826 15.595 36.8367 15.595 36.7909 15.595C36.7909 15.595 36.3322 16.0537 36.8367 16.4665C47.7532 17.2921 54.9544 16.5123 55.3213 16.4665C55.7341 15.9619 55.2755 15.595 55.2755 15.595Z" fill="#D3224D"/>
</svg>
