<svg width="95" height="94" viewBox="0 0 95 94" fill="none" xmlns="http://www.w3.org/2000/svg">
<path d="M31.2139 19.9526C28.8928 20.6631 26.5244 19.7157 26.5244 19.7157C26.5244 19.7157 27.9454 17.5841 30.2665 16.8736C32.5876 16.1631 34.956 17.1105 34.956 17.1105C34.956 17.1105 33.5823 19.242 31.2139 19.9526Z" fill="#070E20"/>
<path d="M26.8556 13.8889C25.4346 15.8784 25.5767 18.4363 25.5767 18.4363C25.5767 18.4363 28.0398 17.7732 29.4609 15.7837C30.8819 13.7942 30.7398 11.2363 30.7398 11.2363C30.7398 11.2363 28.2767 11.8995 26.8556 13.8889Z" fill="#070E20"/>
<path d="M23.4453 25.5882C21.219 26.6303 18.7559 26.0619 18.7559 26.0619C18.7559 26.0619 19.8453 23.7408 22.0716 22.6987C24.298 21.6566 26.7611 22.225 26.7611 22.225C26.7611 22.225 25.6243 24.5461 23.4453 25.5882Z" fill="#070E20"/>
<path d="M18.235 20.2367C17.0981 22.4156 17.6192 24.9262 17.6192 24.9262C17.6192 24.9262 19.9402 23.884 21.0771 21.7051C22.2139 19.5261 21.6929 17.0156 21.6929 17.0156C21.6929 17.0156 19.3245 18.0577 18.235 20.2367Z" fill="#070E20"/>
<path d="M18.0923 33.1201C16.3396 34.8253 13.7817 35.0148 13.7817 35.0148C13.7817 35.0148 14.1133 32.5043 15.866 30.799C17.6186 29.0938 20.1765 28.9043 20.1765 28.9043C20.1765 28.9043 19.8449 31.4622 18.0923 33.1201Z" fill="#070E20"/>
<path d="M11.4608 29.6621C11.0819 32.0779 12.3608 34.3042 12.3608 34.3042C12.3608 34.3042 14.2556 32.5989 14.6345 30.1831C15.0135 27.7673 13.7345 25.541 13.7345 25.541C13.7345 25.541 11.8398 27.2463 11.4608 29.6621Z" fill="#070E20"/>
<path d="M14.7775 43.1143C13.4985 45.1985 11.0827 46.0511 11.0827 46.0511C11.0827 46.0511 10.7512 43.5406 12.0775 41.4564C13.3564 39.3722 15.7722 38.5195 15.7722 38.5195C15.7722 38.5195 16.0564 41.0301 14.7775 43.1143Z" fill="#070E20"/>
<path d="M7.48268 41.4087C7.71952 43.8245 9.47216 45.6719 9.47216 45.6719C9.47216 45.6719 10.8932 43.5403 10.6564 41.1245C10.4195 38.7087 8.66689 36.8613 8.66689 36.8613C8.66689 36.8613 7.24584 38.9455 7.48268 41.4087Z" fill="#070E20"/>
<path d="M15.2505 53.0151C14.7768 55.4309 12.7873 57.0415 12.7873 57.0415C12.7873 57.0415 11.6031 54.7678 12.1242 52.3994C12.5979 49.9836 14.5873 48.373 14.5873 48.373C14.5873 48.373 15.7242 50.5994 15.2505 53.0151Z" fill="#070E20"/>
<path d="M7.81347 53.916C8.85558 56.1423 11.1766 57.2318 11.1766 57.2318C11.1766 57.2318 11.745 54.7687 10.7029 52.5424C9.66083 50.316 7.33979 49.2266 7.33979 49.2266C7.33979 49.2266 6.77137 51.7371 7.81347 53.916Z" fill="#070E20"/>
<path d="M18.7083 63.7207C18.8504 66.1838 17.3819 68.2207 17.3819 68.2207C17.3819 68.2207 15.6767 66.3259 15.5346 63.9102C15.3925 61.447 16.8609 59.4102 16.8609 59.4102C16.8609 59.4102 18.5662 61.3049 18.7083 63.7207Z" fill="#070E20"/>
<path d="M11.7453 66.5146C13.3085 68.362 15.819 68.8357 15.819 68.8357C15.819 68.8357 15.7716 66.2778 14.1611 64.4304C12.5979 62.5831 10.0874 62.1094 10.0874 62.1094C10.0874 62.1094 10.1821 64.6199 11.7453 66.5146Z" fill="#070E20"/>
<path d="M25.4353 70.8255C26.6195 72.9571 26.1458 75.4676 26.1458 75.4676C26.1458 75.4676 23.7774 74.4729 22.5932 72.3413C21.4089 70.2098 21.8826 67.6992 21.8826 67.6992C21.8826 67.6992 24.2984 68.694 25.4353 70.8255Z" fill="#070E20"/>
<path d="M20.3666 76.3201C22.5929 77.3149 25.056 76.6991 25.056 76.6991C25.056 76.6991 23.9192 74.4254 21.6929 73.4307C19.4666 72.4359 17.0034 73.0517 17.0034 73.0517C17.0034 73.0517 18.1403 75.3254 20.3666 76.3201Z" fill="#070E20"/>
<path d="M34.1977 75.5617C36.0925 77.1249 36.6135 79.6354 36.6135 79.6354C36.6135 79.6354 34.0556 79.588 32.1609 78.0249C30.2662 76.4617 29.7925 73.9512 29.7925 73.9512C29.7925 73.9512 32.303 73.9985 34.1977 75.5617Z" fill="#070E20"/>
<path d="M31.5449 82.5261C34.0081 82.6208 36.0449 81.1051 36.0449 81.1051C36.0449 81.1051 34.1502 79.3998 31.687 79.305C29.2239 79.2103 27.187 80.7261 27.187 80.7261C27.187 80.7261 29.0818 82.4314 31.5449 82.5261Z" fill="#070E20"/>
<path d="M37.4668 13.4145C35.3826 14.6935 32.8247 14.3619 32.8247 14.3619C32.8247 14.3619 33.6773 11.9461 35.8089 10.7145C37.8931 9.4356 40.451 9.76718 40.451 9.76718C40.451 9.76718 39.5984 12.1356 37.4668 13.4145Z" fill="#070E20"/>
<path d="M64.1821 19.9526C66.5031 20.6631 68.8715 19.7157 68.8715 19.7157C68.8715 19.7157 67.4505 17.5841 65.1294 16.8736C62.8084 16.1631 60.4399 17.1105 60.4399 17.1105C60.4399 17.1105 61.8136 19.242 64.1821 19.9526Z" fill="#070E20"/>
<path d="M68.54 13.8889C69.961 15.8784 69.8189 18.4363 69.8189 18.4363C69.8189 18.4363 67.3558 17.7732 65.9347 15.7837C64.5137 13.7942 64.6558 11.2363 64.6558 11.2363C64.6558 11.2363 67.0716 11.8995 68.54 13.8889Z" fill="#070E20"/>
<path d="M71.951 25.5882C74.1774 26.6303 76.6405 26.0619 76.6405 26.0619C76.6405 26.0619 75.5511 23.7408 73.3247 22.6987C71.0984 21.6566 68.6353 22.225 68.6353 22.225C68.6353 22.225 69.7721 24.5461 71.951 25.5882Z" fill="#070E20"/>
<path d="M77.1615 20.2367C78.2984 22.4156 77.7773 24.9262 77.7773 24.9262C77.7773 24.9262 75.4563 23.884 74.3194 21.7051C73.1826 19.5261 73.7037 17.0156 73.7037 17.0156C73.7037 17.0156 76.0721 18.0577 77.1615 20.2367Z" fill="#070E20"/>
<path d="M77.3039 33.1201C79.0566 34.8253 81.6145 35.0148 81.6145 35.0148C81.6145 35.0148 81.2829 32.5043 79.5302 30.799C77.7776 29.0938 75.2197 28.9043 75.2197 28.9043C75.2197 28.9043 75.5513 31.4622 77.3039 33.1201Z" fill="#070E20"/>
<path d="M83.9353 29.6621C84.3142 32.0779 83.0353 34.3042 83.0353 34.3042C83.0353 34.3042 81.1405 32.5989 80.7616 30.1831C80.3826 27.7673 81.6616 25.541 81.6616 25.541C81.6616 25.541 83.5563 27.2463 83.9353 29.6621Z" fill="#070E20"/>
<path d="M80.6193 43.1143C81.8982 45.1985 84.3141 46.0511 84.3141 46.0511C84.3141 46.0511 84.6456 43.5406 83.3193 41.4564C82.0403 39.3722 79.6246 38.5195 79.6246 38.5195C79.6246 38.5195 79.3403 41.0301 80.6193 43.1143Z" fill="#070E20"/>
<path d="M87.9142 41.4087C87.6773 43.8245 85.9247 45.6719 85.9247 45.6719C85.9247 45.6719 84.5037 43.5403 84.7405 41.1245C84.9773 38.7087 86.73 36.8613 86.73 36.8613C86.73 36.8613 88.1037 38.9455 87.9142 41.4087Z" fill="#070E20"/>
<path d="M80.1457 53.0151C80.6194 55.4309 82.6089 57.0415 82.6089 57.0415C82.6089 57.0415 83.7931 54.7678 83.2721 52.3994C82.7984 49.9836 80.8089 48.373 80.8089 48.373C80.8089 48.373 79.6721 50.5994 80.1457 53.0151Z" fill="#070E20"/>
<path d="M87.5828 53.916C86.5407 56.1423 84.2197 57.2318 84.2197 57.2318C84.2197 57.2318 83.6513 54.7687 84.6934 52.5424C85.7355 50.316 88.0565 49.2266 88.0565 49.2266C88.0565 49.2266 88.6249 51.7371 87.5828 53.916Z" fill="#070E20"/>
<path d="M76.6879 63.7207C76.5458 66.1838 78.0142 68.2207 78.0142 68.2207C78.0142 68.2207 79.7195 66.3259 79.8616 63.9102C80.0037 61.447 78.5353 59.4102 78.5353 59.4102C78.5353 59.4102 76.83 61.3049 76.6879 63.7207Z" fill="#070E20"/>
<path d="M83.6508 66.5146C82.0877 68.362 79.5771 68.8357 79.5771 68.8357C79.5771 68.8357 79.6245 66.2778 81.235 64.4304C82.7982 62.5831 85.3087 62.1094 85.3087 62.1094C85.3087 62.1094 85.214 64.6199 83.6508 66.5146Z" fill="#070E20"/>
<path d="M69.9613 70.8255C68.7771 72.9571 69.2508 75.4676 69.2508 75.4676C69.2508 75.4676 71.6192 74.4729 72.8034 72.3413C73.9876 70.2098 73.514 67.6992 73.514 67.6992C73.514 67.6992 71.0982 68.694 69.9613 70.8255Z" fill="#070E20"/>
<path d="M75.0298 76.3201C72.8035 77.3149 70.3403 76.6991 70.3403 76.6991C70.3403 76.6991 71.4772 74.4254 73.7035 73.4307C75.9298 72.4359 78.393 73.0517 78.393 73.0517C78.393 73.0517 77.2561 75.3254 75.0298 76.3201Z" fill="#070E20"/>
<path d="M61.1985 75.5617C59.3038 77.1249 58.7827 79.6354 58.7827 79.6354C58.7827 79.6354 61.3406 79.588 63.2354 78.0249C65.1301 76.4617 65.6038 73.9512 65.6038 73.9512C65.6038 73.9512 63.0459 73.9985 61.1985 75.5617Z" fill="#070E20"/>
<path d="M63.8511 82.5261C61.3879 82.6208 59.3511 81.1051 59.3511 81.1051C59.3511 81.1051 61.2458 79.3998 63.709 79.305C66.1721 79.2103 68.209 80.7261 68.209 80.7261C68.209 80.7261 66.3142 82.4314 63.8511 82.5261Z" fill="#070E20"/>
<path d="M57.8826 13.4145C59.9669 14.6935 62.5248 14.3619 62.5248 14.3619C62.5248 14.3619 61.6721 11.9461 59.5405 10.7145C57.4563 9.4356 54.8984 9.76718 54.8984 9.76718C54.8984 9.76718 55.7984 12.1356 57.8826 13.4145Z" fill="#070E20"/>
<path d="M47.5572 74.9475C62.9921 74.9475 75.5046 62.435 75.5046 47.0001C75.5046 31.5652 62.9921 19.0527 47.5572 19.0527C32.1223 19.0527 19.6099 31.5652 19.6099 47.0001C19.6099 62.435 32.1223 74.9475 47.5572 74.9475Z" fill="#070E20"/>
<path d="M47.5572 74.9475C62.9921 74.9475 75.5046 62.435 75.5046 47.0001C75.5046 31.5652 62.9921 19.0527 47.5572 19.0527C32.1223 19.0527 19.6099 31.5652 19.6099 47.0001C19.6099 62.435 32.1223 74.9475 47.5572 74.9475Z" fill="#070E20"/>
<path d="M63.994 54.3882C63.994 54.3882 61.8151 55.8092 56.1308 53.5356C50.4466 51.2619 47.415 53.725 47.415 54.1513V54.104V32.8829C47.415 32.4566 50.494 29.9935 56.1782 32.2671C61.8624 34.5408 63.994 33.1198 63.994 33.1198V54.3882Z" fill="white"/>
<path d="M38.3676 32.2208C37.7518 32.4576 37.4676 32.5997 36.9939 32.8366V47.4734L35.3833 46.4787L33.6781 47.4734V33.4524C32.257 33.6892 30.3623 33.0734 30.3623 33.0734V54.3419C30.3623 54.3419 32.3044 55.7629 37.9886 53.4892C43.6728 51.2155 46.4676 53.6787 46.4676 54.105V54.0576V32.8366C46.4676 32.4103 44.0518 29.9945 38.3676 32.2208Z" fill="white"/>
<path d="M64.9425 35.0625V55.4309H28.9425V35.0625H27.9951V56.852C27.9951 56.852 39.1741 56.852 44.3372 56.852C44.8109 56.852 45.5214 57.4678 47.1793 57.4678C48.6477 57.4678 49.3109 56.852 49.7846 56.852C54.9951 56.852 66.3635 56.852 66.3635 56.852V35.0625H64.9425Z" fill="white"/>
<path d="M34.0093 65.9485V65.2853H34.2461C34.3882 65.5695 34.6251 65.7116 34.9567 65.7116C35.0988 65.7116 35.1935 65.6643 35.2882 65.6169C35.383 65.5695 35.4303 65.5222 35.4303 65.4274C35.4303 65.3801 35.383 65.3327 35.3356 65.2853C35.2882 65.2379 35.1461 65.238 35.004 65.1906C34.7198 65.1432 34.5303 65.0958 34.3882 65.0485C34.2461 65.0011 34.1514 64.9064 34.0567 64.8116C33.9619 64.7169 33.9146 64.5748 33.9146 64.4327C33.9146 64.2432 34.0093 64.0537 34.1514 63.959C34.3409 63.8169 34.5304 63.7695 34.8146 63.7695C35.0514 63.7695 35.2409 63.8169 35.4777 63.9116C35.5251 63.8643 35.5251 63.8169 35.5724 63.7695H35.7619V64.3853H35.5724C35.4303 64.1485 35.1935 64.0064 34.8146 64.0064C34.6725 64.0064 34.5777 64.0064 34.5303 64.0537C34.4356 64.1011 34.4356 64.1485 34.4356 64.1958C34.4356 64.2432 34.483 64.2906 34.5303 64.3379C34.5777 64.3853 34.7672 64.3853 35.004 64.4327C35.2409 64.4801 35.4303 64.5274 35.5724 64.5748C35.7146 64.6222 35.8093 64.7169 35.8566 64.8116C35.9514 64.9064 35.9514 65.0485 35.9514 65.1432C35.9514 65.3801 35.8567 65.5222 35.6672 65.6643C35.4777 65.8064 35.2409 65.8537 34.9567 65.8537C34.7198 65.8537 34.5303 65.8064 34.2935 65.7116C34.2461 65.759 34.1987 65.8064 34.1987 65.8537H34.0093V65.9485Z" fill="white"/>
<path d="M37.799 63.7677V65.2835C37.799 65.4256 37.7989 65.473 37.8463 65.5204C37.8937 65.5677 37.9884 65.5677 38.1305 65.5677V65.8046H36.6147V65.5677H36.6621C36.8042 65.5677 36.899 65.5204 36.9463 65.473C36.9937 65.4256 36.9937 65.3309 36.9937 65.2362V64.5256C36.9937 64.3835 36.9937 64.3362 36.9463 64.2888C36.899 64.2414 36.8042 64.194 36.6621 64.194H36.6147V63.9572L37.799 63.7677ZM36.9937 62.9151C36.9937 62.773 37.0411 62.6783 37.1358 62.5835C37.2305 62.4888 37.3253 62.4414 37.4674 62.4414C37.6095 62.4414 37.7042 62.4888 37.799 62.5835C37.8937 62.6783 37.9411 62.773 37.9411 62.9151C37.9411 63.0572 37.8937 63.1519 37.799 63.2467C37.7042 63.3414 37.6095 63.3888 37.4674 63.3888C37.3253 63.3888 37.2305 63.3414 37.1358 63.2467C36.9937 63.1046 36.9937 63.0098 36.9937 62.9151Z" fill="white"/>
<path d="M39.8356 64.4796V65.2848C39.8356 65.3796 39.8356 65.4743 39.8829 65.5217C39.9303 65.569 39.9777 65.6164 40.0724 65.6164V65.8532H38.6987V65.6164C38.8408 65.6164 38.9356 65.6164 38.983 65.569C39.0303 65.5217 39.0303 65.4269 39.0303 65.3322V64.6217C39.0303 64.4796 39.0303 64.4322 38.983 64.3848C38.9356 64.3375 38.8408 64.3374 38.6987 64.3374V64.1006L39.7882 63.9111C39.8356 63.9585 39.8356 64.0532 39.8356 64.1953C39.9303 64.1006 40.0724 64.0059 40.1672 63.9111C40.3093 63.8638 40.404 63.8164 40.5461 63.8164C40.783 63.8164 40.9724 63.8638 41.0672 64.0059C41.2093 64.148 41.2566 64.2901 41.2566 64.5269V65.3322C41.2566 65.4743 41.2566 65.5217 41.304 65.569C41.3514 65.6164 41.4461 65.6164 41.5882 65.6164V65.8532H40.2145V65.6164C40.2619 65.6164 40.3566 65.6164 40.404 65.569C40.4514 65.5217 40.4514 65.4269 40.4514 65.2848V64.5269C40.4514 64.3848 40.4514 64.2901 40.404 64.2427C40.3566 64.1954 40.3093 64.148 40.2619 64.148C40.2145 64.148 40.1198 64.1954 40.0724 64.2427C39.9777 64.2901 39.9303 64.3848 39.8356 64.4796Z" fill="white"/>
<path d="M44.1462 65.2365L44.383 65.3312C44.3357 65.5207 44.1936 65.6628 44.0041 65.7575C43.8146 65.8523 43.6252 65.8997 43.3883 65.8997C43.0567 65.8997 42.7725 65.8049 42.5357 65.6154C42.2988 65.426 42.2041 65.1891 42.2041 64.8575C42.2041 64.526 42.3462 64.2418 42.583 64.0523C42.8199 63.8628 43.1515 63.7207 43.5304 63.7207C43.7673 63.7207 43.9567 63.7681 44.0988 63.8628C44.2409 63.9575 44.3357 64.0523 44.3357 64.2418C44.3357 64.3365 44.2883 64.3839 44.2409 64.4786C44.1936 64.526 44.0988 64.5733 44.0041 64.5733C43.8146 64.5733 43.7199 64.4786 43.6725 64.2418C43.6725 64.1944 43.6252 64.147 43.6252 64.0996C43.5778 64.0523 43.5304 64.0523 43.4831 64.0523C43.3409 64.0523 43.2462 64.0997 43.1515 64.2418C43.0567 64.3365 43.0567 64.526 43.0567 64.7628C43.0567 65.0944 43.1041 65.2839 43.1988 65.426C43.2936 65.5681 43.4357 65.6154 43.6252 65.6154C43.8146 65.6154 44.0041 65.4733 44.1462 65.2365Z" fill="white"/>
<path d="M45.9464 64.8116C45.9464 65.0958 45.9937 65.2853 46.0885 65.4274C46.1832 65.5695 46.3253 65.6169 46.5148 65.6169C46.7043 65.6169 46.8937 65.5222 47.0359 65.3327L47.2727 65.4748C47.178 65.6169 47.0359 65.7116 46.8938 65.8064C46.7043 65.9011 46.5148 65.9485 46.3253 65.9485C45.9937 65.9485 45.7095 65.8537 45.4727 65.6643C45.2359 65.4748 45.1411 65.1906 45.1411 64.859C45.1411 64.5274 45.2359 64.2432 45.4727 64.0537C45.7095 63.8643 45.9464 63.7695 46.2779 63.7695C46.6095 63.7695 46.8464 63.8643 47.0359 64.0537C47.2253 64.2432 47.32 64.4801 47.32 64.859H45.9464V64.8116ZM45.9464 64.5748H46.5622C46.5622 64.1958 46.4674 64.0537 46.2306 64.0537C46.1358 64.0537 46.0411 64.1011 45.9937 64.1958C45.9464 64.2432 45.9464 64.3853 45.9464 64.5748Z" fill="white"/>
<path d="M50.0669 65.8534V65.5692H50.209C50.3038 65.5692 50.3985 65.5692 50.4459 65.5218C50.4932 65.4744 50.5406 65.4271 50.5406 65.285V63.4376C50.5406 63.2481 50.4932 63.1534 50.4459 63.106C50.3985 63.0587 50.2564 63.0587 50.0669 63.0587V62.7744C50.4932 62.7744 50.8248 62.6797 51.0616 62.4902H51.2985V65.285C51.2985 65.3797 51.2985 65.4744 51.3458 65.5218C51.3932 65.5692 51.4406 65.5692 51.5827 65.5692H51.7248V65.8534H50.0669Z" fill="white"/>
<path d="M53.6197 64.0524C53.3829 64.0051 53.1934 63.9103 53.0513 63.7682C52.9092 63.6261 52.8618 63.484 52.8618 63.2472C52.8618 62.9629 52.9566 62.7735 53.146 62.6314C53.3355 62.4893 53.6197 62.3945 53.9039 62.3945C54.2355 62.3945 54.5197 62.4893 54.7092 62.6314C54.8987 62.7735 54.9934 63.0103 54.9934 63.2472C54.9934 63.4366 54.946 63.6261 54.8039 63.7208C54.7092 63.8629 54.5197 63.9577 54.2829 64.0051C54.5671 64.0524 54.7566 64.1472 54.8987 64.2893C55.0408 64.4314 55.0882 64.6208 55.0882 64.8577C55.0882 65.1893 54.9934 65.4261 54.7566 65.5682C54.5197 65.7577 54.2829 65.805 53.9513 65.805C53.6197 65.805 53.2881 65.7103 53.0987 65.5682C52.8618 65.4261 52.7671 65.1419 52.7671 64.8577C52.7671 64.6208 52.8145 64.4314 52.9566 64.2893C53.0987 64.2419 53.2881 64.0998 53.6197 64.0524ZM53.6197 64.8577C53.6197 65.1419 53.6671 65.3787 53.7145 65.4735C53.7618 65.5682 53.8566 65.6156 53.9987 65.6156C54.0934 65.6156 54.1881 65.5682 54.2829 65.4735C54.3303 65.3787 54.3776 65.1893 54.3776 64.9051C54.3776 64.5735 54.3303 64.384 54.2829 64.2893C54.2355 64.1945 54.1408 64.1945 53.9987 64.1945C53.8566 64.1945 53.7618 64.2419 53.7145 64.3366C53.6197 64.4314 53.6197 64.6208 53.6197 64.8577ZM53.6671 63.2472C53.6671 63.5314 53.7145 63.7208 53.7618 63.8156C53.8092 63.9103 53.9039 63.9577 53.9987 63.9577C54.0934 63.9577 54.1882 63.9103 54.2355 63.8156C54.2829 63.7208 54.2829 63.5314 54.2829 63.2472C54.2829 63.0103 54.2355 62.8682 54.1881 62.8208C54.1408 62.7261 54.046 62.7261 53.9513 62.7261C53.8566 62.7261 53.7618 62.7735 53.7145 62.8208C53.6671 62.9156 53.6671 63.0577 53.6671 63.2472Z" fill="white"/>
<path d="M56.7935 63.8625C56.9356 63.7677 57.0777 63.7677 57.2672 63.7677C57.5514 63.7677 57.7883 63.8625 57.9777 64.0519C58.1672 64.2414 58.262 64.4782 58.262 64.8098C58.262 65.1888 58.1672 65.473 57.9304 65.6625C57.6935 65.8519 57.4567 65.9467 57.1725 65.9467C56.8409 65.9467 56.5567 65.8046 56.3672 65.5677C56.1304 65.3309 56.0356 64.9519 56.0356 64.4783C56.0356 64.1467 56.083 63.8151 56.2251 63.4835C56.3198 63.1519 56.5093 62.9151 56.7935 62.7256C57.0304 62.5361 57.3146 62.4414 57.5988 62.4414C57.7883 62.4414 57.9304 62.4888 58.0725 62.5361C58.2146 62.6309 58.262 62.7256 58.262 62.8204C58.262 62.9151 58.2146 62.9625 58.1672 63.0098C58.1199 63.0572 58.0251 63.1046 57.9777 63.1046C57.883 63.1046 57.7883 63.0098 57.6462 62.8677C57.5514 62.773 57.5041 62.7256 57.362 62.7256C57.2198 62.7256 57.1251 62.8204 57.0304 63.0098C56.8883 63.1993 56.8409 63.4835 56.7935 63.8625ZM56.7462 64.8098C56.7462 65.094 56.7935 65.3309 56.8409 65.4256C56.8883 65.5677 56.983 65.6151 57.1251 65.6151C57.2198 65.6151 57.3146 65.5677 57.362 65.473C57.4093 65.3783 57.4567 65.1888 57.4567 64.9046C57.4567 64.5256 57.4093 64.2888 57.362 64.1467C57.3146 64.0519 57.2198 63.9572 57.1251 63.9572C57.0304 63.9572 56.983 64.0046 56.9356 64.0519C56.8883 64.0993 56.8409 64.194 56.8409 64.2414C56.7462 64.3835 56.7462 64.573 56.7462 64.8098Z" fill="white"/>
<path d="M60.4411 63.8639C60.6779 63.8639 60.82 63.9587 61.0095 64.1008C61.1516 64.2429 61.2463 64.4323 61.2463 64.7166C61.2463 65.0955 61.1042 65.3797 60.82 65.6166C60.5358 65.8534 60.2042 65.9481 59.8253 65.9481C59.5884 65.9481 59.3516 65.9008 59.2095 65.806C59.0674 65.7113 58.9727 65.5692 58.9727 65.4271C58.9727 65.3323 59.02 65.2376 59.0674 65.1902C59.1147 65.1429 59.2095 65.0955 59.3042 65.0955C59.3989 65.0955 59.4463 65.1429 59.4937 65.1902C59.5411 65.2376 59.5884 65.3323 59.6358 65.4271C59.6832 65.5692 59.7779 65.6639 59.92 65.6639C60.0621 65.6639 60.2042 65.6166 60.299 65.4745C60.3937 65.3797 60.4411 65.1429 60.4411 64.8587C60.4411 64.6692 60.4411 64.4797 60.3937 64.385C60.3463 64.2902 60.299 64.1955 60.2042 64.1955C60.1095 64.1955 60.0621 64.2429 59.9674 64.2902C59.92 64.3376 59.8727 64.385 59.8253 64.385C59.7779 64.385 59.7305 64.385 59.7305 64.3376C59.6832 64.2902 59.6832 64.2902 59.6832 64.2429C59.6832 64.1955 59.6832 64.1481 59.7305 64.1481C59.7779 64.1008 59.8253 64.0534 59.92 64.006C60.2516 63.7692 60.4411 63.5323 60.4411 63.2481C60.4411 63.106 60.3937 63.0113 60.3463 62.9165C60.2516 62.8218 60.1569 62.8218 60.0621 62.8218C59.9674 62.8218 59.8726 62.8692 59.7779 62.9165C59.6832 62.9639 59.6358 63.0587 59.6358 63.1534C59.6358 63.2481 59.6832 63.2955 59.7305 63.3902C59.7305 63.4376 59.7779 63.4376 59.7779 63.4376C59.7779 63.4376 59.7305 63.485 59.5884 63.5323C59.4463 63.5797 59.3516 63.6271 59.3042 63.6271C59.2568 63.6271 59.2095 63.5797 59.1621 63.485C59.1147 63.3902 59.1148 63.3429 59.1148 63.2481C59.1148 63.0113 59.2095 62.8692 59.4463 62.7271C59.6832 62.585 59.92 62.4902 60.2042 62.4902C60.4411 62.4902 60.6779 62.5376 60.8674 62.6323C61.0569 62.7271 61.1516 62.8692 61.1516 63.0587C61.1516 63.2481 61.1042 63.3902 60.9621 63.5323C60.7726 63.6745 60.6305 63.8165 60.4411 63.8639Z" fill="white"/>
<path d="M47.5571 92C72.4099 92 92.5571 71.8528 92.5571 47C92.5571 22.1472 72.4099 2 47.5571 2C22.7043 2 2.55713 22.1472 2.55713 47C2.55713 71.8528 22.7043 92 47.5571 92Z" stroke="#D3224D" stroke-width="3.6893" stroke-miterlimit="10"/>
</svg>
