<svg width="81" height="90" viewBox="0 0 81 90" fill="none" xmlns="http://www.w3.org/2000/svg">
<path d="M18.6159 70.9247C18.4744 73.237 16.87 75.0301 16.87 75.0301C16.87 75.0301 15.4543 73.0954 15.5959 70.7831C15.7375 68.4709 17.3419 66.6777 17.3419 66.6777C17.3419 66.6777 18.7103 68.6125 18.6159 70.9247Z" fill="#070E20"/>
<path d="M11.7739 72.8121C13.048 74.7468 15.3603 75.4546 15.3603 75.4546C15.3603 75.4546 15.549 73.048 14.2749 71.1133C13.0008 69.1785 10.6886 68.4707 10.6886 68.4707C10.6886 68.4707 10.4998 70.8773 11.7739 72.8121Z" fill="#070E20"/>
<path d="M24.2319 78.3345C25.1285 80.4579 24.4206 82.7702 24.4206 82.7702C24.4206 82.7702 22.2971 81.5905 21.4477 79.467C20.5511 77.3435 21.259 75.0312 21.259 75.0312C21.259 75.0312 23.3353 76.1638 24.2319 78.3345Z" fill="#070E20"/>
<path d="M18.8997 82.9593C20.8816 84.139 23.2882 83.7615 23.2882 83.7615C23.2882 83.7615 22.4388 81.4964 20.4569 80.3167C18.475 79.137 16.0684 79.5145 16.0684 79.5145C16.0684 79.5145 16.8706 81.7796 18.8997 82.9593Z" fill="#070E20"/>
<path d="M31.971 83.6655C33.5754 85.3171 33.8113 87.7237 33.8113 87.7237C33.8113 87.7237 31.4047 87.4406 29.8003 85.7418C28.1959 84.0902 27.96 81.6836 27.96 81.6836C27.96 81.6836 30.3666 82.0139 31.971 83.6655Z" fill="#070E20"/>
<path d="M28.7145 89.9415C30.9796 90.2718 33.103 89.0921 33.103 89.0921C33.103 89.0921 31.4986 87.299 29.1864 86.9686C26.9213 86.5911 24.7979 87.818 24.7979 87.818C24.7979 87.818 26.4494 89.6112 28.7145 89.9415Z" fill="#070E20"/>
<path d="M14.2749 62.1947C14.8412 64.4598 13.803 66.6304 13.803 66.6304C13.803 66.6304 11.8683 65.1676 11.3492 62.9025C10.7829 60.6375 11.8211 58.4668 11.8211 58.4668C11.8211 58.4668 13.7086 59.9297 14.2749 62.1947Z" fill="#070E20"/>
<path d="M64.1535 70.9247C64.2951 73.237 65.8995 75.0301 65.8995 75.0301C65.8995 75.0301 67.3152 73.0954 67.1736 70.7831C67.032 68.4709 65.4276 66.6777 65.4276 66.6777C65.4276 66.6777 64.0119 68.6125 64.1535 70.9247Z" fill="#070E20"/>
<path d="M70.9482 72.8121C69.6741 74.7468 67.3619 75.4546 67.3619 75.4546C67.3619 75.4546 67.1732 73.048 68.4472 71.1133C69.7213 69.1785 72.0336 68.4707 72.0336 68.4707C72.0336 68.4707 72.2695 70.8773 70.9482 72.8121Z" fill="#070E20"/>
<path d="M58.5381 78.3345C57.6415 80.4579 58.3493 82.7702 58.3493 82.7702C58.3493 82.7702 60.4728 81.5905 61.3222 79.467C62.2188 77.3435 61.511 75.0312 61.511 75.0312C61.511 75.0312 59.3875 76.1638 58.5381 78.3345Z" fill="#070E20"/>
<path d="M63.8705 82.9593C61.8886 84.139 59.4819 83.7615 59.4819 83.7615C59.4819 83.7615 60.3313 81.4964 62.3133 80.3167C64.2952 79.137 66.7018 79.5145 66.7018 79.5145C66.7018 79.5145 65.8524 81.7796 63.8705 82.9593Z" fill="#070E20"/>
<path d="M50.7993 83.6655C49.1949 85.3171 48.959 87.7237 48.959 87.7237C48.959 87.7237 51.3656 87.4406 52.97 85.7418C54.5744 84.0902 54.8104 81.6836 54.8104 81.6836C54.8104 81.6836 52.4037 82.0139 50.7993 83.6655Z" fill="#070E20"/>
<path d="M54.0082 89.9415C51.7431 90.2718 49.6196 89.0921 49.6196 89.0921C49.6196 89.0921 51.224 87.299 53.5363 86.9686C55.8013 86.5911 57.9249 87.818 57.9249 87.818C57.9249 87.818 56.3204 89.6112 54.0082 89.9415Z" fill="#070E20"/>
<path d="M68.4952 62.1947C67.9289 64.4598 68.9671 66.6304 68.9671 66.6304C68.9671 66.6304 70.9018 65.1676 71.4209 62.9025C71.9872 60.6375 70.949 58.4668 70.949 58.4668C70.949 58.4668 69.0614 59.9297 68.4952 62.1947Z" fill="#070E20"/>
<path d="M71.0425 5.70983L70.9481 5.61545C70.9481 5.61545 70.7594 5.56827 70.429 5.4267C70.429 5.4267 65.8045 4.19979 61.6048 2.9257C56.8859 1.46285 49.9963 0 41.5967 0C41.5024 0 41.4552 0.047188 41.3608 0.047188C41.2664 0.047188 41.2192 0.047188 41.1249 0.047188C32.7253 0.047188 25.8357 1.51004 21.1169 3.02008C16.8699 4.29417 12.2926 5.52108 12.2926 5.52108C11.9623 5.66264 11.7735 5.75702 11.7735 5.75702H11.6791C11.6791 5.75702 10.9713 9.01304 10.7354 14.6757H71.9391C71.7503 8.96585 71.0425 5.70983 71.0425 5.70983Z" fill="#070E20"/>
<path d="M41.2194 81.9182L41.3609 81.4935L41.5025 81.871C59.2454 68.7997 66.9844 51.859 70.0989 37.2305H12.623C15.7375 51.9062 23.4764 68.8469 41.2194 81.9182Z" fill="#070E20"/>
<path d="M68.2119 8.77631L68.1175 8.58756C68.1175 8.58756 67.9759 8.49318 67.6456 8.35161V8.30442C67.6456 8.30442 63.493 7.21908 59.6707 6.03937C55.3765 4.71808 49.1476 3.34961 41.5974 3.34961C41.5031 3.34961 41.4559 3.34961 41.3615 3.34961C41.2671 3.34961 41.2199 3.34961 41.1255 3.34961C33.5282 3.34961 27.2993 4.71808 23.0523 6.03937C19.23 7.21908 15.0774 8.30442 15.0774 8.30442V8.35161C14.7942 8.49318 14.6055 8.58756 14.6055 8.58756L14.5111 8.77631C14.5111 8.77631 5.96997 51.5765 41.2199 77.5302L41.3615 77.1527L41.503 77.5302C76.753 51.5765 68.2119 8.77631 68.2119 8.77631Z" stroke="white" stroke-width="4.2682" stroke-miterlimit="10" stroke-linecap="round" stroke-linejoin="round"/>
<path d="M41.4089 41.0547L44.1458 49.5487H53.1117L45.8918 54.9754L48.6287 63.5637L41.4089 58.3729L34.189 63.6581L36.9259 54.9754L29.7061 49.5487H38.6247L41.4089 41.0547Z" fill="white"/>
<path d="M80.9998 34.9192H0.967773L3.98783 26.0477L0.967773 16.5156H80.9998L77.9797 25.5287L80.9998 34.9192Z" fill="#D3224D"/>
<path d="M13.8974 22.2738V27.842C13.8974 28.8802 13.6143 29.7296 13.048 30.2958C12.4818 30.8621 11.6324 31.1452 10.5942 31.1452C9.55607 31.1452 8.75389 30.8621 8.14044 30.2958C7.57417 29.7296 7.29102 28.9274 7.29102 27.842V22.3209L7.3854 22.2266H8.04605C8.37637 22.2266 8.65949 22.3209 8.80106 22.5097C8.94263 22.6984 9.037 22.9816 9.037 23.3591V27.842C9.037 29.1161 9.55609 29.7768 10.6414 29.7768C11.7268 29.7768 12.2458 29.1161 12.2458 27.842V22.2738C12.4818 22.2266 12.7649 22.2266 13.0952 22.2266C13.3784 22.2266 13.6615 22.2266 13.8974 22.2738Z" fill="white"/>
<path d="M22.3916 22.2266L22.486 22.3209V30.9565C22.2028 31.0037 21.8725 31.0508 21.495 31.0508C21.1175 31.0508 20.74 31.0508 20.4569 31.0037L18.1446 26.096C17.8143 25.341 17.5312 24.7748 17.3896 24.3029H17.3424C17.4368 25.4826 17.484 26.6623 17.484 27.7476V30.9565C17.248 31.0037 16.9649 31.0037 16.6818 31.0037C16.3986 31.0037 16.1155 31.0037 15.9268 30.9565V22.3209C16.1627 22.2738 16.493 22.2266 16.8705 22.2266C17.248 22.2266 17.6255 22.2266 17.9087 22.2738L20.2209 27.1814L21.0231 29.0689H21.0703C20.9759 27.842 20.9287 26.7095 20.9287 25.577V23.2647C20.9287 22.8872 21.0231 22.6041 21.1647 22.4625C21.3063 22.3209 21.5422 22.2266 21.8725 22.2266H22.3916Z" fill="white"/>
<path d="M24.6094 30.9565V22.2738C24.7981 22.2266 25.0813 22.2266 25.4588 22.2266C25.7891 22.2266 26.0722 22.2266 26.3554 22.2738V30.9093C26.1194 30.9565 25.8363 30.9565 25.4588 30.9565C25.1284 31.0037 24.8453 31.0037 24.6094 30.9565Z" fill="white"/>
<path d="M31.3103 29.4936L33.1506 22.3209C33.2922 22.2738 33.5281 22.2738 33.8585 22.2738C34.1888 22.2738 34.4247 22.3209 34.6606 22.3681L34.755 22.4625L32.3012 30.9565C31.9709 31.0037 31.5934 31.0037 31.1215 31.0037C30.6968 31.0037 30.3665 30.9565 30.1777 30.8621C29.989 30.7677 29.8474 30.5318 29.753 30.2486L27.5352 22.4625C27.9127 22.2738 28.243 22.2266 28.5261 22.2266C28.8092 22.2266 28.998 22.2738 29.1396 22.4153C29.2811 22.5569 29.3755 22.7456 29.4699 23.076L30.6024 27.1342C30.7912 27.7948 30.9327 28.5498 31.1215 29.3992C31.2159 29.4464 31.2631 29.4936 31.3103 29.4936Z" fill="white"/>
<path d="M37.6335 28.7855V29.5877L38.5301 29.5405H41.6446C41.6446 29.8236 41.6446 30.0124 41.5974 30.154C41.503 30.673 41.1255 30.9562 40.512 30.9562H36.9729C36.6898 30.9562 36.4066 30.8618 36.2651 30.673C36.0763 30.4843 35.9819 30.2483 35.9819 29.918V22.3678L36.0763 22.2734H41.3614C41.4086 22.4622 41.4086 22.6981 41.4086 22.9341C41.4086 23.17 41.3614 23.406 41.267 23.6891H37.6335V24.5857V25.907H38.4357H40.5592C40.6064 26.0957 40.6536 26.3317 40.6536 26.6148C40.6536 26.8979 40.6064 27.1339 40.5592 27.3226H37.5863V28.7855H37.6335Z" fill="white"/>
<path d="M48.6284 24.9163C48.6284 25.1995 48.5812 25.4826 48.4868 25.7185C48.3925 25.9545 48.2981 26.1904 48.1565 26.3792C48.015 26.5679 47.8262 26.7567 47.6374 26.8982C47.4487 27.0398 47.2599 27.1814 47.024 27.2286C47.2599 27.3229 47.4487 27.4173 47.5903 27.6061C47.7318 27.7948 47.8734 28.0308 47.9678 28.3139L48.4396 29.588C48.534 29.7768 48.5812 29.9655 48.6756 30.1543C48.77 30.2958 48.8643 30.4374 49.0059 30.5318C48.9115 30.6733 48.7228 30.8149 48.534 30.9093C48.3453 31.0037 48.1093 31.0508 47.8262 31.0508C47.5903 31.0508 47.3543 30.9565 47.2127 30.8149C47.0712 30.6733 46.9296 30.3902 46.788 30.0599L46.269 28.5498C46.1746 28.2667 46.033 28.0308 45.8443 27.8892C45.6555 27.7476 45.4196 27.6533 45.0893 27.6533H44.3342V30.9565C44.1927 30.9565 44.0983 31.0037 43.9567 31.0037C43.8152 31.0037 43.6736 31.0037 43.4848 31.0037C43.1545 31.0037 42.9186 31.0037 42.6826 30.9565V22.3681L42.777 22.2738C43.4376 22.2738 44.0511 22.2266 44.523 22.2266C44.9949 22.2266 45.3724 22.2266 45.6555 22.2266C46.5521 22.2266 47.3071 22.4625 47.8262 22.8872C48.3453 23.3591 48.6284 24.0197 48.6284 24.9163ZM44.3342 23.5007V26.2848C44.7589 26.2376 45.1836 26.2376 45.5139 26.2376C46.4105 26.2376 46.8824 25.7657 46.8824 24.8691C46.8824 23.9725 46.4105 23.5007 45.5139 23.5007C45.2308 23.5007 45.0421 23.5007 44.8533 23.5007C44.6646 23.5478 44.4758 23.5478 44.3342 23.5007Z" fill="white"/>
<path d="M50.0913 30.2015C50.1385 29.9655 50.1857 29.7296 50.3273 29.4936C50.4688 29.2577 50.6104 29.0689 50.7991 28.9274C51.6485 29.4936 52.5451 29.7768 53.3473 29.7768C53.772 29.7768 54.0552 29.6824 54.2911 29.4936C54.5271 29.3049 54.6686 29.0689 54.6686 28.7858C54.6686 28.3139 54.3383 27.8892 53.6777 27.6533L52.1676 27.0398C51.5542 26.8039 51.1295 26.4735 50.8463 26.096C50.5632 25.7185 50.4216 25.2938 50.4216 24.7748C50.4216 24.3972 50.516 24.0669 50.6576 23.7366C50.7991 23.4063 51.0351 23.1703 51.271 22.9344C51.5542 22.6984 51.8845 22.5569 52.262 22.4153C52.6395 22.2738 53.0642 22.2266 53.4889 22.2266C54.4327 22.2266 55.3293 22.4625 56.2258 22.9344C56.1786 23.4535 55.9899 23.8782 55.6124 24.2085C54.763 23.831 54.008 23.595 53.3945 23.595C52.9698 23.595 52.6867 23.6894 52.4507 23.8782C52.2148 24.0669 52.1204 24.3029 52.1204 24.5388C52.1204 24.9163 52.4036 25.2466 53.017 25.4826L54.5271 26.096C55.1405 26.332 55.6124 26.6623 55.9427 27.087C56.273 27.5117 56.4146 27.9836 56.4146 28.5027C56.4146 28.8802 56.3674 29.2577 56.2258 29.5408C56.0843 29.8711 55.8955 30.1543 55.6124 30.3902C55.3293 30.6262 54.9989 30.8149 54.5742 30.9565C54.1495 31.098 53.6777 31.1452 53.1114 31.1452C52.0732 31.098 51.0351 30.8149 50.0913 30.2015Z" fill="white"/>
<path d="M57.9722 30.9565V22.2738C58.2081 22.2266 58.444 22.2266 58.8216 22.2266C59.1519 22.2266 59.435 22.2266 59.7182 22.2738V30.9093C59.4822 30.9565 59.1991 30.9565 58.8216 30.9565C58.444 31.0037 58.1609 31.0037 57.9722 30.9565Z" fill="white"/>
<path d="M64.7673 24.6329V30.9562C64.5313 31.0033 64.2482 31.0033 63.9179 31.0033C63.5875 31.0033 63.3044 31.0033 63.0685 30.9562V24.6329V23.6891H62.3135H60.8978C60.8506 23.5003 60.8506 23.2644 60.8506 22.9813C60.8506 22.6981 60.8506 22.4622 60.8978 22.2734H66.9379C66.9851 22.4622 67.0323 22.6981 67.0323 22.9813C67.0323 23.2172 66.9379 23.406 66.7964 23.5475C66.6548 23.6891 66.4189 23.7363 66.0885 23.7363H65.4751H64.7201L64.7673 24.6329Z" fill="white"/>
<path d="M72.0815 24.7748L73.0725 22.2738C73.2612 22.2266 73.4972 22.2266 73.8275 22.2266C74.1106 22.2266 74.3938 22.2738 74.6297 22.3209L74.6769 22.4153L72.2231 28.2195V30.9093C71.9872 30.9565 71.704 30.9565 71.3737 30.9565C71.0434 30.9565 70.7602 30.9565 70.5243 30.9093V28.1723L68.1177 22.5097C68.4952 22.3209 68.7783 22.2266 69.1086 22.2266C69.3918 22.2266 69.6277 22.2738 69.7693 22.3681C69.9108 22.4625 70.0052 22.6513 70.1468 22.9344L70.949 24.8691C71.1849 25.4354 71.3265 26.0017 71.4681 26.5679H71.5624C71.6568 26.0488 71.8456 25.4826 72.0815 24.7748Z" fill="white"/>
</svg>
