<svg width="80" height="90" viewBox="0 0 80 90" fill="none" xmlns="http://www.w3.org/2000/svg">
<path d="M61.9223 35.052C61.8766 34.4579 61.4653 33.9552 60.9169 33.7724L40.169 26.9631C39.8491 26.8717 39.5292 26.8717 39.255 26.9631L18.5072 34.0009C17.9588 34.1837 17.5475 34.6864 17.5018 35.2805L15.5367 58.9074C15.491 59.3644 15.6738 59.8671 16.0394 60.187C19.0556 62.8377 34.3651 76.045 39.9862 76.045H40.169C46.1101 76.045 60.6427 62.3806 63.4761 59.6843C63.796 59.3644 63.9788 58.9074 63.9331 58.4961L61.9223 35.052ZM20.2895 36.4687L39.6663 29.8879L59.0432 36.2402L59.5916 42.9124L39.5292 36.423L19.6954 43.278L20.2895 36.4687ZM19.0556 51.7782L39.6663 44.649L60.3228 51.3212L60.4599 52.6922L39.6663 46.1571L18.9185 53.1492L19.0556 51.7782ZM39.9405 73.2573C36.97 73.2573 27.8757 66.3566 21.1121 60.7811L39.712 54.4745L58.3577 60.4612C51.9597 66.2195 43.2309 73.303 40.0776 73.303H39.9405V73.2573Z" fill="#D3224D"/>
<path d="M16.68 25.1353C16.68 25.2267 16.68 25.2724 16.7257 25.4095C16.7257 25.5923 16.7714 25.7294 16.8171 25.7751C16.8628 25.8665 16.9542 25.9122 17.0456 25.9122C17.137 25.9122 17.2741 25.8665 17.4569 25.7751C17.5483 25.9122 17.594 26.0036 17.6397 26.1407C17.0456 26.4606 16.7257 26.6434 16.1316 27.009C16.0402 26.8719 15.9945 26.8262 15.9031 26.6891C16.1773 26.5063 16.3144 26.1407 16.223 25.5923C16.0402 23.9471 15.9488 23.1245 15.8574 21.4336C16.0402 21.3422 16.1316 21.2965 16.3144 21.2051C17.6854 22.2105 18.3252 22.7132 19.5591 23.81C19.879 24.0842 20.1075 24.2213 20.2446 24.2213C20.3817 24.2213 20.5188 24.2213 20.6559 24.1756C20.7016 24.3127 20.7473 24.4041 20.8387 24.5412C19.879 24.9525 19.422 25.181 18.508 25.6837C18.4166 25.5466 18.4166 25.4552 18.3252 25.3181C18.5537 25.2267 18.6451 25.1353 18.6908 25.0439C18.7365 24.9982 18.7365 24.9068 18.6908 24.8611C18.6451 24.8154 18.5994 24.7697 18.508 24.6783C18.4623 24.6326 18.4623 24.6326 18.4166 24.5869C18.2795 24.4955 18.2338 24.4498 18.0967 24.3584C17.5483 24.6326 17.2284 24.7697 16.68 25.1353ZM16.5886 24.6783C17.0456 24.4041 17.2741 24.3127 17.7311 24.0385C17.2284 23.6272 16.9542 23.4444 16.4515 23.0788C16.4972 23.7186 16.5429 24.0385 16.5886 24.6783Z" fill="#D3224D"/>
<path d="M25.546 20.7029C25.7745 21.3884 25.8659 21.754 26.0944 22.4395C25.9116 22.4852 25.8659 22.5309 25.6831 22.5766C25.5917 22.3938 25.3632 22.211 25.3175 22.211C25.1804 22.2567 24.5862 23.0793 23.9007 23.3535C23.1695 23.6277 22.484 23.6277 21.8442 23.3535C21.2044 23.0793 20.7474 22.6681 20.4732 22.0283C20.199 21.4342 20.199 20.7486 20.4732 20.0631C20.7474 19.3776 21.3416 18.8749 22.2099 18.555C22.8497 18.3265 23.9921 18.6007 24.0835 18.555C24.1292 18.555 24.1292 18.2808 24.1292 18.098C24.312 18.0523 24.4034 18.0066 24.5862 17.9609C24.8147 18.6464 24.9519 18.9663 25.1804 19.6518C24.9976 19.6975 24.9061 19.7432 24.769 19.7889C24.4948 19.3776 24.175 19.0577 23.8094 18.9206C23.4438 18.7835 23.0324 18.7835 22.6211 18.9206C22.1641 19.1034 21.89 19.3776 21.7529 19.7889C21.6615 20.2002 21.7072 20.7029 21.9814 21.3884C22.1642 21.8454 22.3469 22.211 22.5297 22.4395C22.7125 22.668 22.941 22.8051 23.2152 22.8965C23.4894 22.9422 23.7637 22.9423 24.0379 22.8509C24.4035 22.7138 24.6777 22.4853 24.8605 22.1654C25.0433 21.8455 25.1346 21.4342 25.1346 20.8858C25.2717 20.7944 25.3632 20.7486 25.546 20.7029Z" fill="#D3224D"/>
<path d="M27.9679 20.6103C27.9679 20.7017 27.9222 20.7474 27.9222 20.8845C27.8765 21.0673 27.8765 21.2044 27.9222 21.2501C27.9679 21.3415 28.0136 21.4329 28.105 21.4786C28.1964 21.5243 28.3335 21.4786 28.5163 21.4329C28.562 21.57 28.562 21.6614 28.6077 21.8442C27.9679 21.9813 27.6023 22.0727 26.9625 22.2555C26.9168 22.1184 26.9168 22.027 26.8711 21.8899C27.191 21.7985 27.3738 21.4786 27.4652 20.9302C27.6937 19.285 27.8765 18.5081 28.1964 16.8629C28.3792 16.8172 28.4706 16.8172 28.6991 16.7715C29.7045 18.0968 30.2072 18.7823 31.0755 20.1533C31.304 20.4732 31.4868 20.7017 31.6239 20.7474C31.761 20.7931 31.8981 20.8388 31.9895 20.7931C32.0352 20.9302 32.0352 21.0216 32.0352 21.2044C31.0298 21.3415 30.5271 21.4329 29.5674 21.6614C29.5217 21.5243 29.5217 21.4329 29.476 21.2501C29.7045 21.2044 29.8416 21.1587 29.8873 21.113C29.933 21.0673 29.933 21.0216 29.933 20.9302C29.933 20.8845 29.8873 20.7931 29.8416 20.7017C29.7959 20.656 29.7959 20.656 29.7502 20.6103C29.6588 20.4732 29.6131 20.4275 29.5217 20.2904C28.9276 20.3818 28.6077 20.4732 27.9679 20.6103ZM28.0136 20.1533C28.5163 20.0162 28.7448 19.9705 29.2932 19.8791C28.9276 19.3764 28.6991 19.1022 28.3335 18.5995C28.1964 19.2393 28.1507 19.5592 28.0136 20.1533Z" fill="#D3224D"/>
<path d="M32.7209 21.0214C32.7209 20.8843 32.6752 20.7929 32.6752 20.6101C32.9494 20.5644 33.1322 20.5187 33.1779 20.4273C33.2693 20.3359 33.2692 20.1531 33.2692 19.9246C33.1321 18.7821 33.0408 18.188 32.9037 17.0455C32.858 16.817 32.8123 16.6799 32.7209 16.5885C32.6295 16.4971 32.4009 16.4971 32.1267 16.5428C32.1267 16.4057 32.0811 16.3143 32.0811 16.1315C32.3553 16.0858 32.4924 16.0858 32.7666 16.0401C33.4521 15.9487 34.0005 15.8573 34.3661 15.8116C35.0059 15.7659 35.5543 15.7659 35.9656 15.8116C36.3769 15.8573 36.7882 15.9944 37.1538 16.1772C37.5194 16.4057 37.7936 16.6799 37.9764 16.9998C38.1592 17.3654 38.2506 17.731 38.2506 18.1423C38.2506 18.5536 38.1592 18.9649 37.9764 19.2848C37.7936 19.6047 37.5194 19.8789 37.2452 20.1074C36.9253 20.3359 36.6054 20.473 36.2855 20.5187C35.9656 20.5644 35.3715 20.6558 34.5946 20.7015C33.772 20.8843 33.4064 20.93 32.7209 21.0214ZM34.2747 16.3143C34.4118 17.6396 34.4575 18.3251 34.5946 19.6504C34.5946 19.8789 34.6403 20.016 34.686 20.0617C34.7317 20.1531 34.7773 20.1988 34.8687 20.2445C34.9601 20.2902 35.0973 20.2902 35.2801 20.2902C35.7371 20.2445 36.1027 20.0617 36.3312 19.7418C36.5597 19.4219 36.6511 18.9192 36.6054 18.2337C36.6054 17.6853 36.4683 17.274 36.2855 16.9541C36.1027 16.6342 35.8285 16.4514 35.5086 16.36C35.1887 16.3143 34.7774 16.2686 34.2747 16.3143Z" fill="#D3224D"/>
<path d="M41.5413 18.3713C41.4956 18.874 41.4955 19.1025 41.4498 19.5595C41.4498 19.788 41.4498 19.9251 41.4498 20.0165C41.4955 20.1079 41.5412 20.1536 41.6783 20.1993C41.8154 20.245 41.9983 20.2907 42.2268 20.2907C42.5467 20.3364 42.8208 20.2907 42.9579 20.245C43.1407 20.1993 43.2778 20.0622 43.4149 19.8794C43.552 19.6966 43.6891 19.5138 43.7805 19.2853C43.9633 19.2853 44.0548 19.331 44.1919 19.331C44.1005 19.9708 44.0548 20.2907 43.9634 20.9305C42.1354 20.702 41.1757 20.6106 39.3477 20.6106C39.3477 20.4735 39.3477 20.3821 39.3477 20.1993C39.3934 20.1993 39.3933 20.1993 39.439 20.1993C39.7132 20.1993 39.8504 20.1536 39.9418 20.0622C40.0332 19.9708 40.0788 19.8337 40.0788 19.6052C40.1245 18.4627 40.1246 17.8686 40.1703 16.7261C40.1703 16.4976 40.1245 16.3605 40.0788 16.2691C39.9874 16.1777 39.8046 16.132 39.5304 16.132C39.4847 16.132 39.4847 16.132 39.439 16.132C39.439 15.9949 39.439 15.9035 39.439 15.7207C41.3584 15.7664 42.3181 15.8121 44.2375 16.0406C44.1918 16.5433 44.1919 16.8175 44.1919 17.3202C44.0091 17.3202 43.9177 17.2745 43.7349 17.2745C43.6892 17.046 43.5978 16.8632 43.5064 16.7261C43.415 16.589 43.3236 16.4976 43.2322 16.4519C43.1408 16.4062 42.9579 16.3605 42.7294 16.3605C42.3181 16.3148 42.0897 16.3148 41.6783 16.2691C41.6326 16.9546 41.6326 17.2745 41.5869 17.96C41.7697 17.96 41.9069 17.96 42.0897 18.0057C42.3182 18.0057 42.501 18.0057 42.5924 17.9143C42.6838 17.8229 42.7295 17.6858 42.7752 17.4573C42.958 17.4573 43.0494 17.503 43.2322 17.503C43.1865 18.1428 43.1408 18.5084 43.0494 19.1482C42.8666 19.1482 42.7752 19.1025 42.5924 19.1025C42.5924 19.0568 42.5924 19.0568 42.5924 19.0568C42.5924 18.9197 42.5924 18.7826 42.5467 18.6912C42.501 18.5541 42.3181 18.5084 42.0439 18.4627C41.8611 18.417 41.7698 18.417 41.5413 18.3713Z" fill="#D3224D"/>
<path d="M47.9845 21.6621C47.5732 20.0169 47.3447 19.1943 46.7963 17.5491C46.6135 18.5545 46.5221 19.0572 46.3393 20.0169C46.2936 20.2454 46.2935 20.4282 46.2935 20.5196C46.2935 20.611 46.385 20.7481 46.4764 20.8395C46.5678 20.9309 46.7049 20.9767 46.8877 21.0224C46.842 21.1595 46.842 21.2508 46.7963 21.4336C46.0651 21.2965 45.6995 21.2509 44.9683 21.1138C45.014 20.9767 45.014 20.8852 45.014 20.7024C45.1511 20.7481 45.3339 20.7025 45.4253 20.6568C45.5624 20.6111 45.6538 20.5197 45.6995 20.4283C45.7452 20.3369 45.7908 20.154 45.8365 19.9255C46.0193 18.9201 46.1108 18.4174 46.2479 17.412C46.2936 17.1835 46.2479 17.0007 46.2022 16.9093C46.1108 16.8179 45.928 16.7265 45.6538 16.6808C45.6995 16.5437 45.6995 16.4523 45.6995 16.2695C46.6135 16.4066 47.0248 16.498 47.9388 16.6808C48.3958 18.0975 48.5786 18.783 48.8985 20.154C49.8582 19.0572 50.3152 18.5089 51.3663 17.4578C52.2346 17.6863 52.6916 17.8234 53.5599 18.1433C53.5142 18.2804 53.4685 18.3717 53.4228 18.5088C53.3771 18.5088 53.3771 18.5088 53.3314 18.4631C53.0572 18.3717 52.8744 18.3717 52.783 18.4174C52.6916 18.4631 52.6002 18.6003 52.5088 18.8288C52.1432 19.9256 52.0061 20.474 51.6405 21.5708C51.5948 21.7993 51.5491 21.9363 51.6405 22.0734C51.6862 22.1648 51.8233 22.2562 52.0975 22.3476C52.1432 22.3476 52.1432 22.3477 52.1889 22.3934C52.1432 22.5305 52.0975 22.6218 52.0518 22.7589C51.0007 22.3933 50.4523 22.2562 49.3555 21.982C49.4012 21.8449 49.4012 21.7535 49.4469 21.6164C49.4926 21.6164 49.4926 21.6164 49.5383 21.6621C49.7668 21.7078 49.9496 21.7078 50.041 21.6621C50.1324 21.6164 50.2238 21.4794 50.2695 21.2509C50.5894 20.1541 50.7265 19.6056 51.0464 18.5088C49.8582 19.7884 49.2641 20.4282 48.1673 21.7535C48.1673 21.7078 48.1216 21.7078 47.9845 21.6621Z" fill="#D3224D"/>
<path d="M54.5652 18.9203C54.6109 18.7832 54.6566 18.6918 54.7023 18.5547C55.8448 18.966 56.3932 19.1945 57.5357 19.6515C57.49 19.7886 57.4443 19.88 57.3986 20.0171C57.3529 20.0171 57.3529 20.0171 57.3072 19.9714C57.033 19.88 56.8502 19.8343 56.7588 19.88C56.6674 19.9257 56.5303 20.0628 56.4846 20.2456C56.0276 21.2967 55.8448 21.8451 55.3878 22.8962C55.2964 23.1247 55.2964 23.2618 55.3421 23.3532C55.3878 23.4446 55.5248 23.5817 55.7533 23.6731C55.799 23.6731 55.7991 23.6731 55.8448 23.7188C55.7991 23.8559 55.7534 23.9473 55.7077 24.0844C54.7023 23.6731 54.1995 23.4446 53.1484 23.079C53.1941 22.9419 53.2399 22.8505 53.2856 22.7134C53.5598 22.8048 53.7425 22.8505 53.8339 22.8048C53.9253 22.7591 54.0625 22.622 54.1082 22.3935C54.5195 21.2967 54.7023 20.794 55.1136 19.6972C55.205 19.4687 55.205 19.3316 55.1593 19.1945C55.0222 19.1031 54.8394 19.0117 54.5652 18.9203Z" fill="#D3224D"/>
<path d="M62.1061 25.3627C61.7405 26.0025 61.512 26.2767 61.1464 26.9165C61.0093 26.8251 60.9179 26.7794 60.7808 26.688C60.8265 26.5052 60.8722 26.1853 60.8265 26.1853C60.6894 26.0939 59.6383 26.1853 58.9985 25.8654C58.2673 25.4998 57.8103 24.9971 57.5818 24.3116C57.3533 23.6718 57.3533 23.032 57.6732 22.3922C57.9474 21.7981 58.4501 21.3411 59.1356 21.1126C59.8211 20.8841 60.598 20.9755 61.4663 21.4325C62.1061 21.7524 62.6545 22.8035 62.7459 22.8492C62.7916 22.8492 62.9744 22.6664 63.1115 22.575C63.2943 22.6664 63.34 22.7121 63.5228 22.8035C63.1572 23.4433 62.9744 23.7632 62.6545 24.3573C62.5174 24.2659 62.426 24.2202 62.2432 24.1288C62.3803 23.6261 62.3803 23.2148 62.2432 22.8492C62.1061 22.4836 61.8319 22.1637 61.4663 21.9809C61.0093 21.7524 60.598 21.7067 60.2324 21.8895C59.8668 22.0723 59.5012 22.4836 59.1813 23.1234C58.9528 23.5804 58.8157 23.946 58.77 24.2202C58.7243 24.4944 58.77 24.7686 58.9071 25.0428C59.0442 25.317 59.2727 25.4998 59.5012 25.6369C59.8211 25.8197 60.1867 25.8654 60.598 25.8197C60.9636 25.774 61.3749 25.5455 61.7405 25.1799C61.8776 25.2256 61.9233 25.2713 62.1061 25.3627Z" fill="#D3224D"/>
<path d="M39.8029 67.3615V65.4421H40.9911L40.4884 64.0711H38.112L37.655 65.4421H38.7975V67.3615H34.7759V65.4421H35.6899L38.3405 58.6328H41.1739L43.6874 65.4421H44.6014V67.3615H39.8029ZM39.3916 60.5979L38.4776 63.02H40.2599L39.3916 60.5979Z" fill="#070E20"/>
<path d="M72.1599 48.4887C73.211 50.6366 75.496 51.7335 75.496 51.7335C75.496 51.7335 76.0444 49.3113 74.9933 47.1177C73.9422 44.9698 71.6571 43.873 71.6571 43.873C71.6571 43.873 71.1088 46.3408 72.1599 48.4887Z" fill="#070E20"/>
<path d="M79.4261 47.529C78.9691 49.9054 77.0498 51.5049 77.0498 51.5049C77.0498 51.5049 75.9072 49.2656 76.3643 46.9349C76.8213 44.5585 78.7406 42.959 78.7406 42.959C78.7406 42.959 79.8831 45.1983 79.4261 47.529Z" fill="#070E20"/>
<path d="M71.4287 58.0848C71.9314 60.4612 73.8508 62.0608 73.8508 62.0608C73.8508 62.0608 74.9933 59.8214 74.5363 57.4907C74.0336 55.1143 72.1142 53.5605 72.1142 53.5605C72.1142 53.5605 70.9717 55.7084 71.4287 58.0848Z" fill="#070E20"/>
<path d="M78.7409 58.9536C77.6898 61.1015 75.4505 62.1983 75.4505 62.1983C75.4505 62.1983 74.8564 59.7762 75.9075 57.5826C76.9586 55.4347 79.1979 54.3379 79.1979 54.3379C79.1979 54.3379 79.7463 56.8057 78.7409 58.9536Z" fill="#070E20"/>
<path d="M68.0476 68.5958C67.9105 71.0179 69.3729 73.0287 69.3729 73.0287C69.3729 73.0287 71.0638 71.155 71.2009 68.7786C71.338 66.3565 69.8756 64.3457 69.8756 64.3457C69.8756 64.3457 68.1847 66.2194 68.0476 68.5958Z" fill="#070E20"/>
<path d="M74.8571 71.3376C73.3032 73.1656 70.8354 73.6226 70.8354 73.6226C70.8354 73.6226 70.8812 71.1091 72.4807 69.2811C74.0345 67.4531 76.5023 66.9961 76.5023 66.9961C76.5023 66.9961 76.4109 69.5096 74.8571 71.3376Z" fill="#070E20"/>
<path d="M61.421 75.5892C60.2785 77.6914 60.6897 80.1592 60.6897 80.1592C60.6897 80.1592 63.0205 79.1996 64.163 77.0974C65.3055 74.9951 64.8942 72.5273 64.8942 72.5273C64.8942 72.5273 62.5635 73.487 61.421 75.5892Z" fill="#070E20"/>
<path d="M66.4023 80.9817C64.2087 81.9871 61.7866 81.3473 61.7866 81.3473C61.7866 81.3473 62.9291 79.108 65.1227 78.1483C67.3163 77.1429 69.7384 77.7827 69.7384 77.7827C69.7384 77.7827 68.5959 79.9763 66.4023 80.9817Z" fill="#070E20"/>
<path d="M52.7838 80.2491C50.9101 81.8029 50.4531 84.225 50.4531 84.225C50.4531 84.225 52.9666 84.1793 54.7946 82.6712C56.6683 81.1174 57.1253 78.6953 57.1253 78.6953C57.1253 78.6953 54.6575 78.6953 52.7838 80.2491Z" fill="#070E20"/>
<path d="M55.4344 87.1039C53.0122 87.1953 51.0015 85.7329 51.0015 85.7329C51.0015 85.7329 52.8752 84.0877 55.2973 83.9963C57.7194 83.9049 59.7302 85.3673 59.7302 85.3673C59.7302 85.3673 57.8108 86.9668 55.4344 87.1039Z" fill="#070E20"/>
<path d="M44.8321 82.6262C42.6842 83.6773 41.5874 85.9623 41.5874 85.9623C41.5874 85.9623 44.0095 86.5107 46.2031 85.4596C48.351 84.4085 49.4478 82.1235 49.4478 82.1235C49.4478 82.1235 47.0257 81.5751 44.8321 82.6262Z" fill="#070E20"/>
<path d="M45.7918 89.8925C43.4154 89.4355 41.8159 87.5161 41.8159 87.5161C41.8159 87.5161 44.0552 86.3736 46.3859 86.8306C48.7623 87.2876 50.3618 89.207 50.3618 89.207C50.3618 89.207 48.1682 90.3495 45.7918 89.8925Z" fill="#070E20"/>
<path d="M76.0451 38.2966C76.365 40.673 75.0397 42.8209 75.0397 42.8209C75.0397 42.8209 73.2574 41.0843 72.9375 38.7079C72.6176 36.3315 73.9429 34.1836 73.9429 34.1836C73.9429 34.1836 75.7252 35.9202 76.0451 38.2966Z" fill="#070E20"/>
<path d="M7.63047 48.4887C6.57937 50.6366 4.29437 51.7335 4.29437 51.7335C4.29437 51.7335 3.74596 49.3113 4.79706 47.1177C5.84816 44.9698 8.13316 43.873 8.13316 43.873C8.13316 43.873 8.68157 46.3408 7.63047 48.4887Z" fill="#070E20"/>
<path d="M0.364251 47.529C0.821252 49.9054 2.74066 51.5049 2.74066 51.5049C2.74066 51.5049 3.88316 49.2656 3.42616 46.9349C2.96916 44.5585 1.04975 42.959 1.04975 42.959C1.04975 42.959 -0.0927503 45.1983 0.364251 47.529Z" fill="#070E20"/>
<path d="M8.36248 58.0848C7.85978 60.4612 5.94038 62.0608 5.94038 62.0608C5.94038 62.0608 4.79787 59.8214 5.25488 57.4907C5.75758 55.1143 7.67697 53.5605 7.67697 53.5605C7.67697 53.5605 8.81948 55.7084 8.36248 58.0848Z" fill="#070E20"/>
<path d="M1.05013 58.9517C2.10123 61.0996 4.34054 62.1964 4.34054 62.1964C4.34054 62.1964 4.93464 59.7743 3.88354 57.5807C2.83244 55.4328 0.593129 54.3359 0.593129 54.3359C0.593129 54.3359 0.0447277 56.8038 1.05013 58.9517Z" fill="#070E20"/>
<path d="M11.7434 68.5958C11.8805 71.0179 10.4181 73.0287 10.4181 73.0287C10.4181 73.0287 8.72723 71.155 8.59013 68.7786C8.45303 66.3565 9.91544 64.3457 9.91544 64.3457C9.91544 64.3457 11.6063 66.2194 11.7434 68.5958Z" fill="#070E20"/>
<path d="M4.93425 71.3376C6.48806 73.1656 8.95588 73.6226 8.95588 73.6226C8.95588 73.6226 8.91017 71.1091 7.31066 69.2811C5.75686 67.4531 3.28906 66.9961 3.28906 66.9961C3.28906 66.9961 3.38045 69.5096 4.93425 71.3376Z" fill="#070E20"/>
<path d="M18.37 75.5892C19.5125 77.6914 19.1012 80.1592 19.1012 80.1592C19.1012 80.1592 16.7705 79.1996 15.628 77.0974C14.4855 74.9951 14.8968 72.5273 14.8968 72.5273C14.8968 72.5273 17.2275 73.487 18.37 75.5892Z" fill="#070E20"/>
<path d="M13.3888 80.9817C15.5824 81.9871 18.0046 81.3473 18.0046 81.3473C18.0046 81.3473 16.8621 79.108 14.6685 78.1483C12.4749 77.1429 10.0527 77.7827 10.0527 77.7827C10.0527 77.7827 11.1952 79.9763 13.3888 80.9817Z" fill="#070E20"/>
<path d="M27.0075 80.2491C28.8812 81.8029 29.3382 84.225 29.3382 84.225C29.3382 84.225 26.8247 84.1793 24.9967 82.6712C23.123 81.1174 22.666 78.6953 22.666 78.6953C22.666 78.6953 25.1338 78.6953 27.0075 80.2491Z" fill="#070E20"/>
<path d="M24.3568 87.1039C26.7789 87.1953 28.7897 85.7329 28.7897 85.7329C28.7897 85.7329 26.9161 84.0877 24.4939 83.9963C22.0718 83.9049 20.061 85.3673 20.061 85.3673C20.061 85.3673 21.9804 86.9668 24.3568 87.1039Z" fill="#070E20"/>
<path d="M34.959 82.6262C37.1069 83.6773 38.2037 85.9623 38.2037 85.9623C38.2037 85.9623 35.7816 86.5107 33.588 85.4596C31.4401 84.4085 30.3433 82.1235 30.3433 82.1235C30.3433 82.1235 32.7654 81.5751 34.959 82.6262Z" fill="#070E20"/>
<path d="M33.9992 89.8925C36.3756 89.4355 37.9751 87.5161 37.9751 87.5161C37.9751 87.5161 35.7358 86.3736 33.4051 86.8306C31.0287 87.2876 29.4292 89.207 29.4292 89.207C29.4292 89.207 31.6228 90.3495 33.9992 89.8925Z" fill="#070E20"/>
<path d="M3.74611 38.2966C3.42621 40.673 4.75152 42.8209 4.75152 42.8209C4.75152 42.8209 6.53381 41.0843 6.85371 38.7079C7.17361 36.3315 5.8483 34.1836 5.8483 34.1836C5.8483 34.1836 4.06601 35.9202 3.74611 38.2966Z" fill="#070E20"/>
<path d="M47.6639 10.1455C47.6639 10.1455 40.3062 10.7853 31.806 10.1455C31.7603 9.6428 31.806 6.99219 31.806 6.99219C40.6261 7.67769 47.6639 6.99219 47.6639 6.99219V10.1455Z" fill="#070E20"/>
<path d="M47.6642 10.237C47.3443 10.2827 41.1749 10.9683 31.8063 10.237C31.395 9.87145 31.8063 9.50586 31.8063 9.50586C40.5808 10.1914 47.6642 9.50586 47.6642 9.50586C47.6642 9.50586 48.0298 9.82575 47.6642 10.237Z" fill="#070E20"/>
<path d="M45.3335 7.12893H47.6185L48.4868 1.73633L45.3335 7.12893Z" fill="#070E20"/>
<path d="M44.4196 0.777344L41.5405 7.26673V7.35814H45.4707V7.17536L44.4196 0.777344Z" fill="#070E20"/>
<path d="M39.7578 0.501953H39.7121L37.8384 6.94568L35.0507 0.593359L33.9996 6.80856L30.9834 1.59877L31.8517 6.99137H33.9996V7.03706V7.21987H37.7927L37.747 7.31128H37.7013V7.35697H41.7229V7.03706L39.7578 0.501953Z" fill="#070E20"/>
<path d="M47.6642 7.58666C47.3443 7.63236 41.1749 8.31786 31.8063 7.58666C31.395 7.22106 31.8063 6.85547 31.8063 6.85547C40.5808 7.54097 47.6642 6.85547 47.6642 6.85547C47.6642 6.85547 48.0298 7.12966 47.6642 7.58666Z" fill="#070E20"/>
<path d="M39.7125 1.09679C40.0153 1.09679 40.2609 0.85128 40.2609 0.548407C40.2609 0.245533 40.0153 0 39.7125 0C39.4096 0 39.1641 0.245533 39.1641 0.548407C39.1641 0.85128 39.4096 1.09679 39.7125 1.09679Z" fill="#070E20"/>
<path d="M44.4195 1.50892C44.7224 1.50892 44.9679 1.26339 44.9679 0.960516C44.9679 0.657642 44.7224 0.412109 44.4195 0.412109C44.1166 0.412109 43.8711 0.657642 43.8711 0.960516C43.8711 1.26339 44.1166 1.50892 44.4195 1.50892Z" fill="#070E20"/>
<path d="M48.4869 2.46788C48.7898 2.46788 49.0353 2.22237 49.0353 1.9195C49.0353 1.61663 48.7898 1.37109 48.4869 1.37109C48.184 1.37109 47.9385 1.61663 47.9385 1.9195C47.9385 2.22237 48.184 2.46788 48.4869 2.46788Z" fill="#070E20"/>
<path d="M35.5079 0.685125C35.5079 1.00503 35.2794 1.23353 34.9595 1.23353C34.6396 1.23353 34.4111 1.00503 34.4111 0.685125C34.4111 0.365225 34.6396 0.136719 34.9595 0.136719C35.2794 0.136719 35.5079 0.365225 35.5079 0.685125Z" fill="#070E20"/>
<path d="M30.9376 2.19447C31.2404 2.19447 31.486 1.94894 31.486 1.64606C31.486 1.34319 31.2404 1.09766 30.9376 1.09766C30.6347 1.09766 30.3892 1.34319 30.3892 1.64606C30.3892 1.94894 30.6347 2.19447 30.9376 2.19447Z" fill="#070E20"/>
</svg>
